G04 #@! TF.GenerationSoftware,KiCad,Pcbnew,5.0.2+dfsg1-1*
G04 #@! TF.CreationDate,2020-09-22T14:37:19+02:00*
G04 #@! TF.ProjectId,ledmatrix10,6c65646d-6174-4726-9978-31302e6b6963,rev?*
G04 #@! TF.SameCoordinates,Original*
G04 #@! TF.FileFunction,Soldermask,Bot*
G04 #@! TF.FilePolarity,Negative*
%FSLAX46Y46*%
G04 Gerber Fmt 4.6, Leading zero omitted, Abs format (unit mm)*
G04 Created by KiCad (PCBNEW 5.0.2+dfsg1-1) date Tue 22 Sep 2020 02:37:19 PM CEST*
%MOMM*%
%LPD*%
G01*
G04 APERTURE LIST*
%ADD10C,0.100000*%
G04 APERTURE END LIST*
D10*
G36*
X163801000Y-147051000D02*
X161199000Y-147051000D01*
X161199000Y-145949000D01*
X163801000Y-145949000D01*
X163801000Y-147051000D01*
X163801000Y-147051000D01*
G37*
G36*
X143801000Y-147051000D02*
X141199000Y-147051000D01*
X141199000Y-145949000D01*
X143801000Y-145949000D01*
X143801000Y-147051000D01*
X143801000Y-147051000D01*
G37*
G36*
X188801000Y-147051000D02*
X186199000Y-147051000D01*
X186199000Y-145949000D01*
X188801000Y-145949000D01*
X188801000Y-147051000D01*
X188801000Y-147051000D01*
G37*
G36*
X183801000Y-147051000D02*
X181199000Y-147051000D01*
X181199000Y-145949000D01*
X183801000Y-145949000D01*
X183801000Y-147051000D01*
X183801000Y-147051000D01*
G37*
G36*
X198801000Y-147051000D02*
X196199000Y-147051000D01*
X196199000Y-145949000D01*
X198801000Y-145949000D01*
X198801000Y-147051000D01*
X198801000Y-147051000D01*
G37*
G36*
X178801000Y-147051000D02*
X176199000Y-147051000D01*
X176199000Y-145949000D01*
X178801000Y-145949000D01*
X178801000Y-147051000D01*
X178801000Y-147051000D01*
G37*
G36*
X173801000Y-147051000D02*
X171199000Y-147051000D01*
X171199000Y-145949000D01*
X173801000Y-145949000D01*
X173801000Y-147051000D01*
X173801000Y-147051000D01*
G37*
G36*
X108801000Y-147051000D02*
X106199000Y-147051000D01*
X106199000Y-145949000D01*
X108801000Y-145949000D01*
X108801000Y-147051000D01*
X108801000Y-147051000D01*
G37*
G36*
X103801000Y-147051000D02*
X101199000Y-147051000D01*
X101199000Y-145949000D01*
X103801000Y-145949000D01*
X103801000Y-147051000D01*
X103801000Y-147051000D01*
G37*
G36*
X148801000Y-147051000D02*
X146199000Y-147051000D01*
X146199000Y-145949000D01*
X148801000Y-145949000D01*
X148801000Y-147051000D01*
X148801000Y-147051000D01*
G37*
G36*
X193801000Y-147051000D02*
X191199000Y-147051000D01*
X191199000Y-145949000D01*
X193801000Y-145949000D01*
X193801000Y-147051000D01*
X193801000Y-147051000D01*
G37*
G36*
X113801000Y-147051000D02*
X111199000Y-147051000D01*
X111199000Y-145949000D01*
X113801000Y-145949000D01*
X113801000Y-147051000D01*
X113801000Y-147051000D01*
G37*
G36*
X128801000Y-147051000D02*
X126199000Y-147051000D01*
X126199000Y-145949000D01*
X128801000Y-145949000D01*
X128801000Y-147051000D01*
X128801000Y-147051000D01*
G37*
G36*
X123801000Y-147051000D02*
X121199000Y-147051000D01*
X121199000Y-145949000D01*
X123801000Y-145949000D01*
X123801000Y-147051000D01*
X123801000Y-147051000D01*
G37*
G36*
X138801000Y-147051000D02*
X136199000Y-147051000D01*
X136199000Y-145949000D01*
X138801000Y-145949000D01*
X138801000Y-147051000D01*
X138801000Y-147051000D01*
G37*
G36*
X133801000Y-147051000D02*
X131199000Y-147051000D01*
X131199000Y-145949000D01*
X133801000Y-145949000D01*
X133801000Y-147051000D01*
X133801000Y-147051000D01*
G37*
G36*
X158801000Y-147051000D02*
X156199000Y-147051000D01*
X156199000Y-145949000D01*
X158801000Y-145949000D01*
X158801000Y-147051000D01*
X158801000Y-147051000D01*
G37*
G36*
X153801000Y-147051000D02*
X151199000Y-147051000D01*
X151199000Y-145949000D01*
X153801000Y-145949000D01*
X153801000Y-147051000D01*
X153801000Y-147051000D01*
G37*
G36*
X168801000Y-147051000D02*
X166199000Y-147051000D01*
X166199000Y-145949000D01*
X168801000Y-145949000D01*
X168801000Y-147051000D01*
X168801000Y-147051000D01*
G37*
G36*
X118801000Y-147051000D02*
X116199000Y-147051000D01*
X116199000Y-145949000D01*
X118801000Y-145949000D01*
X118801000Y-147051000D01*
X118801000Y-147051000D01*
G37*
G36*
X128801000Y-145551000D02*
X126199000Y-145551000D01*
X126199000Y-144449000D01*
X128801000Y-144449000D01*
X128801000Y-145551000D01*
X128801000Y-145551000D01*
G37*
G36*
X113801000Y-145551000D02*
X111199000Y-145551000D01*
X111199000Y-144449000D01*
X113801000Y-144449000D01*
X113801000Y-145551000D01*
X113801000Y-145551000D01*
G37*
G36*
X118801000Y-145551000D02*
X116199000Y-145551000D01*
X116199000Y-144449000D01*
X118801000Y-144449000D01*
X118801000Y-145551000D01*
X118801000Y-145551000D01*
G37*
G36*
X183801000Y-145551000D02*
X181199000Y-145551000D01*
X181199000Y-144449000D01*
X183801000Y-144449000D01*
X183801000Y-145551000D01*
X183801000Y-145551000D01*
G37*
G36*
X148801000Y-145551000D02*
X146199000Y-145551000D01*
X146199000Y-144449000D01*
X148801000Y-144449000D01*
X148801000Y-145551000D01*
X148801000Y-145551000D01*
G37*
G36*
X103801000Y-145551000D02*
X101199000Y-145551000D01*
X101199000Y-144449000D01*
X103801000Y-144449000D01*
X103801000Y-145551000D01*
X103801000Y-145551000D01*
G37*
G36*
X173801000Y-145551000D02*
X171199000Y-145551000D01*
X171199000Y-144449000D01*
X173801000Y-144449000D01*
X173801000Y-145551000D01*
X173801000Y-145551000D01*
G37*
G36*
X178801000Y-145551000D02*
X176199000Y-145551000D01*
X176199000Y-144449000D01*
X178801000Y-144449000D01*
X178801000Y-145551000D01*
X178801000Y-145551000D01*
G37*
G36*
X188801000Y-145551000D02*
X186199000Y-145551000D01*
X186199000Y-144449000D01*
X188801000Y-144449000D01*
X188801000Y-145551000D01*
X188801000Y-145551000D01*
G37*
G36*
X108801000Y-145551000D02*
X106199000Y-145551000D01*
X106199000Y-144449000D01*
X108801000Y-144449000D01*
X108801000Y-145551000D01*
X108801000Y-145551000D01*
G37*
G36*
X123801000Y-145551000D02*
X121199000Y-145551000D01*
X121199000Y-144449000D01*
X123801000Y-144449000D01*
X123801000Y-145551000D01*
X123801000Y-145551000D01*
G37*
G36*
X138801000Y-145551000D02*
X136199000Y-145551000D01*
X136199000Y-144449000D01*
X138801000Y-144449000D01*
X138801000Y-145551000D01*
X138801000Y-145551000D01*
G37*
G36*
X193801000Y-145551000D02*
X191199000Y-145551000D01*
X191199000Y-144449000D01*
X193801000Y-144449000D01*
X193801000Y-145551000D01*
X193801000Y-145551000D01*
G37*
G36*
X198801000Y-145551000D02*
X196199000Y-145551000D01*
X196199000Y-144449000D01*
X198801000Y-144449000D01*
X198801000Y-145551000D01*
X198801000Y-145551000D01*
G37*
G36*
X168801000Y-145551000D02*
X166199000Y-145551000D01*
X166199000Y-144449000D01*
X168801000Y-144449000D01*
X168801000Y-145551000D01*
X168801000Y-145551000D01*
G37*
G36*
X143801000Y-145551000D02*
X141199000Y-145551000D01*
X141199000Y-144449000D01*
X143801000Y-144449000D01*
X143801000Y-145551000D01*
X143801000Y-145551000D01*
G37*
G36*
X133801000Y-145551000D02*
X131199000Y-145551000D01*
X131199000Y-144449000D01*
X133801000Y-144449000D01*
X133801000Y-145551000D01*
X133801000Y-145551000D01*
G37*
G36*
X158801000Y-145551000D02*
X156199000Y-145551000D01*
X156199000Y-144449000D01*
X158801000Y-144449000D01*
X158801000Y-145551000D01*
X158801000Y-145551000D01*
G37*
G36*
X153801000Y-145551000D02*
X151199000Y-145551000D01*
X151199000Y-144449000D01*
X153801000Y-144449000D01*
X153801000Y-145551000D01*
X153801000Y-145551000D01*
G37*
G36*
X163801000Y-145551000D02*
X161199000Y-145551000D01*
X161199000Y-144449000D01*
X163801000Y-144449000D01*
X163801000Y-145551000D01*
X163801000Y-145551000D01*
G37*
G36*
X163801000Y-144051000D02*
X161199000Y-144051000D01*
X161199000Y-142949000D01*
X163801000Y-142949000D01*
X163801000Y-144051000D01*
X163801000Y-144051000D01*
G37*
G36*
X168801000Y-144051000D02*
X166199000Y-144051000D01*
X166199000Y-142949000D01*
X168801000Y-142949000D01*
X168801000Y-144051000D01*
X168801000Y-144051000D01*
G37*
G36*
X153801000Y-144051000D02*
X151199000Y-144051000D01*
X151199000Y-142949000D01*
X153801000Y-142949000D01*
X153801000Y-144051000D01*
X153801000Y-144051000D01*
G37*
G36*
X113801000Y-144051000D02*
X111199000Y-144051000D01*
X111199000Y-142949000D01*
X113801000Y-142949000D01*
X113801000Y-144051000D01*
X113801000Y-144051000D01*
G37*
G36*
X118801000Y-144051000D02*
X116199000Y-144051000D01*
X116199000Y-142949000D01*
X118801000Y-142949000D01*
X118801000Y-144051000D01*
X118801000Y-144051000D01*
G37*
G36*
X123801000Y-144051000D02*
X121199000Y-144051000D01*
X121199000Y-142949000D01*
X123801000Y-142949000D01*
X123801000Y-144051000D01*
X123801000Y-144051000D01*
G37*
G36*
X158801000Y-144051000D02*
X156199000Y-144051000D01*
X156199000Y-142949000D01*
X158801000Y-142949000D01*
X158801000Y-144051000D01*
X158801000Y-144051000D01*
G37*
G36*
X133801000Y-144051000D02*
X131199000Y-144051000D01*
X131199000Y-142949000D01*
X133801000Y-142949000D01*
X133801000Y-144051000D01*
X133801000Y-144051000D01*
G37*
G36*
X128801000Y-144051000D02*
X126199000Y-144051000D01*
X126199000Y-142949000D01*
X128801000Y-142949000D01*
X128801000Y-144051000D01*
X128801000Y-144051000D01*
G37*
G36*
X138801000Y-144051000D02*
X136199000Y-144051000D01*
X136199000Y-142949000D01*
X138801000Y-142949000D01*
X138801000Y-144051000D01*
X138801000Y-144051000D01*
G37*
G36*
X173801000Y-144051000D02*
X171199000Y-144051000D01*
X171199000Y-142949000D01*
X173801000Y-142949000D01*
X173801000Y-144051000D01*
X173801000Y-144051000D01*
G37*
G36*
X108801000Y-144051000D02*
X106199000Y-144051000D01*
X106199000Y-142949000D01*
X108801000Y-142949000D01*
X108801000Y-144051000D01*
X108801000Y-144051000D01*
G37*
G36*
X103801000Y-144051000D02*
X101199000Y-144051000D01*
X101199000Y-142949000D01*
X103801000Y-142949000D01*
X103801000Y-144051000D01*
X103801000Y-144051000D01*
G37*
G36*
X148801000Y-144051000D02*
X146199000Y-144051000D01*
X146199000Y-142949000D01*
X148801000Y-142949000D01*
X148801000Y-144051000D01*
X148801000Y-144051000D01*
G37*
G36*
X143801000Y-144051000D02*
X141199000Y-144051000D01*
X141199000Y-142949000D01*
X143801000Y-142949000D01*
X143801000Y-144051000D01*
X143801000Y-144051000D01*
G37*
G36*
X198801000Y-144051000D02*
X196199000Y-144051000D01*
X196199000Y-142949000D01*
X198801000Y-142949000D01*
X198801000Y-144051000D01*
X198801000Y-144051000D01*
G37*
G36*
X193801000Y-144051000D02*
X191199000Y-144051000D01*
X191199000Y-142949000D01*
X193801000Y-142949000D01*
X193801000Y-144051000D01*
X193801000Y-144051000D01*
G37*
G36*
X188801000Y-144051000D02*
X186199000Y-144051000D01*
X186199000Y-142949000D01*
X188801000Y-142949000D01*
X188801000Y-144051000D01*
X188801000Y-144051000D01*
G37*
G36*
X183801000Y-144051000D02*
X181199000Y-144051000D01*
X181199000Y-142949000D01*
X183801000Y-142949000D01*
X183801000Y-144051000D01*
X183801000Y-144051000D01*
G37*
G36*
X178801000Y-144051000D02*
X176199000Y-144051000D01*
X176199000Y-142949000D01*
X178801000Y-142949000D01*
X178801000Y-144051000D01*
X178801000Y-144051000D01*
G37*
G36*
X190598252Y-138027818D02*
X190598254Y-138027819D01*
X190598255Y-138027819D01*
X190971513Y-138182427D01*
X190971514Y-138182428D01*
X191307439Y-138406886D01*
X191593114Y-138692561D01*
X191593116Y-138692564D01*
X191817573Y-139028487D01*
X191972181Y-139401745D01*
X192051000Y-139797994D01*
X192051000Y-140202006D01*
X191972181Y-140598255D01*
X191817573Y-140971513D01*
X191817572Y-140971514D01*
X191593114Y-141307439D01*
X191307439Y-141593114D01*
X191307436Y-141593116D01*
X190971513Y-141817573D01*
X190598255Y-141972181D01*
X190598254Y-141972181D01*
X190598252Y-141972182D01*
X190202007Y-142051000D01*
X189797993Y-142051000D01*
X189401748Y-141972182D01*
X189401746Y-141972181D01*
X189401745Y-141972181D01*
X189028487Y-141817573D01*
X188692564Y-141593116D01*
X188692561Y-141593114D01*
X188406886Y-141307439D01*
X188182428Y-140971514D01*
X188182427Y-140971513D01*
X188027819Y-140598255D01*
X187949000Y-140202006D01*
X187949000Y-139797994D01*
X188027819Y-139401745D01*
X188182427Y-139028487D01*
X188406884Y-138692564D01*
X188406886Y-138692561D01*
X188692561Y-138406886D01*
X189028486Y-138182428D01*
X189028487Y-138182427D01*
X189401745Y-138027819D01*
X189401746Y-138027819D01*
X189401748Y-138027818D01*
X189797993Y-137949000D01*
X190202007Y-137949000D01*
X190598252Y-138027818D01*
X190598252Y-138027818D01*
G37*
G36*
X150598252Y-138027818D02*
X150598254Y-138027819D01*
X150598255Y-138027819D01*
X150971513Y-138182427D01*
X150971514Y-138182428D01*
X151307439Y-138406886D01*
X151593114Y-138692561D01*
X151593116Y-138692564D01*
X151817573Y-139028487D01*
X151972181Y-139401745D01*
X152051000Y-139797994D01*
X152051000Y-140202006D01*
X151972181Y-140598255D01*
X151817573Y-140971513D01*
X151817572Y-140971514D01*
X151593114Y-141307439D01*
X151307439Y-141593114D01*
X151307436Y-141593116D01*
X150971513Y-141817573D01*
X150598255Y-141972181D01*
X150598254Y-141972181D01*
X150598252Y-141972182D01*
X150202007Y-142051000D01*
X149797993Y-142051000D01*
X149401748Y-141972182D01*
X149401746Y-141972181D01*
X149401745Y-141972181D01*
X149028487Y-141817573D01*
X148692564Y-141593116D01*
X148692561Y-141593114D01*
X148406886Y-141307439D01*
X148182428Y-140971514D01*
X148182427Y-140971513D01*
X148027819Y-140598255D01*
X147949000Y-140202006D01*
X147949000Y-139797994D01*
X148027819Y-139401745D01*
X148182427Y-139028487D01*
X148406884Y-138692564D01*
X148406886Y-138692561D01*
X148692561Y-138406886D01*
X149028486Y-138182428D01*
X149028487Y-138182427D01*
X149401745Y-138027819D01*
X149401746Y-138027819D01*
X149401748Y-138027818D01*
X149797993Y-137949000D01*
X150202007Y-137949000D01*
X150598252Y-138027818D01*
X150598252Y-138027818D01*
G37*
G36*
X110598252Y-138027818D02*
X110598254Y-138027819D01*
X110598255Y-138027819D01*
X110971513Y-138182427D01*
X110971514Y-138182428D01*
X111307439Y-138406886D01*
X111593114Y-138692561D01*
X111593116Y-138692564D01*
X111817573Y-139028487D01*
X111972181Y-139401745D01*
X112051000Y-139797994D01*
X112051000Y-140202006D01*
X111972181Y-140598255D01*
X111817573Y-140971513D01*
X111817572Y-140971514D01*
X111593114Y-141307439D01*
X111307439Y-141593114D01*
X111307436Y-141593116D01*
X110971513Y-141817573D01*
X110598255Y-141972181D01*
X110598254Y-141972181D01*
X110598252Y-141972182D01*
X110202007Y-142051000D01*
X109797993Y-142051000D01*
X109401748Y-141972182D01*
X109401746Y-141972181D01*
X109401745Y-141972181D01*
X109028487Y-141817573D01*
X108692564Y-141593116D01*
X108692561Y-141593114D01*
X108406886Y-141307439D01*
X108182428Y-140971514D01*
X108182427Y-140971513D01*
X108027819Y-140598255D01*
X107949000Y-140202006D01*
X107949000Y-139797994D01*
X108027819Y-139401745D01*
X108182427Y-139028487D01*
X108406884Y-138692564D01*
X108406886Y-138692561D01*
X108692561Y-138406886D01*
X109028486Y-138182428D01*
X109028487Y-138182427D01*
X109401745Y-138027819D01*
X109401746Y-138027819D01*
X109401748Y-138027818D01*
X109797993Y-137949000D01*
X110202007Y-137949000D01*
X110598252Y-138027818D01*
X110598252Y-138027818D01*
G37*
G36*
X138801000Y-137051000D02*
X136199000Y-137051000D01*
X136199000Y-135949000D01*
X138801000Y-135949000D01*
X138801000Y-137051000D01*
X138801000Y-137051000D01*
G37*
G36*
X108801000Y-137051000D02*
X106199000Y-137051000D01*
X106199000Y-135949000D01*
X108801000Y-135949000D01*
X108801000Y-137051000D01*
X108801000Y-137051000D01*
G37*
G36*
X113801000Y-137051000D02*
X111199000Y-137051000D01*
X111199000Y-135949000D01*
X113801000Y-135949000D01*
X113801000Y-137051000D01*
X113801000Y-137051000D01*
G37*
G36*
X103801000Y-137051000D02*
X101199000Y-137051000D01*
X101199000Y-135949000D01*
X103801000Y-135949000D01*
X103801000Y-137051000D01*
X103801000Y-137051000D01*
G37*
G36*
X148801000Y-137051000D02*
X146199000Y-137051000D01*
X146199000Y-135949000D01*
X148801000Y-135949000D01*
X148801000Y-137051000D01*
X148801000Y-137051000D01*
G37*
G36*
X118801000Y-137051000D02*
X116199000Y-137051000D01*
X116199000Y-135949000D01*
X118801000Y-135949000D01*
X118801000Y-137051000D01*
X118801000Y-137051000D01*
G37*
G36*
X143801000Y-137051000D02*
X141199000Y-137051000D01*
X141199000Y-135949000D01*
X143801000Y-135949000D01*
X143801000Y-137051000D01*
X143801000Y-137051000D01*
G37*
G36*
X133801000Y-137051000D02*
X131199000Y-137051000D01*
X131199000Y-135949000D01*
X133801000Y-135949000D01*
X133801000Y-137051000D01*
X133801000Y-137051000D01*
G37*
G36*
X123801000Y-137051000D02*
X121199000Y-137051000D01*
X121199000Y-135949000D01*
X123801000Y-135949000D01*
X123801000Y-137051000D01*
X123801000Y-137051000D01*
G37*
G36*
X128801000Y-137051000D02*
X126199000Y-137051000D01*
X126199000Y-135949000D01*
X128801000Y-135949000D01*
X128801000Y-137051000D01*
X128801000Y-137051000D01*
G37*
G36*
X153801000Y-137051000D02*
X151199000Y-137051000D01*
X151199000Y-135949000D01*
X153801000Y-135949000D01*
X153801000Y-137051000D01*
X153801000Y-137051000D01*
G37*
G36*
X198801000Y-137051000D02*
X196199000Y-137051000D01*
X196199000Y-135949000D01*
X198801000Y-135949000D01*
X198801000Y-137051000D01*
X198801000Y-137051000D01*
G37*
G36*
X158801000Y-137051000D02*
X156199000Y-137051000D01*
X156199000Y-135949000D01*
X158801000Y-135949000D01*
X158801000Y-137051000D01*
X158801000Y-137051000D01*
G37*
G36*
X163801000Y-137051000D02*
X161199000Y-137051000D01*
X161199000Y-135949000D01*
X163801000Y-135949000D01*
X163801000Y-137051000D01*
X163801000Y-137051000D01*
G37*
G36*
X168801000Y-137051000D02*
X166199000Y-137051000D01*
X166199000Y-135949000D01*
X168801000Y-135949000D01*
X168801000Y-137051000D01*
X168801000Y-137051000D01*
G37*
G36*
X173801000Y-137051000D02*
X171199000Y-137051000D01*
X171199000Y-135949000D01*
X173801000Y-135949000D01*
X173801000Y-137051000D01*
X173801000Y-137051000D01*
G37*
G36*
X183801000Y-137051000D02*
X181199000Y-137051000D01*
X181199000Y-135949000D01*
X183801000Y-135949000D01*
X183801000Y-137051000D01*
X183801000Y-137051000D01*
G37*
G36*
X193801000Y-137051000D02*
X191199000Y-137051000D01*
X191199000Y-135949000D01*
X193801000Y-135949000D01*
X193801000Y-137051000D01*
X193801000Y-137051000D01*
G37*
G36*
X188801000Y-137051000D02*
X186199000Y-137051000D01*
X186199000Y-135949000D01*
X188801000Y-135949000D01*
X188801000Y-137051000D01*
X188801000Y-137051000D01*
G37*
G36*
X178801000Y-137051000D02*
X176199000Y-137051000D01*
X176199000Y-135949000D01*
X178801000Y-135949000D01*
X178801000Y-137051000D01*
X178801000Y-137051000D01*
G37*
G36*
X113801000Y-135551000D02*
X111199000Y-135551000D01*
X111199000Y-134449000D01*
X113801000Y-134449000D01*
X113801000Y-135551000D01*
X113801000Y-135551000D01*
G37*
G36*
X178801000Y-135551000D02*
X176199000Y-135551000D01*
X176199000Y-134449000D01*
X178801000Y-134449000D01*
X178801000Y-135551000D01*
X178801000Y-135551000D01*
G37*
G36*
X173801000Y-135551000D02*
X171199000Y-135551000D01*
X171199000Y-134449000D01*
X173801000Y-134449000D01*
X173801000Y-135551000D01*
X173801000Y-135551000D01*
G37*
G36*
X168801000Y-135551000D02*
X166199000Y-135551000D01*
X166199000Y-134449000D01*
X168801000Y-134449000D01*
X168801000Y-135551000D01*
X168801000Y-135551000D01*
G37*
G36*
X193801000Y-135551000D02*
X191199000Y-135551000D01*
X191199000Y-134449000D01*
X193801000Y-134449000D01*
X193801000Y-135551000D01*
X193801000Y-135551000D01*
G37*
G36*
X198801000Y-135551000D02*
X196199000Y-135551000D01*
X196199000Y-134449000D01*
X198801000Y-134449000D01*
X198801000Y-135551000D01*
X198801000Y-135551000D01*
G37*
G36*
X163801000Y-135551000D02*
X161199000Y-135551000D01*
X161199000Y-134449000D01*
X163801000Y-134449000D01*
X163801000Y-135551000D01*
X163801000Y-135551000D01*
G37*
G36*
X148801000Y-135551000D02*
X146199000Y-135551000D01*
X146199000Y-134449000D01*
X148801000Y-134449000D01*
X148801000Y-135551000D01*
X148801000Y-135551000D01*
G37*
G36*
X103801000Y-135551000D02*
X101199000Y-135551000D01*
X101199000Y-134449000D01*
X103801000Y-134449000D01*
X103801000Y-135551000D01*
X103801000Y-135551000D01*
G37*
G36*
X108801000Y-135551000D02*
X106199000Y-135551000D01*
X106199000Y-134449000D01*
X108801000Y-134449000D01*
X108801000Y-135551000D01*
X108801000Y-135551000D01*
G37*
G36*
X118801000Y-135551000D02*
X116199000Y-135551000D01*
X116199000Y-134449000D01*
X118801000Y-134449000D01*
X118801000Y-135551000D01*
X118801000Y-135551000D01*
G37*
G36*
X158801000Y-135551000D02*
X156199000Y-135551000D01*
X156199000Y-134449000D01*
X158801000Y-134449000D01*
X158801000Y-135551000D01*
X158801000Y-135551000D01*
G37*
G36*
X183801000Y-135551000D02*
X181199000Y-135551000D01*
X181199000Y-134449000D01*
X183801000Y-134449000D01*
X183801000Y-135551000D01*
X183801000Y-135551000D01*
G37*
G36*
X123801000Y-135551000D02*
X121199000Y-135551000D01*
X121199000Y-134449000D01*
X123801000Y-134449000D01*
X123801000Y-135551000D01*
X123801000Y-135551000D01*
G37*
G36*
X128801000Y-135551000D02*
X126199000Y-135551000D01*
X126199000Y-134449000D01*
X128801000Y-134449000D01*
X128801000Y-135551000D01*
X128801000Y-135551000D01*
G37*
G36*
X188801000Y-135551000D02*
X186199000Y-135551000D01*
X186199000Y-134449000D01*
X188801000Y-134449000D01*
X188801000Y-135551000D01*
X188801000Y-135551000D01*
G37*
G36*
X143801000Y-135551000D02*
X141199000Y-135551000D01*
X141199000Y-134449000D01*
X143801000Y-134449000D01*
X143801000Y-135551000D01*
X143801000Y-135551000D01*
G37*
G36*
X133801000Y-135551000D02*
X131199000Y-135551000D01*
X131199000Y-134449000D01*
X133801000Y-134449000D01*
X133801000Y-135551000D01*
X133801000Y-135551000D01*
G37*
G36*
X153801000Y-135551000D02*
X151199000Y-135551000D01*
X151199000Y-134449000D01*
X153801000Y-134449000D01*
X153801000Y-135551000D01*
X153801000Y-135551000D01*
G37*
G36*
X138801000Y-135551000D02*
X136199000Y-135551000D01*
X136199000Y-134449000D01*
X138801000Y-134449000D01*
X138801000Y-135551000D01*
X138801000Y-135551000D01*
G37*
G36*
X168801000Y-134051000D02*
X166199000Y-134051000D01*
X166199000Y-132949000D01*
X168801000Y-132949000D01*
X168801000Y-134051000D01*
X168801000Y-134051000D01*
G37*
G36*
X153801000Y-134051000D02*
X151199000Y-134051000D01*
X151199000Y-132949000D01*
X153801000Y-132949000D01*
X153801000Y-134051000D01*
X153801000Y-134051000D01*
G37*
G36*
X148801000Y-134051000D02*
X146199000Y-134051000D01*
X146199000Y-132949000D01*
X148801000Y-132949000D01*
X148801000Y-134051000D01*
X148801000Y-134051000D01*
G37*
G36*
X143801000Y-134051000D02*
X141199000Y-134051000D01*
X141199000Y-132949000D01*
X143801000Y-132949000D01*
X143801000Y-134051000D01*
X143801000Y-134051000D01*
G37*
G36*
X183801000Y-134051000D02*
X181199000Y-134051000D01*
X181199000Y-132949000D01*
X183801000Y-132949000D01*
X183801000Y-134051000D01*
X183801000Y-134051000D01*
G37*
G36*
X188801000Y-134051000D02*
X186199000Y-134051000D01*
X186199000Y-132949000D01*
X188801000Y-132949000D01*
X188801000Y-134051000D01*
X188801000Y-134051000D01*
G37*
G36*
X193801000Y-134051000D02*
X191199000Y-134051000D01*
X191199000Y-132949000D01*
X193801000Y-132949000D01*
X193801000Y-134051000D01*
X193801000Y-134051000D01*
G37*
G36*
X128801000Y-134051000D02*
X126199000Y-134051000D01*
X126199000Y-132949000D01*
X128801000Y-132949000D01*
X128801000Y-134051000D01*
X128801000Y-134051000D01*
G37*
G36*
X123801000Y-134051000D02*
X121199000Y-134051000D01*
X121199000Y-132949000D01*
X123801000Y-132949000D01*
X123801000Y-134051000D01*
X123801000Y-134051000D01*
G37*
G36*
X103801000Y-134051000D02*
X101199000Y-134051000D01*
X101199000Y-132949000D01*
X103801000Y-132949000D01*
X103801000Y-134051000D01*
X103801000Y-134051000D01*
G37*
G36*
X163801000Y-134051000D02*
X161199000Y-134051000D01*
X161199000Y-132949000D01*
X163801000Y-132949000D01*
X163801000Y-134051000D01*
X163801000Y-134051000D01*
G37*
G36*
X158801000Y-134051000D02*
X156199000Y-134051000D01*
X156199000Y-132949000D01*
X158801000Y-132949000D01*
X158801000Y-134051000D01*
X158801000Y-134051000D01*
G37*
G36*
X113801000Y-134051000D02*
X111199000Y-134051000D01*
X111199000Y-132949000D01*
X113801000Y-132949000D01*
X113801000Y-134051000D01*
X113801000Y-134051000D01*
G37*
G36*
X118801000Y-134051000D02*
X116199000Y-134051000D01*
X116199000Y-132949000D01*
X118801000Y-132949000D01*
X118801000Y-134051000D01*
X118801000Y-134051000D01*
G37*
G36*
X133801000Y-134051000D02*
X131199000Y-134051000D01*
X131199000Y-132949000D01*
X133801000Y-132949000D01*
X133801000Y-134051000D01*
X133801000Y-134051000D01*
G37*
G36*
X108801000Y-134051000D02*
X106199000Y-134051000D01*
X106199000Y-132949000D01*
X108801000Y-132949000D01*
X108801000Y-134051000D01*
X108801000Y-134051000D01*
G37*
G36*
X178801000Y-134051000D02*
X176199000Y-134051000D01*
X176199000Y-132949000D01*
X178801000Y-132949000D01*
X178801000Y-134051000D01*
X178801000Y-134051000D01*
G37*
G36*
X173801000Y-134051000D02*
X171199000Y-134051000D01*
X171199000Y-132949000D01*
X173801000Y-132949000D01*
X173801000Y-134051000D01*
X173801000Y-134051000D01*
G37*
G36*
X138801000Y-134051000D02*
X136199000Y-134051000D01*
X136199000Y-132949000D01*
X138801000Y-132949000D01*
X138801000Y-134051000D01*
X138801000Y-134051000D01*
G37*
G36*
X198801000Y-134051000D02*
X196199000Y-134051000D01*
X196199000Y-132949000D01*
X198801000Y-132949000D01*
X198801000Y-134051000D01*
X198801000Y-134051000D01*
G37*
G36*
X153801000Y-127051000D02*
X151199000Y-127051000D01*
X151199000Y-125949000D01*
X153801000Y-125949000D01*
X153801000Y-127051000D01*
X153801000Y-127051000D01*
G37*
G36*
X158801000Y-127051000D02*
X156199000Y-127051000D01*
X156199000Y-125949000D01*
X158801000Y-125949000D01*
X158801000Y-127051000D01*
X158801000Y-127051000D01*
G37*
G36*
X193801000Y-127051000D02*
X191199000Y-127051000D01*
X191199000Y-125949000D01*
X193801000Y-125949000D01*
X193801000Y-127051000D01*
X193801000Y-127051000D01*
G37*
G36*
X148801000Y-127051000D02*
X146199000Y-127051000D01*
X146199000Y-125949000D01*
X148801000Y-125949000D01*
X148801000Y-127051000D01*
X148801000Y-127051000D01*
G37*
G36*
X143801000Y-127051000D02*
X141199000Y-127051000D01*
X141199000Y-125949000D01*
X143801000Y-125949000D01*
X143801000Y-127051000D01*
X143801000Y-127051000D01*
G37*
G36*
X198801000Y-127051000D02*
X196199000Y-127051000D01*
X196199000Y-125949000D01*
X198801000Y-125949000D01*
X198801000Y-127051000D01*
X198801000Y-127051000D01*
G37*
G36*
X183801000Y-127051000D02*
X181199000Y-127051000D01*
X181199000Y-125949000D01*
X183801000Y-125949000D01*
X183801000Y-127051000D01*
X183801000Y-127051000D01*
G37*
G36*
X188801000Y-127051000D02*
X186199000Y-127051000D01*
X186199000Y-125949000D01*
X188801000Y-125949000D01*
X188801000Y-127051000D01*
X188801000Y-127051000D01*
G37*
G36*
X103801000Y-127051000D02*
X101199000Y-127051000D01*
X101199000Y-125949000D01*
X103801000Y-125949000D01*
X103801000Y-127051000D01*
X103801000Y-127051000D01*
G37*
G36*
X173801000Y-127051000D02*
X171199000Y-127051000D01*
X171199000Y-125949000D01*
X173801000Y-125949000D01*
X173801000Y-127051000D01*
X173801000Y-127051000D01*
G37*
G36*
X108801000Y-127051000D02*
X106199000Y-127051000D01*
X106199000Y-125949000D01*
X108801000Y-125949000D01*
X108801000Y-127051000D01*
X108801000Y-127051000D01*
G37*
G36*
X113801000Y-127051000D02*
X111199000Y-127051000D01*
X111199000Y-125949000D01*
X113801000Y-125949000D01*
X113801000Y-127051000D01*
X113801000Y-127051000D01*
G37*
G36*
X118801000Y-127051000D02*
X116199000Y-127051000D01*
X116199000Y-125949000D01*
X118801000Y-125949000D01*
X118801000Y-127051000D01*
X118801000Y-127051000D01*
G37*
G36*
X123801000Y-127051000D02*
X121199000Y-127051000D01*
X121199000Y-125949000D01*
X123801000Y-125949000D01*
X123801000Y-127051000D01*
X123801000Y-127051000D01*
G37*
G36*
X128801000Y-127051000D02*
X126199000Y-127051000D01*
X126199000Y-125949000D01*
X128801000Y-125949000D01*
X128801000Y-127051000D01*
X128801000Y-127051000D01*
G37*
G36*
X168801000Y-127051000D02*
X166199000Y-127051000D01*
X166199000Y-125949000D01*
X168801000Y-125949000D01*
X168801000Y-127051000D01*
X168801000Y-127051000D01*
G37*
G36*
X163801000Y-127051000D02*
X161199000Y-127051000D01*
X161199000Y-125949000D01*
X163801000Y-125949000D01*
X163801000Y-127051000D01*
X163801000Y-127051000D01*
G37*
G36*
X138801000Y-127051000D02*
X136199000Y-127051000D01*
X136199000Y-125949000D01*
X138801000Y-125949000D01*
X138801000Y-127051000D01*
X138801000Y-127051000D01*
G37*
G36*
X133801000Y-127051000D02*
X131199000Y-127051000D01*
X131199000Y-125949000D01*
X133801000Y-125949000D01*
X133801000Y-127051000D01*
X133801000Y-127051000D01*
G37*
G36*
X178801000Y-127051000D02*
X176199000Y-127051000D01*
X176199000Y-125949000D01*
X178801000Y-125949000D01*
X178801000Y-127051000D01*
X178801000Y-127051000D01*
G37*
G36*
X193801000Y-125551000D02*
X191199000Y-125551000D01*
X191199000Y-124449000D01*
X193801000Y-124449000D01*
X193801000Y-125551000D01*
X193801000Y-125551000D01*
G37*
G36*
X198801000Y-125551000D02*
X196199000Y-125551000D01*
X196199000Y-124449000D01*
X198801000Y-124449000D01*
X198801000Y-125551000D01*
X198801000Y-125551000D01*
G37*
G36*
X118801000Y-125551000D02*
X116199000Y-125551000D01*
X116199000Y-124449000D01*
X118801000Y-124449000D01*
X118801000Y-125551000D01*
X118801000Y-125551000D01*
G37*
G36*
X138801000Y-125551000D02*
X136199000Y-125551000D01*
X136199000Y-124449000D01*
X138801000Y-124449000D01*
X138801000Y-125551000D01*
X138801000Y-125551000D01*
G37*
G36*
X153801000Y-125551000D02*
X151199000Y-125551000D01*
X151199000Y-124449000D01*
X153801000Y-124449000D01*
X153801000Y-125551000D01*
X153801000Y-125551000D01*
G37*
G36*
X143801000Y-125551000D02*
X141199000Y-125551000D01*
X141199000Y-124449000D01*
X143801000Y-124449000D01*
X143801000Y-125551000D01*
X143801000Y-125551000D01*
G37*
G36*
X148801000Y-125551000D02*
X146199000Y-125551000D01*
X146199000Y-124449000D01*
X148801000Y-124449000D01*
X148801000Y-125551000D01*
X148801000Y-125551000D01*
G37*
G36*
X128801000Y-125551000D02*
X126199000Y-125551000D01*
X126199000Y-124449000D01*
X128801000Y-124449000D01*
X128801000Y-125551000D01*
X128801000Y-125551000D01*
G37*
G36*
X123801000Y-125551000D02*
X121199000Y-125551000D01*
X121199000Y-124449000D01*
X123801000Y-124449000D01*
X123801000Y-125551000D01*
X123801000Y-125551000D01*
G37*
G36*
X133801000Y-125551000D02*
X131199000Y-125551000D01*
X131199000Y-124449000D01*
X133801000Y-124449000D01*
X133801000Y-125551000D01*
X133801000Y-125551000D01*
G37*
G36*
X183801000Y-125551000D02*
X181199000Y-125551000D01*
X181199000Y-124449000D01*
X183801000Y-124449000D01*
X183801000Y-125551000D01*
X183801000Y-125551000D01*
G37*
G36*
X188801000Y-125551000D02*
X186199000Y-125551000D01*
X186199000Y-124449000D01*
X188801000Y-124449000D01*
X188801000Y-125551000D01*
X188801000Y-125551000D01*
G37*
G36*
X163801000Y-125551000D02*
X161199000Y-125551000D01*
X161199000Y-124449000D01*
X163801000Y-124449000D01*
X163801000Y-125551000D01*
X163801000Y-125551000D01*
G37*
G36*
X108801000Y-125551000D02*
X106199000Y-125551000D01*
X106199000Y-124449000D01*
X108801000Y-124449000D01*
X108801000Y-125551000D01*
X108801000Y-125551000D01*
G37*
G36*
X113801000Y-125551000D02*
X111199000Y-125551000D01*
X111199000Y-124449000D01*
X113801000Y-124449000D01*
X113801000Y-125551000D01*
X113801000Y-125551000D01*
G37*
G36*
X103801000Y-125551000D02*
X101199000Y-125551000D01*
X101199000Y-124449000D01*
X103801000Y-124449000D01*
X103801000Y-125551000D01*
X103801000Y-125551000D01*
G37*
G36*
X168801000Y-125551000D02*
X166199000Y-125551000D01*
X166199000Y-124449000D01*
X168801000Y-124449000D01*
X168801000Y-125551000D01*
X168801000Y-125551000D01*
G37*
G36*
X158801000Y-125551000D02*
X156199000Y-125551000D01*
X156199000Y-124449000D01*
X158801000Y-124449000D01*
X158801000Y-125551000D01*
X158801000Y-125551000D01*
G37*
G36*
X173801000Y-125551000D02*
X171199000Y-125551000D01*
X171199000Y-124449000D01*
X173801000Y-124449000D01*
X173801000Y-125551000D01*
X173801000Y-125551000D01*
G37*
G36*
X178801000Y-125551000D02*
X176199000Y-125551000D01*
X176199000Y-124449000D01*
X178801000Y-124449000D01*
X178801000Y-125551000D01*
X178801000Y-125551000D01*
G37*
G36*
X128801000Y-124051000D02*
X126199000Y-124051000D01*
X126199000Y-122949000D01*
X128801000Y-122949000D01*
X128801000Y-124051000D01*
X128801000Y-124051000D01*
G37*
G36*
X198801000Y-124051000D02*
X196199000Y-124051000D01*
X196199000Y-122949000D01*
X198801000Y-122949000D01*
X198801000Y-124051000D01*
X198801000Y-124051000D01*
G37*
G36*
X193801000Y-124051000D02*
X191199000Y-124051000D01*
X191199000Y-122949000D01*
X193801000Y-122949000D01*
X193801000Y-124051000D01*
X193801000Y-124051000D01*
G37*
G36*
X178801000Y-124051000D02*
X176199000Y-124051000D01*
X176199000Y-122949000D01*
X178801000Y-122949000D01*
X178801000Y-124051000D01*
X178801000Y-124051000D01*
G37*
G36*
X103801000Y-124051000D02*
X101199000Y-124051000D01*
X101199000Y-122949000D01*
X103801000Y-122949000D01*
X103801000Y-124051000D01*
X103801000Y-124051000D01*
G37*
G36*
X108801000Y-124051000D02*
X106199000Y-124051000D01*
X106199000Y-122949000D01*
X108801000Y-122949000D01*
X108801000Y-124051000D01*
X108801000Y-124051000D01*
G37*
G36*
X118801000Y-124051000D02*
X116199000Y-124051000D01*
X116199000Y-122949000D01*
X118801000Y-122949000D01*
X118801000Y-124051000D01*
X118801000Y-124051000D01*
G37*
G36*
X113801000Y-124051000D02*
X111199000Y-124051000D01*
X111199000Y-122949000D01*
X113801000Y-122949000D01*
X113801000Y-124051000D01*
X113801000Y-124051000D01*
G37*
G36*
X188801000Y-124051000D02*
X186199000Y-124051000D01*
X186199000Y-122949000D01*
X188801000Y-122949000D01*
X188801000Y-124051000D01*
X188801000Y-124051000D01*
G37*
G36*
X173801000Y-124051000D02*
X171199000Y-124051000D01*
X171199000Y-122949000D01*
X173801000Y-122949000D01*
X173801000Y-124051000D01*
X173801000Y-124051000D01*
G37*
G36*
X123801000Y-124051000D02*
X121199000Y-124051000D01*
X121199000Y-122949000D01*
X123801000Y-122949000D01*
X123801000Y-124051000D01*
X123801000Y-124051000D01*
G37*
G36*
X148801000Y-124051000D02*
X146199000Y-124051000D01*
X146199000Y-122949000D01*
X148801000Y-122949000D01*
X148801000Y-124051000D01*
X148801000Y-124051000D01*
G37*
G36*
X143801000Y-124051000D02*
X141199000Y-124051000D01*
X141199000Y-122949000D01*
X143801000Y-122949000D01*
X143801000Y-124051000D01*
X143801000Y-124051000D01*
G37*
G36*
X138801000Y-124051000D02*
X136199000Y-124051000D01*
X136199000Y-122949000D01*
X138801000Y-122949000D01*
X138801000Y-124051000D01*
X138801000Y-124051000D01*
G37*
G36*
X183801000Y-124051000D02*
X181199000Y-124051000D01*
X181199000Y-122949000D01*
X183801000Y-122949000D01*
X183801000Y-124051000D01*
X183801000Y-124051000D01*
G37*
G36*
X133801000Y-124051000D02*
X131199000Y-124051000D01*
X131199000Y-122949000D01*
X133801000Y-122949000D01*
X133801000Y-124051000D01*
X133801000Y-124051000D01*
G37*
G36*
X158801000Y-124051000D02*
X156199000Y-124051000D01*
X156199000Y-122949000D01*
X158801000Y-122949000D01*
X158801000Y-124051000D01*
X158801000Y-124051000D01*
G37*
G36*
X153801000Y-124051000D02*
X151199000Y-124051000D01*
X151199000Y-122949000D01*
X153801000Y-122949000D01*
X153801000Y-124051000D01*
X153801000Y-124051000D01*
G37*
G36*
X168801000Y-124051000D02*
X166199000Y-124051000D01*
X166199000Y-122949000D01*
X168801000Y-122949000D01*
X168801000Y-124051000D01*
X168801000Y-124051000D01*
G37*
G36*
X163801000Y-124051000D02*
X161199000Y-124051000D01*
X161199000Y-122949000D01*
X163801000Y-122949000D01*
X163801000Y-124051000D01*
X163801000Y-124051000D01*
G37*
G36*
X128801000Y-117051000D02*
X126199000Y-117051000D01*
X126199000Y-115949000D01*
X128801000Y-115949000D01*
X128801000Y-117051000D01*
X128801000Y-117051000D01*
G37*
G36*
X183801000Y-117051000D02*
X181199000Y-117051000D01*
X181199000Y-115949000D01*
X183801000Y-115949000D01*
X183801000Y-117051000D01*
X183801000Y-117051000D01*
G37*
G36*
X193801000Y-117051000D02*
X191199000Y-117051000D01*
X191199000Y-115949000D01*
X193801000Y-115949000D01*
X193801000Y-117051000D01*
X193801000Y-117051000D01*
G37*
G36*
X198801000Y-117051000D02*
X196199000Y-117051000D01*
X196199000Y-115949000D01*
X198801000Y-115949000D01*
X198801000Y-117051000D01*
X198801000Y-117051000D01*
G37*
G36*
X178801000Y-117051000D02*
X176199000Y-117051000D01*
X176199000Y-115949000D01*
X178801000Y-115949000D01*
X178801000Y-117051000D01*
X178801000Y-117051000D01*
G37*
G36*
X173801000Y-117051000D02*
X171199000Y-117051000D01*
X171199000Y-115949000D01*
X173801000Y-115949000D01*
X173801000Y-117051000D01*
X173801000Y-117051000D01*
G37*
G36*
X118801000Y-117051000D02*
X116199000Y-117051000D01*
X116199000Y-115949000D01*
X118801000Y-115949000D01*
X118801000Y-117051000D01*
X118801000Y-117051000D01*
G37*
G36*
X123801000Y-117051000D02*
X121199000Y-117051000D01*
X121199000Y-115949000D01*
X123801000Y-115949000D01*
X123801000Y-117051000D01*
X123801000Y-117051000D01*
G37*
G36*
X113801000Y-117051000D02*
X111199000Y-117051000D01*
X111199000Y-115949000D01*
X113801000Y-115949000D01*
X113801000Y-117051000D01*
X113801000Y-117051000D01*
G37*
G36*
X108801000Y-117051000D02*
X106199000Y-117051000D01*
X106199000Y-115949000D01*
X108801000Y-115949000D01*
X108801000Y-117051000D01*
X108801000Y-117051000D01*
G37*
G36*
X133801000Y-117051000D02*
X131199000Y-117051000D01*
X131199000Y-115949000D01*
X133801000Y-115949000D01*
X133801000Y-117051000D01*
X133801000Y-117051000D01*
G37*
G36*
X153801000Y-117051000D02*
X151199000Y-117051000D01*
X151199000Y-115949000D01*
X153801000Y-115949000D01*
X153801000Y-117051000D01*
X153801000Y-117051000D01*
G37*
G36*
X168801000Y-117051000D02*
X166199000Y-117051000D01*
X166199000Y-115949000D01*
X168801000Y-115949000D01*
X168801000Y-117051000D01*
X168801000Y-117051000D01*
G37*
G36*
X163801000Y-117051000D02*
X161199000Y-117051000D01*
X161199000Y-115949000D01*
X163801000Y-115949000D01*
X163801000Y-117051000D01*
X163801000Y-117051000D01*
G37*
G36*
X158801000Y-117051000D02*
X156199000Y-117051000D01*
X156199000Y-115949000D01*
X158801000Y-115949000D01*
X158801000Y-117051000D01*
X158801000Y-117051000D01*
G37*
G36*
X138801000Y-117051000D02*
X136199000Y-117051000D01*
X136199000Y-115949000D01*
X138801000Y-115949000D01*
X138801000Y-117051000D01*
X138801000Y-117051000D01*
G37*
G36*
X188801000Y-117051000D02*
X186199000Y-117051000D01*
X186199000Y-115949000D01*
X188801000Y-115949000D01*
X188801000Y-117051000D01*
X188801000Y-117051000D01*
G37*
G36*
X143801000Y-117051000D02*
X141199000Y-117051000D01*
X141199000Y-115949000D01*
X143801000Y-115949000D01*
X143801000Y-117051000D01*
X143801000Y-117051000D01*
G37*
G36*
X148801000Y-117051000D02*
X146199000Y-117051000D01*
X146199000Y-115949000D01*
X148801000Y-115949000D01*
X148801000Y-117051000D01*
X148801000Y-117051000D01*
G37*
G36*
X103801000Y-117051000D02*
X101199000Y-117051000D01*
X101199000Y-115949000D01*
X103801000Y-115949000D01*
X103801000Y-117051000D01*
X103801000Y-117051000D01*
G37*
G36*
X148801000Y-115551000D02*
X146199000Y-115551000D01*
X146199000Y-114449000D01*
X148801000Y-114449000D01*
X148801000Y-115551000D01*
X148801000Y-115551000D01*
G37*
G36*
X158801000Y-115551000D02*
X156199000Y-115551000D01*
X156199000Y-114449000D01*
X158801000Y-114449000D01*
X158801000Y-115551000D01*
X158801000Y-115551000D01*
G37*
G36*
X173801000Y-115551000D02*
X171199000Y-115551000D01*
X171199000Y-114449000D01*
X173801000Y-114449000D01*
X173801000Y-115551000D01*
X173801000Y-115551000D01*
G37*
G36*
X178801000Y-115551000D02*
X176199000Y-115551000D01*
X176199000Y-114449000D01*
X178801000Y-114449000D01*
X178801000Y-115551000D01*
X178801000Y-115551000D01*
G37*
G36*
X108801000Y-115551000D02*
X106199000Y-115551000D01*
X106199000Y-114449000D01*
X108801000Y-114449000D01*
X108801000Y-115551000D01*
X108801000Y-115551000D01*
G37*
G36*
X138801000Y-115551000D02*
X136199000Y-115551000D01*
X136199000Y-114449000D01*
X138801000Y-114449000D01*
X138801000Y-115551000D01*
X138801000Y-115551000D01*
G37*
G36*
X133801000Y-115551000D02*
X131199000Y-115551000D01*
X131199000Y-114449000D01*
X133801000Y-114449000D01*
X133801000Y-115551000D01*
X133801000Y-115551000D01*
G37*
G36*
X123801000Y-115551000D02*
X121199000Y-115551000D01*
X121199000Y-114449000D01*
X123801000Y-114449000D01*
X123801000Y-115551000D01*
X123801000Y-115551000D01*
G37*
G36*
X128801000Y-115551000D02*
X126199000Y-115551000D01*
X126199000Y-114449000D01*
X128801000Y-114449000D01*
X128801000Y-115551000D01*
X128801000Y-115551000D01*
G37*
G36*
X153801000Y-115551000D02*
X151199000Y-115551000D01*
X151199000Y-114449000D01*
X153801000Y-114449000D01*
X153801000Y-115551000D01*
X153801000Y-115551000D01*
G37*
G36*
X118801000Y-115551000D02*
X116199000Y-115551000D01*
X116199000Y-114449000D01*
X118801000Y-114449000D01*
X118801000Y-115551000D01*
X118801000Y-115551000D01*
G37*
G36*
X113801000Y-115551000D02*
X111199000Y-115551000D01*
X111199000Y-114449000D01*
X113801000Y-114449000D01*
X113801000Y-115551000D01*
X113801000Y-115551000D01*
G37*
G36*
X103801000Y-115551000D02*
X101199000Y-115551000D01*
X101199000Y-114449000D01*
X103801000Y-114449000D01*
X103801000Y-115551000D01*
X103801000Y-115551000D01*
G37*
G36*
X163801000Y-115551000D02*
X161199000Y-115551000D01*
X161199000Y-114449000D01*
X163801000Y-114449000D01*
X163801000Y-115551000D01*
X163801000Y-115551000D01*
G37*
G36*
X168801000Y-115551000D02*
X166199000Y-115551000D01*
X166199000Y-114449000D01*
X168801000Y-114449000D01*
X168801000Y-115551000D01*
X168801000Y-115551000D01*
G37*
G36*
X198801000Y-115551000D02*
X196199000Y-115551000D01*
X196199000Y-114449000D01*
X198801000Y-114449000D01*
X198801000Y-115551000D01*
X198801000Y-115551000D01*
G37*
G36*
X193801000Y-115551000D02*
X191199000Y-115551000D01*
X191199000Y-114449000D01*
X193801000Y-114449000D01*
X193801000Y-115551000D01*
X193801000Y-115551000D01*
G37*
G36*
X188801000Y-115551000D02*
X186199000Y-115551000D01*
X186199000Y-114449000D01*
X188801000Y-114449000D01*
X188801000Y-115551000D01*
X188801000Y-115551000D01*
G37*
G36*
X183801000Y-115551000D02*
X181199000Y-115551000D01*
X181199000Y-114449000D01*
X183801000Y-114449000D01*
X183801000Y-115551000D01*
X183801000Y-115551000D01*
G37*
G36*
X143801000Y-115551000D02*
X141199000Y-115551000D01*
X141199000Y-114449000D01*
X143801000Y-114449000D01*
X143801000Y-115551000D01*
X143801000Y-115551000D01*
G37*
G36*
X133801000Y-114051000D02*
X131199000Y-114051000D01*
X131199000Y-112949000D01*
X133801000Y-112949000D01*
X133801000Y-114051000D01*
X133801000Y-114051000D01*
G37*
G36*
X193801000Y-114051000D02*
X191199000Y-114051000D01*
X191199000Y-112949000D01*
X193801000Y-112949000D01*
X193801000Y-114051000D01*
X193801000Y-114051000D01*
G37*
G36*
X198801000Y-114051000D02*
X196199000Y-114051000D01*
X196199000Y-112949000D01*
X198801000Y-112949000D01*
X198801000Y-114051000D01*
X198801000Y-114051000D01*
G37*
G36*
X183801000Y-114051000D02*
X181199000Y-114051000D01*
X181199000Y-112949000D01*
X183801000Y-112949000D01*
X183801000Y-114051000D01*
X183801000Y-114051000D01*
G37*
G36*
X163801000Y-114051000D02*
X161199000Y-114051000D01*
X161199000Y-112949000D01*
X163801000Y-112949000D01*
X163801000Y-114051000D01*
X163801000Y-114051000D01*
G37*
G36*
X148801000Y-114051000D02*
X146199000Y-114051000D01*
X146199000Y-112949000D01*
X148801000Y-112949000D01*
X148801000Y-114051000D01*
X148801000Y-114051000D01*
G37*
G36*
X143801000Y-114051000D02*
X141199000Y-114051000D01*
X141199000Y-112949000D01*
X143801000Y-112949000D01*
X143801000Y-114051000D01*
X143801000Y-114051000D01*
G37*
G36*
X168801000Y-114051000D02*
X166199000Y-114051000D01*
X166199000Y-112949000D01*
X168801000Y-112949000D01*
X168801000Y-114051000D01*
X168801000Y-114051000D01*
G37*
G36*
X158801000Y-114051000D02*
X156199000Y-114051000D01*
X156199000Y-112949000D01*
X158801000Y-112949000D01*
X158801000Y-114051000D01*
X158801000Y-114051000D01*
G37*
G36*
X153801000Y-114051000D02*
X151199000Y-114051000D01*
X151199000Y-112949000D01*
X153801000Y-112949000D01*
X153801000Y-114051000D01*
X153801000Y-114051000D01*
G37*
G36*
X178801000Y-114051000D02*
X176199000Y-114051000D01*
X176199000Y-112949000D01*
X178801000Y-112949000D01*
X178801000Y-114051000D01*
X178801000Y-114051000D01*
G37*
G36*
X138801000Y-114051000D02*
X136199000Y-114051000D01*
X136199000Y-112949000D01*
X138801000Y-112949000D01*
X138801000Y-114051000D01*
X138801000Y-114051000D01*
G37*
G36*
X128801000Y-114051000D02*
X126199000Y-114051000D01*
X126199000Y-112949000D01*
X128801000Y-112949000D01*
X128801000Y-114051000D01*
X128801000Y-114051000D01*
G37*
G36*
X103801000Y-114051000D02*
X101199000Y-114051000D01*
X101199000Y-112949000D01*
X103801000Y-112949000D01*
X103801000Y-114051000D01*
X103801000Y-114051000D01*
G37*
G36*
X118801000Y-114051000D02*
X116199000Y-114051000D01*
X116199000Y-112949000D01*
X118801000Y-112949000D01*
X118801000Y-114051000D01*
X118801000Y-114051000D01*
G37*
G36*
X123801000Y-114051000D02*
X121199000Y-114051000D01*
X121199000Y-112949000D01*
X123801000Y-112949000D01*
X123801000Y-114051000D01*
X123801000Y-114051000D01*
G37*
G36*
X113801000Y-114051000D02*
X111199000Y-114051000D01*
X111199000Y-112949000D01*
X113801000Y-112949000D01*
X113801000Y-114051000D01*
X113801000Y-114051000D01*
G37*
G36*
X188801000Y-114051000D02*
X186199000Y-114051000D01*
X186199000Y-112949000D01*
X188801000Y-112949000D01*
X188801000Y-114051000D01*
X188801000Y-114051000D01*
G37*
G36*
X108801000Y-114051000D02*
X106199000Y-114051000D01*
X106199000Y-112949000D01*
X108801000Y-112949000D01*
X108801000Y-114051000D01*
X108801000Y-114051000D01*
G37*
G36*
X173801000Y-114051000D02*
X171199000Y-114051000D01*
X171199000Y-112949000D01*
X173801000Y-112949000D01*
X173801000Y-114051000D01*
X173801000Y-114051000D01*
G37*
G36*
X138801000Y-107051000D02*
X136199000Y-107051000D01*
X136199000Y-105949000D01*
X138801000Y-105949000D01*
X138801000Y-107051000D01*
X138801000Y-107051000D01*
G37*
G36*
X158801000Y-107051000D02*
X156199000Y-107051000D01*
X156199000Y-105949000D01*
X158801000Y-105949000D01*
X158801000Y-107051000D01*
X158801000Y-107051000D01*
G37*
G36*
X198801000Y-107051000D02*
X196199000Y-107051000D01*
X196199000Y-105949000D01*
X198801000Y-105949000D01*
X198801000Y-107051000D01*
X198801000Y-107051000D01*
G37*
G36*
X193801000Y-107051000D02*
X191199000Y-107051000D01*
X191199000Y-105949000D01*
X193801000Y-105949000D01*
X193801000Y-107051000D01*
X193801000Y-107051000D01*
G37*
G36*
X153801000Y-107051000D02*
X151199000Y-107051000D01*
X151199000Y-105949000D01*
X153801000Y-105949000D01*
X153801000Y-107051000D01*
X153801000Y-107051000D01*
G37*
G36*
X163801000Y-107051000D02*
X161199000Y-107051000D01*
X161199000Y-105949000D01*
X163801000Y-105949000D01*
X163801000Y-107051000D01*
X163801000Y-107051000D01*
G37*
G36*
X168801000Y-107051000D02*
X166199000Y-107051000D01*
X166199000Y-105949000D01*
X168801000Y-105949000D01*
X168801000Y-107051000D01*
X168801000Y-107051000D01*
G37*
G36*
X148801000Y-107051000D02*
X146199000Y-107051000D01*
X146199000Y-105949000D01*
X148801000Y-105949000D01*
X148801000Y-107051000D01*
X148801000Y-107051000D01*
G37*
G36*
X178801000Y-107051000D02*
X176199000Y-107051000D01*
X176199000Y-105949000D01*
X178801000Y-105949000D01*
X178801000Y-107051000D01*
X178801000Y-107051000D01*
G37*
G36*
X143801000Y-107051000D02*
X141199000Y-107051000D01*
X141199000Y-105949000D01*
X143801000Y-105949000D01*
X143801000Y-107051000D01*
X143801000Y-107051000D01*
G37*
G36*
X133801000Y-107051000D02*
X131199000Y-107051000D01*
X131199000Y-105949000D01*
X133801000Y-105949000D01*
X133801000Y-107051000D01*
X133801000Y-107051000D01*
G37*
G36*
X128801000Y-107051000D02*
X126199000Y-107051000D01*
X126199000Y-105949000D01*
X128801000Y-105949000D01*
X128801000Y-107051000D01*
X128801000Y-107051000D01*
G37*
G36*
X123801000Y-107051000D02*
X121199000Y-107051000D01*
X121199000Y-105949000D01*
X123801000Y-105949000D01*
X123801000Y-107051000D01*
X123801000Y-107051000D01*
G37*
G36*
X118801000Y-107051000D02*
X116199000Y-107051000D01*
X116199000Y-105949000D01*
X118801000Y-105949000D01*
X118801000Y-107051000D01*
X118801000Y-107051000D01*
G37*
G36*
X113801000Y-107051000D02*
X111199000Y-107051000D01*
X111199000Y-105949000D01*
X113801000Y-105949000D01*
X113801000Y-107051000D01*
X113801000Y-107051000D01*
G37*
G36*
X108801000Y-107051000D02*
X106199000Y-107051000D01*
X106199000Y-105949000D01*
X108801000Y-105949000D01*
X108801000Y-107051000D01*
X108801000Y-107051000D01*
G37*
G36*
X103801000Y-107051000D02*
X101199000Y-107051000D01*
X101199000Y-105949000D01*
X103801000Y-105949000D01*
X103801000Y-107051000D01*
X103801000Y-107051000D01*
G37*
G36*
X188801000Y-107051000D02*
X186199000Y-107051000D01*
X186199000Y-105949000D01*
X188801000Y-105949000D01*
X188801000Y-107051000D01*
X188801000Y-107051000D01*
G37*
G36*
X183801000Y-107051000D02*
X181199000Y-107051000D01*
X181199000Y-105949000D01*
X183801000Y-105949000D01*
X183801000Y-107051000D01*
X183801000Y-107051000D01*
G37*
G36*
X173801000Y-107051000D02*
X171199000Y-107051000D01*
X171199000Y-105949000D01*
X173801000Y-105949000D01*
X173801000Y-107051000D01*
X173801000Y-107051000D01*
G37*
G36*
X168801000Y-105551000D02*
X166199000Y-105551000D01*
X166199000Y-104449000D01*
X168801000Y-104449000D01*
X168801000Y-105551000D01*
X168801000Y-105551000D01*
G37*
G36*
X198801000Y-105551000D02*
X196199000Y-105551000D01*
X196199000Y-104449000D01*
X198801000Y-104449000D01*
X198801000Y-105551000D01*
X198801000Y-105551000D01*
G37*
G36*
X148801000Y-105551000D02*
X146199000Y-105551000D01*
X146199000Y-104449000D01*
X148801000Y-104449000D01*
X148801000Y-105551000D01*
X148801000Y-105551000D01*
G37*
G36*
X193801000Y-105551000D02*
X191199000Y-105551000D01*
X191199000Y-104449000D01*
X193801000Y-104449000D01*
X193801000Y-105551000D01*
X193801000Y-105551000D01*
G37*
G36*
X153801000Y-105551000D02*
X151199000Y-105551000D01*
X151199000Y-104449000D01*
X153801000Y-104449000D01*
X153801000Y-105551000D01*
X153801000Y-105551000D01*
G37*
G36*
X188801000Y-105551000D02*
X186199000Y-105551000D01*
X186199000Y-104449000D01*
X188801000Y-104449000D01*
X188801000Y-105551000D01*
X188801000Y-105551000D01*
G37*
G36*
X173801000Y-105551000D02*
X171199000Y-105551000D01*
X171199000Y-104449000D01*
X173801000Y-104449000D01*
X173801000Y-105551000D01*
X173801000Y-105551000D01*
G37*
G36*
X178801000Y-105551000D02*
X176199000Y-105551000D01*
X176199000Y-104449000D01*
X178801000Y-104449000D01*
X178801000Y-105551000D01*
X178801000Y-105551000D01*
G37*
G36*
X158801000Y-105551000D02*
X156199000Y-105551000D01*
X156199000Y-104449000D01*
X158801000Y-104449000D01*
X158801000Y-105551000D01*
X158801000Y-105551000D01*
G37*
G36*
X183801000Y-105551000D02*
X181199000Y-105551000D01*
X181199000Y-104449000D01*
X183801000Y-104449000D01*
X183801000Y-105551000D01*
X183801000Y-105551000D01*
G37*
G36*
X143801000Y-105551000D02*
X141199000Y-105551000D01*
X141199000Y-104449000D01*
X143801000Y-104449000D01*
X143801000Y-105551000D01*
X143801000Y-105551000D01*
G37*
G36*
X103801000Y-105551000D02*
X101199000Y-105551000D01*
X101199000Y-104449000D01*
X103801000Y-104449000D01*
X103801000Y-105551000D01*
X103801000Y-105551000D01*
G37*
G36*
X108801000Y-105551000D02*
X106199000Y-105551000D01*
X106199000Y-104449000D01*
X108801000Y-104449000D01*
X108801000Y-105551000D01*
X108801000Y-105551000D01*
G37*
G36*
X113801000Y-105551000D02*
X111199000Y-105551000D01*
X111199000Y-104449000D01*
X113801000Y-104449000D01*
X113801000Y-105551000D01*
X113801000Y-105551000D01*
G37*
G36*
X118801000Y-105551000D02*
X116199000Y-105551000D01*
X116199000Y-104449000D01*
X118801000Y-104449000D01*
X118801000Y-105551000D01*
X118801000Y-105551000D01*
G37*
G36*
X123801000Y-105551000D02*
X121199000Y-105551000D01*
X121199000Y-104449000D01*
X123801000Y-104449000D01*
X123801000Y-105551000D01*
X123801000Y-105551000D01*
G37*
G36*
X128801000Y-105551000D02*
X126199000Y-105551000D01*
X126199000Y-104449000D01*
X128801000Y-104449000D01*
X128801000Y-105551000D01*
X128801000Y-105551000D01*
G37*
G36*
X133801000Y-105551000D02*
X131199000Y-105551000D01*
X131199000Y-104449000D01*
X133801000Y-104449000D01*
X133801000Y-105551000D01*
X133801000Y-105551000D01*
G37*
G36*
X138801000Y-105551000D02*
X136199000Y-105551000D01*
X136199000Y-104449000D01*
X138801000Y-104449000D01*
X138801000Y-105551000D01*
X138801000Y-105551000D01*
G37*
G36*
X163801000Y-105551000D02*
X161199000Y-105551000D01*
X161199000Y-104449000D01*
X163801000Y-104449000D01*
X163801000Y-105551000D01*
X163801000Y-105551000D01*
G37*
G36*
X163801000Y-104051000D02*
X161199000Y-104051000D01*
X161199000Y-102949000D01*
X163801000Y-102949000D01*
X163801000Y-104051000D01*
X163801000Y-104051000D01*
G37*
G36*
X173801000Y-104051000D02*
X171199000Y-104051000D01*
X171199000Y-102949000D01*
X173801000Y-102949000D01*
X173801000Y-104051000D01*
X173801000Y-104051000D01*
G37*
G36*
X188801000Y-104051000D02*
X186199000Y-104051000D01*
X186199000Y-102949000D01*
X188801000Y-102949000D01*
X188801000Y-104051000D01*
X188801000Y-104051000D01*
G37*
G36*
X158801000Y-104051000D02*
X156199000Y-104051000D01*
X156199000Y-102949000D01*
X158801000Y-102949000D01*
X158801000Y-104051000D01*
X158801000Y-104051000D01*
G37*
G36*
X183801000Y-104051000D02*
X181199000Y-104051000D01*
X181199000Y-102949000D01*
X183801000Y-102949000D01*
X183801000Y-104051000D01*
X183801000Y-104051000D01*
G37*
G36*
X153801000Y-104051000D02*
X151199000Y-104051000D01*
X151199000Y-102949000D01*
X153801000Y-102949000D01*
X153801000Y-104051000D01*
X153801000Y-104051000D01*
G37*
G36*
X178801000Y-104051000D02*
X176199000Y-104051000D01*
X176199000Y-102949000D01*
X178801000Y-102949000D01*
X178801000Y-104051000D01*
X178801000Y-104051000D01*
G37*
G36*
X143801000Y-104051000D02*
X141199000Y-104051000D01*
X141199000Y-102949000D01*
X143801000Y-102949000D01*
X143801000Y-104051000D01*
X143801000Y-104051000D01*
G37*
G36*
X193801000Y-104051000D02*
X191199000Y-104051000D01*
X191199000Y-102949000D01*
X193801000Y-102949000D01*
X193801000Y-104051000D01*
X193801000Y-104051000D01*
G37*
G36*
X148801000Y-104051000D02*
X146199000Y-104051000D01*
X146199000Y-102949000D01*
X148801000Y-102949000D01*
X148801000Y-104051000D01*
X148801000Y-104051000D01*
G37*
G36*
X138801000Y-104051000D02*
X136199000Y-104051000D01*
X136199000Y-102949000D01*
X138801000Y-102949000D01*
X138801000Y-104051000D01*
X138801000Y-104051000D01*
G37*
G36*
X103801000Y-104051000D02*
X101199000Y-104051000D01*
X101199000Y-102949000D01*
X103801000Y-102949000D01*
X103801000Y-104051000D01*
X103801000Y-104051000D01*
G37*
G36*
X108801000Y-104051000D02*
X106199000Y-104051000D01*
X106199000Y-102949000D01*
X108801000Y-102949000D01*
X108801000Y-104051000D01*
X108801000Y-104051000D01*
G37*
G36*
X133801000Y-104051000D02*
X131199000Y-104051000D01*
X131199000Y-102949000D01*
X133801000Y-102949000D01*
X133801000Y-104051000D01*
X133801000Y-104051000D01*
G37*
G36*
X128801000Y-104051000D02*
X126199000Y-104051000D01*
X126199000Y-102949000D01*
X128801000Y-102949000D01*
X128801000Y-104051000D01*
X128801000Y-104051000D01*
G37*
G36*
X123801000Y-104051000D02*
X121199000Y-104051000D01*
X121199000Y-102949000D01*
X123801000Y-102949000D01*
X123801000Y-104051000D01*
X123801000Y-104051000D01*
G37*
G36*
X168801000Y-104051000D02*
X166199000Y-104051000D01*
X166199000Y-102949000D01*
X168801000Y-102949000D01*
X168801000Y-104051000D01*
X168801000Y-104051000D01*
G37*
G36*
X113801000Y-104051000D02*
X111199000Y-104051000D01*
X111199000Y-102949000D01*
X113801000Y-102949000D01*
X113801000Y-104051000D01*
X113801000Y-104051000D01*
G37*
G36*
X118801000Y-104051000D02*
X116199000Y-104051000D01*
X116199000Y-102949000D01*
X118801000Y-102949000D01*
X118801000Y-104051000D01*
X118801000Y-104051000D01*
G37*
G36*
X198801000Y-104051000D02*
X196199000Y-104051000D01*
X196199000Y-102949000D01*
X198801000Y-102949000D01*
X198801000Y-104051000D01*
X198801000Y-104051000D01*
G37*
G36*
X190598252Y-98027818D02*
X190598254Y-98027819D01*
X190598255Y-98027819D01*
X190971513Y-98182427D01*
X190971514Y-98182428D01*
X191307439Y-98406886D01*
X191593114Y-98692561D01*
X191593116Y-98692564D01*
X191817573Y-99028487D01*
X191972181Y-99401745D01*
X192051000Y-99797994D01*
X192051000Y-100202006D01*
X191972181Y-100598255D01*
X191817573Y-100971513D01*
X191817572Y-100971514D01*
X191593114Y-101307439D01*
X191307439Y-101593114D01*
X191307436Y-101593116D01*
X190971513Y-101817573D01*
X190598255Y-101972181D01*
X190598254Y-101972181D01*
X190598252Y-101972182D01*
X190202007Y-102051000D01*
X189797993Y-102051000D01*
X189401748Y-101972182D01*
X189401746Y-101972181D01*
X189401745Y-101972181D01*
X189028487Y-101817573D01*
X188692564Y-101593116D01*
X188692561Y-101593114D01*
X188406886Y-101307439D01*
X188182428Y-100971514D01*
X188182427Y-100971513D01*
X188027819Y-100598255D01*
X187949000Y-100202006D01*
X187949000Y-99797994D01*
X188027819Y-99401745D01*
X188182427Y-99028487D01*
X188406884Y-98692564D01*
X188406886Y-98692561D01*
X188692561Y-98406886D01*
X189028486Y-98182428D01*
X189028487Y-98182427D01*
X189401745Y-98027819D01*
X189401746Y-98027819D01*
X189401748Y-98027818D01*
X189797993Y-97949000D01*
X190202007Y-97949000D01*
X190598252Y-98027818D01*
X190598252Y-98027818D01*
G37*
G36*
X110598252Y-98027818D02*
X110598254Y-98027819D01*
X110598255Y-98027819D01*
X110971513Y-98182427D01*
X110971514Y-98182428D01*
X111307439Y-98406886D01*
X111593114Y-98692561D01*
X111593116Y-98692564D01*
X111817573Y-99028487D01*
X111972181Y-99401745D01*
X112051000Y-99797994D01*
X112051000Y-100202006D01*
X111972181Y-100598255D01*
X111817573Y-100971513D01*
X111817572Y-100971514D01*
X111593114Y-101307439D01*
X111307439Y-101593114D01*
X111307436Y-101593116D01*
X110971513Y-101817573D01*
X110598255Y-101972181D01*
X110598254Y-101972181D01*
X110598252Y-101972182D01*
X110202007Y-102051000D01*
X109797993Y-102051000D01*
X109401748Y-101972182D01*
X109401746Y-101972181D01*
X109401745Y-101972181D01*
X109028487Y-101817573D01*
X108692564Y-101593116D01*
X108692561Y-101593114D01*
X108406886Y-101307439D01*
X108182428Y-100971514D01*
X108182427Y-100971513D01*
X108027819Y-100598255D01*
X107949000Y-100202006D01*
X107949000Y-99797994D01*
X108027819Y-99401745D01*
X108182427Y-99028487D01*
X108406884Y-98692564D01*
X108406886Y-98692561D01*
X108692561Y-98406886D01*
X109028486Y-98182428D01*
X109028487Y-98182427D01*
X109401745Y-98027819D01*
X109401746Y-98027819D01*
X109401748Y-98027818D01*
X109797993Y-97949000D01*
X110202007Y-97949000D01*
X110598252Y-98027818D01*
X110598252Y-98027818D01*
G37*
G36*
X153801000Y-97051000D02*
X151199000Y-97051000D01*
X151199000Y-95949000D01*
X153801000Y-95949000D01*
X153801000Y-97051000D01*
X153801000Y-97051000D01*
G37*
G36*
X108801000Y-97051000D02*
X106199000Y-97051000D01*
X106199000Y-95949000D01*
X108801000Y-95949000D01*
X108801000Y-97051000D01*
X108801000Y-97051000D01*
G37*
G36*
X118801000Y-97051000D02*
X116199000Y-97051000D01*
X116199000Y-95949000D01*
X118801000Y-95949000D01*
X118801000Y-97051000D01*
X118801000Y-97051000D01*
G37*
G36*
X198801000Y-97051000D02*
X196199000Y-97051000D01*
X196199000Y-95949000D01*
X198801000Y-95949000D01*
X198801000Y-97051000D01*
X198801000Y-97051000D01*
G37*
G36*
X193801000Y-97051000D02*
X191199000Y-97051000D01*
X191199000Y-95949000D01*
X193801000Y-95949000D01*
X193801000Y-97051000D01*
X193801000Y-97051000D01*
G37*
G36*
X188801000Y-97051000D02*
X186199000Y-97051000D01*
X186199000Y-95949000D01*
X188801000Y-95949000D01*
X188801000Y-97051000D01*
X188801000Y-97051000D01*
G37*
G36*
X183801000Y-97051000D02*
X181199000Y-97051000D01*
X181199000Y-95949000D01*
X183801000Y-95949000D01*
X183801000Y-97051000D01*
X183801000Y-97051000D01*
G37*
G36*
X103801000Y-97051000D02*
X101199000Y-97051000D01*
X101199000Y-95949000D01*
X103801000Y-95949000D01*
X103801000Y-97051000D01*
X103801000Y-97051000D01*
G37*
G36*
X168801000Y-97051000D02*
X166199000Y-97051000D01*
X166199000Y-95949000D01*
X168801000Y-95949000D01*
X168801000Y-97051000D01*
X168801000Y-97051000D01*
G37*
G36*
X123801000Y-97051000D02*
X121199000Y-97051000D01*
X121199000Y-95949000D01*
X123801000Y-95949000D01*
X123801000Y-97051000D01*
X123801000Y-97051000D01*
G37*
G36*
X133801000Y-97051000D02*
X131199000Y-97051000D01*
X131199000Y-95949000D01*
X133801000Y-95949000D01*
X133801000Y-97051000D01*
X133801000Y-97051000D01*
G37*
G36*
X128801000Y-97051000D02*
X126199000Y-97051000D01*
X126199000Y-95949000D01*
X128801000Y-95949000D01*
X128801000Y-97051000D01*
X128801000Y-97051000D01*
G37*
G36*
X173801000Y-97051000D02*
X171199000Y-97051000D01*
X171199000Y-95949000D01*
X173801000Y-95949000D01*
X173801000Y-97051000D01*
X173801000Y-97051000D01*
G37*
G36*
X148801000Y-97051000D02*
X146199000Y-97051000D01*
X146199000Y-95949000D01*
X148801000Y-95949000D01*
X148801000Y-97051000D01*
X148801000Y-97051000D01*
G37*
G36*
X113801000Y-97051000D02*
X111199000Y-97051000D01*
X111199000Y-95949000D01*
X113801000Y-95949000D01*
X113801000Y-97051000D01*
X113801000Y-97051000D01*
G37*
G36*
X163801000Y-97051000D02*
X161199000Y-97051000D01*
X161199000Y-95949000D01*
X163801000Y-95949000D01*
X163801000Y-97051000D01*
X163801000Y-97051000D01*
G37*
G36*
X178801000Y-97051000D02*
X176199000Y-97051000D01*
X176199000Y-95949000D01*
X178801000Y-95949000D01*
X178801000Y-97051000D01*
X178801000Y-97051000D01*
G37*
G36*
X158801000Y-97051000D02*
X156199000Y-97051000D01*
X156199000Y-95949000D01*
X158801000Y-95949000D01*
X158801000Y-97051000D01*
X158801000Y-97051000D01*
G37*
G36*
X143801000Y-97051000D02*
X141199000Y-97051000D01*
X141199000Y-95949000D01*
X143801000Y-95949000D01*
X143801000Y-97051000D01*
X143801000Y-97051000D01*
G37*
G36*
X138801000Y-97051000D02*
X136199000Y-97051000D01*
X136199000Y-95949000D01*
X138801000Y-95949000D01*
X138801000Y-97051000D01*
X138801000Y-97051000D01*
G37*
G36*
X108801000Y-95551000D02*
X106199000Y-95551000D01*
X106199000Y-94449000D01*
X108801000Y-94449000D01*
X108801000Y-95551000D01*
X108801000Y-95551000D01*
G37*
G36*
X178801000Y-95551000D02*
X176199000Y-95551000D01*
X176199000Y-94449000D01*
X178801000Y-94449000D01*
X178801000Y-95551000D01*
X178801000Y-95551000D01*
G37*
G36*
X173801000Y-95551000D02*
X171199000Y-95551000D01*
X171199000Y-94449000D01*
X173801000Y-94449000D01*
X173801000Y-95551000D01*
X173801000Y-95551000D01*
G37*
G36*
X118801000Y-95551000D02*
X116199000Y-95551000D01*
X116199000Y-94449000D01*
X118801000Y-94449000D01*
X118801000Y-95551000D01*
X118801000Y-95551000D01*
G37*
G36*
X198801000Y-95551000D02*
X196199000Y-95551000D01*
X196199000Y-94449000D01*
X198801000Y-94449000D01*
X198801000Y-95551000D01*
X198801000Y-95551000D01*
G37*
G36*
X158801000Y-95551000D02*
X156199000Y-95551000D01*
X156199000Y-94449000D01*
X158801000Y-94449000D01*
X158801000Y-95551000D01*
X158801000Y-95551000D01*
G37*
G36*
X153801000Y-95551000D02*
X151199000Y-95551000D01*
X151199000Y-94449000D01*
X153801000Y-94449000D01*
X153801000Y-95551000D01*
X153801000Y-95551000D01*
G37*
G36*
X193801000Y-95551000D02*
X191199000Y-95551000D01*
X191199000Y-94449000D01*
X193801000Y-94449000D01*
X193801000Y-95551000D01*
X193801000Y-95551000D01*
G37*
G36*
X188801000Y-95551000D02*
X186199000Y-95551000D01*
X186199000Y-94449000D01*
X188801000Y-94449000D01*
X188801000Y-95551000D01*
X188801000Y-95551000D01*
G37*
G36*
X183801000Y-95551000D02*
X181199000Y-95551000D01*
X181199000Y-94449000D01*
X183801000Y-94449000D01*
X183801000Y-95551000D01*
X183801000Y-95551000D01*
G37*
G36*
X143801000Y-95551000D02*
X141199000Y-95551000D01*
X141199000Y-94449000D01*
X143801000Y-94449000D01*
X143801000Y-95551000D01*
X143801000Y-95551000D01*
G37*
G36*
X128801000Y-95551000D02*
X126199000Y-95551000D01*
X126199000Y-94449000D01*
X128801000Y-94449000D01*
X128801000Y-95551000D01*
X128801000Y-95551000D01*
G37*
G36*
X133801000Y-95551000D02*
X131199000Y-95551000D01*
X131199000Y-94449000D01*
X133801000Y-94449000D01*
X133801000Y-95551000D01*
X133801000Y-95551000D01*
G37*
G36*
X138801000Y-95551000D02*
X136199000Y-95551000D01*
X136199000Y-94449000D01*
X138801000Y-94449000D01*
X138801000Y-95551000D01*
X138801000Y-95551000D01*
G37*
G36*
X163801000Y-95551000D02*
X161199000Y-95551000D01*
X161199000Y-94449000D01*
X163801000Y-94449000D01*
X163801000Y-95551000D01*
X163801000Y-95551000D01*
G37*
G36*
X168801000Y-95551000D02*
X166199000Y-95551000D01*
X166199000Y-94449000D01*
X168801000Y-94449000D01*
X168801000Y-95551000D01*
X168801000Y-95551000D01*
G37*
G36*
X123801000Y-95551000D02*
X121199000Y-95551000D01*
X121199000Y-94449000D01*
X123801000Y-94449000D01*
X123801000Y-95551000D01*
X123801000Y-95551000D01*
G37*
G36*
X113801000Y-95551000D02*
X111199000Y-95551000D01*
X111199000Y-94449000D01*
X113801000Y-94449000D01*
X113801000Y-95551000D01*
X113801000Y-95551000D01*
G37*
G36*
X103801000Y-95551000D02*
X101199000Y-95551000D01*
X101199000Y-94449000D01*
X103801000Y-94449000D01*
X103801000Y-95551000D01*
X103801000Y-95551000D01*
G37*
G36*
X148801000Y-95551000D02*
X146199000Y-95551000D01*
X146199000Y-94449000D01*
X148801000Y-94449000D01*
X148801000Y-95551000D01*
X148801000Y-95551000D01*
G37*
G36*
X173801000Y-94051000D02*
X171199000Y-94051000D01*
X171199000Y-92949000D01*
X173801000Y-92949000D01*
X173801000Y-94051000D01*
X173801000Y-94051000D01*
G37*
G36*
X168801000Y-94051000D02*
X166199000Y-94051000D01*
X166199000Y-92949000D01*
X168801000Y-92949000D01*
X168801000Y-94051000D01*
X168801000Y-94051000D01*
G37*
G36*
X163801000Y-94051000D02*
X161199000Y-94051000D01*
X161199000Y-92949000D01*
X163801000Y-92949000D01*
X163801000Y-94051000D01*
X163801000Y-94051000D01*
G37*
G36*
X198801000Y-94051000D02*
X196199000Y-94051000D01*
X196199000Y-92949000D01*
X198801000Y-92949000D01*
X198801000Y-94051000D01*
X198801000Y-94051000D01*
G37*
G36*
X158801000Y-94051000D02*
X156199000Y-94051000D01*
X156199000Y-92949000D01*
X158801000Y-92949000D01*
X158801000Y-94051000D01*
X158801000Y-94051000D01*
G37*
G36*
X118801000Y-94051000D02*
X116199000Y-94051000D01*
X116199000Y-92949000D01*
X118801000Y-92949000D01*
X118801000Y-94051000D01*
X118801000Y-94051000D01*
G37*
G36*
X123801000Y-94051000D02*
X121199000Y-94051000D01*
X121199000Y-92949000D01*
X123801000Y-92949000D01*
X123801000Y-94051000D01*
X123801000Y-94051000D01*
G37*
G36*
X138801000Y-94051000D02*
X136199000Y-94051000D01*
X136199000Y-92949000D01*
X138801000Y-92949000D01*
X138801000Y-94051000D01*
X138801000Y-94051000D01*
G37*
G36*
X113801000Y-94051000D02*
X111199000Y-94051000D01*
X111199000Y-92949000D01*
X113801000Y-92949000D01*
X113801000Y-94051000D01*
X113801000Y-94051000D01*
G37*
G36*
X143801000Y-94051000D02*
X141199000Y-94051000D01*
X141199000Y-92949000D01*
X143801000Y-92949000D01*
X143801000Y-94051000D01*
X143801000Y-94051000D01*
G37*
G36*
X178801000Y-94051000D02*
X176199000Y-94051000D01*
X176199000Y-92949000D01*
X178801000Y-92949000D01*
X178801000Y-94051000D01*
X178801000Y-94051000D01*
G37*
G36*
X188801000Y-94051000D02*
X186199000Y-94051000D01*
X186199000Y-92949000D01*
X188801000Y-92949000D01*
X188801000Y-94051000D01*
X188801000Y-94051000D01*
G37*
G36*
X103801000Y-94051000D02*
X101199000Y-94051000D01*
X101199000Y-92949000D01*
X103801000Y-92949000D01*
X103801000Y-94051000D01*
X103801000Y-94051000D01*
G37*
G36*
X193801000Y-94051000D02*
X191199000Y-94051000D01*
X191199000Y-92949000D01*
X193801000Y-92949000D01*
X193801000Y-94051000D01*
X193801000Y-94051000D01*
G37*
G36*
X153801000Y-94051000D02*
X151199000Y-94051000D01*
X151199000Y-92949000D01*
X153801000Y-92949000D01*
X153801000Y-94051000D01*
X153801000Y-94051000D01*
G37*
G36*
X183801000Y-94051000D02*
X181199000Y-94051000D01*
X181199000Y-92949000D01*
X183801000Y-92949000D01*
X183801000Y-94051000D01*
X183801000Y-94051000D01*
G37*
G36*
X133801000Y-94051000D02*
X131199000Y-94051000D01*
X131199000Y-92949000D01*
X133801000Y-92949000D01*
X133801000Y-94051000D01*
X133801000Y-94051000D01*
G37*
G36*
X128801000Y-94051000D02*
X126199000Y-94051000D01*
X126199000Y-92949000D01*
X128801000Y-92949000D01*
X128801000Y-94051000D01*
X128801000Y-94051000D01*
G37*
G36*
X108801000Y-94051000D02*
X106199000Y-94051000D01*
X106199000Y-92949000D01*
X108801000Y-92949000D01*
X108801000Y-94051000D01*
X108801000Y-94051000D01*
G37*
G36*
X148801000Y-94051000D02*
X146199000Y-94051000D01*
X146199000Y-92949000D01*
X148801000Y-92949000D01*
X148801000Y-94051000D01*
X148801000Y-94051000D01*
G37*
G36*
X133801000Y-87051000D02*
X131199000Y-87051000D01*
X131199000Y-85949000D01*
X133801000Y-85949000D01*
X133801000Y-87051000D01*
X133801000Y-87051000D01*
G37*
G36*
X108801000Y-87051000D02*
X106199000Y-87051000D01*
X106199000Y-85949000D01*
X108801000Y-85949000D01*
X108801000Y-87051000D01*
X108801000Y-87051000D01*
G37*
G36*
X143801000Y-87051000D02*
X141199000Y-87051000D01*
X141199000Y-85949000D01*
X143801000Y-85949000D01*
X143801000Y-87051000D01*
X143801000Y-87051000D01*
G37*
G36*
X148801000Y-87051000D02*
X146199000Y-87051000D01*
X146199000Y-85949000D01*
X148801000Y-85949000D01*
X148801000Y-87051000D01*
X148801000Y-87051000D01*
G37*
G36*
X153801000Y-87051000D02*
X151199000Y-87051000D01*
X151199000Y-85949000D01*
X153801000Y-85949000D01*
X153801000Y-87051000D01*
X153801000Y-87051000D01*
G37*
G36*
X103801000Y-87051000D02*
X101199000Y-87051000D01*
X101199000Y-85949000D01*
X103801000Y-85949000D01*
X103801000Y-87051000D01*
X103801000Y-87051000D01*
G37*
G36*
X173801000Y-87051000D02*
X171199000Y-87051000D01*
X171199000Y-85949000D01*
X173801000Y-85949000D01*
X173801000Y-87051000D01*
X173801000Y-87051000D01*
G37*
G36*
X178801000Y-87051000D02*
X176199000Y-87051000D01*
X176199000Y-85949000D01*
X178801000Y-85949000D01*
X178801000Y-87051000D01*
X178801000Y-87051000D01*
G37*
G36*
X128801000Y-87051000D02*
X126199000Y-87051000D01*
X126199000Y-85949000D01*
X128801000Y-85949000D01*
X128801000Y-87051000D01*
X128801000Y-87051000D01*
G37*
G36*
X123801000Y-87051000D02*
X121199000Y-87051000D01*
X121199000Y-85949000D01*
X123801000Y-85949000D01*
X123801000Y-87051000D01*
X123801000Y-87051000D01*
G37*
G36*
X138801000Y-87051000D02*
X136199000Y-87051000D01*
X136199000Y-85949000D01*
X138801000Y-85949000D01*
X138801000Y-87051000D01*
X138801000Y-87051000D01*
G37*
G36*
X163801000Y-87051000D02*
X161199000Y-87051000D01*
X161199000Y-85949000D01*
X163801000Y-85949000D01*
X163801000Y-87051000D01*
X163801000Y-87051000D01*
G37*
G36*
X113801000Y-87051000D02*
X111199000Y-87051000D01*
X111199000Y-85949000D01*
X113801000Y-85949000D01*
X113801000Y-87051000D01*
X113801000Y-87051000D01*
G37*
G36*
X118801000Y-87051000D02*
X116199000Y-87051000D01*
X116199000Y-85949000D01*
X118801000Y-85949000D01*
X118801000Y-87051000D01*
X118801000Y-87051000D01*
G37*
G36*
X183801000Y-87051000D02*
X181199000Y-87051000D01*
X181199000Y-85949000D01*
X183801000Y-85949000D01*
X183801000Y-87051000D01*
X183801000Y-87051000D01*
G37*
G36*
X188801000Y-87051000D02*
X186199000Y-87051000D01*
X186199000Y-85949000D01*
X188801000Y-85949000D01*
X188801000Y-87051000D01*
X188801000Y-87051000D01*
G37*
G36*
X193801000Y-87051000D02*
X191199000Y-87051000D01*
X191199000Y-85949000D01*
X193801000Y-85949000D01*
X193801000Y-87051000D01*
X193801000Y-87051000D01*
G37*
G36*
X198801000Y-87051000D02*
X196199000Y-87051000D01*
X196199000Y-85949000D01*
X198801000Y-85949000D01*
X198801000Y-87051000D01*
X198801000Y-87051000D01*
G37*
G36*
X168801000Y-87051000D02*
X166199000Y-87051000D01*
X166199000Y-85949000D01*
X168801000Y-85949000D01*
X168801000Y-87051000D01*
X168801000Y-87051000D01*
G37*
G36*
X158801000Y-87051000D02*
X156199000Y-87051000D01*
X156199000Y-85949000D01*
X158801000Y-85949000D01*
X158801000Y-87051000D01*
X158801000Y-87051000D01*
G37*
G36*
X198801000Y-85551000D02*
X196199000Y-85551000D01*
X196199000Y-84449000D01*
X198801000Y-84449000D01*
X198801000Y-85551000D01*
X198801000Y-85551000D01*
G37*
G36*
X108801000Y-85551000D02*
X106199000Y-85551000D01*
X106199000Y-84449000D01*
X108801000Y-84449000D01*
X108801000Y-85551000D01*
X108801000Y-85551000D01*
G37*
G36*
X123801000Y-85551000D02*
X121199000Y-85551000D01*
X121199000Y-84449000D01*
X123801000Y-84449000D01*
X123801000Y-85551000D01*
X123801000Y-85551000D01*
G37*
G36*
X118801000Y-85551000D02*
X116199000Y-85551000D01*
X116199000Y-84449000D01*
X118801000Y-84449000D01*
X118801000Y-85551000D01*
X118801000Y-85551000D01*
G37*
G36*
X113801000Y-85551000D02*
X111199000Y-85551000D01*
X111199000Y-84449000D01*
X113801000Y-84449000D01*
X113801000Y-85551000D01*
X113801000Y-85551000D01*
G37*
G36*
X103801000Y-85551000D02*
X101199000Y-85551000D01*
X101199000Y-84449000D01*
X103801000Y-84449000D01*
X103801000Y-85551000D01*
X103801000Y-85551000D01*
G37*
G36*
X133801000Y-85551000D02*
X131199000Y-85551000D01*
X131199000Y-84449000D01*
X133801000Y-84449000D01*
X133801000Y-85551000D01*
X133801000Y-85551000D01*
G37*
G36*
X193801000Y-85551000D02*
X191199000Y-85551000D01*
X191199000Y-84449000D01*
X193801000Y-84449000D01*
X193801000Y-85551000D01*
X193801000Y-85551000D01*
G37*
G36*
X188801000Y-85551000D02*
X186199000Y-85551000D01*
X186199000Y-84449000D01*
X188801000Y-84449000D01*
X188801000Y-85551000D01*
X188801000Y-85551000D01*
G37*
G36*
X128801000Y-85551000D02*
X126199000Y-85551000D01*
X126199000Y-84449000D01*
X128801000Y-84449000D01*
X128801000Y-85551000D01*
X128801000Y-85551000D01*
G37*
G36*
X143801000Y-85551000D02*
X141199000Y-85551000D01*
X141199000Y-84449000D01*
X143801000Y-84449000D01*
X143801000Y-85551000D01*
X143801000Y-85551000D01*
G37*
G36*
X138801000Y-85551000D02*
X136199000Y-85551000D01*
X136199000Y-84449000D01*
X138801000Y-84449000D01*
X138801000Y-85551000D01*
X138801000Y-85551000D01*
G37*
G36*
X183801000Y-85551000D02*
X181199000Y-85551000D01*
X181199000Y-84449000D01*
X183801000Y-84449000D01*
X183801000Y-85551000D01*
X183801000Y-85551000D01*
G37*
G36*
X178801000Y-85551000D02*
X176199000Y-85551000D01*
X176199000Y-84449000D01*
X178801000Y-84449000D01*
X178801000Y-85551000D01*
X178801000Y-85551000D01*
G37*
G36*
X173801000Y-85551000D02*
X171199000Y-85551000D01*
X171199000Y-84449000D01*
X173801000Y-84449000D01*
X173801000Y-85551000D01*
X173801000Y-85551000D01*
G37*
G36*
X168801000Y-85551000D02*
X166199000Y-85551000D01*
X166199000Y-84449000D01*
X168801000Y-84449000D01*
X168801000Y-85551000D01*
X168801000Y-85551000D01*
G37*
G36*
X158801000Y-85551000D02*
X156199000Y-85551000D01*
X156199000Y-84449000D01*
X158801000Y-84449000D01*
X158801000Y-85551000D01*
X158801000Y-85551000D01*
G37*
G36*
X153801000Y-85551000D02*
X151199000Y-85551000D01*
X151199000Y-84449000D01*
X153801000Y-84449000D01*
X153801000Y-85551000D01*
X153801000Y-85551000D01*
G37*
G36*
X148801000Y-85551000D02*
X146199000Y-85551000D01*
X146199000Y-84449000D01*
X148801000Y-84449000D01*
X148801000Y-85551000D01*
X148801000Y-85551000D01*
G37*
G36*
X163801000Y-85551000D02*
X161199000Y-85551000D01*
X161199000Y-84449000D01*
X163801000Y-84449000D01*
X163801000Y-85551000D01*
X163801000Y-85551000D01*
G37*
G36*
X173801000Y-84051000D02*
X171199000Y-84051000D01*
X171199000Y-82949000D01*
X173801000Y-82949000D01*
X173801000Y-84051000D01*
X173801000Y-84051000D01*
G37*
G36*
X143801000Y-84051000D02*
X141199000Y-84051000D01*
X141199000Y-82949000D01*
X143801000Y-82949000D01*
X143801000Y-84051000D01*
X143801000Y-84051000D01*
G37*
G36*
X198801000Y-84051000D02*
X196199000Y-84051000D01*
X196199000Y-82949000D01*
X198801000Y-82949000D01*
X198801000Y-84051000D01*
X198801000Y-84051000D01*
G37*
G36*
X193801000Y-84051000D02*
X191199000Y-84051000D01*
X191199000Y-82949000D01*
X193801000Y-82949000D01*
X193801000Y-84051000D01*
X193801000Y-84051000D01*
G37*
G36*
X168801000Y-84051000D02*
X166199000Y-84051000D01*
X166199000Y-82949000D01*
X168801000Y-82949000D01*
X168801000Y-84051000D01*
X168801000Y-84051000D01*
G37*
G36*
X153801000Y-84051000D02*
X151199000Y-84051000D01*
X151199000Y-82949000D01*
X153801000Y-82949000D01*
X153801000Y-84051000D01*
X153801000Y-84051000D01*
G37*
G36*
X163801000Y-84051000D02*
X161199000Y-84051000D01*
X161199000Y-82949000D01*
X163801000Y-82949000D01*
X163801000Y-84051000D01*
X163801000Y-84051000D01*
G37*
G36*
X158801000Y-84051000D02*
X156199000Y-84051000D01*
X156199000Y-82949000D01*
X158801000Y-82949000D01*
X158801000Y-84051000D01*
X158801000Y-84051000D01*
G37*
G36*
X133801000Y-84051000D02*
X131199000Y-84051000D01*
X131199000Y-82949000D01*
X133801000Y-82949000D01*
X133801000Y-84051000D01*
X133801000Y-84051000D01*
G37*
G36*
X138801000Y-84051000D02*
X136199000Y-84051000D01*
X136199000Y-82949000D01*
X138801000Y-82949000D01*
X138801000Y-84051000D01*
X138801000Y-84051000D01*
G37*
G36*
X108801000Y-84051000D02*
X106199000Y-84051000D01*
X106199000Y-82949000D01*
X108801000Y-82949000D01*
X108801000Y-84051000D01*
X108801000Y-84051000D01*
G37*
G36*
X103801000Y-84051000D02*
X101199000Y-84051000D01*
X101199000Y-82949000D01*
X103801000Y-82949000D01*
X103801000Y-84051000D01*
X103801000Y-84051000D01*
G37*
G36*
X178801000Y-84051000D02*
X176199000Y-84051000D01*
X176199000Y-82949000D01*
X178801000Y-82949000D01*
X178801000Y-84051000D01*
X178801000Y-84051000D01*
G37*
G36*
X113801000Y-84051000D02*
X111199000Y-84051000D01*
X111199000Y-82949000D01*
X113801000Y-82949000D01*
X113801000Y-84051000D01*
X113801000Y-84051000D01*
G37*
G36*
X128801000Y-84051000D02*
X126199000Y-84051000D01*
X126199000Y-82949000D01*
X128801000Y-82949000D01*
X128801000Y-84051000D01*
X128801000Y-84051000D01*
G37*
G36*
X123801000Y-84051000D02*
X121199000Y-84051000D01*
X121199000Y-82949000D01*
X123801000Y-82949000D01*
X123801000Y-84051000D01*
X123801000Y-84051000D01*
G37*
G36*
X118801000Y-84051000D02*
X116199000Y-84051000D01*
X116199000Y-82949000D01*
X118801000Y-82949000D01*
X118801000Y-84051000D01*
X118801000Y-84051000D01*
G37*
G36*
X183801000Y-84051000D02*
X181199000Y-84051000D01*
X181199000Y-82949000D01*
X183801000Y-82949000D01*
X183801000Y-84051000D01*
X183801000Y-84051000D01*
G37*
G36*
X148801000Y-84051000D02*
X146199000Y-84051000D01*
X146199000Y-82949000D01*
X148801000Y-82949000D01*
X148801000Y-84051000D01*
X148801000Y-84051000D01*
G37*
G36*
X188801000Y-84051000D02*
X186199000Y-84051000D01*
X186199000Y-82949000D01*
X188801000Y-82949000D01*
X188801000Y-84051000D01*
X188801000Y-84051000D01*
G37*
G36*
X103082510Y-80222041D02*
X103206032Y-80234207D01*
X103404146Y-80294305D01*
X103586729Y-80391897D01*
X103746765Y-80523235D01*
X103878103Y-80683271D01*
X103975695Y-80865854D01*
X104035793Y-81063968D01*
X104056085Y-81270000D01*
X104035793Y-81476032D01*
X103975695Y-81674146D01*
X103878103Y-81856729D01*
X103746765Y-82016765D01*
X103586729Y-82148103D01*
X103404146Y-82245695D01*
X103206032Y-82305793D01*
X103082510Y-82317959D01*
X103051631Y-82321000D01*
X101948369Y-82321000D01*
X101917490Y-82317959D01*
X101793968Y-82305793D01*
X101595854Y-82245695D01*
X101413271Y-82148103D01*
X101253235Y-82016765D01*
X101121897Y-81856729D01*
X101024305Y-81674146D01*
X100964207Y-81476032D01*
X100943915Y-81270000D01*
X100964207Y-81063968D01*
X101024305Y-80865854D01*
X101121897Y-80683271D01*
X101253235Y-80523235D01*
X101413271Y-80391897D01*
X101595854Y-80294305D01*
X101793968Y-80234207D01*
X101917490Y-80222041D01*
X101948369Y-80219000D01*
X103051631Y-80219000D01*
X103082510Y-80222041D01*
X103082510Y-80222041D01*
G37*
G36*
X103082510Y-77682041D02*
X103206032Y-77694207D01*
X103404146Y-77754305D01*
X103586729Y-77851897D01*
X103746765Y-77983235D01*
X103878103Y-78143271D01*
X103975695Y-78325854D01*
X104035793Y-78523968D01*
X104056085Y-78730000D01*
X104035793Y-78936032D01*
X103975695Y-79134146D01*
X103878103Y-79316729D01*
X103746765Y-79476765D01*
X103586729Y-79608103D01*
X103404146Y-79705695D01*
X103206032Y-79765793D01*
X103082510Y-79777959D01*
X103051631Y-79781000D01*
X101948369Y-79781000D01*
X101917490Y-79777959D01*
X101793968Y-79765793D01*
X101595854Y-79705695D01*
X101413271Y-79608103D01*
X101253235Y-79476765D01*
X101121897Y-79316729D01*
X101024305Y-79134146D01*
X100964207Y-78936032D01*
X100943915Y-78730000D01*
X100964207Y-78523968D01*
X101024305Y-78325854D01*
X101121897Y-78143271D01*
X101253235Y-77983235D01*
X101413271Y-77851897D01*
X101595854Y-77754305D01*
X101793968Y-77694207D01*
X101917490Y-77682041D01*
X101948369Y-77679000D01*
X103051631Y-77679000D01*
X103082510Y-77682041D01*
X103082510Y-77682041D01*
G37*
G36*
X108801000Y-77051000D02*
X106199000Y-77051000D01*
X106199000Y-75949000D01*
X108801000Y-75949000D01*
X108801000Y-77051000D01*
X108801000Y-77051000D01*
G37*
G36*
X188801000Y-77051000D02*
X186199000Y-77051000D01*
X186199000Y-75949000D01*
X188801000Y-75949000D01*
X188801000Y-77051000D01*
X188801000Y-77051000D01*
G37*
G36*
X183801000Y-77051000D02*
X181199000Y-77051000D01*
X181199000Y-75949000D01*
X183801000Y-75949000D01*
X183801000Y-77051000D01*
X183801000Y-77051000D01*
G37*
G36*
X193801000Y-77051000D02*
X191199000Y-77051000D01*
X191199000Y-75949000D01*
X193801000Y-75949000D01*
X193801000Y-77051000D01*
X193801000Y-77051000D01*
G37*
G36*
X178801000Y-77051000D02*
X176199000Y-77051000D01*
X176199000Y-75949000D01*
X178801000Y-75949000D01*
X178801000Y-77051000D01*
X178801000Y-77051000D01*
G37*
G36*
X173801000Y-77051000D02*
X171199000Y-77051000D01*
X171199000Y-75949000D01*
X173801000Y-75949000D01*
X173801000Y-77051000D01*
X173801000Y-77051000D01*
G37*
G36*
X198801000Y-77051000D02*
X196199000Y-77051000D01*
X196199000Y-75949000D01*
X198801000Y-75949000D01*
X198801000Y-77051000D01*
X198801000Y-77051000D01*
G37*
G36*
X168801000Y-77051000D02*
X166199000Y-77051000D01*
X166199000Y-75949000D01*
X168801000Y-75949000D01*
X168801000Y-77051000D01*
X168801000Y-77051000D01*
G37*
G36*
X128801000Y-77051000D02*
X126199000Y-77051000D01*
X126199000Y-75949000D01*
X128801000Y-75949000D01*
X128801000Y-77051000D01*
X128801000Y-77051000D01*
G37*
G36*
X123801000Y-77051000D02*
X121199000Y-77051000D01*
X121199000Y-75949000D01*
X123801000Y-75949000D01*
X123801000Y-77051000D01*
X123801000Y-77051000D01*
G37*
G36*
X118801000Y-77051000D02*
X116199000Y-77051000D01*
X116199000Y-75949000D01*
X118801000Y-75949000D01*
X118801000Y-77051000D01*
X118801000Y-77051000D01*
G37*
G36*
X138801000Y-77051000D02*
X136199000Y-77051000D01*
X136199000Y-75949000D01*
X138801000Y-75949000D01*
X138801000Y-77051000D01*
X138801000Y-77051000D01*
G37*
G36*
X113801000Y-77051000D02*
X111199000Y-77051000D01*
X111199000Y-75949000D01*
X113801000Y-75949000D01*
X113801000Y-77051000D01*
X113801000Y-77051000D01*
G37*
G36*
X163801000Y-77051000D02*
X161199000Y-77051000D01*
X161199000Y-75949000D01*
X163801000Y-75949000D01*
X163801000Y-77051000D01*
X163801000Y-77051000D01*
G37*
G36*
X103801000Y-77051000D02*
X101199000Y-77051000D01*
X101199000Y-75949000D01*
X103801000Y-75949000D01*
X103801000Y-77051000D01*
X103801000Y-77051000D01*
G37*
G36*
X158801000Y-77051000D02*
X156199000Y-77051000D01*
X156199000Y-75949000D01*
X158801000Y-75949000D01*
X158801000Y-77051000D01*
X158801000Y-77051000D01*
G37*
G36*
X143801000Y-77051000D02*
X141199000Y-77051000D01*
X141199000Y-75949000D01*
X143801000Y-75949000D01*
X143801000Y-77051000D01*
X143801000Y-77051000D01*
G37*
G36*
X153801000Y-77051000D02*
X151199000Y-77051000D01*
X151199000Y-75949000D01*
X153801000Y-75949000D01*
X153801000Y-77051000D01*
X153801000Y-77051000D01*
G37*
G36*
X148801000Y-77051000D02*
X146199000Y-77051000D01*
X146199000Y-75949000D01*
X148801000Y-75949000D01*
X148801000Y-77051000D01*
X148801000Y-77051000D01*
G37*
G36*
X133801000Y-77051000D02*
X131199000Y-77051000D01*
X131199000Y-75949000D01*
X133801000Y-75949000D01*
X133801000Y-77051000D01*
X133801000Y-77051000D01*
G37*
G36*
X128801000Y-75551000D02*
X126199000Y-75551000D01*
X126199000Y-74449000D01*
X128801000Y-74449000D01*
X128801000Y-75551000D01*
X128801000Y-75551000D01*
G37*
G36*
X178801000Y-75551000D02*
X176199000Y-75551000D01*
X176199000Y-74449000D01*
X178801000Y-74449000D01*
X178801000Y-75551000D01*
X178801000Y-75551000D01*
G37*
G36*
X173801000Y-75551000D02*
X171199000Y-75551000D01*
X171199000Y-74449000D01*
X173801000Y-74449000D01*
X173801000Y-75551000D01*
X173801000Y-75551000D01*
G37*
G36*
X103801000Y-75551000D02*
X101199000Y-75551000D01*
X101199000Y-74449000D01*
X103801000Y-74449000D01*
X103801000Y-75551000D01*
X103801000Y-75551000D01*
G37*
G36*
X113801000Y-75551000D02*
X111199000Y-75551000D01*
X111199000Y-74449000D01*
X113801000Y-74449000D01*
X113801000Y-75551000D01*
X113801000Y-75551000D01*
G37*
G36*
X133801000Y-75551000D02*
X131199000Y-75551000D01*
X131199000Y-74449000D01*
X133801000Y-74449000D01*
X133801000Y-75551000D01*
X133801000Y-75551000D01*
G37*
G36*
X138801000Y-75551000D02*
X136199000Y-75551000D01*
X136199000Y-74449000D01*
X138801000Y-74449000D01*
X138801000Y-75551000D01*
X138801000Y-75551000D01*
G37*
G36*
X143801000Y-75551000D02*
X141199000Y-75551000D01*
X141199000Y-74449000D01*
X143801000Y-74449000D01*
X143801000Y-75551000D01*
X143801000Y-75551000D01*
G37*
G36*
X148801000Y-75551000D02*
X146199000Y-75551000D01*
X146199000Y-74449000D01*
X148801000Y-74449000D01*
X148801000Y-75551000D01*
X148801000Y-75551000D01*
G37*
G36*
X168801000Y-75551000D02*
X166199000Y-75551000D01*
X166199000Y-74449000D01*
X168801000Y-74449000D01*
X168801000Y-75551000D01*
X168801000Y-75551000D01*
G37*
G36*
X108801000Y-75551000D02*
X106199000Y-75551000D01*
X106199000Y-74449000D01*
X108801000Y-74449000D01*
X108801000Y-75551000D01*
X108801000Y-75551000D01*
G37*
G36*
X123801000Y-75551000D02*
X121199000Y-75551000D01*
X121199000Y-74449000D01*
X123801000Y-74449000D01*
X123801000Y-75551000D01*
X123801000Y-75551000D01*
G37*
G36*
X163801000Y-75551000D02*
X161199000Y-75551000D01*
X161199000Y-74449000D01*
X163801000Y-74449000D01*
X163801000Y-75551000D01*
X163801000Y-75551000D01*
G37*
G36*
X188801000Y-75551000D02*
X186199000Y-75551000D01*
X186199000Y-74449000D01*
X188801000Y-74449000D01*
X188801000Y-75551000D01*
X188801000Y-75551000D01*
G37*
G36*
X198801000Y-75551000D02*
X196199000Y-75551000D01*
X196199000Y-74449000D01*
X198801000Y-74449000D01*
X198801000Y-75551000D01*
X198801000Y-75551000D01*
G37*
G36*
X193801000Y-75551000D02*
X191199000Y-75551000D01*
X191199000Y-74449000D01*
X193801000Y-74449000D01*
X193801000Y-75551000D01*
X193801000Y-75551000D01*
G37*
G36*
X118801000Y-75551000D02*
X116199000Y-75551000D01*
X116199000Y-74449000D01*
X118801000Y-74449000D01*
X118801000Y-75551000D01*
X118801000Y-75551000D01*
G37*
G36*
X153801000Y-75551000D02*
X151199000Y-75551000D01*
X151199000Y-74449000D01*
X153801000Y-74449000D01*
X153801000Y-75551000D01*
X153801000Y-75551000D01*
G37*
G36*
X158801000Y-75551000D02*
X156199000Y-75551000D01*
X156199000Y-74449000D01*
X158801000Y-74449000D01*
X158801000Y-75551000D01*
X158801000Y-75551000D01*
G37*
G36*
X183801000Y-75551000D02*
X181199000Y-75551000D01*
X181199000Y-74449000D01*
X183801000Y-74449000D01*
X183801000Y-75551000D01*
X183801000Y-75551000D01*
G37*
G36*
X193801000Y-74051000D02*
X191199000Y-74051000D01*
X191199000Y-72949000D01*
X193801000Y-72949000D01*
X193801000Y-74051000D01*
X193801000Y-74051000D01*
G37*
G36*
X143801000Y-74051000D02*
X141199000Y-74051000D01*
X141199000Y-72949000D01*
X143801000Y-72949000D01*
X143801000Y-74051000D01*
X143801000Y-74051000D01*
G37*
G36*
X148801000Y-74051000D02*
X146199000Y-74051000D01*
X146199000Y-72949000D01*
X148801000Y-72949000D01*
X148801000Y-74051000D01*
X148801000Y-74051000D01*
G37*
G36*
X123801000Y-74051000D02*
X121199000Y-74051000D01*
X121199000Y-72949000D01*
X123801000Y-72949000D01*
X123801000Y-74051000D01*
X123801000Y-74051000D01*
G37*
G36*
X128801000Y-74051000D02*
X126199000Y-74051000D01*
X126199000Y-72949000D01*
X128801000Y-72949000D01*
X128801000Y-74051000D01*
X128801000Y-74051000D01*
G37*
G36*
X173801000Y-74051000D02*
X171199000Y-74051000D01*
X171199000Y-72949000D01*
X173801000Y-72949000D01*
X173801000Y-74051000D01*
X173801000Y-74051000D01*
G37*
G36*
X138801000Y-74051000D02*
X136199000Y-74051000D01*
X136199000Y-72949000D01*
X138801000Y-72949000D01*
X138801000Y-74051000D01*
X138801000Y-74051000D01*
G37*
G36*
X198801000Y-74051000D02*
X196199000Y-74051000D01*
X196199000Y-72949000D01*
X198801000Y-72949000D01*
X198801000Y-74051000D01*
X198801000Y-74051000D01*
G37*
G36*
X133801000Y-74051000D02*
X131199000Y-74051000D01*
X131199000Y-72949000D01*
X133801000Y-72949000D01*
X133801000Y-74051000D01*
X133801000Y-74051000D01*
G37*
G36*
X163801000Y-74051000D02*
X161199000Y-74051000D01*
X161199000Y-72949000D01*
X163801000Y-72949000D01*
X163801000Y-74051000D01*
X163801000Y-74051000D01*
G37*
G36*
X168801000Y-74051000D02*
X166199000Y-74051000D01*
X166199000Y-72949000D01*
X168801000Y-72949000D01*
X168801000Y-74051000D01*
X168801000Y-74051000D01*
G37*
G36*
X188801000Y-74051000D02*
X186199000Y-74051000D01*
X186199000Y-72949000D01*
X188801000Y-72949000D01*
X188801000Y-74051000D01*
X188801000Y-74051000D01*
G37*
G36*
X153801000Y-74051000D02*
X151199000Y-74051000D01*
X151199000Y-72949000D01*
X153801000Y-72949000D01*
X153801000Y-74051000D01*
X153801000Y-74051000D01*
G37*
G36*
X113801000Y-74051000D02*
X111199000Y-74051000D01*
X111199000Y-72949000D01*
X113801000Y-72949000D01*
X113801000Y-74051000D01*
X113801000Y-74051000D01*
G37*
G36*
X118801000Y-74051000D02*
X116199000Y-74051000D01*
X116199000Y-72949000D01*
X118801000Y-72949000D01*
X118801000Y-74051000D01*
X118801000Y-74051000D01*
G37*
G36*
X103801000Y-74051000D02*
X101199000Y-74051000D01*
X101199000Y-72949000D01*
X103801000Y-72949000D01*
X103801000Y-74051000D01*
X103801000Y-74051000D01*
G37*
G36*
X178801000Y-74051000D02*
X176199000Y-74051000D01*
X176199000Y-72949000D01*
X178801000Y-72949000D01*
X178801000Y-74051000D01*
X178801000Y-74051000D01*
G37*
G36*
X108801000Y-74051000D02*
X106199000Y-74051000D01*
X106199000Y-72949000D01*
X108801000Y-72949000D01*
X108801000Y-74051000D01*
X108801000Y-74051000D01*
G37*
G36*
X183801000Y-74051000D02*
X181199000Y-74051000D01*
X181199000Y-72949000D01*
X183801000Y-72949000D01*
X183801000Y-74051000D01*
X183801000Y-74051000D01*
G37*
G36*
X158801000Y-74051000D02*
X156199000Y-74051000D01*
X156199000Y-72949000D01*
X158801000Y-72949000D01*
X158801000Y-74051000D01*
X158801000Y-74051000D01*
G37*
G36*
X162879485Y-69668996D02*
X162879487Y-69668997D01*
X162879488Y-69668997D01*
X163116255Y-69767069D01*
X163329342Y-69909449D01*
X163510551Y-70090658D01*
X163652931Y-70303745D01*
X163751004Y-70540515D01*
X163801000Y-70791861D01*
X163801000Y-71048139D01*
X163751004Y-71299485D01*
X163652931Y-71536255D01*
X163510551Y-71749342D01*
X163329342Y-71930551D01*
X163329339Y-71930553D01*
X163116255Y-72072931D01*
X162879488Y-72171003D01*
X162879487Y-72171003D01*
X162879485Y-72171004D01*
X162628139Y-72221000D01*
X162371861Y-72221000D01*
X162120515Y-72171004D01*
X162120513Y-72171003D01*
X162120512Y-72171003D01*
X161883745Y-72072931D01*
X161670661Y-71930553D01*
X161670658Y-71930551D01*
X161489449Y-71749342D01*
X161347069Y-71536255D01*
X161248996Y-71299485D01*
X161199000Y-71048139D01*
X161199000Y-70791861D01*
X161248996Y-70540515D01*
X161347069Y-70303745D01*
X161489449Y-70090658D01*
X161670658Y-69909449D01*
X161883745Y-69767069D01*
X162120512Y-69668997D01*
X162120513Y-69668997D01*
X162120515Y-69668996D01*
X162371861Y-69619000D01*
X162628139Y-69619000D01*
X162879485Y-69668996D01*
X162879485Y-69668996D01*
G37*
G36*
X148801000Y-67051000D02*
X146199000Y-67051000D01*
X146199000Y-65949000D01*
X148801000Y-65949000D01*
X148801000Y-67051000D01*
X148801000Y-67051000D01*
G37*
G36*
X103801000Y-67051000D02*
X101199000Y-67051000D01*
X101199000Y-65949000D01*
X103801000Y-65949000D01*
X103801000Y-67051000D01*
X103801000Y-67051000D01*
G37*
G36*
X108801000Y-67051000D02*
X106199000Y-67051000D01*
X106199000Y-65949000D01*
X108801000Y-65949000D01*
X108801000Y-67051000D01*
X108801000Y-67051000D01*
G37*
G36*
X188801000Y-67051000D02*
X186199000Y-67051000D01*
X186199000Y-65949000D01*
X188801000Y-65949000D01*
X188801000Y-67051000D01*
X188801000Y-67051000D01*
G37*
G36*
X198801000Y-67051000D02*
X196199000Y-67051000D01*
X196199000Y-65949000D01*
X198801000Y-65949000D01*
X198801000Y-67051000D01*
X198801000Y-67051000D01*
G37*
G36*
X118801000Y-67051000D02*
X116199000Y-67051000D01*
X116199000Y-65949000D01*
X118801000Y-65949000D01*
X118801000Y-67051000D01*
X118801000Y-67051000D01*
G37*
G36*
X113801000Y-67051000D02*
X111199000Y-67051000D01*
X111199000Y-65949000D01*
X113801000Y-65949000D01*
X113801000Y-67051000D01*
X113801000Y-67051000D01*
G37*
G36*
X133801000Y-67051000D02*
X131199000Y-67051000D01*
X131199000Y-65949000D01*
X133801000Y-65949000D01*
X133801000Y-67051000D01*
X133801000Y-67051000D01*
G37*
G36*
X128801000Y-67051000D02*
X126199000Y-67051000D01*
X126199000Y-65949000D01*
X128801000Y-65949000D01*
X128801000Y-67051000D01*
X128801000Y-67051000D01*
G37*
G36*
X138801000Y-67051000D02*
X136199000Y-67051000D01*
X136199000Y-65949000D01*
X138801000Y-65949000D01*
X138801000Y-67051000D01*
X138801000Y-67051000D01*
G37*
G36*
X143801000Y-67051000D02*
X141199000Y-67051000D01*
X141199000Y-65949000D01*
X143801000Y-65949000D01*
X143801000Y-67051000D01*
X143801000Y-67051000D01*
G37*
G36*
X183801000Y-67051000D02*
X181199000Y-67051000D01*
X181199000Y-65949000D01*
X183801000Y-65949000D01*
X183801000Y-67051000D01*
X183801000Y-67051000D01*
G37*
G36*
X193801000Y-67051000D02*
X191199000Y-67051000D01*
X191199000Y-65949000D01*
X193801000Y-65949000D01*
X193801000Y-67051000D01*
X193801000Y-67051000D01*
G37*
G36*
X178801000Y-67051000D02*
X176199000Y-67051000D01*
X176199000Y-65949000D01*
X178801000Y-65949000D01*
X178801000Y-67051000D01*
X178801000Y-67051000D01*
G37*
G36*
X173801000Y-67051000D02*
X171199000Y-67051000D01*
X171199000Y-65949000D01*
X173801000Y-65949000D01*
X173801000Y-67051000D01*
X173801000Y-67051000D01*
G37*
G36*
X168801000Y-67051000D02*
X166199000Y-67051000D01*
X166199000Y-65949000D01*
X168801000Y-65949000D01*
X168801000Y-67051000D01*
X168801000Y-67051000D01*
G37*
G36*
X163801000Y-67051000D02*
X161199000Y-67051000D01*
X161199000Y-65949000D01*
X163801000Y-65949000D01*
X163801000Y-67051000D01*
X163801000Y-67051000D01*
G37*
G36*
X158801000Y-67051000D02*
X156199000Y-67051000D01*
X156199000Y-65949000D01*
X158801000Y-65949000D01*
X158801000Y-67051000D01*
X158801000Y-67051000D01*
G37*
G36*
X123801000Y-67051000D02*
X121199000Y-67051000D01*
X121199000Y-65949000D01*
X123801000Y-65949000D01*
X123801000Y-67051000D01*
X123801000Y-67051000D01*
G37*
G36*
X153801000Y-67051000D02*
X151199000Y-67051000D01*
X151199000Y-65949000D01*
X153801000Y-65949000D01*
X153801000Y-67051000D01*
X153801000Y-67051000D01*
G37*
G36*
X143801000Y-65551000D02*
X141199000Y-65551000D01*
X141199000Y-64449000D01*
X143801000Y-64449000D01*
X143801000Y-65551000D01*
X143801000Y-65551000D01*
G37*
G36*
X198801000Y-65551000D02*
X196199000Y-65551000D01*
X196199000Y-64449000D01*
X198801000Y-64449000D01*
X198801000Y-65551000D01*
X198801000Y-65551000D01*
G37*
G36*
X173801000Y-65551000D02*
X171199000Y-65551000D01*
X171199000Y-64449000D01*
X173801000Y-64449000D01*
X173801000Y-65551000D01*
X173801000Y-65551000D01*
G37*
G36*
X178801000Y-65551000D02*
X176199000Y-65551000D01*
X176199000Y-64449000D01*
X178801000Y-64449000D01*
X178801000Y-65551000D01*
X178801000Y-65551000D01*
G37*
G36*
X183801000Y-65551000D02*
X181199000Y-65551000D01*
X181199000Y-64449000D01*
X183801000Y-64449000D01*
X183801000Y-65551000D01*
X183801000Y-65551000D01*
G37*
G36*
X188801000Y-65551000D02*
X186199000Y-65551000D01*
X186199000Y-64449000D01*
X188801000Y-64449000D01*
X188801000Y-65551000D01*
X188801000Y-65551000D01*
G37*
G36*
X103801000Y-65551000D02*
X101199000Y-65551000D01*
X101199000Y-64449000D01*
X103801000Y-64449000D01*
X103801000Y-65551000D01*
X103801000Y-65551000D01*
G37*
G36*
X108801000Y-65551000D02*
X106199000Y-65551000D01*
X106199000Y-64449000D01*
X108801000Y-64449000D01*
X108801000Y-65551000D01*
X108801000Y-65551000D01*
G37*
G36*
X113801000Y-65551000D02*
X111199000Y-65551000D01*
X111199000Y-64449000D01*
X113801000Y-64449000D01*
X113801000Y-65551000D01*
X113801000Y-65551000D01*
G37*
G36*
X118801000Y-65551000D02*
X116199000Y-65551000D01*
X116199000Y-64449000D01*
X118801000Y-64449000D01*
X118801000Y-65551000D01*
X118801000Y-65551000D01*
G37*
G36*
X123801000Y-65551000D02*
X121199000Y-65551000D01*
X121199000Y-64449000D01*
X123801000Y-64449000D01*
X123801000Y-65551000D01*
X123801000Y-65551000D01*
G37*
G36*
X128801000Y-65551000D02*
X126199000Y-65551000D01*
X126199000Y-64449000D01*
X128801000Y-64449000D01*
X128801000Y-65551000D01*
X128801000Y-65551000D01*
G37*
G36*
X168801000Y-65551000D02*
X166199000Y-65551000D01*
X166199000Y-64449000D01*
X168801000Y-64449000D01*
X168801000Y-65551000D01*
X168801000Y-65551000D01*
G37*
G36*
X148801000Y-65551000D02*
X146199000Y-65551000D01*
X146199000Y-64449000D01*
X148801000Y-64449000D01*
X148801000Y-65551000D01*
X148801000Y-65551000D01*
G37*
G36*
X138801000Y-65551000D02*
X136199000Y-65551000D01*
X136199000Y-64449000D01*
X138801000Y-64449000D01*
X138801000Y-65551000D01*
X138801000Y-65551000D01*
G37*
G36*
X153801000Y-65551000D02*
X151199000Y-65551000D01*
X151199000Y-64449000D01*
X153801000Y-64449000D01*
X153801000Y-65551000D01*
X153801000Y-65551000D01*
G37*
G36*
X158801000Y-65551000D02*
X156199000Y-65551000D01*
X156199000Y-64449000D01*
X158801000Y-64449000D01*
X158801000Y-65551000D01*
X158801000Y-65551000D01*
G37*
G36*
X163801000Y-65551000D02*
X161199000Y-65551000D01*
X161199000Y-64449000D01*
X163801000Y-64449000D01*
X163801000Y-65551000D01*
X163801000Y-65551000D01*
G37*
G36*
X133801000Y-65551000D02*
X131199000Y-65551000D01*
X131199000Y-64449000D01*
X133801000Y-64449000D01*
X133801000Y-65551000D01*
X133801000Y-65551000D01*
G37*
G36*
X193801000Y-65551000D02*
X191199000Y-65551000D01*
X191199000Y-64449000D01*
X193801000Y-64449000D01*
X193801000Y-65551000D01*
X193801000Y-65551000D01*
G37*
G36*
X143801000Y-64051000D02*
X141199000Y-64051000D01*
X141199000Y-62949000D01*
X143801000Y-62949000D01*
X143801000Y-64051000D01*
X143801000Y-64051000D01*
G37*
G36*
X128801000Y-64051000D02*
X126199000Y-64051000D01*
X126199000Y-62949000D01*
X128801000Y-62949000D01*
X128801000Y-64051000D01*
X128801000Y-64051000D01*
G37*
G36*
X118801000Y-64051000D02*
X116199000Y-64051000D01*
X116199000Y-62949000D01*
X118801000Y-62949000D01*
X118801000Y-64051000D01*
X118801000Y-64051000D01*
G37*
G36*
X108801000Y-64051000D02*
X106199000Y-64051000D01*
X106199000Y-62949000D01*
X108801000Y-62949000D01*
X108801000Y-64051000D01*
X108801000Y-64051000D01*
G37*
G36*
X193801000Y-64051000D02*
X191199000Y-64051000D01*
X191199000Y-62949000D01*
X193801000Y-62949000D01*
X193801000Y-64051000D01*
X193801000Y-64051000D01*
G37*
G36*
X198801000Y-64051000D02*
X196199000Y-64051000D01*
X196199000Y-62949000D01*
X198801000Y-62949000D01*
X198801000Y-64051000D01*
X198801000Y-64051000D01*
G37*
G36*
X158801000Y-64051000D02*
X156199000Y-64051000D01*
X156199000Y-62949000D01*
X158801000Y-62949000D01*
X158801000Y-64051000D01*
X158801000Y-64051000D01*
G37*
G36*
X168801000Y-64051000D02*
X166199000Y-64051000D01*
X166199000Y-62949000D01*
X168801000Y-62949000D01*
X168801000Y-64051000D01*
X168801000Y-64051000D01*
G37*
G36*
X163801000Y-64051000D02*
X161199000Y-64051000D01*
X161199000Y-62949000D01*
X163801000Y-62949000D01*
X163801000Y-64051000D01*
X163801000Y-64051000D01*
G37*
G36*
X113801000Y-64051000D02*
X111199000Y-64051000D01*
X111199000Y-62949000D01*
X113801000Y-62949000D01*
X113801000Y-64051000D01*
X113801000Y-64051000D01*
G37*
G36*
X103801000Y-64051000D02*
X101199000Y-64051000D01*
X101199000Y-62949000D01*
X103801000Y-62949000D01*
X103801000Y-64051000D01*
X103801000Y-64051000D01*
G37*
G36*
X133801000Y-64051000D02*
X131199000Y-64051000D01*
X131199000Y-62949000D01*
X133801000Y-62949000D01*
X133801000Y-64051000D01*
X133801000Y-64051000D01*
G37*
G36*
X178801000Y-64051000D02*
X176199000Y-64051000D01*
X176199000Y-62949000D01*
X178801000Y-62949000D01*
X178801000Y-64051000D01*
X178801000Y-64051000D01*
G37*
G36*
X188801000Y-64051000D02*
X186199000Y-64051000D01*
X186199000Y-62949000D01*
X188801000Y-62949000D01*
X188801000Y-64051000D01*
X188801000Y-64051000D01*
G37*
G36*
X123801000Y-64051000D02*
X121199000Y-64051000D01*
X121199000Y-62949000D01*
X123801000Y-62949000D01*
X123801000Y-64051000D01*
X123801000Y-64051000D01*
G37*
G36*
X148801000Y-64051000D02*
X146199000Y-64051000D01*
X146199000Y-62949000D01*
X148801000Y-62949000D01*
X148801000Y-64051000D01*
X148801000Y-64051000D01*
G37*
G36*
X173801000Y-64051000D02*
X171199000Y-64051000D01*
X171199000Y-62949000D01*
X173801000Y-62949000D01*
X173801000Y-64051000D01*
X173801000Y-64051000D01*
G37*
G36*
X138801000Y-64051000D02*
X136199000Y-64051000D01*
X136199000Y-62949000D01*
X138801000Y-62949000D01*
X138801000Y-64051000D01*
X138801000Y-64051000D01*
G37*
G36*
X183801000Y-64051000D02*
X181199000Y-64051000D01*
X181199000Y-62949000D01*
X183801000Y-62949000D01*
X183801000Y-64051000D01*
X183801000Y-64051000D01*
G37*
G36*
X153801000Y-64051000D02*
X151199000Y-64051000D01*
X151199000Y-62949000D01*
X153801000Y-62949000D01*
X153801000Y-64051000D01*
X153801000Y-64051000D01*
G37*
G36*
X110598252Y-58027818D02*
X110598254Y-58027819D01*
X110598255Y-58027819D01*
X110971513Y-58182427D01*
X110971514Y-58182428D01*
X111307439Y-58406886D01*
X111593114Y-58692561D01*
X111593116Y-58692564D01*
X111817573Y-59028487D01*
X111972181Y-59401745D01*
X112051000Y-59797994D01*
X112051000Y-60202006D01*
X111972181Y-60598255D01*
X111817573Y-60971513D01*
X111817572Y-60971514D01*
X111593114Y-61307439D01*
X111307439Y-61593114D01*
X111307436Y-61593116D01*
X110971513Y-61817573D01*
X110598255Y-61972181D01*
X110598254Y-61972181D01*
X110598252Y-61972182D01*
X110202007Y-62051000D01*
X109797993Y-62051000D01*
X109401748Y-61972182D01*
X109401746Y-61972181D01*
X109401745Y-61972181D01*
X109028487Y-61817573D01*
X108692564Y-61593116D01*
X108692561Y-61593114D01*
X108406886Y-61307439D01*
X108182428Y-60971514D01*
X108182427Y-60971513D01*
X108027819Y-60598255D01*
X107949000Y-60202006D01*
X107949000Y-59797994D01*
X108027819Y-59401745D01*
X108182427Y-59028487D01*
X108406884Y-58692564D01*
X108406886Y-58692561D01*
X108692561Y-58406886D01*
X109028486Y-58182428D01*
X109028487Y-58182427D01*
X109401745Y-58027819D01*
X109401746Y-58027819D01*
X109401748Y-58027818D01*
X109797993Y-57949000D01*
X110202007Y-57949000D01*
X110598252Y-58027818D01*
X110598252Y-58027818D01*
G37*
G36*
X150598252Y-58027818D02*
X150598254Y-58027819D01*
X150598255Y-58027819D01*
X150971513Y-58182427D01*
X150971514Y-58182428D01*
X151307439Y-58406886D01*
X151593114Y-58692561D01*
X151593116Y-58692564D01*
X151817573Y-59028487D01*
X151972181Y-59401745D01*
X152051000Y-59797994D01*
X152051000Y-60202006D01*
X151972181Y-60598255D01*
X151817573Y-60971513D01*
X151817572Y-60971514D01*
X151593114Y-61307439D01*
X151307439Y-61593114D01*
X151307436Y-61593116D01*
X150971513Y-61817573D01*
X150598255Y-61972181D01*
X150598254Y-61972181D01*
X150598252Y-61972182D01*
X150202007Y-62051000D01*
X149797993Y-62051000D01*
X149401748Y-61972182D01*
X149401746Y-61972181D01*
X149401745Y-61972181D01*
X149028487Y-61817573D01*
X148692564Y-61593116D01*
X148692561Y-61593114D01*
X148406886Y-61307439D01*
X148182428Y-60971514D01*
X148182427Y-60971513D01*
X148027819Y-60598255D01*
X147949000Y-60202006D01*
X147949000Y-59797994D01*
X148027819Y-59401745D01*
X148182427Y-59028487D01*
X148406884Y-58692564D01*
X148406886Y-58692561D01*
X148692561Y-58406886D01*
X149028486Y-58182428D01*
X149028487Y-58182427D01*
X149401745Y-58027819D01*
X149401746Y-58027819D01*
X149401748Y-58027818D01*
X149797993Y-57949000D01*
X150202007Y-57949000D01*
X150598252Y-58027818D01*
X150598252Y-58027818D01*
G37*
G36*
X190598252Y-58027818D02*
X190598254Y-58027819D01*
X190598255Y-58027819D01*
X190971513Y-58182427D01*
X190971514Y-58182428D01*
X191307439Y-58406886D01*
X191593114Y-58692561D01*
X191593116Y-58692564D01*
X191817573Y-59028487D01*
X191972181Y-59401745D01*
X192051000Y-59797994D01*
X192051000Y-60202006D01*
X191972181Y-60598255D01*
X191817573Y-60971513D01*
X191817572Y-60971514D01*
X191593114Y-61307439D01*
X191307439Y-61593114D01*
X191307436Y-61593116D01*
X190971513Y-61817573D01*
X190598255Y-61972181D01*
X190598254Y-61972181D01*
X190598252Y-61972182D01*
X190202007Y-62051000D01*
X189797993Y-62051000D01*
X189401748Y-61972182D01*
X189401746Y-61972181D01*
X189401745Y-61972181D01*
X189028487Y-61817573D01*
X188692564Y-61593116D01*
X188692561Y-61593114D01*
X188406886Y-61307439D01*
X188182428Y-60971514D01*
X188182427Y-60971513D01*
X188027819Y-60598255D01*
X187949000Y-60202006D01*
X187949000Y-59797994D01*
X188027819Y-59401745D01*
X188182427Y-59028487D01*
X188406884Y-58692564D01*
X188406886Y-58692561D01*
X188692561Y-58406886D01*
X189028486Y-58182428D01*
X189028487Y-58182427D01*
X189401745Y-58027819D01*
X189401746Y-58027819D01*
X189401748Y-58027818D01*
X189797993Y-57949000D01*
X190202007Y-57949000D01*
X190598252Y-58027818D01*
X190598252Y-58027818D01*
G37*
G36*
X138801000Y-57051000D02*
X136199000Y-57051000D01*
X136199000Y-55949000D01*
X138801000Y-55949000D01*
X138801000Y-57051000D01*
X138801000Y-57051000D01*
G37*
G36*
X173801000Y-57051000D02*
X171199000Y-57051000D01*
X171199000Y-55949000D01*
X173801000Y-55949000D01*
X173801000Y-57051000D01*
X173801000Y-57051000D01*
G37*
G36*
X178801000Y-57051000D02*
X176199000Y-57051000D01*
X176199000Y-55949000D01*
X178801000Y-55949000D01*
X178801000Y-57051000D01*
X178801000Y-57051000D01*
G37*
G36*
X183801000Y-57051000D02*
X181199000Y-57051000D01*
X181199000Y-55949000D01*
X183801000Y-55949000D01*
X183801000Y-57051000D01*
X183801000Y-57051000D01*
G37*
G36*
X188801000Y-57051000D02*
X186199000Y-57051000D01*
X186199000Y-55949000D01*
X188801000Y-55949000D01*
X188801000Y-57051000D01*
X188801000Y-57051000D01*
G37*
G36*
X193801000Y-57051000D02*
X191199000Y-57051000D01*
X191199000Y-55949000D01*
X193801000Y-55949000D01*
X193801000Y-57051000D01*
X193801000Y-57051000D01*
G37*
G36*
X198801000Y-57051000D02*
X196199000Y-57051000D01*
X196199000Y-55949000D01*
X198801000Y-55949000D01*
X198801000Y-57051000D01*
X198801000Y-57051000D01*
G37*
G36*
X168801000Y-57051000D02*
X166199000Y-57051000D01*
X166199000Y-55949000D01*
X168801000Y-55949000D01*
X168801000Y-57051000D01*
X168801000Y-57051000D01*
G37*
G36*
X163801000Y-57051000D02*
X161199000Y-57051000D01*
X161199000Y-55949000D01*
X163801000Y-55949000D01*
X163801000Y-57051000D01*
X163801000Y-57051000D01*
G37*
G36*
X123801000Y-57051000D02*
X121199000Y-57051000D01*
X121199000Y-55949000D01*
X123801000Y-55949000D01*
X123801000Y-57051000D01*
X123801000Y-57051000D01*
G37*
G36*
X103801000Y-57051000D02*
X101199000Y-57051000D01*
X101199000Y-55949000D01*
X103801000Y-55949000D01*
X103801000Y-57051000D01*
X103801000Y-57051000D01*
G37*
G36*
X128801000Y-57051000D02*
X126199000Y-57051000D01*
X126199000Y-55949000D01*
X128801000Y-55949000D01*
X128801000Y-57051000D01*
X128801000Y-57051000D01*
G37*
G36*
X133801000Y-57051000D02*
X131199000Y-57051000D01*
X131199000Y-55949000D01*
X133801000Y-55949000D01*
X133801000Y-57051000D01*
X133801000Y-57051000D01*
G37*
G36*
X108801000Y-57051000D02*
X106199000Y-57051000D01*
X106199000Y-55949000D01*
X108801000Y-55949000D01*
X108801000Y-57051000D01*
X108801000Y-57051000D01*
G37*
G36*
X148801000Y-57051000D02*
X146199000Y-57051000D01*
X146199000Y-55949000D01*
X148801000Y-55949000D01*
X148801000Y-57051000D01*
X148801000Y-57051000D01*
G37*
G36*
X143801000Y-57051000D02*
X141199000Y-57051000D01*
X141199000Y-55949000D01*
X143801000Y-55949000D01*
X143801000Y-57051000D01*
X143801000Y-57051000D01*
G37*
G36*
X113801000Y-57051000D02*
X111199000Y-57051000D01*
X111199000Y-55949000D01*
X113801000Y-55949000D01*
X113801000Y-57051000D01*
X113801000Y-57051000D01*
G37*
G36*
X118801000Y-57051000D02*
X116199000Y-57051000D01*
X116199000Y-55949000D01*
X118801000Y-55949000D01*
X118801000Y-57051000D01*
X118801000Y-57051000D01*
G37*
G36*
X158801000Y-57051000D02*
X156199000Y-57051000D01*
X156199000Y-55949000D01*
X158801000Y-55949000D01*
X158801000Y-57051000D01*
X158801000Y-57051000D01*
G37*
G36*
X153801000Y-57051000D02*
X151199000Y-57051000D01*
X151199000Y-55949000D01*
X153801000Y-55949000D01*
X153801000Y-57051000D01*
X153801000Y-57051000D01*
G37*
G36*
X123801000Y-55551000D02*
X121199000Y-55551000D01*
X121199000Y-54449000D01*
X123801000Y-54449000D01*
X123801000Y-55551000D01*
X123801000Y-55551000D01*
G37*
G36*
X178801000Y-55551000D02*
X176199000Y-55551000D01*
X176199000Y-54449000D01*
X178801000Y-54449000D01*
X178801000Y-55551000D01*
X178801000Y-55551000D01*
G37*
G36*
X173801000Y-55551000D02*
X171199000Y-55551000D01*
X171199000Y-54449000D01*
X173801000Y-54449000D01*
X173801000Y-55551000D01*
X173801000Y-55551000D01*
G37*
G36*
X133801000Y-55551000D02*
X131199000Y-55551000D01*
X131199000Y-54449000D01*
X133801000Y-54449000D01*
X133801000Y-55551000D01*
X133801000Y-55551000D01*
G37*
G36*
X128801000Y-55551000D02*
X126199000Y-55551000D01*
X126199000Y-54449000D01*
X128801000Y-54449000D01*
X128801000Y-55551000D01*
X128801000Y-55551000D01*
G37*
G36*
X188801000Y-55551000D02*
X186199000Y-55551000D01*
X186199000Y-54449000D01*
X188801000Y-54449000D01*
X188801000Y-55551000D01*
X188801000Y-55551000D01*
G37*
G36*
X148801000Y-55551000D02*
X146199000Y-55551000D01*
X146199000Y-54449000D01*
X148801000Y-54449000D01*
X148801000Y-55551000D01*
X148801000Y-55551000D01*
G37*
G36*
X183801000Y-55551000D02*
X181199000Y-55551000D01*
X181199000Y-54449000D01*
X183801000Y-54449000D01*
X183801000Y-55551000D01*
X183801000Y-55551000D01*
G37*
G36*
X143801000Y-55551000D02*
X141199000Y-55551000D01*
X141199000Y-54449000D01*
X143801000Y-54449000D01*
X143801000Y-55551000D01*
X143801000Y-55551000D01*
G37*
G36*
X193801000Y-55551000D02*
X191199000Y-55551000D01*
X191199000Y-54449000D01*
X193801000Y-54449000D01*
X193801000Y-55551000D01*
X193801000Y-55551000D01*
G37*
G36*
X158801000Y-55551000D02*
X156199000Y-55551000D01*
X156199000Y-54449000D01*
X158801000Y-54449000D01*
X158801000Y-55551000D01*
X158801000Y-55551000D01*
G37*
G36*
X163801000Y-55551000D02*
X161199000Y-55551000D01*
X161199000Y-54449000D01*
X163801000Y-54449000D01*
X163801000Y-55551000D01*
X163801000Y-55551000D01*
G37*
G36*
X168801000Y-55551000D02*
X166199000Y-55551000D01*
X166199000Y-54449000D01*
X168801000Y-54449000D01*
X168801000Y-55551000D01*
X168801000Y-55551000D01*
G37*
G36*
X108801000Y-55551000D02*
X106199000Y-55551000D01*
X106199000Y-54449000D01*
X108801000Y-54449000D01*
X108801000Y-55551000D01*
X108801000Y-55551000D01*
G37*
G36*
X153801000Y-55551000D02*
X151199000Y-55551000D01*
X151199000Y-54449000D01*
X153801000Y-54449000D01*
X153801000Y-55551000D01*
X153801000Y-55551000D01*
G37*
G36*
X198801000Y-55551000D02*
X196199000Y-55551000D01*
X196199000Y-54449000D01*
X198801000Y-54449000D01*
X198801000Y-55551000D01*
X198801000Y-55551000D01*
G37*
G36*
X138801000Y-55551000D02*
X136199000Y-55551000D01*
X136199000Y-54449000D01*
X138801000Y-54449000D01*
X138801000Y-55551000D01*
X138801000Y-55551000D01*
G37*
G36*
X118801000Y-55551000D02*
X116199000Y-55551000D01*
X116199000Y-54449000D01*
X118801000Y-54449000D01*
X118801000Y-55551000D01*
X118801000Y-55551000D01*
G37*
G36*
X103801000Y-55551000D02*
X101199000Y-55551000D01*
X101199000Y-54449000D01*
X103801000Y-54449000D01*
X103801000Y-55551000D01*
X103801000Y-55551000D01*
G37*
G36*
X113801000Y-55551000D02*
X111199000Y-55551000D01*
X111199000Y-54449000D01*
X113801000Y-54449000D01*
X113801000Y-55551000D01*
X113801000Y-55551000D01*
G37*
G36*
X123801000Y-54051000D02*
X121199000Y-54051000D01*
X121199000Y-52949000D01*
X123801000Y-52949000D01*
X123801000Y-54051000D01*
X123801000Y-54051000D01*
G37*
G36*
X113801000Y-54051000D02*
X111199000Y-54051000D01*
X111199000Y-52949000D01*
X113801000Y-52949000D01*
X113801000Y-54051000D01*
X113801000Y-54051000D01*
G37*
G36*
X118801000Y-54051000D02*
X116199000Y-54051000D01*
X116199000Y-52949000D01*
X118801000Y-52949000D01*
X118801000Y-54051000D01*
X118801000Y-54051000D01*
G37*
G36*
X138801000Y-54051000D02*
X136199000Y-54051000D01*
X136199000Y-52949000D01*
X138801000Y-52949000D01*
X138801000Y-54051000D01*
X138801000Y-54051000D01*
G37*
G36*
X178801000Y-54051000D02*
X176199000Y-54051000D01*
X176199000Y-52949000D01*
X178801000Y-52949000D01*
X178801000Y-54051000D01*
X178801000Y-54051000D01*
G37*
G36*
X183801000Y-54051000D02*
X181199000Y-54051000D01*
X181199000Y-52949000D01*
X183801000Y-52949000D01*
X183801000Y-54051000D01*
X183801000Y-54051000D01*
G37*
G36*
X188801000Y-54051000D02*
X186199000Y-54051000D01*
X186199000Y-52949000D01*
X188801000Y-52949000D01*
X188801000Y-54051000D01*
X188801000Y-54051000D01*
G37*
G36*
X173801000Y-54051000D02*
X171199000Y-54051000D01*
X171199000Y-52949000D01*
X173801000Y-52949000D01*
X173801000Y-54051000D01*
X173801000Y-54051000D01*
G37*
G36*
X133801000Y-54051000D02*
X131199000Y-54051000D01*
X131199000Y-52949000D01*
X133801000Y-52949000D01*
X133801000Y-54051000D01*
X133801000Y-54051000D01*
G37*
G36*
X153801000Y-54051000D02*
X151199000Y-54051000D01*
X151199000Y-52949000D01*
X153801000Y-52949000D01*
X153801000Y-54051000D01*
X153801000Y-54051000D01*
G37*
G36*
X143801000Y-54051000D02*
X141199000Y-54051000D01*
X141199000Y-52949000D01*
X143801000Y-52949000D01*
X143801000Y-54051000D01*
X143801000Y-54051000D01*
G37*
G36*
X198801000Y-54051000D02*
X196199000Y-54051000D01*
X196199000Y-52949000D01*
X198801000Y-52949000D01*
X198801000Y-54051000D01*
X198801000Y-54051000D01*
G37*
G36*
X193801000Y-54051000D02*
X191199000Y-54051000D01*
X191199000Y-52949000D01*
X193801000Y-52949000D01*
X193801000Y-54051000D01*
X193801000Y-54051000D01*
G37*
G36*
X158801000Y-54051000D02*
X156199000Y-54051000D01*
X156199000Y-52949000D01*
X158801000Y-52949000D01*
X158801000Y-54051000D01*
X158801000Y-54051000D01*
G37*
G36*
X128801000Y-54051000D02*
X126199000Y-54051000D01*
X126199000Y-52949000D01*
X128801000Y-52949000D01*
X128801000Y-54051000D01*
X128801000Y-54051000D01*
G37*
G36*
X103801000Y-54051000D02*
X101199000Y-54051000D01*
X101199000Y-52949000D01*
X103801000Y-52949000D01*
X103801000Y-54051000D01*
X103801000Y-54051000D01*
G37*
G36*
X163801000Y-54051000D02*
X161199000Y-54051000D01*
X161199000Y-52949000D01*
X163801000Y-52949000D01*
X163801000Y-54051000D01*
X163801000Y-54051000D01*
G37*
G36*
X148801000Y-54051000D02*
X146199000Y-54051000D01*
X146199000Y-52949000D01*
X148801000Y-52949000D01*
X148801000Y-54051000D01*
X148801000Y-54051000D01*
G37*
G36*
X168801000Y-54051000D02*
X166199000Y-54051000D01*
X166199000Y-52949000D01*
X168801000Y-52949000D01*
X168801000Y-54051000D01*
X168801000Y-54051000D01*
G37*
G36*
X108801000Y-54051000D02*
X106199000Y-54051000D01*
X106199000Y-52949000D01*
X108801000Y-52949000D01*
X108801000Y-54051000D01*
X108801000Y-54051000D01*
G37*
M02*
