G04 #@! TF.GenerationSoftware,KiCad,Pcbnew,5.0.2+dfsg1-1*
G04 #@! TF.CreationDate,2020-09-22T14:37:19+02:00*
G04 #@! TF.ProjectId,ledmatrix10,6c65646d-6174-4726-9978-31302e6b6963,rev?*
G04 #@! TF.SameCoordinates,Original*
G04 #@! TF.FileFunction,Soldermask,Top*
G04 #@! TF.FilePolarity,Negative*
%FSLAX46Y46*%
G04 Gerber Fmt 4.6, Leading zero omitted, Abs format (unit mm)*
G04 Created by KiCad (PCBNEW 5.0.2+dfsg1-1) date Tue 22 Sep 2020 02:37:19 PM CEST*
%MOMM*%
%LPD*%
G01*
G04 APERTURE LIST*
%ADD10C,0.100000*%
G04 APERTURE END LIST*
D10*
G36*
X199011000Y-143591000D02*
X193909000Y-143591000D01*
X193909000Y-141489000D01*
X199011000Y-141489000D01*
X199011000Y-143591000D01*
X199011000Y-143591000D01*
G37*
G36*
X167271000Y-143171000D02*
X165569000Y-143171000D01*
X165569000Y-138069000D01*
X167271000Y-138069000D01*
X167271000Y-143171000D01*
X167271000Y-143171000D01*
G37*
G36*
X169811000Y-143171000D02*
X168109000Y-143171000D01*
X168109000Y-138069000D01*
X169811000Y-138069000D01*
X169811000Y-143171000D01*
X169811000Y-143171000D01*
G37*
G36*
X164731000Y-143171000D02*
X163029000Y-143171000D01*
X163029000Y-138069000D01*
X164731000Y-138069000D01*
X164731000Y-143171000D01*
X164731000Y-143171000D01*
G37*
G36*
X159651000Y-143171000D02*
X157949000Y-143171000D01*
X157949000Y-138069000D01*
X159651000Y-138069000D01*
X159651000Y-143171000D01*
X159651000Y-143171000D01*
G37*
G36*
X172351000Y-143171000D02*
X170649000Y-143171000D01*
X170649000Y-138069000D01*
X172351000Y-138069000D01*
X172351000Y-143171000D01*
X172351000Y-143171000D01*
G37*
G36*
X162191000Y-143171000D02*
X160489000Y-143171000D01*
X160489000Y-138069000D01*
X162191000Y-138069000D01*
X162191000Y-143171000D01*
X162191000Y-143171000D01*
G37*
G36*
X110598252Y-138027818D02*
X110598254Y-138027819D01*
X110598255Y-138027819D01*
X110971513Y-138182427D01*
X110971514Y-138182428D01*
X111307439Y-138406886D01*
X111593114Y-138692561D01*
X111593116Y-138692564D01*
X111817573Y-139028487D01*
X111972181Y-139401745D01*
X112051000Y-139797994D01*
X112051000Y-140202006D01*
X111972181Y-140598255D01*
X111817573Y-140971513D01*
X111817572Y-140971514D01*
X111593114Y-141307439D01*
X111307439Y-141593114D01*
X111307436Y-141593116D01*
X110971513Y-141817573D01*
X110598255Y-141972181D01*
X110598254Y-141972181D01*
X110598252Y-141972182D01*
X110202007Y-142051000D01*
X109797993Y-142051000D01*
X109401748Y-141972182D01*
X109401746Y-141972181D01*
X109401745Y-141972181D01*
X109028487Y-141817573D01*
X108692564Y-141593116D01*
X108692561Y-141593114D01*
X108406886Y-141307439D01*
X108182428Y-140971514D01*
X108182427Y-140971513D01*
X108027819Y-140598255D01*
X107949000Y-140202006D01*
X107949000Y-139797994D01*
X108027819Y-139401745D01*
X108182427Y-139028487D01*
X108406884Y-138692564D01*
X108406886Y-138692561D01*
X108692561Y-138406886D01*
X109028486Y-138182428D01*
X109028487Y-138182427D01*
X109401745Y-138027819D01*
X109401746Y-138027819D01*
X109401748Y-138027818D01*
X109797993Y-137949000D01*
X110202007Y-137949000D01*
X110598252Y-138027818D01*
X110598252Y-138027818D01*
G37*
G36*
X190598252Y-138027818D02*
X190598254Y-138027819D01*
X190598255Y-138027819D01*
X190971513Y-138182427D01*
X190971514Y-138182428D01*
X191307439Y-138406886D01*
X191593114Y-138692561D01*
X191593116Y-138692564D01*
X191817573Y-139028487D01*
X191972181Y-139401745D01*
X192051000Y-139797994D01*
X192051000Y-140202006D01*
X191972181Y-140598255D01*
X191817573Y-140971513D01*
X191817572Y-140971514D01*
X191593114Y-141307439D01*
X191307439Y-141593114D01*
X191307436Y-141593116D01*
X190971513Y-141817573D01*
X190598255Y-141972181D01*
X190598254Y-141972181D01*
X190598252Y-141972182D01*
X190202007Y-142051000D01*
X189797993Y-142051000D01*
X189401748Y-141972182D01*
X189401746Y-141972181D01*
X189401745Y-141972181D01*
X189028487Y-141817573D01*
X188692564Y-141593116D01*
X188692561Y-141593114D01*
X188406886Y-141307439D01*
X188182428Y-140971514D01*
X188182427Y-140971513D01*
X188027819Y-140598255D01*
X187949000Y-140202006D01*
X187949000Y-139797994D01*
X188027819Y-139401745D01*
X188182427Y-139028487D01*
X188406884Y-138692564D01*
X188406886Y-138692561D01*
X188692561Y-138406886D01*
X189028486Y-138182428D01*
X189028487Y-138182427D01*
X189401745Y-138027819D01*
X189401746Y-138027819D01*
X189401748Y-138027818D01*
X189797993Y-137949000D01*
X190202007Y-137949000D01*
X190598252Y-138027818D01*
X190598252Y-138027818D01*
G37*
G36*
X150598252Y-138027818D02*
X150598254Y-138027819D01*
X150598255Y-138027819D01*
X150971513Y-138182427D01*
X150971514Y-138182428D01*
X151307439Y-138406886D01*
X151593114Y-138692561D01*
X151593116Y-138692564D01*
X151817573Y-139028487D01*
X151972181Y-139401745D01*
X152051000Y-139797994D01*
X152051000Y-140202006D01*
X151972181Y-140598255D01*
X151817573Y-140971513D01*
X151817572Y-140971514D01*
X151593114Y-141307439D01*
X151307439Y-141593114D01*
X151307436Y-141593116D01*
X150971513Y-141817573D01*
X150598255Y-141972181D01*
X150598254Y-141972181D01*
X150598252Y-141972182D01*
X150202007Y-142051000D01*
X149797993Y-142051000D01*
X149401748Y-141972182D01*
X149401746Y-141972181D01*
X149401745Y-141972181D01*
X149028487Y-141817573D01*
X148692564Y-141593116D01*
X148692561Y-141593114D01*
X148406886Y-141307439D01*
X148182428Y-140971514D01*
X148182427Y-140971513D01*
X148027819Y-140598255D01*
X147949000Y-140202006D01*
X147949000Y-139797994D01*
X148027819Y-139401745D01*
X148182427Y-139028487D01*
X148406884Y-138692564D01*
X148406886Y-138692561D01*
X148692561Y-138406886D01*
X149028486Y-138182428D01*
X149028487Y-138182427D01*
X149401745Y-138027819D01*
X149401746Y-138027819D01*
X149401748Y-138027818D01*
X149797993Y-137949000D01*
X150202007Y-137949000D01*
X150598252Y-138027818D01*
X150598252Y-138027818D01*
G37*
G36*
X199011000Y-138511000D02*
X193909000Y-138511000D01*
X193909000Y-136409000D01*
X199011000Y-136409000D01*
X199011000Y-138511000D01*
X199011000Y-138511000D01*
G37*
G36*
X172351000Y-135551000D02*
X170649000Y-135551000D01*
X170649000Y-130449000D01*
X172351000Y-130449000D01*
X172351000Y-135551000D01*
X172351000Y-135551000D01*
G37*
G36*
X169811000Y-135551000D02*
X168109000Y-135551000D01*
X168109000Y-130449000D01*
X169811000Y-130449000D01*
X169811000Y-135551000D01*
X169811000Y-135551000D01*
G37*
G36*
X159651000Y-135551000D02*
X157949000Y-135551000D01*
X157949000Y-130449000D01*
X159651000Y-130449000D01*
X159651000Y-135551000D01*
X159651000Y-135551000D01*
G37*
G36*
X167271000Y-135551000D02*
X165569000Y-135551000D01*
X165569000Y-130449000D01*
X167271000Y-130449000D01*
X167271000Y-135551000D01*
X167271000Y-135551000D01*
G37*
G36*
X164731000Y-135551000D02*
X163029000Y-135551000D01*
X163029000Y-130449000D01*
X164731000Y-130449000D01*
X164731000Y-135551000D01*
X164731000Y-135551000D01*
G37*
G36*
X162191000Y-135551000D02*
X160489000Y-135551000D01*
X160489000Y-130449000D01*
X162191000Y-130449000D01*
X162191000Y-135551000D01*
X162191000Y-135551000D01*
G37*
G36*
X199011000Y-133591000D02*
X193909000Y-133591000D01*
X193909000Y-131489000D01*
X199011000Y-131489000D01*
X199011000Y-133591000D01*
X199011000Y-133591000D01*
G37*
G36*
X118236000Y-129151000D02*
X110749000Y-129151000D01*
X110749000Y-127849000D01*
X118236000Y-127849000D01*
X118236000Y-129151000D01*
X118236000Y-129151000D01*
G37*
G36*
X199011000Y-128511000D02*
X193909000Y-128511000D01*
X193909000Y-126409000D01*
X199011000Y-126409000D01*
X199011000Y-128511000D01*
X199011000Y-128511000D01*
G37*
G36*
X118236000Y-123951000D02*
X110749000Y-123951000D01*
X110749000Y-122649000D01*
X118236000Y-122649000D01*
X118236000Y-123951000D01*
X118236000Y-123951000D01*
G37*
G36*
X199011000Y-123591000D02*
X193909000Y-123591000D01*
X193909000Y-121489000D01*
X199011000Y-121489000D01*
X199011000Y-123591000D01*
X199011000Y-123591000D01*
G37*
G36*
X123338677Y-120153465D02*
X123376364Y-120164898D01*
X123411103Y-120183466D01*
X123441548Y-120208452D01*
X123466534Y-120238897D01*
X123485102Y-120273636D01*
X123496535Y-120311323D01*
X123501000Y-120356661D01*
X123501000Y-121193339D01*
X123496535Y-121238677D01*
X123485102Y-121276364D01*
X123466534Y-121311103D01*
X123441548Y-121341548D01*
X123411103Y-121366534D01*
X123376364Y-121385102D01*
X123338677Y-121396535D01*
X123293339Y-121401000D01*
X122206661Y-121401000D01*
X122161323Y-121396535D01*
X122123636Y-121385102D01*
X122088897Y-121366534D01*
X122058452Y-121341548D01*
X122033466Y-121311103D01*
X122014898Y-121276364D01*
X122003465Y-121238677D01*
X121999000Y-121193339D01*
X121999000Y-120356661D01*
X122003465Y-120311323D01*
X122014898Y-120273636D01*
X122033466Y-120238897D01*
X122058452Y-120208452D01*
X122088897Y-120183466D01*
X122123636Y-120164898D01*
X122161323Y-120153465D01*
X122206661Y-120149000D01*
X123293339Y-120149000D01*
X123338677Y-120153465D01*
X123338677Y-120153465D01*
G37*
G36*
X123338677Y-118103465D02*
X123376364Y-118114898D01*
X123411103Y-118133466D01*
X123441548Y-118158452D01*
X123466534Y-118188897D01*
X123485102Y-118223636D01*
X123496535Y-118261323D01*
X123501000Y-118306661D01*
X123501000Y-119143339D01*
X123496535Y-119188677D01*
X123485102Y-119226364D01*
X123466534Y-119261103D01*
X123441548Y-119291548D01*
X123411103Y-119316534D01*
X123376364Y-119335102D01*
X123338677Y-119346535D01*
X123293339Y-119351000D01*
X122206661Y-119351000D01*
X122161323Y-119346535D01*
X122123636Y-119335102D01*
X122088897Y-119316534D01*
X122058452Y-119291548D01*
X122033466Y-119261103D01*
X122014898Y-119226364D01*
X122003465Y-119188677D01*
X121999000Y-119143339D01*
X121999000Y-118306661D01*
X122003465Y-118261323D01*
X122014898Y-118223636D01*
X122033466Y-118188897D01*
X122058452Y-118158452D01*
X122088897Y-118133466D01*
X122123636Y-118114898D01*
X122161323Y-118103465D01*
X122206661Y-118099000D01*
X123293339Y-118099000D01*
X123338677Y-118103465D01*
X123338677Y-118103465D01*
G37*
G36*
X199011000Y-118511000D02*
X193909000Y-118511000D01*
X193909000Y-116409000D01*
X199011000Y-116409000D01*
X199011000Y-118511000D01*
X199011000Y-118511000D01*
G37*
G36*
X110238677Y-115753465D02*
X110276364Y-115764898D01*
X110311103Y-115783466D01*
X110341548Y-115808452D01*
X110366534Y-115838897D01*
X110385102Y-115873636D01*
X110396535Y-115911323D01*
X110401000Y-115956661D01*
X110401000Y-117043339D01*
X110396535Y-117088677D01*
X110385102Y-117126364D01*
X110366534Y-117161103D01*
X110341548Y-117191548D01*
X110311103Y-117216534D01*
X110276364Y-117235102D01*
X110238677Y-117246535D01*
X110193339Y-117251000D01*
X109356661Y-117251000D01*
X109311323Y-117246535D01*
X109273636Y-117235102D01*
X109238897Y-117216534D01*
X109208452Y-117191548D01*
X109183466Y-117161103D01*
X109164898Y-117126364D01*
X109153465Y-117088677D01*
X109149000Y-117043339D01*
X109149000Y-115956661D01*
X109153465Y-115911323D01*
X109164898Y-115873636D01*
X109183466Y-115838897D01*
X109208452Y-115808452D01*
X109238897Y-115783466D01*
X109273636Y-115764898D01*
X109311323Y-115753465D01*
X109356661Y-115749000D01*
X110193339Y-115749000D01*
X110238677Y-115753465D01*
X110238677Y-115753465D01*
G37*
G36*
X108188677Y-115753465D02*
X108226364Y-115764898D01*
X108261103Y-115783466D01*
X108291548Y-115808452D01*
X108316534Y-115838897D01*
X108335102Y-115873636D01*
X108346535Y-115911323D01*
X108351000Y-115956661D01*
X108351000Y-117043339D01*
X108346535Y-117088677D01*
X108335102Y-117126364D01*
X108316534Y-117161103D01*
X108291548Y-117191548D01*
X108261103Y-117216534D01*
X108226364Y-117235102D01*
X108188677Y-117246535D01*
X108143339Y-117251000D01*
X107306661Y-117251000D01*
X107261323Y-117246535D01*
X107223636Y-117235102D01*
X107188897Y-117216534D01*
X107158452Y-117191548D01*
X107133466Y-117161103D01*
X107114898Y-117126364D01*
X107103465Y-117088677D01*
X107099000Y-117043339D01*
X107099000Y-115956661D01*
X107103465Y-115911323D01*
X107114898Y-115873636D01*
X107133466Y-115838897D01*
X107158452Y-115808452D01*
X107188897Y-115783466D01*
X107223636Y-115764898D01*
X107261323Y-115753465D01*
X107306661Y-115749000D01*
X108143339Y-115749000D01*
X108188677Y-115753465D01*
X108188677Y-115753465D01*
G37*
G36*
X105838677Y-114903465D02*
X105876364Y-114914898D01*
X105911103Y-114933466D01*
X105941548Y-114958452D01*
X105966534Y-114988897D01*
X105985102Y-115023636D01*
X105996535Y-115061323D01*
X106001000Y-115106661D01*
X106001000Y-115943339D01*
X105996535Y-115988677D01*
X105985102Y-116026364D01*
X105966534Y-116061103D01*
X105941548Y-116091548D01*
X105911103Y-116116534D01*
X105876364Y-116135102D01*
X105838677Y-116146535D01*
X105793339Y-116151000D01*
X104706661Y-116151000D01*
X104661323Y-116146535D01*
X104623636Y-116135102D01*
X104588897Y-116116534D01*
X104558452Y-116091548D01*
X104533466Y-116061103D01*
X104514898Y-116026364D01*
X104503465Y-115988677D01*
X104499000Y-115943339D01*
X104499000Y-115106661D01*
X104503465Y-115061323D01*
X104514898Y-115023636D01*
X104533466Y-114988897D01*
X104558452Y-114958452D01*
X104588897Y-114933466D01*
X104623636Y-114914898D01*
X104661323Y-114903465D01*
X104706661Y-114899000D01*
X105793339Y-114899000D01*
X105838677Y-114903465D01*
X105838677Y-114903465D01*
G37*
G36*
X105838677Y-112853465D02*
X105876364Y-112864898D01*
X105911103Y-112883466D01*
X105941548Y-112908452D01*
X105966534Y-112938897D01*
X105985102Y-112973636D01*
X105996535Y-113011323D01*
X106001000Y-113056661D01*
X106001000Y-113893339D01*
X105996535Y-113938677D01*
X105985102Y-113976364D01*
X105966534Y-114011103D01*
X105941548Y-114041548D01*
X105911103Y-114066534D01*
X105876364Y-114085102D01*
X105838677Y-114096535D01*
X105793339Y-114101000D01*
X104706661Y-114101000D01*
X104661323Y-114096535D01*
X104623636Y-114085102D01*
X104588897Y-114066534D01*
X104558452Y-114041548D01*
X104533466Y-114011103D01*
X104514898Y-113976364D01*
X104503465Y-113938677D01*
X104499000Y-113893339D01*
X104499000Y-113056661D01*
X104503465Y-113011323D01*
X104514898Y-112973636D01*
X104533466Y-112938897D01*
X104558452Y-112908452D01*
X104588897Y-112883466D01*
X104623636Y-112864898D01*
X104661323Y-112853465D01*
X104706661Y-112849000D01*
X105793339Y-112849000D01*
X105838677Y-112853465D01*
X105838677Y-112853465D01*
G37*
G36*
X130738677Y-112503465D02*
X130776364Y-112514898D01*
X130811103Y-112533466D01*
X130841548Y-112558452D01*
X130866534Y-112588897D01*
X130885102Y-112623636D01*
X130896535Y-112661323D01*
X130901000Y-112706661D01*
X130901000Y-113793339D01*
X130896535Y-113838677D01*
X130885102Y-113876364D01*
X130866534Y-113911103D01*
X130841548Y-113941548D01*
X130811103Y-113966534D01*
X130776364Y-113985102D01*
X130738677Y-113996535D01*
X130693339Y-114001000D01*
X129856661Y-114001000D01*
X129811323Y-113996535D01*
X129773636Y-113985102D01*
X129738897Y-113966534D01*
X129708452Y-113941548D01*
X129683466Y-113911103D01*
X129664898Y-113876364D01*
X129653465Y-113838677D01*
X129649000Y-113793339D01*
X129649000Y-112706661D01*
X129653465Y-112661323D01*
X129664898Y-112623636D01*
X129683466Y-112588897D01*
X129708452Y-112558452D01*
X129738897Y-112533466D01*
X129773636Y-112514898D01*
X129811323Y-112503465D01*
X129856661Y-112499000D01*
X130693339Y-112499000D01*
X130738677Y-112503465D01*
X130738677Y-112503465D01*
G37*
G36*
X190738677Y-112503465D02*
X190776364Y-112514898D01*
X190811103Y-112533466D01*
X190841548Y-112558452D01*
X190866534Y-112588897D01*
X190885102Y-112623636D01*
X190896535Y-112661323D01*
X190901000Y-112706661D01*
X190901000Y-113793339D01*
X190896535Y-113838677D01*
X190885102Y-113876364D01*
X190866534Y-113911103D01*
X190841548Y-113941548D01*
X190811103Y-113966534D01*
X190776364Y-113985102D01*
X190738677Y-113996535D01*
X190693339Y-114001000D01*
X189856661Y-114001000D01*
X189811323Y-113996535D01*
X189773636Y-113985102D01*
X189738897Y-113966534D01*
X189708452Y-113941548D01*
X189683466Y-113911103D01*
X189664898Y-113876364D01*
X189653465Y-113838677D01*
X189649000Y-113793339D01*
X189649000Y-112706661D01*
X189653465Y-112661323D01*
X189664898Y-112623636D01*
X189683466Y-112588897D01*
X189708452Y-112558452D01*
X189738897Y-112533466D01*
X189773636Y-112514898D01*
X189811323Y-112503465D01*
X189856661Y-112499000D01*
X190693339Y-112499000D01*
X190738677Y-112503465D01*
X190738677Y-112503465D01*
G37*
G36*
X188688677Y-112503465D02*
X188726364Y-112514898D01*
X188761103Y-112533466D01*
X188791548Y-112558452D01*
X188816534Y-112588897D01*
X188835102Y-112623636D01*
X188846535Y-112661323D01*
X188851000Y-112706661D01*
X188851000Y-113793339D01*
X188846535Y-113838677D01*
X188835102Y-113876364D01*
X188816534Y-113911103D01*
X188791548Y-113941548D01*
X188761103Y-113966534D01*
X188726364Y-113985102D01*
X188688677Y-113996535D01*
X188643339Y-114001000D01*
X187806661Y-114001000D01*
X187761323Y-113996535D01*
X187723636Y-113985102D01*
X187688897Y-113966534D01*
X187658452Y-113941548D01*
X187633466Y-113911103D01*
X187614898Y-113876364D01*
X187603465Y-113838677D01*
X187599000Y-113793339D01*
X187599000Y-112706661D01*
X187603465Y-112661323D01*
X187614898Y-112623636D01*
X187633466Y-112588897D01*
X187658452Y-112558452D01*
X187688897Y-112533466D01*
X187723636Y-112514898D01*
X187761323Y-112503465D01*
X187806661Y-112499000D01*
X188643339Y-112499000D01*
X188688677Y-112503465D01*
X188688677Y-112503465D01*
G37*
G36*
X120688677Y-112503465D02*
X120726364Y-112514898D01*
X120761103Y-112533466D01*
X120791548Y-112558452D01*
X120816534Y-112588897D01*
X120835102Y-112623636D01*
X120846535Y-112661323D01*
X120851000Y-112706661D01*
X120851000Y-113793339D01*
X120846535Y-113838677D01*
X120835102Y-113876364D01*
X120816534Y-113911103D01*
X120791548Y-113941548D01*
X120761103Y-113966534D01*
X120726364Y-113985102D01*
X120688677Y-113996535D01*
X120643339Y-114001000D01*
X119806661Y-114001000D01*
X119761323Y-113996535D01*
X119723636Y-113985102D01*
X119688897Y-113966534D01*
X119658452Y-113941548D01*
X119633466Y-113911103D01*
X119614898Y-113876364D01*
X119603465Y-113838677D01*
X119599000Y-113793339D01*
X119599000Y-112706661D01*
X119603465Y-112661323D01*
X119614898Y-112623636D01*
X119633466Y-112588897D01*
X119658452Y-112558452D01*
X119688897Y-112533466D01*
X119723636Y-112514898D01*
X119761323Y-112503465D01*
X119806661Y-112499000D01*
X120643339Y-112499000D01*
X120688677Y-112503465D01*
X120688677Y-112503465D01*
G37*
G36*
X122738677Y-112503465D02*
X122776364Y-112514898D01*
X122811103Y-112533466D01*
X122841548Y-112558452D01*
X122866534Y-112588897D01*
X122885102Y-112623636D01*
X122896535Y-112661323D01*
X122901000Y-112706661D01*
X122901000Y-113793339D01*
X122896535Y-113838677D01*
X122885102Y-113876364D01*
X122866534Y-113911103D01*
X122841548Y-113941548D01*
X122811103Y-113966534D01*
X122776364Y-113985102D01*
X122738677Y-113996535D01*
X122693339Y-114001000D01*
X121856661Y-114001000D01*
X121811323Y-113996535D01*
X121773636Y-113985102D01*
X121738897Y-113966534D01*
X121708452Y-113941548D01*
X121683466Y-113911103D01*
X121664898Y-113876364D01*
X121653465Y-113838677D01*
X121649000Y-113793339D01*
X121649000Y-112706661D01*
X121653465Y-112661323D01*
X121664898Y-112623636D01*
X121683466Y-112588897D01*
X121708452Y-112558452D01*
X121738897Y-112533466D01*
X121773636Y-112514898D01*
X121811323Y-112503465D01*
X121856661Y-112499000D01*
X122693339Y-112499000D01*
X122738677Y-112503465D01*
X122738677Y-112503465D01*
G37*
G36*
X128688677Y-112503465D02*
X128726364Y-112514898D01*
X128761103Y-112533466D01*
X128791548Y-112558452D01*
X128816534Y-112588897D01*
X128835102Y-112623636D01*
X128846535Y-112661323D01*
X128851000Y-112706661D01*
X128851000Y-113793339D01*
X128846535Y-113838677D01*
X128835102Y-113876364D01*
X128816534Y-113911103D01*
X128791548Y-113941548D01*
X128761103Y-113966534D01*
X128726364Y-113985102D01*
X128688677Y-113996535D01*
X128643339Y-114001000D01*
X127806661Y-114001000D01*
X127761323Y-113996535D01*
X127723636Y-113985102D01*
X127688897Y-113966534D01*
X127658452Y-113941548D01*
X127633466Y-113911103D01*
X127614898Y-113876364D01*
X127603465Y-113838677D01*
X127599000Y-113793339D01*
X127599000Y-112706661D01*
X127603465Y-112661323D01*
X127614898Y-112623636D01*
X127633466Y-112588897D01*
X127658452Y-112558452D01*
X127688897Y-112533466D01*
X127723636Y-112514898D01*
X127761323Y-112503465D01*
X127806661Y-112499000D01*
X128643339Y-112499000D01*
X128688677Y-112503465D01*
X128688677Y-112503465D01*
G37*
G36*
X138688677Y-112503465D02*
X138726364Y-112514898D01*
X138761103Y-112533466D01*
X138791548Y-112558452D01*
X138816534Y-112588897D01*
X138835102Y-112623636D01*
X138846535Y-112661323D01*
X138851000Y-112706661D01*
X138851000Y-113793339D01*
X138846535Y-113838677D01*
X138835102Y-113876364D01*
X138816534Y-113911103D01*
X138791548Y-113941548D01*
X138761103Y-113966534D01*
X138726364Y-113985102D01*
X138688677Y-113996535D01*
X138643339Y-114001000D01*
X137806661Y-114001000D01*
X137761323Y-113996535D01*
X137723636Y-113985102D01*
X137688897Y-113966534D01*
X137658452Y-113941548D01*
X137633466Y-113911103D01*
X137614898Y-113876364D01*
X137603465Y-113838677D01*
X137599000Y-113793339D01*
X137599000Y-112706661D01*
X137603465Y-112661323D01*
X137614898Y-112623636D01*
X137633466Y-112588897D01*
X137658452Y-112558452D01*
X137688897Y-112533466D01*
X137723636Y-112514898D01*
X137761323Y-112503465D01*
X137806661Y-112499000D01*
X138643339Y-112499000D01*
X138688677Y-112503465D01*
X138688677Y-112503465D01*
G37*
G36*
X140738677Y-112503465D02*
X140776364Y-112514898D01*
X140811103Y-112533466D01*
X140841548Y-112558452D01*
X140866534Y-112588897D01*
X140885102Y-112623636D01*
X140896535Y-112661323D01*
X140901000Y-112706661D01*
X140901000Y-113793339D01*
X140896535Y-113838677D01*
X140885102Y-113876364D01*
X140866534Y-113911103D01*
X140841548Y-113941548D01*
X140811103Y-113966534D01*
X140776364Y-113985102D01*
X140738677Y-113996535D01*
X140693339Y-114001000D01*
X139856661Y-114001000D01*
X139811323Y-113996535D01*
X139773636Y-113985102D01*
X139738897Y-113966534D01*
X139708452Y-113941548D01*
X139683466Y-113911103D01*
X139664898Y-113876364D01*
X139653465Y-113838677D01*
X139649000Y-113793339D01*
X139649000Y-112706661D01*
X139653465Y-112661323D01*
X139664898Y-112623636D01*
X139683466Y-112588897D01*
X139708452Y-112558452D01*
X139738897Y-112533466D01*
X139773636Y-112514898D01*
X139811323Y-112503465D01*
X139856661Y-112499000D01*
X140693339Y-112499000D01*
X140738677Y-112503465D01*
X140738677Y-112503465D01*
G37*
G36*
X150763677Y-112503465D02*
X150801364Y-112514898D01*
X150836103Y-112533466D01*
X150866548Y-112558452D01*
X150891534Y-112588897D01*
X150910102Y-112623636D01*
X150921535Y-112661323D01*
X150926000Y-112706661D01*
X150926000Y-113793339D01*
X150921535Y-113838677D01*
X150910102Y-113876364D01*
X150891534Y-113911103D01*
X150866548Y-113941548D01*
X150836103Y-113966534D01*
X150801364Y-113985102D01*
X150763677Y-113996535D01*
X150718339Y-114001000D01*
X149881661Y-114001000D01*
X149836323Y-113996535D01*
X149798636Y-113985102D01*
X149763897Y-113966534D01*
X149733452Y-113941548D01*
X149708466Y-113911103D01*
X149689898Y-113876364D01*
X149678465Y-113838677D01*
X149674000Y-113793339D01*
X149674000Y-112706661D01*
X149678465Y-112661323D01*
X149689898Y-112623636D01*
X149708466Y-112588897D01*
X149733452Y-112558452D01*
X149763897Y-112533466D01*
X149798636Y-112514898D01*
X149836323Y-112503465D01*
X149881661Y-112499000D01*
X150718339Y-112499000D01*
X150763677Y-112503465D01*
X150763677Y-112503465D01*
G37*
G36*
X158713677Y-112503465D02*
X158751364Y-112514898D01*
X158786103Y-112533466D01*
X158816548Y-112558452D01*
X158841534Y-112588897D01*
X158860102Y-112623636D01*
X158871535Y-112661323D01*
X158876000Y-112706661D01*
X158876000Y-113793339D01*
X158871535Y-113838677D01*
X158860102Y-113876364D01*
X158841534Y-113911103D01*
X158816548Y-113941548D01*
X158786103Y-113966534D01*
X158751364Y-113985102D01*
X158713677Y-113996535D01*
X158668339Y-114001000D01*
X157831661Y-114001000D01*
X157786323Y-113996535D01*
X157748636Y-113985102D01*
X157713897Y-113966534D01*
X157683452Y-113941548D01*
X157658466Y-113911103D01*
X157639898Y-113876364D01*
X157628465Y-113838677D01*
X157624000Y-113793339D01*
X157624000Y-112706661D01*
X157628465Y-112661323D01*
X157639898Y-112623636D01*
X157658466Y-112588897D01*
X157683452Y-112558452D01*
X157713897Y-112533466D01*
X157748636Y-112514898D01*
X157786323Y-112503465D01*
X157831661Y-112499000D01*
X158668339Y-112499000D01*
X158713677Y-112503465D01*
X158713677Y-112503465D01*
G37*
G36*
X160763677Y-112503465D02*
X160801364Y-112514898D01*
X160836103Y-112533466D01*
X160866548Y-112558452D01*
X160891534Y-112588897D01*
X160910102Y-112623636D01*
X160921535Y-112661323D01*
X160926000Y-112706661D01*
X160926000Y-113793339D01*
X160921535Y-113838677D01*
X160910102Y-113876364D01*
X160891534Y-113911103D01*
X160866548Y-113941548D01*
X160836103Y-113966534D01*
X160801364Y-113985102D01*
X160763677Y-113996535D01*
X160718339Y-114001000D01*
X159881661Y-114001000D01*
X159836323Y-113996535D01*
X159798636Y-113985102D01*
X159763897Y-113966534D01*
X159733452Y-113941548D01*
X159708466Y-113911103D01*
X159689898Y-113876364D01*
X159678465Y-113838677D01*
X159674000Y-113793339D01*
X159674000Y-112706661D01*
X159678465Y-112661323D01*
X159689898Y-112623636D01*
X159708466Y-112588897D01*
X159733452Y-112558452D01*
X159763897Y-112533466D01*
X159798636Y-112514898D01*
X159836323Y-112503465D01*
X159881661Y-112499000D01*
X160718339Y-112499000D01*
X160763677Y-112503465D01*
X160763677Y-112503465D01*
G37*
G36*
X168688677Y-112503465D02*
X168726364Y-112514898D01*
X168761103Y-112533466D01*
X168791548Y-112558452D01*
X168816534Y-112588897D01*
X168835102Y-112623636D01*
X168846535Y-112661323D01*
X168851000Y-112706661D01*
X168851000Y-113793339D01*
X168846535Y-113838677D01*
X168835102Y-113876364D01*
X168816534Y-113911103D01*
X168791548Y-113941548D01*
X168761103Y-113966534D01*
X168726364Y-113985102D01*
X168688677Y-113996535D01*
X168643339Y-114001000D01*
X167806661Y-114001000D01*
X167761323Y-113996535D01*
X167723636Y-113985102D01*
X167688897Y-113966534D01*
X167658452Y-113941548D01*
X167633466Y-113911103D01*
X167614898Y-113876364D01*
X167603465Y-113838677D01*
X167599000Y-113793339D01*
X167599000Y-112706661D01*
X167603465Y-112661323D01*
X167614898Y-112623636D01*
X167633466Y-112588897D01*
X167658452Y-112558452D01*
X167688897Y-112533466D01*
X167723636Y-112514898D01*
X167761323Y-112503465D01*
X167806661Y-112499000D01*
X168643339Y-112499000D01*
X168688677Y-112503465D01*
X168688677Y-112503465D01*
G37*
G36*
X170738677Y-112503465D02*
X170776364Y-112514898D01*
X170811103Y-112533466D01*
X170841548Y-112558452D01*
X170866534Y-112588897D01*
X170885102Y-112623636D01*
X170896535Y-112661323D01*
X170901000Y-112706661D01*
X170901000Y-113793339D01*
X170896535Y-113838677D01*
X170885102Y-113876364D01*
X170866534Y-113911103D01*
X170841548Y-113941548D01*
X170811103Y-113966534D01*
X170776364Y-113985102D01*
X170738677Y-113996535D01*
X170693339Y-114001000D01*
X169856661Y-114001000D01*
X169811323Y-113996535D01*
X169773636Y-113985102D01*
X169738897Y-113966534D01*
X169708452Y-113941548D01*
X169683466Y-113911103D01*
X169664898Y-113876364D01*
X169653465Y-113838677D01*
X169649000Y-113793339D01*
X169649000Y-112706661D01*
X169653465Y-112661323D01*
X169664898Y-112623636D01*
X169683466Y-112588897D01*
X169708452Y-112558452D01*
X169738897Y-112533466D01*
X169773636Y-112514898D01*
X169811323Y-112503465D01*
X169856661Y-112499000D01*
X170693339Y-112499000D01*
X170738677Y-112503465D01*
X170738677Y-112503465D01*
G37*
G36*
X178688677Y-112503465D02*
X178726364Y-112514898D01*
X178761103Y-112533466D01*
X178791548Y-112558452D01*
X178816534Y-112588897D01*
X178835102Y-112623636D01*
X178846535Y-112661323D01*
X178851000Y-112706661D01*
X178851000Y-113793339D01*
X178846535Y-113838677D01*
X178835102Y-113876364D01*
X178816534Y-113911103D01*
X178791548Y-113941548D01*
X178761103Y-113966534D01*
X178726364Y-113985102D01*
X178688677Y-113996535D01*
X178643339Y-114001000D01*
X177806661Y-114001000D01*
X177761323Y-113996535D01*
X177723636Y-113985102D01*
X177688897Y-113966534D01*
X177658452Y-113941548D01*
X177633466Y-113911103D01*
X177614898Y-113876364D01*
X177603465Y-113838677D01*
X177599000Y-113793339D01*
X177599000Y-112706661D01*
X177603465Y-112661323D01*
X177614898Y-112623636D01*
X177633466Y-112588897D01*
X177658452Y-112558452D01*
X177688897Y-112533466D01*
X177723636Y-112514898D01*
X177761323Y-112503465D01*
X177806661Y-112499000D01*
X178643339Y-112499000D01*
X178688677Y-112503465D01*
X178688677Y-112503465D01*
G37*
G36*
X180738677Y-112503465D02*
X180776364Y-112514898D01*
X180811103Y-112533466D01*
X180841548Y-112558452D01*
X180866534Y-112588897D01*
X180885102Y-112623636D01*
X180896535Y-112661323D01*
X180901000Y-112706661D01*
X180901000Y-113793339D01*
X180896535Y-113838677D01*
X180885102Y-113876364D01*
X180866534Y-113911103D01*
X180841548Y-113941548D01*
X180811103Y-113966534D01*
X180776364Y-113985102D01*
X180738677Y-113996535D01*
X180693339Y-114001000D01*
X179856661Y-114001000D01*
X179811323Y-113996535D01*
X179773636Y-113985102D01*
X179738897Y-113966534D01*
X179708452Y-113941548D01*
X179683466Y-113911103D01*
X179664898Y-113876364D01*
X179653465Y-113838677D01*
X179649000Y-113793339D01*
X179649000Y-112706661D01*
X179653465Y-112661323D01*
X179664898Y-112623636D01*
X179683466Y-112588897D01*
X179708452Y-112558452D01*
X179738897Y-112533466D01*
X179773636Y-112514898D01*
X179811323Y-112503465D01*
X179856661Y-112499000D01*
X180693339Y-112499000D01*
X180738677Y-112503465D01*
X180738677Y-112503465D01*
G37*
G36*
X148713677Y-112503465D02*
X148751364Y-112514898D01*
X148786103Y-112533466D01*
X148816548Y-112558452D01*
X148841534Y-112588897D01*
X148860102Y-112623636D01*
X148871535Y-112661323D01*
X148876000Y-112706661D01*
X148876000Y-113793339D01*
X148871535Y-113838677D01*
X148860102Y-113876364D01*
X148841534Y-113911103D01*
X148816548Y-113941548D01*
X148786103Y-113966534D01*
X148751364Y-113985102D01*
X148713677Y-113996535D01*
X148668339Y-114001000D01*
X147831661Y-114001000D01*
X147786323Y-113996535D01*
X147748636Y-113985102D01*
X147713897Y-113966534D01*
X147683452Y-113941548D01*
X147658466Y-113911103D01*
X147639898Y-113876364D01*
X147628465Y-113838677D01*
X147624000Y-113793339D01*
X147624000Y-112706661D01*
X147628465Y-112661323D01*
X147639898Y-112623636D01*
X147658466Y-112588897D01*
X147683452Y-112558452D01*
X147713897Y-112533466D01*
X147748636Y-112514898D01*
X147786323Y-112503465D01*
X147831661Y-112499000D01*
X148668339Y-112499000D01*
X148713677Y-112503465D01*
X148713677Y-112503465D01*
G37*
G36*
X193838677Y-112678465D02*
X193876364Y-112689898D01*
X193911103Y-112708466D01*
X193941548Y-112733452D01*
X193966534Y-112763897D01*
X193985102Y-112798636D01*
X193996535Y-112836323D01*
X194001000Y-112881661D01*
X194001000Y-113718339D01*
X193996535Y-113763677D01*
X193985102Y-113801364D01*
X193966534Y-113836103D01*
X193941548Y-113866548D01*
X193911103Y-113891534D01*
X193876364Y-113910102D01*
X193838677Y-113921535D01*
X193793339Y-113926000D01*
X192706661Y-113926000D01*
X192661323Y-113921535D01*
X192623636Y-113910102D01*
X192588897Y-113891534D01*
X192558452Y-113866548D01*
X192533466Y-113836103D01*
X192514898Y-113801364D01*
X192503465Y-113763677D01*
X192499000Y-113718339D01*
X192499000Y-112881661D01*
X192503465Y-112836323D01*
X192514898Y-112798636D01*
X192533466Y-112763897D01*
X192558452Y-112733452D01*
X192588897Y-112708466D01*
X192623636Y-112689898D01*
X192661323Y-112678465D01*
X192706661Y-112674000D01*
X193793339Y-112674000D01*
X193838677Y-112678465D01*
X193838677Y-112678465D01*
G37*
G36*
X107738677Y-110503465D02*
X107776364Y-110514898D01*
X107811103Y-110533466D01*
X107841548Y-110558452D01*
X107866534Y-110588897D01*
X107885102Y-110623636D01*
X107896535Y-110661323D01*
X107901000Y-110706661D01*
X107901000Y-111793339D01*
X107896535Y-111838677D01*
X107885102Y-111876364D01*
X107866534Y-111911103D01*
X107841548Y-111941548D01*
X107811103Y-111966534D01*
X107776364Y-111985102D01*
X107738677Y-111996535D01*
X107693339Y-112001000D01*
X106856661Y-112001000D01*
X106811323Y-111996535D01*
X106773636Y-111985102D01*
X106738897Y-111966534D01*
X106708452Y-111941548D01*
X106683466Y-111911103D01*
X106664898Y-111876364D01*
X106653465Y-111838677D01*
X106649000Y-111793339D01*
X106649000Y-110706661D01*
X106653465Y-110661323D01*
X106664898Y-110623636D01*
X106683466Y-110588897D01*
X106708452Y-110558452D01*
X106738897Y-110533466D01*
X106773636Y-110514898D01*
X106811323Y-110503465D01*
X106856661Y-110499000D01*
X107693339Y-110499000D01*
X107738677Y-110503465D01*
X107738677Y-110503465D01*
G37*
G36*
X105688677Y-110503465D02*
X105726364Y-110514898D01*
X105761103Y-110533466D01*
X105791548Y-110558452D01*
X105816534Y-110588897D01*
X105835102Y-110623636D01*
X105846535Y-110661323D01*
X105851000Y-110706661D01*
X105851000Y-111793339D01*
X105846535Y-111838677D01*
X105835102Y-111876364D01*
X105816534Y-111911103D01*
X105791548Y-111941548D01*
X105761103Y-111966534D01*
X105726364Y-111985102D01*
X105688677Y-111996535D01*
X105643339Y-112001000D01*
X104806661Y-112001000D01*
X104761323Y-111996535D01*
X104723636Y-111985102D01*
X104688897Y-111966534D01*
X104658452Y-111941548D01*
X104633466Y-111911103D01*
X104614898Y-111876364D01*
X104603465Y-111838677D01*
X104599000Y-111793339D01*
X104599000Y-110706661D01*
X104603465Y-110661323D01*
X104614898Y-110623636D01*
X104633466Y-110588897D01*
X104658452Y-110558452D01*
X104688897Y-110533466D01*
X104723636Y-110514898D01*
X104761323Y-110503465D01*
X104806661Y-110499000D01*
X105643339Y-110499000D01*
X105688677Y-110503465D01*
X105688677Y-110503465D01*
G37*
G36*
X193838677Y-110628465D02*
X193876364Y-110639898D01*
X193911103Y-110658466D01*
X193941548Y-110683452D01*
X193966534Y-110713897D01*
X193985102Y-110748636D01*
X193996535Y-110786323D01*
X194001000Y-110831661D01*
X194001000Y-111668339D01*
X193996535Y-111713677D01*
X193985102Y-111751364D01*
X193966534Y-111786103D01*
X193941548Y-111816548D01*
X193911103Y-111841534D01*
X193876364Y-111860102D01*
X193838677Y-111871535D01*
X193793339Y-111876000D01*
X192706661Y-111876000D01*
X192661323Y-111871535D01*
X192623636Y-111860102D01*
X192588897Y-111841534D01*
X192558452Y-111816548D01*
X192533466Y-111786103D01*
X192514898Y-111751364D01*
X192503465Y-111713677D01*
X192499000Y-111668339D01*
X192499000Y-110831661D01*
X192503465Y-110786323D01*
X192514898Y-110748636D01*
X192533466Y-110713897D01*
X192558452Y-110683452D01*
X192588897Y-110658466D01*
X192623636Y-110639898D01*
X192661323Y-110628465D01*
X192706661Y-110624000D01*
X193793339Y-110624000D01*
X193838677Y-110628465D01*
X193838677Y-110628465D01*
G37*
G36*
X122738677Y-110253465D02*
X122776364Y-110264898D01*
X122811103Y-110283466D01*
X122841548Y-110308452D01*
X122866534Y-110338897D01*
X122885102Y-110373636D01*
X122896535Y-110411323D01*
X122901000Y-110456661D01*
X122901000Y-111543339D01*
X122896535Y-111588677D01*
X122885102Y-111626364D01*
X122866534Y-111661103D01*
X122841548Y-111691548D01*
X122811103Y-111716534D01*
X122776364Y-111735102D01*
X122738677Y-111746535D01*
X122693339Y-111751000D01*
X121856661Y-111751000D01*
X121811323Y-111746535D01*
X121773636Y-111735102D01*
X121738897Y-111716534D01*
X121708452Y-111691548D01*
X121683466Y-111661103D01*
X121664898Y-111626364D01*
X121653465Y-111588677D01*
X121649000Y-111543339D01*
X121649000Y-110456661D01*
X121653465Y-110411323D01*
X121664898Y-110373636D01*
X121683466Y-110338897D01*
X121708452Y-110308452D01*
X121738897Y-110283466D01*
X121773636Y-110264898D01*
X121811323Y-110253465D01*
X121856661Y-110249000D01*
X122693339Y-110249000D01*
X122738677Y-110253465D01*
X122738677Y-110253465D01*
G37*
G36*
X190738677Y-110253465D02*
X190776364Y-110264898D01*
X190811103Y-110283466D01*
X190841548Y-110308452D01*
X190866534Y-110338897D01*
X190885102Y-110373636D01*
X190896535Y-110411323D01*
X190901000Y-110456661D01*
X190901000Y-111543339D01*
X190896535Y-111588677D01*
X190885102Y-111626364D01*
X190866534Y-111661103D01*
X190841548Y-111691548D01*
X190811103Y-111716534D01*
X190776364Y-111735102D01*
X190738677Y-111746535D01*
X190693339Y-111751000D01*
X189856661Y-111751000D01*
X189811323Y-111746535D01*
X189773636Y-111735102D01*
X189738897Y-111716534D01*
X189708452Y-111691548D01*
X189683466Y-111661103D01*
X189664898Y-111626364D01*
X189653465Y-111588677D01*
X189649000Y-111543339D01*
X189649000Y-110456661D01*
X189653465Y-110411323D01*
X189664898Y-110373636D01*
X189683466Y-110338897D01*
X189708452Y-110308452D01*
X189738897Y-110283466D01*
X189773636Y-110264898D01*
X189811323Y-110253465D01*
X189856661Y-110249000D01*
X190693339Y-110249000D01*
X190738677Y-110253465D01*
X190738677Y-110253465D01*
G37*
G36*
X188688677Y-110253465D02*
X188726364Y-110264898D01*
X188761103Y-110283466D01*
X188791548Y-110308452D01*
X188816534Y-110338897D01*
X188835102Y-110373636D01*
X188846535Y-110411323D01*
X188851000Y-110456661D01*
X188851000Y-111543339D01*
X188846535Y-111588677D01*
X188835102Y-111626364D01*
X188816534Y-111661103D01*
X188791548Y-111691548D01*
X188761103Y-111716534D01*
X188726364Y-111735102D01*
X188688677Y-111746535D01*
X188643339Y-111751000D01*
X187806661Y-111751000D01*
X187761323Y-111746535D01*
X187723636Y-111735102D01*
X187688897Y-111716534D01*
X187658452Y-111691548D01*
X187633466Y-111661103D01*
X187614898Y-111626364D01*
X187603465Y-111588677D01*
X187599000Y-111543339D01*
X187599000Y-110456661D01*
X187603465Y-110411323D01*
X187614898Y-110373636D01*
X187633466Y-110338897D01*
X187658452Y-110308452D01*
X187688897Y-110283466D01*
X187723636Y-110264898D01*
X187761323Y-110253465D01*
X187806661Y-110249000D01*
X188643339Y-110249000D01*
X188688677Y-110253465D01*
X188688677Y-110253465D01*
G37*
G36*
X140738677Y-110253465D02*
X140776364Y-110264898D01*
X140811103Y-110283466D01*
X140841548Y-110308452D01*
X140866534Y-110338897D01*
X140885102Y-110373636D01*
X140896535Y-110411323D01*
X140901000Y-110456661D01*
X140901000Y-111543339D01*
X140896535Y-111588677D01*
X140885102Y-111626364D01*
X140866534Y-111661103D01*
X140841548Y-111691548D01*
X140811103Y-111716534D01*
X140776364Y-111735102D01*
X140738677Y-111746535D01*
X140693339Y-111751000D01*
X139856661Y-111751000D01*
X139811323Y-111746535D01*
X139773636Y-111735102D01*
X139738897Y-111716534D01*
X139708452Y-111691548D01*
X139683466Y-111661103D01*
X139664898Y-111626364D01*
X139653465Y-111588677D01*
X139649000Y-111543339D01*
X139649000Y-110456661D01*
X139653465Y-110411323D01*
X139664898Y-110373636D01*
X139683466Y-110338897D01*
X139708452Y-110308452D01*
X139738897Y-110283466D01*
X139773636Y-110264898D01*
X139811323Y-110253465D01*
X139856661Y-110249000D01*
X140693339Y-110249000D01*
X140738677Y-110253465D01*
X140738677Y-110253465D01*
G37*
G36*
X138688677Y-110253465D02*
X138726364Y-110264898D01*
X138761103Y-110283466D01*
X138791548Y-110308452D01*
X138816534Y-110338897D01*
X138835102Y-110373636D01*
X138846535Y-110411323D01*
X138851000Y-110456661D01*
X138851000Y-111543339D01*
X138846535Y-111588677D01*
X138835102Y-111626364D01*
X138816534Y-111661103D01*
X138791548Y-111691548D01*
X138761103Y-111716534D01*
X138726364Y-111735102D01*
X138688677Y-111746535D01*
X138643339Y-111751000D01*
X137806661Y-111751000D01*
X137761323Y-111746535D01*
X137723636Y-111735102D01*
X137688897Y-111716534D01*
X137658452Y-111691548D01*
X137633466Y-111661103D01*
X137614898Y-111626364D01*
X137603465Y-111588677D01*
X137599000Y-111543339D01*
X137599000Y-110456661D01*
X137603465Y-110411323D01*
X137614898Y-110373636D01*
X137633466Y-110338897D01*
X137658452Y-110308452D01*
X137688897Y-110283466D01*
X137723636Y-110264898D01*
X137761323Y-110253465D01*
X137806661Y-110249000D01*
X138643339Y-110249000D01*
X138688677Y-110253465D01*
X138688677Y-110253465D01*
G37*
G36*
X150763677Y-110253465D02*
X150801364Y-110264898D01*
X150836103Y-110283466D01*
X150866548Y-110308452D01*
X150891534Y-110338897D01*
X150910102Y-110373636D01*
X150921535Y-110411323D01*
X150926000Y-110456661D01*
X150926000Y-111543339D01*
X150921535Y-111588677D01*
X150910102Y-111626364D01*
X150891534Y-111661103D01*
X150866548Y-111691548D01*
X150836103Y-111716534D01*
X150801364Y-111735102D01*
X150763677Y-111746535D01*
X150718339Y-111751000D01*
X149881661Y-111751000D01*
X149836323Y-111746535D01*
X149798636Y-111735102D01*
X149763897Y-111716534D01*
X149733452Y-111691548D01*
X149708466Y-111661103D01*
X149689898Y-111626364D01*
X149678465Y-111588677D01*
X149674000Y-111543339D01*
X149674000Y-110456661D01*
X149678465Y-110411323D01*
X149689898Y-110373636D01*
X149708466Y-110338897D01*
X149733452Y-110308452D01*
X149763897Y-110283466D01*
X149798636Y-110264898D01*
X149836323Y-110253465D01*
X149881661Y-110249000D01*
X150718339Y-110249000D01*
X150763677Y-110253465D01*
X150763677Y-110253465D01*
G37*
G36*
X148713677Y-110253465D02*
X148751364Y-110264898D01*
X148786103Y-110283466D01*
X148816548Y-110308452D01*
X148841534Y-110338897D01*
X148860102Y-110373636D01*
X148871535Y-110411323D01*
X148876000Y-110456661D01*
X148876000Y-111543339D01*
X148871535Y-111588677D01*
X148860102Y-111626364D01*
X148841534Y-111661103D01*
X148816548Y-111691548D01*
X148786103Y-111716534D01*
X148751364Y-111735102D01*
X148713677Y-111746535D01*
X148668339Y-111751000D01*
X147831661Y-111751000D01*
X147786323Y-111746535D01*
X147748636Y-111735102D01*
X147713897Y-111716534D01*
X147683452Y-111691548D01*
X147658466Y-111661103D01*
X147639898Y-111626364D01*
X147628465Y-111588677D01*
X147624000Y-111543339D01*
X147624000Y-110456661D01*
X147628465Y-110411323D01*
X147639898Y-110373636D01*
X147658466Y-110338897D01*
X147683452Y-110308452D01*
X147713897Y-110283466D01*
X147748636Y-110264898D01*
X147786323Y-110253465D01*
X147831661Y-110249000D01*
X148668339Y-110249000D01*
X148713677Y-110253465D01*
X148713677Y-110253465D01*
G37*
G36*
X160738677Y-110253465D02*
X160776364Y-110264898D01*
X160811103Y-110283466D01*
X160841548Y-110308452D01*
X160866534Y-110338897D01*
X160885102Y-110373636D01*
X160896535Y-110411323D01*
X160901000Y-110456661D01*
X160901000Y-111543339D01*
X160896535Y-111588677D01*
X160885102Y-111626364D01*
X160866534Y-111661103D01*
X160841548Y-111691548D01*
X160811103Y-111716534D01*
X160776364Y-111735102D01*
X160738677Y-111746535D01*
X160693339Y-111751000D01*
X159856661Y-111751000D01*
X159811323Y-111746535D01*
X159773636Y-111735102D01*
X159738897Y-111716534D01*
X159708452Y-111691548D01*
X159683466Y-111661103D01*
X159664898Y-111626364D01*
X159653465Y-111588677D01*
X159649000Y-111543339D01*
X159649000Y-110456661D01*
X159653465Y-110411323D01*
X159664898Y-110373636D01*
X159683466Y-110338897D01*
X159708452Y-110308452D01*
X159738897Y-110283466D01*
X159773636Y-110264898D01*
X159811323Y-110253465D01*
X159856661Y-110249000D01*
X160693339Y-110249000D01*
X160738677Y-110253465D01*
X160738677Y-110253465D01*
G37*
G36*
X130738677Y-110253465D02*
X130776364Y-110264898D01*
X130811103Y-110283466D01*
X130841548Y-110308452D01*
X130866534Y-110338897D01*
X130885102Y-110373636D01*
X130896535Y-110411323D01*
X130901000Y-110456661D01*
X130901000Y-111543339D01*
X130896535Y-111588677D01*
X130885102Y-111626364D01*
X130866534Y-111661103D01*
X130841548Y-111691548D01*
X130811103Y-111716534D01*
X130776364Y-111735102D01*
X130738677Y-111746535D01*
X130693339Y-111751000D01*
X129856661Y-111751000D01*
X129811323Y-111746535D01*
X129773636Y-111735102D01*
X129738897Y-111716534D01*
X129708452Y-111691548D01*
X129683466Y-111661103D01*
X129664898Y-111626364D01*
X129653465Y-111588677D01*
X129649000Y-111543339D01*
X129649000Y-110456661D01*
X129653465Y-110411323D01*
X129664898Y-110373636D01*
X129683466Y-110338897D01*
X129708452Y-110308452D01*
X129738897Y-110283466D01*
X129773636Y-110264898D01*
X129811323Y-110253465D01*
X129856661Y-110249000D01*
X130693339Y-110249000D01*
X130738677Y-110253465D01*
X130738677Y-110253465D01*
G37*
G36*
X178688677Y-110253465D02*
X178726364Y-110264898D01*
X178761103Y-110283466D01*
X178791548Y-110308452D01*
X178816534Y-110338897D01*
X178835102Y-110373636D01*
X178846535Y-110411323D01*
X178851000Y-110456661D01*
X178851000Y-111543339D01*
X178846535Y-111588677D01*
X178835102Y-111626364D01*
X178816534Y-111661103D01*
X178791548Y-111691548D01*
X178761103Y-111716534D01*
X178726364Y-111735102D01*
X178688677Y-111746535D01*
X178643339Y-111751000D01*
X177806661Y-111751000D01*
X177761323Y-111746535D01*
X177723636Y-111735102D01*
X177688897Y-111716534D01*
X177658452Y-111691548D01*
X177633466Y-111661103D01*
X177614898Y-111626364D01*
X177603465Y-111588677D01*
X177599000Y-111543339D01*
X177599000Y-110456661D01*
X177603465Y-110411323D01*
X177614898Y-110373636D01*
X177633466Y-110338897D01*
X177658452Y-110308452D01*
X177688897Y-110283466D01*
X177723636Y-110264898D01*
X177761323Y-110253465D01*
X177806661Y-110249000D01*
X178643339Y-110249000D01*
X178688677Y-110253465D01*
X178688677Y-110253465D01*
G37*
G36*
X180738677Y-110253465D02*
X180776364Y-110264898D01*
X180811103Y-110283466D01*
X180841548Y-110308452D01*
X180866534Y-110338897D01*
X180885102Y-110373636D01*
X180896535Y-110411323D01*
X180901000Y-110456661D01*
X180901000Y-111543339D01*
X180896535Y-111588677D01*
X180885102Y-111626364D01*
X180866534Y-111661103D01*
X180841548Y-111691548D01*
X180811103Y-111716534D01*
X180776364Y-111735102D01*
X180738677Y-111746535D01*
X180693339Y-111751000D01*
X179856661Y-111751000D01*
X179811323Y-111746535D01*
X179773636Y-111735102D01*
X179738897Y-111716534D01*
X179708452Y-111691548D01*
X179683466Y-111661103D01*
X179664898Y-111626364D01*
X179653465Y-111588677D01*
X179649000Y-111543339D01*
X179649000Y-110456661D01*
X179653465Y-110411323D01*
X179664898Y-110373636D01*
X179683466Y-110338897D01*
X179708452Y-110308452D01*
X179738897Y-110283466D01*
X179773636Y-110264898D01*
X179811323Y-110253465D01*
X179856661Y-110249000D01*
X180693339Y-110249000D01*
X180738677Y-110253465D01*
X180738677Y-110253465D01*
G37*
G36*
X128688677Y-110253465D02*
X128726364Y-110264898D01*
X128761103Y-110283466D01*
X128791548Y-110308452D01*
X128816534Y-110338897D01*
X128835102Y-110373636D01*
X128846535Y-110411323D01*
X128851000Y-110456661D01*
X128851000Y-111543339D01*
X128846535Y-111588677D01*
X128835102Y-111626364D01*
X128816534Y-111661103D01*
X128791548Y-111691548D01*
X128761103Y-111716534D01*
X128726364Y-111735102D01*
X128688677Y-111746535D01*
X128643339Y-111751000D01*
X127806661Y-111751000D01*
X127761323Y-111746535D01*
X127723636Y-111735102D01*
X127688897Y-111716534D01*
X127658452Y-111691548D01*
X127633466Y-111661103D01*
X127614898Y-111626364D01*
X127603465Y-111588677D01*
X127599000Y-111543339D01*
X127599000Y-110456661D01*
X127603465Y-110411323D01*
X127614898Y-110373636D01*
X127633466Y-110338897D01*
X127658452Y-110308452D01*
X127688897Y-110283466D01*
X127723636Y-110264898D01*
X127761323Y-110253465D01*
X127806661Y-110249000D01*
X128643339Y-110249000D01*
X128688677Y-110253465D01*
X128688677Y-110253465D01*
G37*
G36*
X170738677Y-110253465D02*
X170776364Y-110264898D01*
X170811103Y-110283466D01*
X170841548Y-110308452D01*
X170866534Y-110338897D01*
X170885102Y-110373636D01*
X170896535Y-110411323D01*
X170901000Y-110456661D01*
X170901000Y-111543339D01*
X170896535Y-111588677D01*
X170885102Y-111626364D01*
X170866534Y-111661103D01*
X170841548Y-111691548D01*
X170811103Y-111716534D01*
X170776364Y-111735102D01*
X170738677Y-111746535D01*
X170693339Y-111751000D01*
X169856661Y-111751000D01*
X169811323Y-111746535D01*
X169773636Y-111735102D01*
X169738897Y-111716534D01*
X169708452Y-111691548D01*
X169683466Y-111661103D01*
X169664898Y-111626364D01*
X169653465Y-111588677D01*
X169649000Y-111543339D01*
X169649000Y-110456661D01*
X169653465Y-110411323D01*
X169664898Y-110373636D01*
X169683466Y-110338897D01*
X169708452Y-110308452D01*
X169738897Y-110283466D01*
X169773636Y-110264898D01*
X169811323Y-110253465D01*
X169856661Y-110249000D01*
X170693339Y-110249000D01*
X170738677Y-110253465D01*
X170738677Y-110253465D01*
G37*
G36*
X168688677Y-110253465D02*
X168726364Y-110264898D01*
X168761103Y-110283466D01*
X168791548Y-110308452D01*
X168816534Y-110338897D01*
X168835102Y-110373636D01*
X168846535Y-110411323D01*
X168851000Y-110456661D01*
X168851000Y-111543339D01*
X168846535Y-111588677D01*
X168835102Y-111626364D01*
X168816534Y-111661103D01*
X168791548Y-111691548D01*
X168761103Y-111716534D01*
X168726364Y-111735102D01*
X168688677Y-111746535D01*
X168643339Y-111751000D01*
X167806661Y-111751000D01*
X167761323Y-111746535D01*
X167723636Y-111735102D01*
X167688897Y-111716534D01*
X167658452Y-111691548D01*
X167633466Y-111661103D01*
X167614898Y-111626364D01*
X167603465Y-111588677D01*
X167599000Y-111543339D01*
X167599000Y-110456661D01*
X167603465Y-110411323D01*
X167614898Y-110373636D01*
X167633466Y-110338897D01*
X167658452Y-110308452D01*
X167688897Y-110283466D01*
X167723636Y-110264898D01*
X167761323Y-110253465D01*
X167806661Y-110249000D01*
X168643339Y-110249000D01*
X168688677Y-110253465D01*
X168688677Y-110253465D01*
G37*
G36*
X120688677Y-110253465D02*
X120726364Y-110264898D01*
X120761103Y-110283466D01*
X120791548Y-110308452D01*
X120816534Y-110338897D01*
X120835102Y-110373636D01*
X120846535Y-110411323D01*
X120851000Y-110456661D01*
X120851000Y-111543339D01*
X120846535Y-111588677D01*
X120835102Y-111626364D01*
X120816534Y-111661103D01*
X120791548Y-111691548D01*
X120761103Y-111716534D01*
X120726364Y-111735102D01*
X120688677Y-111746535D01*
X120643339Y-111751000D01*
X119806661Y-111751000D01*
X119761323Y-111746535D01*
X119723636Y-111735102D01*
X119688897Y-111716534D01*
X119658452Y-111691548D01*
X119633466Y-111661103D01*
X119614898Y-111626364D01*
X119603465Y-111588677D01*
X119599000Y-111543339D01*
X119599000Y-110456661D01*
X119603465Y-110411323D01*
X119614898Y-110373636D01*
X119633466Y-110338897D01*
X119658452Y-110308452D01*
X119688897Y-110283466D01*
X119723636Y-110264898D01*
X119761323Y-110253465D01*
X119806661Y-110249000D01*
X120643339Y-110249000D01*
X120688677Y-110253465D01*
X120688677Y-110253465D01*
G37*
G36*
X158688677Y-110253465D02*
X158726364Y-110264898D01*
X158761103Y-110283466D01*
X158791548Y-110308452D01*
X158816534Y-110338897D01*
X158835102Y-110373636D01*
X158846535Y-110411323D01*
X158851000Y-110456661D01*
X158851000Y-111543339D01*
X158846535Y-111588677D01*
X158835102Y-111626364D01*
X158816534Y-111661103D01*
X158791548Y-111691548D01*
X158761103Y-111716534D01*
X158726364Y-111735102D01*
X158688677Y-111746535D01*
X158643339Y-111751000D01*
X157806661Y-111751000D01*
X157761323Y-111746535D01*
X157723636Y-111735102D01*
X157688897Y-111716534D01*
X157658452Y-111691548D01*
X157633466Y-111661103D01*
X157614898Y-111626364D01*
X157603465Y-111588677D01*
X157599000Y-111543339D01*
X157599000Y-110456661D01*
X157603465Y-110411323D01*
X157614898Y-110373636D01*
X157633466Y-110338897D01*
X157658452Y-110308452D01*
X157688897Y-110283466D01*
X157723636Y-110264898D01*
X157761323Y-110253465D01*
X157806661Y-110249000D01*
X158643339Y-110249000D01*
X158688677Y-110253465D01*
X158688677Y-110253465D01*
G37*
G36*
X193688677Y-108753465D02*
X193726364Y-108764898D01*
X193761103Y-108783466D01*
X193791548Y-108808452D01*
X193816534Y-108838897D01*
X193835102Y-108873636D01*
X193846535Y-108911323D01*
X193851000Y-108956661D01*
X193851000Y-110043339D01*
X193846535Y-110088677D01*
X193835102Y-110126364D01*
X193816534Y-110161103D01*
X193791548Y-110191548D01*
X193761103Y-110216534D01*
X193726364Y-110235102D01*
X193688677Y-110246535D01*
X193643339Y-110251000D01*
X192806661Y-110251000D01*
X192761323Y-110246535D01*
X192723636Y-110235102D01*
X192688897Y-110216534D01*
X192658452Y-110191548D01*
X192633466Y-110161103D01*
X192614898Y-110126364D01*
X192603465Y-110088677D01*
X192599000Y-110043339D01*
X192599000Y-108956661D01*
X192603465Y-108911323D01*
X192614898Y-108873636D01*
X192633466Y-108838897D01*
X192658452Y-108808452D01*
X192688897Y-108783466D01*
X192723636Y-108764898D01*
X192761323Y-108753465D01*
X192806661Y-108749000D01*
X193643339Y-108749000D01*
X193688677Y-108753465D01*
X193688677Y-108753465D01*
G37*
G36*
X195738677Y-108753465D02*
X195776364Y-108764898D01*
X195811103Y-108783466D01*
X195841548Y-108808452D01*
X195866534Y-108838897D01*
X195885102Y-108873636D01*
X195896535Y-108911323D01*
X195901000Y-108956661D01*
X195901000Y-110043339D01*
X195896535Y-110088677D01*
X195885102Y-110126364D01*
X195866534Y-110161103D01*
X195841548Y-110191548D01*
X195811103Y-110216534D01*
X195776364Y-110235102D01*
X195738677Y-110246535D01*
X195693339Y-110251000D01*
X194856661Y-110251000D01*
X194811323Y-110246535D01*
X194773636Y-110235102D01*
X194738897Y-110216534D01*
X194708452Y-110191548D01*
X194683466Y-110161103D01*
X194664898Y-110126364D01*
X194653465Y-110088677D01*
X194649000Y-110043339D01*
X194649000Y-108956661D01*
X194653465Y-108911323D01*
X194664898Y-108873636D01*
X194683466Y-108838897D01*
X194708452Y-108808452D01*
X194738897Y-108783466D01*
X194773636Y-108764898D01*
X194811323Y-108753465D01*
X194856661Y-108749000D01*
X195693339Y-108749000D01*
X195738677Y-108753465D01*
X195738677Y-108753465D01*
G37*
G36*
X107651000Y-109751000D02*
X106749000Y-109751000D01*
X106749000Y-107749000D01*
X107651000Y-107749000D01*
X107651000Y-109751000D01*
X107651000Y-109751000D01*
G37*
G36*
X105751000Y-109751000D02*
X104849000Y-109751000D01*
X104849000Y-107749000D01*
X105751000Y-107749000D01*
X105751000Y-109751000D01*
X105751000Y-109751000D01*
G37*
G36*
X188751000Y-109501000D02*
X187849000Y-109501000D01*
X187849000Y-107499000D01*
X188751000Y-107499000D01*
X188751000Y-109501000D01*
X188751000Y-109501000D01*
G37*
G36*
X180651000Y-109501000D02*
X179749000Y-109501000D01*
X179749000Y-107499000D01*
X180651000Y-107499000D01*
X180651000Y-109501000D01*
X180651000Y-109501000D01*
G37*
G36*
X178751000Y-109501000D02*
X177849000Y-109501000D01*
X177849000Y-107499000D01*
X178751000Y-107499000D01*
X178751000Y-109501000D01*
X178751000Y-109501000D01*
G37*
G36*
X170651000Y-109501000D02*
X169749000Y-109501000D01*
X169749000Y-107499000D01*
X170651000Y-107499000D01*
X170651000Y-109501000D01*
X170651000Y-109501000D01*
G37*
G36*
X168751000Y-109501000D02*
X167849000Y-109501000D01*
X167849000Y-107499000D01*
X168751000Y-107499000D01*
X168751000Y-109501000D01*
X168751000Y-109501000D01*
G37*
G36*
X160651000Y-109501000D02*
X159749000Y-109501000D01*
X159749000Y-107499000D01*
X160651000Y-107499000D01*
X160651000Y-109501000D01*
X160651000Y-109501000D01*
G37*
G36*
X158751000Y-109501000D02*
X157849000Y-109501000D01*
X157849000Y-107499000D01*
X158751000Y-107499000D01*
X158751000Y-109501000D01*
X158751000Y-109501000D01*
G37*
G36*
X130651000Y-109501000D02*
X129749000Y-109501000D01*
X129749000Y-107499000D01*
X130651000Y-107499000D01*
X130651000Y-109501000D01*
X130651000Y-109501000D01*
G37*
G36*
X122651000Y-109501000D02*
X121749000Y-109501000D01*
X121749000Y-107499000D01*
X122651000Y-107499000D01*
X122651000Y-109501000D01*
X122651000Y-109501000D01*
G37*
G36*
X120751000Y-109501000D02*
X119849000Y-109501000D01*
X119849000Y-107499000D01*
X120751000Y-107499000D01*
X120751000Y-109501000D01*
X120751000Y-109501000D01*
G37*
G36*
X140701000Y-109501000D02*
X139799000Y-109501000D01*
X139799000Y-107499000D01*
X140701000Y-107499000D01*
X140701000Y-109501000D01*
X140701000Y-109501000D01*
G37*
G36*
X138801000Y-109501000D02*
X137899000Y-109501000D01*
X137899000Y-107499000D01*
X138801000Y-107499000D01*
X138801000Y-109501000D01*
X138801000Y-109501000D01*
G37*
G36*
X150651000Y-109501000D02*
X149749000Y-109501000D01*
X149749000Y-107499000D01*
X150651000Y-107499000D01*
X150651000Y-109501000D01*
X150651000Y-109501000D01*
G37*
G36*
X148751000Y-109501000D02*
X147849000Y-109501000D01*
X147849000Y-107499000D01*
X148751000Y-107499000D01*
X148751000Y-109501000D01*
X148751000Y-109501000D01*
G37*
G36*
X128751000Y-109501000D02*
X127849000Y-109501000D01*
X127849000Y-107499000D01*
X128751000Y-107499000D01*
X128751000Y-109501000D01*
X128751000Y-109501000D01*
G37*
G36*
X190651000Y-109501000D02*
X189749000Y-109501000D01*
X189749000Y-107499000D01*
X190651000Y-107499000D01*
X190651000Y-109501000D01*
X190651000Y-109501000D01*
G37*
G36*
X195651000Y-108001000D02*
X194749000Y-108001000D01*
X194749000Y-105999000D01*
X195651000Y-105999000D01*
X195651000Y-108001000D01*
X195651000Y-108001000D01*
G37*
G36*
X193751000Y-108001000D02*
X192849000Y-108001000D01*
X192849000Y-105999000D01*
X193751000Y-105999000D01*
X193751000Y-108001000D01*
X193751000Y-108001000D01*
G37*
G36*
X106701000Y-106751000D02*
X105799000Y-106751000D01*
X105799000Y-104749000D01*
X106701000Y-104749000D01*
X106701000Y-106751000D01*
X106701000Y-106751000D01*
G37*
G36*
X189701000Y-106501000D02*
X188799000Y-106501000D01*
X188799000Y-104499000D01*
X189701000Y-104499000D01*
X189701000Y-106501000D01*
X189701000Y-106501000D01*
G37*
G36*
X139751000Y-106501000D02*
X138849000Y-106501000D01*
X138849000Y-104499000D01*
X139751000Y-104499000D01*
X139751000Y-106501000D01*
X139751000Y-106501000D01*
G37*
G36*
X129701000Y-106501000D02*
X128799000Y-106501000D01*
X128799000Y-104499000D01*
X129701000Y-104499000D01*
X129701000Y-106501000D01*
X129701000Y-106501000D01*
G37*
G36*
X121701000Y-106501000D02*
X120799000Y-106501000D01*
X120799000Y-104499000D01*
X121701000Y-104499000D01*
X121701000Y-106501000D01*
X121701000Y-106501000D01*
G37*
G36*
X179701000Y-106501000D02*
X178799000Y-106501000D01*
X178799000Y-104499000D01*
X179701000Y-104499000D01*
X179701000Y-106501000D01*
X179701000Y-106501000D01*
G37*
G36*
X149701000Y-106501000D02*
X148799000Y-106501000D01*
X148799000Y-104499000D01*
X149701000Y-104499000D01*
X149701000Y-106501000D01*
X149701000Y-106501000D01*
G37*
G36*
X159701000Y-106501000D02*
X158799000Y-106501000D01*
X158799000Y-104499000D01*
X159701000Y-104499000D01*
X159701000Y-106501000D01*
X159701000Y-106501000D01*
G37*
G36*
X169701000Y-106501000D02*
X168799000Y-106501000D01*
X168799000Y-104499000D01*
X169701000Y-104499000D01*
X169701000Y-106501000D01*
X169701000Y-106501000D01*
G37*
G36*
X198088677Y-104928465D02*
X198126364Y-104939898D01*
X198161103Y-104958466D01*
X198191548Y-104983452D01*
X198216534Y-105013897D01*
X198235102Y-105048636D01*
X198246535Y-105086323D01*
X198251000Y-105131661D01*
X198251000Y-105968339D01*
X198246535Y-106013677D01*
X198235102Y-106051364D01*
X198216534Y-106086103D01*
X198191548Y-106116548D01*
X198161103Y-106141534D01*
X198126364Y-106160102D01*
X198088677Y-106171535D01*
X198043339Y-106176000D01*
X196956661Y-106176000D01*
X196911323Y-106171535D01*
X196873636Y-106160102D01*
X196838897Y-106141534D01*
X196808452Y-106116548D01*
X196783466Y-106086103D01*
X196764898Y-106051364D01*
X196753465Y-106013677D01*
X196749000Y-105968339D01*
X196749000Y-105131661D01*
X196753465Y-105086323D01*
X196764898Y-105048636D01*
X196783466Y-105013897D01*
X196808452Y-104983452D01*
X196838897Y-104958466D01*
X196873636Y-104939898D01*
X196911323Y-104928465D01*
X196956661Y-104924000D01*
X198043339Y-104924000D01*
X198088677Y-104928465D01*
X198088677Y-104928465D01*
G37*
G36*
X185913677Y-104253465D02*
X185951364Y-104264898D01*
X185986103Y-104283466D01*
X186016548Y-104308452D01*
X186041534Y-104338897D01*
X186060102Y-104373636D01*
X186071535Y-104411323D01*
X186076000Y-104456661D01*
X186076000Y-105543339D01*
X186071535Y-105588677D01*
X186060102Y-105626364D01*
X186041534Y-105661103D01*
X186016548Y-105691548D01*
X185986103Y-105716534D01*
X185951364Y-105735102D01*
X185913677Y-105746535D01*
X185868339Y-105751000D01*
X185031661Y-105751000D01*
X184986323Y-105746535D01*
X184948636Y-105735102D01*
X184913897Y-105716534D01*
X184883452Y-105691548D01*
X184858466Y-105661103D01*
X184839898Y-105626364D01*
X184828465Y-105588677D01*
X184824000Y-105543339D01*
X184824000Y-104456661D01*
X184828465Y-104411323D01*
X184839898Y-104373636D01*
X184858466Y-104338897D01*
X184883452Y-104308452D01*
X184913897Y-104283466D01*
X184948636Y-104264898D01*
X184986323Y-104253465D01*
X185031661Y-104249000D01*
X185868339Y-104249000D01*
X185913677Y-104253465D01*
X185913677Y-104253465D01*
G37*
G36*
X125938677Y-104253465D02*
X125976364Y-104264898D01*
X126011103Y-104283466D01*
X126041548Y-104308452D01*
X126066534Y-104338897D01*
X126085102Y-104373636D01*
X126096535Y-104411323D01*
X126101000Y-104456661D01*
X126101000Y-105543339D01*
X126096535Y-105588677D01*
X126085102Y-105626364D01*
X126066534Y-105661103D01*
X126041548Y-105691548D01*
X126011103Y-105716534D01*
X125976364Y-105735102D01*
X125938677Y-105746535D01*
X125893339Y-105751000D01*
X125056661Y-105751000D01*
X125011323Y-105746535D01*
X124973636Y-105735102D01*
X124938897Y-105716534D01*
X124908452Y-105691548D01*
X124883466Y-105661103D01*
X124864898Y-105626364D01*
X124853465Y-105588677D01*
X124849000Y-105543339D01*
X124849000Y-104456661D01*
X124853465Y-104411323D01*
X124864898Y-104373636D01*
X124883466Y-104338897D01*
X124908452Y-104308452D01*
X124938897Y-104283466D01*
X124973636Y-104264898D01*
X125011323Y-104253465D01*
X125056661Y-104249000D01*
X125893339Y-104249000D01*
X125938677Y-104253465D01*
X125938677Y-104253465D01*
G37*
G36*
X117938677Y-104253465D02*
X117976364Y-104264898D01*
X118011103Y-104283466D01*
X118041548Y-104308452D01*
X118066534Y-104338897D01*
X118085102Y-104373636D01*
X118096535Y-104411323D01*
X118101000Y-104456661D01*
X118101000Y-105543339D01*
X118096535Y-105588677D01*
X118085102Y-105626364D01*
X118066534Y-105661103D01*
X118041548Y-105691548D01*
X118011103Y-105716534D01*
X117976364Y-105735102D01*
X117938677Y-105746535D01*
X117893339Y-105751000D01*
X117056661Y-105751000D01*
X117011323Y-105746535D01*
X116973636Y-105735102D01*
X116938897Y-105716534D01*
X116908452Y-105691548D01*
X116883466Y-105661103D01*
X116864898Y-105626364D01*
X116853465Y-105588677D01*
X116849000Y-105543339D01*
X116849000Y-104456661D01*
X116853465Y-104411323D01*
X116864898Y-104373636D01*
X116883466Y-104338897D01*
X116908452Y-104308452D01*
X116938897Y-104283466D01*
X116973636Y-104264898D01*
X117011323Y-104253465D01*
X117056661Y-104249000D01*
X117893339Y-104249000D01*
X117938677Y-104253465D01*
X117938677Y-104253465D01*
G37*
G36*
X119988677Y-104253465D02*
X120026364Y-104264898D01*
X120061103Y-104283466D01*
X120091548Y-104308452D01*
X120116534Y-104338897D01*
X120135102Y-104373636D01*
X120146535Y-104411323D01*
X120151000Y-104456661D01*
X120151000Y-105543339D01*
X120146535Y-105588677D01*
X120135102Y-105626364D01*
X120116534Y-105661103D01*
X120091548Y-105691548D01*
X120061103Y-105716534D01*
X120026364Y-105735102D01*
X119988677Y-105746535D01*
X119943339Y-105751000D01*
X119106661Y-105751000D01*
X119061323Y-105746535D01*
X119023636Y-105735102D01*
X118988897Y-105716534D01*
X118958452Y-105691548D01*
X118933466Y-105661103D01*
X118914898Y-105626364D01*
X118903465Y-105588677D01*
X118899000Y-105543339D01*
X118899000Y-104456661D01*
X118903465Y-104411323D01*
X118914898Y-104373636D01*
X118933466Y-104338897D01*
X118958452Y-104308452D01*
X118988897Y-104283466D01*
X119023636Y-104264898D01*
X119061323Y-104253465D01*
X119106661Y-104249000D01*
X119943339Y-104249000D01*
X119988677Y-104253465D01*
X119988677Y-104253465D01*
G37*
G36*
X187963677Y-104253465D02*
X188001364Y-104264898D01*
X188036103Y-104283466D01*
X188066548Y-104308452D01*
X188091534Y-104338897D01*
X188110102Y-104373636D01*
X188121535Y-104411323D01*
X188126000Y-104456661D01*
X188126000Y-105543339D01*
X188121535Y-105588677D01*
X188110102Y-105626364D01*
X188091534Y-105661103D01*
X188066548Y-105691548D01*
X188036103Y-105716534D01*
X188001364Y-105735102D01*
X187963677Y-105746535D01*
X187918339Y-105751000D01*
X187081661Y-105751000D01*
X187036323Y-105746535D01*
X186998636Y-105735102D01*
X186963897Y-105716534D01*
X186933452Y-105691548D01*
X186908466Y-105661103D01*
X186889898Y-105626364D01*
X186878465Y-105588677D01*
X186874000Y-105543339D01*
X186874000Y-104456661D01*
X186878465Y-104411323D01*
X186889898Y-104373636D01*
X186908466Y-104338897D01*
X186933452Y-104308452D01*
X186963897Y-104283466D01*
X186998636Y-104264898D01*
X187036323Y-104253465D01*
X187081661Y-104249000D01*
X187918339Y-104249000D01*
X187963677Y-104253465D01*
X187963677Y-104253465D01*
G37*
G36*
X177988677Y-104253465D02*
X178026364Y-104264898D01*
X178061103Y-104283466D01*
X178091548Y-104308452D01*
X178116534Y-104338897D01*
X178135102Y-104373636D01*
X178146535Y-104411323D01*
X178151000Y-104456661D01*
X178151000Y-105543339D01*
X178146535Y-105588677D01*
X178135102Y-105626364D01*
X178116534Y-105661103D01*
X178091548Y-105691548D01*
X178061103Y-105716534D01*
X178026364Y-105735102D01*
X177988677Y-105746535D01*
X177943339Y-105751000D01*
X177106661Y-105751000D01*
X177061323Y-105746535D01*
X177023636Y-105735102D01*
X176988897Y-105716534D01*
X176958452Y-105691548D01*
X176933466Y-105661103D01*
X176914898Y-105626364D01*
X176903465Y-105588677D01*
X176899000Y-105543339D01*
X176899000Y-104456661D01*
X176903465Y-104411323D01*
X176914898Y-104373636D01*
X176933466Y-104338897D01*
X176958452Y-104308452D01*
X176988897Y-104283466D01*
X177023636Y-104264898D01*
X177061323Y-104253465D01*
X177106661Y-104249000D01*
X177943339Y-104249000D01*
X177988677Y-104253465D01*
X177988677Y-104253465D01*
G37*
G36*
X175938677Y-104253465D02*
X175976364Y-104264898D01*
X176011103Y-104283466D01*
X176041548Y-104308452D01*
X176066534Y-104338897D01*
X176085102Y-104373636D01*
X176096535Y-104411323D01*
X176101000Y-104456661D01*
X176101000Y-105543339D01*
X176096535Y-105588677D01*
X176085102Y-105626364D01*
X176066534Y-105661103D01*
X176041548Y-105691548D01*
X176011103Y-105716534D01*
X175976364Y-105735102D01*
X175938677Y-105746535D01*
X175893339Y-105751000D01*
X175056661Y-105751000D01*
X175011323Y-105746535D01*
X174973636Y-105735102D01*
X174938897Y-105716534D01*
X174908452Y-105691548D01*
X174883466Y-105661103D01*
X174864898Y-105626364D01*
X174853465Y-105588677D01*
X174849000Y-105543339D01*
X174849000Y-104456661D01*
X174853465Y-104411323D01*
X174864898Y-104373636D01*
X174883466Y-104338897D01*
X174908452Y-104308452D01*
X174938897Y-104283466D01*
X174973636Y-104264898D01*
X175011323Y-104253465D01*
X175056661Y-104249000D01*
X175893339Y-104249000D01*
X175938677Y-104253465D01*
X175938677Y-104253465D01*
G37*
G36*
X147988677Y-104253465D02*
X148026364Y-104264898D01*
X148061103Y-104283466D01*
X148091548Y-104308452D01*
X148116534Y-104338897D01*
X148135102Y-104373636D01*
X148146535Y-104411323D01*
X148151000Y-104456661D01*
X148151000Y-105543339D01*
X148146535Y-105588677D01*
X148135102Y-105626364D01*
X148116534Y-105661103D01*
X148091548Y-105691548D01*
X148061103Y-105716534D01*
X148026364Y-105735102D01*
X147988677Y-105746535D01*
X147943339Y-105751000D01*
X147106661Y-105751000D01*
X147061323Y-105746535D01*
X147023636Y-105735102D01*
X146988897Y-105716534D01*
X146958452Y-105691548D01*
X146933466Y-105661103D01*
X146914898Y-105626364D01*
X146903465Y-105588677D01*
X146899000Y-105543339D01*
X146899000Y-104456661D01*
X146903465Y-104411323D01*
X146914898Y-104373636D01*
X146933466Y-104338897D01*
X146958452Y-104308452D01*
X146988897Y-104283466D01*
X147023636Y-104264898D01*
X147061323Y-104253465D01*
X147106661Y-104249000D01*
X147943339Y-104249000D01*
X147988677Y-104253465D01*
X147988677Y-104253465D01*
G37*
G36*
X145938677Y-104253465D02*
X145976364Y-104264898D01*
X146011103Y-104283466D01*
X146041548Y-104308452D01*
X146066534Y-104338897D01*
X146085102Y-104373636D01*
X146096535Y-104411323D01*
X146101000Y-104456661D01*
X146101000Y-105543339D01*
X146096535Y-105588677D01*
X146085102Y-105626364D01*
X146066534Y-105661103D01*
X146041548Y-105691548D01*
X146011103Y-105716534D01*
X145976364Y-105735102D01*
X145938677Y-105746535D01*
X145893339Y-105751000D01*
X145056661Y-105751000D01*
X145011323Y-105746535D01*
X144973636Y-105735102D01*
X144938897Y-105716534D01*
X144908452Y-105691548D01*
X144883466Y-105661103D01*
X144864898Y-105626364D01*
X144853465Y-105588677D01*
X144849000Y-105543339D01*
X144849000Y-104456661D01*
X144853465Y-104411323D01*
X144864898Y-104373636D01*
X144883466Y-104338897D01*
X144908452Y-104308452D01*
X144938897Y-104283466D01*
X144973636Y-104264898D01*
X145011323Y-104253465D01*
X145056661Y-104249000D01*
X145893339Y-104249000D01*
X145938677Y-104253465D01*
X145938677Y-104253465D01*
G37*
G36*
X137963677Y-104253465D02*
X138001364Y-104264898D01*
X138036103Y-104283466D01*
X138066548Y-104308452D01*
X138091534Y-104338897D01*
X138110102Y-104373636D01*
X138121535Y-104411323D01*
X138126000Y-104456661D01*
X138126000Y-105543339D01*
X138121535Y-105588677D01*
X138110102Y-105626364D01*
X138091534Y-105661103D01*
X138066548Y-105691548D01*
X138036103Y-105716534D01*
X138001364Y-105735102D01*
X137963677Y-105746535D01*
X137918339Y-105751000D01*
X137081661Y-105751000D01*
X137036323Y-105746535D01*
X136998636Y-105735102D01*
X136963897Y-105716534D01*
X136933452Y-105691548D01*
X136908466Y-105661103D01*
X136889898Y-105626364D01*
X136878465Y-105588677D01*
X136874000Y-105543339D01*
X136874000Y-104456661D01*
X136878465Y-104411323D01*
X136889898Y-104373636D01*
X136908466Y-104338897D01*
X136933452Y-104308452D01*
X136963897Y-104283466D01*
X136998636Y-104264898D01*
X137036323Y-104253465D01*
X137081661Y-104249000D01*
X137918339Y-104249000D01*
X137963677Y-104253465D01*
X137963677Y-104253465D01*
G37*
G36*
X135913677Y-104253465D02*
X135951364Y-104264898D01*
X135986103Y-104283466D01*
X136016548Y-104308452D01*
X136041534Y-104338897D01*
X136060102Y-104373636D01*
X136071535Y-104411323D01*
X136076000Y-104456661D01*
X136076000Y-105543339D01*
X136071535Y-105588677D01*
X136060102Y-105626364D01*
X136041534Y-105661103D01*
X136016548Y-105691548D01*
X135986103Y-105716534D01*
X135951364Y-105735102D01*
X135913677Y-105746535D01*
X135868339Y-105751000D01*
X135031661Y-105751000D01*
X134986323Y-105746535D01*
X134948636Y-105735102D01*
X134913897Y-105716534D01*
X134883452Y-105691548D01*
X134858466Y-105661103D01*
X134839898Y-105626364D01*
X134828465Y-105588677D01*
X134824000Y-105543339D01*
X134824000Y-104456661D01*
X134828465Y-104411323D01*
X134839898Y-104373636D01*
X134858466Y-104338897D01*
X134883452Y-104308452D01*
X134913897Y-104283466D01*
X134948636Y-104264898D01*
X134986323Y-104253465D01*
X135031661Y-104249000D01*
X135868339Y-104249000D01*
X135913677Y-104253465D01*
X135913677Y-104253465D01*
G37*
G36*
X167988677Y-104253465D02*
X168026364Y-104264898D01*
X168061103Y-104283466D01*
X168091548Y-104308452D01*
X168116534Y-104338897D01*
X168135102Y-104373636D01*
X168146535Y-104411323D01*
X168151000Y-104456661D01*
X168151000Y-105543339D01*
X168146535Y-105588677D01*
X168135102Y-105626364D01*
X168116534Y-105661103D01*
X168091548Y-105691548D01*
X168061103Y-105716534D01*
X168026364Y-105735102D01*
X167988677Y-105746535D01*
X167943339Y-105751000D01*
X167106661Y-105751000D01*
X167061323Y-105746535D01*
X167023636Y-105735102D01*
X166988897Y-105716534D01*
X166958452Y-105691548D01*
X166933466Y-105661103D01*
X166914898Y-105626364D01*
X166903465Y-105588677D01*
X166899000Y-105543339D01*
X166899000Y-104456661D01*
X166903465Y-104411323D01*
X166914898Y-104373636D01*
X166933466Y-104338897D01*
X166958452Y-104308452D01*
X166988897Y-104283466D01*
X167023636Y-104264898D01*
X167061323Y-104253465D01*
X167106661Y-104249000D01*
X167943339Y-104249000D01*
X167988677Y-104253465D01*
X167988677Y-104253465D01*
G37*
G36*
X127988677Y-104253465D02*
X128026364Y-104264898D01*
X128061103Y-104283466D01*
X128091548Y-104308452D01*
X128116534Y-104338897D01*
X128135102Y-104373636D01*
X128146535Y-104411323D01*
X128151000Y-104456661D01*
X128151000Y-105543339D01*
X128146535Y-105588677D01*
X128135102Y-105626364D01*
X128116534Y-105661103D01*
X128091548Y-105691548D01*
X128061103Y-105716534D01*
X128026364Y-105735102D01*
X127988677Y-105746535D01*
X127943339Y-105751000D01*
X127106661Y-105751000D01*
X127061323Y-105746535D01*
X127023636Y-105735102D01*
X126988897Y-105716534D01*
X126958452Y-105691548D01*
X126933466Y-105661103D01*
X126914898Y-105626364D01*
X126903465Y-105588677D01*
X126899000Y-105543339D01*
X126899000Y-104456661D01*
X126903465Y-104411323D01*
X126914898Y-104373636D01*
X126933466Y-104338897D01*
X126958452Y-104308452D01*
X126988897Y-104283466D01*
X127023636Y-104264898D01*
X127061323Y-104253465D01*
X127106661Y-104249000D01*
X127943339Y-104249000D01*
X127988677Y-104253465D01*
X127988677Y-104253465D01*
G37*
G36*
X157988677Y-104253465D02*
X158026364Y-104264898D01*
X158061103Y-104283466D01*
X158091548Y-104308452D01*
X158116534Y-104338897D01*
X158135102Y-104373636D01*
X158146535Y-104411323D01*
X158151000Y-104456661D01*
X158151000Y-105543339D01*
X158146535Y-105588677D01*
X158135102Y-105626364D01*
X158116534Y-105661103D01*
X158091548Y-105691548D01*
X158061103Y-105716534D01*
X158026364Y-105735102D01*
X157988677Y-105746535D01*
X157943339Y-105751000D01*
X157106661Y-105751000D01*
X157061323Y-105746535D01*
X157023636Y-105735102D01*
X156988897Y-105716534D01*
X156958452Y-105691548D01*
X156933466Y-105661103D01*
X156914898Y-105626364D01*
X156903465Y-105588677D01*
X156899000Y-105543339D01*
X156899000Y-104456661D01*
X156903465Y-104411323D01*
X156914898Y-104373636D01*
X156933466Y-104338897D01*
X156958452Y-104308452D01*
X156988897Y-104283466D01*
X157023636Y-104264898D01*
X157061323Y-104253465D01*
X157106661Y-104249000D01*
X157943339Y-104249000D01*
X157988677Y-104253465D01*
X157988677Y-104253465D01*
G37*
G36*
X155938677Y-104253465D02*
X155976364Y-104264898D01*
X156011103Y-104283466D01*
X156041548Y-104308452D01*
X156066534Y-104338897D01*
X156085102Y-104373636D01*
X156096535Y-104411323D01*
X156101000Y-104456661D01*
X156101000Y-105543339D01*
X156096535Y-105588677D01*
X156085102Y-105626364D01*
X156066534Y-105661103D01*
X156041548Y-105691548D01*
X156011103Y-105716534D01*
X155976364Y-105735102D01*
X155938677Y-105746535D01*
X155893339Y-105751000D01*
X155056661Y-105751000D01*
X155011323Y-105746535D01*
X154973636Y-105735102D01*
X154938897Y-105716534D01*
X154908452Y-105691548D01*
X154883466Y-105661103D01*
X154864898Y-105626364D01*
X154853465Y-105588677D01*
X154849000Y-105543339D01*
X154849000Y-104456661D01*
X154853465Y-104411323D01*
X154864898Y-104373636D01*
X154883466Y-104338897D01*
X154908452Y-104308452D01*
X154938897Y-104283466D01*
X154973636Y-104264898D01*
X155011323Y-104253465D01*
X155056661Y-104249000D01*
X155893339Y-104249000D01*
X155938677Y-104253465D01*
X155938677Y-104253465D01*
G37*
G36*
X165938677Y-104253465D02*
X165976364Y-104264898D01*
X166011103Y-104283466D01*
X166041548Y-104308452D01*
X166066534Y-104338897D01*
X166085102Y-104373636D01*
X166096535Y-104411323D01*
X166101000Y-104456661D01*
X166101000Y-105543339D01*
X166096535Y-105588677D01*
X166085102Y-105626364D01*
X166066534Y-105661103D01*
X166041548Y-105691548D01*
X166011103Y-105716534D01*
X165976364Y-105735102D01*
X165938677Y-105746535D01*
X165893339Y-105751000D01*
X165056661Y-105751000D01*
X165011323Y-105746535D01*
X164973636Y-105735102D01*
X164938897Y-105716534D01*
X164908452Y-105691548D01*
X164883466Y-105661103D01*
X164864898Y-105626364D01*
X164853465Y-105588677D01*
X164849000Y-105543339D01*
X164849000Y-104456661D01*
X164853465Y-104411323D01*
X164864898Y-104373636D01*
X164883466Y-104338897D01*
X164908452Y-104308452D01*
X164938897Y-104283466D01*
X164973636Y-104264898D01*
X165011323Y-104253465D01*
X165056661Y-104249000D01*
X165893339Y-104249000D01*
X165938677Y-104253465D01*
X165938677Y-104253465D01*
G37*
G36*
X194701000Y-105001000D02*
X193799000Y-105001000D01*
X193799000Y-102999000D01*
X194701000Y-102999000D01*
X194701000Y-105001000D01*
X194701000Y-105001000D01*
G37*
G36*
X106238677Y-102753465D02*
X106276364Y-102764898D01*
X106311103Y-102783466D01*
X106341548Y-102808452D01*
X106366534Y-102838897D01*
X106385102Y-102873636D01*
X106396535Y-102911323D01*
X106401000Y-102956661D01*
X106401000Y-104043339D01*
X106396535Y-104088677D01*
X106385102Y-104126364D01*
X106366534Y-104161103D01*
X106341548Y-104191548D01*
X106311103Y-104216534D01*
X106276364Y-104235102D01*
X106238677Y-104246535D01*
X106193339Y-104251000D01*
X105356661Y-104251000D01*
X105311323Y-104246535D01*
X105273636Y-104235102D01*
X105238897Y-104216534D01*
X105208452Y-104191548D01*
X105183466Y-104161103D01*
X105164898Y-104126364D01*
X105153465Y-104088677D01*
X105149000Y-104043339D01*
X105149000Y-102956661D01*
X105153465Y-102911323D01*
X105164898Y-102873636D01*
X105183466Y-102838897D01*
X105208452Y-102808452D01*
X105238897Y-102783466D01*
X105273636Y-102764898D01*
X105311323Y-102753465D01*
X105356661Y-102749000D01*
X106193339Y-102749000D01*
X106238677Y-102753465D01*
X106238677Y-102753465D01*
G37*
G36*
X104188677Y-102753465D02*
X104226364Y-102764898D01*
X104261103Y-102783466D01*
X104291548Y-102808452D01*
X104316534Y-102838897D01*
X104335102Y-102873636D01*
X104346535Y-102911323D01*
X104351000Y-102956661D01*
X104351000Y-104043339D01*
X104346535Y-104088677D01*
X104335102Y-104126364D01*
X104316534Y-104161103D01*
X104291548Y-104191548D01*
X104261103Y-104216534D01*
X104226364Y-104235102D01*
X104188677Y-104246535D01*
X104143339Y-104251000D01*
X103306661Y-104251000D01*
X103261323Y-104246535D01*
X103223636Y-104235102D01*
X103188897Y-104216534D01*
X103158452Y-104191548D01*
X103133466Y-104161103D01*
X103114898Y-104126364D01*
X103103465Y-104088677D01*
X103099000Y-104043339D01*
X103099000Y-102956661D01*
X103103465Y-102911323D01*
X103114898Y-102873636D01*
X103133466Y-102838897D01*
X103158452Y-102808452D01*
X103188897Y-102783466D01*
X103223636Y-102764898D01*
X103261323Y-102753465D01*
X103306661Y-102749000D01*
X104143339Y-102749000D01*
X104188677Y-102753465D01*
X104188677Y-102753465D01*
G37*
G36*
X198088677Y-102878465D02*
X198126364Y-102889898D01*
X198161103Y-102908466D01*
X198191548Y-102933452D01*
X198216534Y-102963897D01*
X198235102Y-102998636D01*
X198246535Y-103036323D01*
X198251000Y-103081661D01*
X198251000Y-103918339D01*
X198246535Y-103963677D01*
X198235102Y-104001364D01*
X198216534Y-104036103D01*
X198191548Y-104066548D01*
X198161103Y-104091534D01*
X198126364Y-104110102D01*
X198088677Y-104121535D01*
X198043339Y-104126000D01*
X196956661Y-104126000D01*
X196911323Y-104121535D01*
X196873636Y-104110102D01*
X196838897Y-104091534D01*
X196808452Y-104066548D01*
X196783466Y-104036103D01*
X196764898Y-104001364D01*
X196753465Y-103963677D01*
X196749000Y-103918339D01*
X196749000Y-103081661D01*
X196753465Y-103036323D01*
X196764898Y-102998636D01*
X196783466Y-102963897D01*
X196808452Y-102933452D01*
X196838897Y-102908466D01*
X196873636Y-102889898D01*
X196911323Y-102878465D01*
X196956661Y-102874000D01*
X198043339Y-102874000D01*
X198088677Y-102878465D01*
X198088677Y-102878465D01*
G37*
G36*
X190598252Y-98027818D02*
X190598254Y-98027819D01*
X190598255Y-98027819D01*
X190971513Y-98182427D01*
X190971514Y-98182428D01*
X191307439Y-98406886D01*
X191593114Y-98692561D01*
X191593116Y-98692564D01*
X191817573Y-99028487D01*
X191972181Y-99401745D01*
X192051000Y-99797994D01*
X192051000Y-100202006D01*
X191972181Y-100598255D01*
X191817573Y-100971513D01*
X191817572Y-100971514D01*
X191593114Y-101307439D01*
X191307439Y-101593114D01*
X191307436Y-101593116D01*
X190971513Y-101817573D01*
X190598255Y-101972181D01*
X190598254Y-101972181D01*
X190598252Y-101972182D01*
X190202007Y-102051000D01*
X189797993Y-102051000D01*
X189401748Y-101972182D01*
X189401746Y-101972181D01*
X189401745Y-101972181D01*
X189028487Y-101817573D01*
X188692564Y-101593116D01*
X188692561Y-101593114D01*
X188406886Y-101307439D01*
X188182428Y-100971514D01*
X188182427Y-100971513D01*
X188027819Y-100598255D01*
X187949000Y-100202006D01*
X187949000Y-99797994D01*
X188027819Y-99401745D01*
X188182427Y-99028487D01*
X188406884Y-98692564D01*
X188406886Y-98692561D01*
X188692561Y-98406886D01*
X189028486Y-98182428D01*
X189028487Y-98182427D01*
X189401745Y-98027819D01*
X189401746Y-98027819D01*
X189401748Y-98027818D01*
X189797993Y-97949000D01*
X190202007Y-97949000D01*
X190598252Y-98027818D01*
X190598252Y-98027818D01*
G37*
G36*
X110598252Y-98027818D02*
X110598254Y-98027819D01*
X110598255Y-98027819D01*
X110971513Y-98182427D01*
X110971514Y-98182428D01*
X111307439Y-98406886D01*
X111593114Y-98692561D01*
X111593116Y-98692564D01*
X111817573Y-99028487D01*
X111972181Y-99401745D01*
X112051000Y-99797994D01*
X112051000Y-100202006D01*
X111972181Y-100598255D01*
X111817573Y-100971513D01*
X111817572Y-100971514D01*
X111593114Y-101307439D01*
X111307439Y-101593114D01*
X111307436Y-101593116D01*
X110971513Y-101817573D01*
X110598255Y-101972181D01*
X110598254Y-101972181D01*
X110598252Y-101972182D01*
X110202007Y-102051000D01*
X109797993Y-102051000D01*
X109401748Y-101972182D01*
X109401746Y-101972181D01*
X109401745Y-101972181D01*
X109028487Y-101817573D01*
X108692564Y-101593116D01*
X108692561Y-101593114D01*
X108406886Y-101307439D01*
X108182428Y-100971514D01*
X108182427Y-100971513D01*
X108027819Y-100598255D01*
X107949000Y-100202006D01*
X107949000Y-99797994D01*
X108027819Y-99401745D01*
X108182427Y-99028487D01*
X108406884Y-98692564D01*
X108406886Y-98692561D01*
X108692561Y-98406886D01*
X109028486Y-98182428D01*
X109028487Y-98182427D01*
X109401745Y-98027819D01*
X109401746Y-98027819D01*
X109401748Y-98027818D01*
X109797993Y-97949000D01*
X110202007Y-97949000D01*
X110598252Y-98027818D01*
X110598252Y-98027818D01*
G37*
G36*
X152951000Y-96601000D02*
X149049000Y-96601000D01*
X149049000Y-94499000D01*
X152951000Y-94499000D01*
X152951000Y-96601000D01*
X152951000Y-96601000D01*
G37*
G36*
X151801000Y-90301000D02*
X150199000Y-90301000D01*
X150199000Y-88199000D01*
X151801000Y-88199000D01*
X151801000Y-90301000D01*
X151801000Y-90301000D01*
G37*
G36*
X149501000Y-90301000D02*
X147899000Y-90301000D01*
X147899000Y-88199000D01*
X149501000Y-88199000D01*
X149501000Y-90301000D01*
X149501000Y-90301000D01*
G37*
G36*
X154101000Y-90301000D02*
X152499000Y-90301000D01*
X152499000Y-88199000D01*
X154101000Y-88199000D01*
X154101000Y-90301000D01*
X154101000Y-90301000D01*
G37*
G36*
X196601000Y-87251000D02*
X191499000Y-87251000D01*
X191499000Y-85549000D01*
X196601000Y-85549000D01*
X196601000Y-87251000D01*
X196601000Y-87251000D01*
G37*
G36*
X173288213Y-85586249D02*
X173382652Y-85614897D01*
X173469687Y-85661418D01*
X173545975Y-85724025D01*
X173608582Y-85800313D01*
X173655103Y-85887348D01*
X173683751Y-85981787D01*
X173693424Y-86080000D01*
X173683751Y-86178213D01*
X173655103Y-86272652D01*
X173608582Y-86359687D01*
X173545975Y-86435975D01*
X173469687Y-86498582D01*
X173382652Y-86545103D01*
X173288213Y-86573751D01*
X173214612Y-86581000D01*
X171565388Y-86581000D01*
X171491787Y-86573751D01*
X171397348Y-86545103D01*
X171310313Y-86498582D01*
X171234025Y-86435975D01*
X171171418Y-86359687D01*
X171124897Y-86272652D01*
X171096249Y-86178213D01*
X171086576Y-86080000D01*
X171096249Y-85981787D01*
X171124897Y-85887348D01*
X171171418Y-85800313D01*
X171234025Y-85724025D01*
X171310313Y-85661418D01*
X171397348Y-85614897D01*
X171491787Y-85586249D01*
X171565388Y-85579000D01*
X173214612Y-85579000D01*
X173288213Y-85586249D01*
X173288213Y-85586249D01*
G37*
G36*
X155508213Y-85586249D02*
X155602652Y-85614897D01*
X155689687Y-85661418D01*
X155765975Y-85724025D01*
X155828582Y-85800313D01*
X155875103Y-85887348D01*
X155903751Y-85981787D01*
X155913424Y-86080000D01*
X155903751Y-86178213D01*
X155875103Y-86272652D01*
X155828582Y-86359687D01*
X155765975Y-86435975D01*
X155689687Y-86498582D01*
X155602652Y-86545103D01*
X155508213Y-86573751D01*
X155434612Y-86581000D01*
X153785388Y-86581000D01*
X153711787Y-86573751D01*
X153617348Y-86545103D01*
X153530313Y-86498582D01*
X153454025Y-86435975D01*
X153391418Y-86359687D01*
X153344897Y-86272652D01*
X153316249Y-86178213D01*
X153306576Y-86080000D01*
X153316249Y-85981787D01*
X153344897Y-85887348D01*
X153391418Y-85800313D01*
X153454025Y-85724025D01*
X153530313Y-85661418D01*
X153617348Y-85614897D01*
X153711787Y-85586249D01*
X153785388Y-85579000D01*
X155434612Y-85579000D01*
X155508213Y-85586249D01*
X155508213Y-85586249D01*
G37*
G36*
X155508213Y-84316249D02*
X155602652Y-84344897D01*
X155689687Y-84391418D01*
X155765975Y-84454025D01*
X155828582Y-84530313D01*
X155875103Y-84617348D01*
X155903751Y-84711787D01*
X155913424Y-84810000D01*
X155903751Y-84908213D01*
X155875103Y-85002652D01*
X155828582Y-85089687D01*
X155765975Y-85165975D01*
X155689687Y-85228582D01*
X155602652Y-85275103D01*
X155508213Y-85303751D01*
X155434612Y-85311000D01*
X153785388Y-85311000D01*
X153711787Y-85303751D01*
X153617348Y-85275103D01*
X153530313Y-85228582D01*
X153454025Y-85165975D01*
X153391418Y-85089687D01*
X153344897Y-85002652D01*
X153316249Y-84908213D01*
X153306576Y-84810000D01*
X153316249Y-84711787D01*
X153344897Y-84617348D01*
X153391418Y-84530313D01*
X153454025Y-84454025D01*
X153530313Y-84391418D01*
X153617348Y-84344897D01*
X153711787Y-84316249D01*
X153785388Y-84309000D01*
X155434612Y-84309000D01*
X155508213Y-84316249D01*
X155508213Y-84316249D01*
G37*
G36*
X173288213Y-84316249D02*
X173382652Y-84344897D01*
X173469687Y-84391418D01*
X173545975Y-84454025D01*
X173608582Y-84530313D01*
X173655103Y-84617348D01*
X173683751Y-84711787D01*
X173693424Y-84810000D01*
X173683751Y-84908213D01*
X173655103Y-85002652D01*
X173608582Y-85089687D01*
X173545975Y-85165975D01*
X173469687Y-85228582D01*
X173382652Y-85275103D01*
X173288213Y-85303751D01*
X173214612Y-85311000D01*
X171565388Y-85311000D01*
X171491787Y-85303751D01*
X171397348Y-85275103D01*
X171310313Y-85228582D01*
X171234025Y-85165975D01*
X171171418Y-85089687D01*
X171124897Y-85002652D01*
X171096249Y-84908213D01*
X171086576Y-84810000D01*
X171096249Y-84711787D01*
X171124897Y-84617348D01*
X171171418Y-84530313D01*
X171234025Y-84454025D01*
X171310313Y-84391418D01*
X171397348Y-84344897D01*
X171491787Y-84316249D01*
X171565388Y-84309000D01*
X173214612Y-84309000D01*
X173288213Y-84316249D01*
X173288213Y-84316249D01*
G37*
G36*
X196601000Y-84711000D02*
X191499000Y-84711000D01*
X191499000Y-83009000D01*
X196601000Y-83009000D01*
X196601000Y-84711000D01*
X196601000Y-84711000D01*
G37*
G36*
X155508213Y-83046249D02*
X155602652Y-83074897D01*
X155689687Y-83121418D01*
X155765975Y-83184025D01*
X155828582Y-83260313D01*
X155875103Y-83347348D01*
X155903751Y-83441787D01*
X155913424Y-83540000D01*
X155903751Y-83638213D01*
X155875103Y-83732652D01*
X155828582Y-83819687D01*
X155765975Y-83895975D01*
X155689687Y-83958582D01*
X155602652Y-84005103D01*
X155508213Y-84033751D01*
X155434612Y-84041000D01*
X153785388Y-84041000D01*
X153711787Y-84033751D01*
X153617348Y-84005103D01*
X153530313Y-83958582D01*
X153454025Y-83895975D01*
X153391418Y-83819687D01*
X153344897Y-83732652D01*
X153316249Y-83638213D01*
X153306576Y-83540000D01*
X153316249Y-83441787D01*
X153344897Y-83347348D01*
X153391418Y-83260313D01*
X153454025Y-83184025D01*
X153530313Y-83121418D01*
X153617348Y-83074897D01*
X153711787Y-83046249D01*
X153785388Y-83039000D01*
X155434612Y-83039000D01*
X155508213Y-83046249D01*
X155508213Y-83046249D01*
G37*
G36*
X173288213Y-83046249D02*
X173382652Y-83074897D01*
X173469687Y-83121418D01*
X173545975Y-83184025D01*
X173608582Y-83260313D01*
X173655103Y-83347348D01*
X173683751Y-83441787D01*
X173693424Y-83540000D01*
X173683751Y-83638213D01*
X173655103Y-83732652D01*
X173608582Y-83819687D01*
X173545975Y-83895975D01*
X173469687Y-83958582D01*
X173382652Y-84005103D01*
X173288213Y-84033751D01*
X173214612Y-84041000D01*
X171565388Y-84041000D01*
X171491787Y-84033751D01*
X171397348Y-84005103D01*
X171310313Y-83958582D01*
X171234025Y-83895975D01*
X171171418Y-83819687D01*
X171124897Y-83732652D01*
X171096249Y-83638213D01*
X171086576Y-83540000D01*
X171096249Y-83441787D01*
X171124897Y-83347348D01*
X171171418Y-83260313D01*
X171234025Y-83184025D01*
X171310313Y-83121418D01*
X171397348Y-83074897D01*
X171491787Y-83046249D01*
X171565388Y-83039000D01*
X173214612Y-83039000D01*
X173288213Y-83046249D01*
X173288213Y-83046249D01*
G37*
G36*
X155911000Y-82771000D02*
X153309000Y-82771000D01*
X153309000Y-81769000D01*
X155911000Y-81769000D01*
X155911000Y-82771000D01*
X155911000Y-82771000D01*
G37*
G36*
X173539560Y-81773205D02*
X173574711Y-81783869D01*
X173607109Y-81801186D01*
X173635508Y-81824492D01*
X173658814Y-81852891D01*
X173676131Y-81885289D01*
X173686795Y-81920440D01*
X173691000Y-81963140D01*
X173691000Y-82576860D01*
X173686795Y-82619560D01*
X173676131Y-82654711D01*
X173658814Y-82687109D01*
X173635508Y-82715508D01*
X173607109Y-82738814D01*
X173574711Y-82756131D01*
X173539560Y-82766795D01*
X173496860Y-82771000D01*
X171283140Y-82771000D01*
X171240440Y-82766795D01*
X171205289Y-82756131D01*
X171172891Y-82738814D01*
X171144492Y-82715508D01*
X171121186Y-82687109D01*
X171103869Y-82654711D01*
X171093205Y-82619560D01*
X171089000Y-82576860D01*
X171089000Y-81963140D01*
X171093205Y-81920440D01*
X171103869Y-81885289D01*
X171121186Y-81852891D01*
X171144492Y-81824492D01*
X171172891Y-81801186D01*
X171205289Y-81783869D01*
X171240440Y-81773205D01*
X171283140Y-81769000D01*
X173496860Y-81769000D01*
X173539560Y-81773205D01*
X173539560Y-81773205D01*
G37*
G36*
X103082510Y-80222041D02*
X103206032Y-80234207D01*
X103404146Y-80294305D01*
X103586729Y-80391897D01*
X103746765Y-80523235D01*
X103878103Y-80683271D01*
X103975695Y-80865854D01*
X104035793Y-81063968D01*
X104056085Y-81270000D01*
X104035793Y-81476032D01*
X103975695Y-81674146D01*
X103878103Y-81856729D01*
X103746765Y-82016765D01*
X103586729Y-82148103D01*
X103404146Y-82245695D01*
X103206032Y-82305793D01*
X103082510Y-82317959D01*
X103051631Y-82321000D01*
X101948369Y-82321000D01*
X101917490Y-82317959D01*
X101793968Y-82305793D01*
X101595854Y-82245695D01*
X101413271Y-82148103D01*
X101253235Y-82016765D01*
X101121897Y-81856729D01*
X101024305Y-81674146D01*
X100964207Y-81476032D01*
X100943915Y-81270000D01*
X100964207Y-81063968D01*
X101024305Y-80865854D01*
X101121897Y-80683271D01*
X101253235Y-80523235D01*
X101413271Y-80391897D01*
X101595854Y-80294305D01*
X101793968Y-80234207D01*
X101917490Y-80222041D01*
X101948369Y-80219000D01*
X103051631Y-80219000D01*
X103082510Y-80222041D01*
X103082510Y-80222041D01*
G37*
G36*
X196601000Y-82171000D02*
X191499000Y-82171000D01*
X191499000Y-80469000D01*
X196601000Y-80469000D01*
X196601000Y-82171000D01*
X196601000Y-82171000D01*
G37*
G36*
X124338677Y-80403465D02*
X124376364Y-80414898D01*
X124411103Y-80433466D01*
X124441548Y-80458452D01*
X124466534Y-80488897D01*
X124485102Y-80523636D01*
X124496535Y-80561323D01*
X124501000Y-80606661D01*
X124501000Y-81443339D01*
X124496535Y-81488677D01*
X124485102Y-81526364D01*
X124466534Y-81561103D01*
X124441548Y-81591548D01*
X124411103Y-81616534D01*
X124376364Y-81635102D01*
X124338677Y-81646535D01*
X124293339Y-81651000D01*
X123206661Y-81651000D01*
X123161323Y-81646535D01*
X123123636Y-81635102D01*
X123088897Y-81616534D01*
X123058452Y-81591548D01*
X123033466Y-81561103D01*
X123014898Y-81526364D01*
X123003465Y-81488677D01*
X122999000Y-81443339D01*
X122999000Y-80606661D01*
X123003465Y-80561323D01*
X123014898Y-80523636D01*
X123033466Y-80488897D01*
X123058452Y-80458452D01*
X123088897Y-80433466D01*
X123123636Y-80414898D01*
X123161323Y-80403465D01*
X123206661Y-80399000D01*
X124293339Y-80399000D01*
X124338677Y-80403465D01*
X124338677Y-80403465D01*
G37*
G36*
X173539560Y-80503205D02*
X173574711Y-80513869D01*
X173607109Y-80531186D01*
X173635508Y-80554492D01*
X173658814Y-80582891D01*
X173676131Y-80615289D01*
X173686795Y-80650440D01*
X173691000Y-80693140D01*
X173691000Y-81306860D01*
X173686795Y-81349560D01*
X173676131Y-81384711D01*
X173658814Y-81417109D01*
X173635508Y-81445508D01*
X173607109Y-81468814D01*
X173574711Y-81486131D01*
X173539560Y-81496795D01*
X173496860Y-81501000D01*
X171283140Y-81501000D01*
X171240440Y-81496795D01*
X171205289Y-81486131D01*
X171172891Y-81468814D01*
X171144492Y-81445508D01*
X171121186Y-81417109D01*
X171103869Y-81384711D01*
X171093205Y-81349560D01*
X171089000Y-81306860D01*
X171089000Y-80693140D01*
X171093205Y-80650440D01*
X171103869Y-80615289D01*
X171121186Y-80582891D01*
X171144492Y-80554492D01*
X171172891Y-80531186D01*
X171205289Y-80513869D01*
X171240440Y-80503205D01*
X171283140Y-80499000D01*
X173496860Y-80499000D01*
X173539560Y-80503205D01*
X173539560Y-80503205D01*
G37*
G36*
X155759560Y-80503205D02*
X155794711Y-80513869D01*
X155827109Y-80531186D01*
X155855508Y-80554492D01*
X155878814Y-80582891D01*
X155896131Y-80615289D01*
X155906795Y-80650440D01*
X155911000Y-80693140D01*
X155911000Y-81306860D01*
X155906795Y-81349560D01*
X155896131Y-81384711D01*
X155878814Y-81417109D01*
X155855508Y-81445508D01*
X155827109Y-81468814D01*
X155794711Y-81486131D01*
X155759560Y-81496795D01*
X155716860Y-81501000D01*
X153503140Y-81501000D01*
X153460440Y-81496795D01*
X153425289Y-81486131D01*
X153392891Y-81468814D01*
X153364492Y-81445508D01*
X153341186Y-81417109D01*
X153323869Y-81384711D01*
X153313205Y-81349560D01*
X153309000Y-81306860D01*
X153309000Y-80693140D01*
X153313205Y-80650440D01*
X153323869Y-80615289D01*
X153341186Y-80582891D01*
X153364492Y-80554492D01*
X153392891Y-80531186D01*
X153425289Y-80513869D01*
X153460440Y-80503205D01*
X153503140Y-80499000D01*
X155716860Y-80499000D01*
X155759560Y-80503205D01*
X155759560Y-80503205D01*
G37*
G36*
X155759560Y-79233205D02*
X155794711Y-79243869D01*
X155827109Y-79261186D01*
X155855508Y-79284492D01*
X155878814Y-79312891D01*
X155896131Y-79345289D01*
X155906795Y-79380440D01*
X155911000Y-79423140D01*
X155911000Y-80036860D01*
X155906795Y-80079560D01*
X155896131Y-80114711D01*
X155878814Y-80147109D01*
X155855508Y-80175508D01*
X155827109Y-80198814D01*
X155794711Y-80216131D01*
X155759560Y-80226795D01*
X155716860Y-80231000D01*
X153503140Y-80231000D01*
X153460440Y-80226795D01*
X153425289Y-80216131D01*
X153392891Y-80198814D01*
X153364492Y-80175508D01*
X153341186Y-80147109D01*
X153323869Y-80114711D01*
X153313205Y-80079560D01*
X153309000Y-80036860D01*
X153309000Y-79423140D01*
X153313205Y-79380440D01*
X153323869Y-79345289D01*
X153341186Y-79312891D01*
X153364492Y-79284492D01*
X153392891Y-79261186D01*
X153425289Y-79243869D01*
X153460440Y-79233205D01*
X153503140Y-79229000D01*
X155716860Y-79229000D01*
X155759560Y-79233205D01*
X155759560Y-79233205D01*
G37*
G36*
X173539560Y-79233205D02*
X173574711Y-79243869D01*
X173607109Y-79261186D01*
X173635508Y-79284492D01*
X173658814Y-79312891D01*
X173676131Y-79345289D01*
X173686795Y-79380440D01*
X173691000Y-79423140D01*
X173691000Y-80036860D01*
X173686795Y-80079560D01*
X173676131Y-80114711D01*
X173658814Y-80147109D01*
X173635508Y-80175508D01*
X173607109Y-80198814D01*
X173574711Y-80216131D01*
X173539560Y-80226795D01*
X173496860Y-80231000D01*
X171283140Y-80231000D01*
X171240440Y-80226795D01*
X171205289Y-80216131D01*
X171172891Y-80198814D01*
X171144492Y-80175508D01*
X171121186Y-80147109D01*
X171103869Y-80114711D01*
X171093205Y-80079560D01*
X171089000Y-80036860D01*
X171089000Y-79423140D01*
X171093205Y-79380440D01*
X171103869Y-79345289D01*
X171121186Y-79312891D01*
X171144492Y-79284492D01*
X171172891Y-79261186D01*
X171205289Y-79243869D01*
X171240440Y-79233205D01*
X171283140Y-79229000D01*
X173496860Y-79229000D01*
X173539560Y-79233205D01*
X173539560Y-79233205D01*
G37*
G36*
X103082510Y-77682041D02*
X103206032Y-77694207D01*
X103404146Y-77754305D01*
X103586729Y-77851897D01*
X103746765Y-77983235D01*
X103878103Y-78143271D01*
X103975695Y-78325854D01*
X104035793Y-78523968D01*
X104056085Y-78730000D01*
X104035793Y-78936032D01*
X103975695Y-79134146D01*
X103878103Y-79316729D01*
X103746765Y-79476765D01*
X103586729Y-79608103D01*
X103404146Y-79705695D01*
X103206032Y-79765793D01*
X103082510Y-79777959D01*
X103051631Y-79781000D01*
X101948369Y-79781000D01*
X101917490Y-79777959D01*
X101793968Y-79765793D01*
X101595854Y-79705695D01*
X101413271Y-79608103D01*
X101253235Y-79476765D01*
X101121897Y-79316729D01*
X101024305Y-79134146D01*
X100964207Y-78936032D01*
X100943915Y-78730000D01*
X100964207Y-78523968D01*
X101024305Y-78325854D01*
X101121897Y-78143271D01*
X101253235Y-77983235D01*
X101413271Y-77851897D01*
X101595854Y-77754305D01*
X101793968Y-77694207D01*
X101917490Y-77682041D01*
X101948369Y-77679000D01*
X103051631Y-77679000D01*
X103082510Y-77682041D01*
X103082510Y-77682041D01*
G37*
G36*
X196601000Y-79631000D02*
X191499000Y-79631000D01*
X191499000Y-77929000D01*
X196601000Y-77929000D01*
X196601000Y-79631000D01*
X196601000Y-79631000D01*
G37*
G36*
X124338677Y-78353465D02*
X124376364Y-78364898D01*
X124411103Y-78383466D01*
X124441548Y-78408452D01*
X124466534Y-78438897D01*
X124485102Y-78473636D01*
X124496535Y-78511323D01*
X124501000Y-78556661D01*
X124501000Y-79393339D01*
X124496535Y-79438677D01*
X124485102Y-79476364D01*
X124466534Y-79511103D01*
X124441548Y-79541548D01*
X124411103Y-79566534D01*
X124376364Y-79585102D01*
X124338677Y-79596535D01*
X124293339Y-79601000D01*
X123206661Y-79601000D01*
X123161323Y-79596535D01*
X123123636Y-79585102D01*
X123088897Y-79566534D01*
X123058452Y-79541548D01*
X123033466Y-79511103D01*
X123014898Y-79476364D01*
X123003465Y-79438677D01*
X122999000Y-79393339D01*
X122999000Y-78556661D01*
X123003465Y-78511323D01*
X123014898Y-78473636D01*
X123033466Y-78438897D01*
X123058452Y-78408452D01*
X123088897Y-78383466D01*
X123123636Y-78364898D01*
X123161323Y-78353465D01*
X123206661Y-78349000D01*
X124293339Y-78349000D01*
X124338677Y-78353465D01*
X124338677Y-78353465D01*
G37*
G36*
X155911000Y-78961000D02*
X153309000Y-78961000D01*
X153309000Y-77959000D01*
X155911000Y-77959000D01*
X155911000Y-78961000D01*
X155911000Y-78961000D01*
G37*
G36*
X173691000Y-78961000D02*
X171089000Y-78961000D01*
X171089000Y-77959000D01*
X173691000Y-77959000D01*
X173691000Y-78961000D01*
X173691000Y-78961000D01*
G37*
G36*
X155911000Y-77691000D02*
X153309000Y-77691000D01*
X153309000Y-76689000D01*
X155911000Y-76689000D01*
X155911000Y-77691000D01*
X155911000Y-77691000D01*
G37*
G36*
X173288213Y-76696249D02*
X173382652Y-76724897D01*
X173469687Y-76771418D01*
X173545975Y-76834025D01*
X173608582Y-76910313D01*
X173655103Y-76997348D01*
X173683751Y-77091787D01*
X173693424Y-77190000D01*
X173683751Y-77288213D01*
X173655103Y-77382652D01*
X173608582Y-77469687D01*
X173545975Y-77545975D01*
X173469687Y-77608582D01*
X173382652Y-77655103D01*
X173288213Y-77683751D01*
X173214612Y-77691000D01*
X171565388Y-77691000D01*
X171491787Y-77683751D01*
X171397348Y-77655103D01*
X171310313Y-77608582D01*
X171234025Y-77545975D01*
X171171418Y-77469687D01*
X171124897Y-77382652D01*
X171096249Y-77288213D01*
X171086576Y-77190000D01*
X171096249Y-77091787D01*
X171124897Y-76997348D01*
X171171418Y-76910313D01*
X171234025Y-76834025D01*
X171310313Y-76771418D01*
X171397348Y-76724897D01*
X171491787Y-76696249D01*
X171565388Y-76689000D01*
X173214612Y-76689000D01*
X173288213Y-76696249D01*
X173288213Y-76696249D01*
G37*
G36*
X118236000Y-77151000D02*
X110749000Y-77151000D01*
X110749000Y-75849000D01*
X118236000Y-75849000D01*
X118236000Y-77151000D01*
X118236000Y-77151000D01*
G37*
G36*
X196601000Y-77091000D02*
X191499000Y-77091000D01*
X191499000Y-75389000D01*
X196601000Y-75389000D01*
X196601000Y-77091000D01*
X196601000Y-77091000D01*
G37*
G36*
X155911000Y-76421000D02*
X153309000Y-76421000D01*
X153309000Y-75419000D01*
X155911000Y-75419000D01*
X155911000Y-76421000D01*
X155911000Y-76421000D01*
G37*
G36*
X129531000Y-76421000D02*
X127729000Y-76421000D01*
X127729000Y-71319000D01*
X129531000Y-71319000D01*
X129531000Y-76421000D01*
X129531000Y-76421000D01*
G37*
G36*
X173288213Y-75426249D02*
X173382652Y-75454897D01*
X173469687Y-75501418D01*
X173545975Y-75564025D01*
X173608582Y-75640313D01*
X173655103Y-75727348D01*
X173683751Y-75821787D01*
X173693424Y-75920000D01*
X173683751Y-76018213D01*
X173655103Y-76112652D01*
X173608582Y-76199687D01*
X173545975Y-76275975D01*
X173469687Y-76338582D01*
X173382652Y-76385103D01*
X173288213Y-76413751D01*
X173214612Y-76421000D01*
X171565388Y-76421000D01*
X171491787Y-76413751D01*
X171397348Y-76385103D01*
X171310313Y-76338582D01*
X171234025Y-76275975D01*
X171171418Y-76199687D01*
X171124897Y-76112652D01*
X171096249Y-76018213D01*
X171086576Y-75920000D01*
X171096249Y-75821787D01*
X171124897Y-75727348D01*
X171171418Y-75640313D01*
X171234025Y-75564025D01*
X171310313Y-75501418D01*
X171397348Y-75454897D01*
X171491787Y-75426249D01*
X171565388Y-75419000D01*
X173214612Y-75419000D01*
X173288213Y-75426249D01*
X173288213Y-75426249D01*
G37*
G36*
X137151000Y-76421000D02*
X135349000Y-76421000D01*
X135349000Y-71319000D01*
X137151000Y-71319000D01*
X137151000Y-76421000D01*
X137151000Y-76421000D01*
G37*
G36*
X132071000Y-76421000D02*
X130269000Y-76421000D01*
X130269000Y-71319000D01*
X132071000Y-71319000D01*
X132071000Y-76421000D01*
X132071000Y-76421000D01*
G37*
G36*
X134611000Y-76421000D02*
X132809000Y-76421000D01*
X132809000Y-71319000D01*
X134611000Y-71319000D01*
X134611000Y-76421000D01*
X134611000Y-76421000D01*
G37*
G36*
X109088677Y-74653465D02*
X109126364Y-74664898D01*
X109161103Y-74683466D01*
X109191548Y-74708452D01*
X109216534Y-74738897D01*
X109235102Y-74773636D01*
X109246535Y-74811323D01*
X109251000Y-74856661D01*
X109251000Y-75693339D01*
X109246535Y-75738677D01*
X109235102Y-75776364D01*
X109216534Y-75811103D01*
X109191548Y-75841548D01*
X109161103Y-75866534D01*
X109126364Y-75885102D01*
X109088677Y-75896535D01*
X109043339Y-75901000D01*
X107956661Y-75901000D01*
X107911323Y-75896535D01*
X107873636Y-75885102D01*
X107838897Y-75866534D01*
X107808452Y-75841548D01*
X107783466Y-75811103D01*
X107764898Y-75776364D01*
X107753465Y-75738677D01*
X107749000Y-75693339D01*
X107749000Y-74856661D01*
X107753465Y-74811323D01*
X107764898Y-74773636D01*
X107783466Y-74738897D01*
X107808452Y-74708452D01*
X107838897Y-74683466D01*
X107873636Y-74664898D01*
X107911323Y-74653465D01*
X107956661Y-74649000D01*
X109043339Y-74649000D01*
X109088677Y-74653465D01*
X109088677Y-74653465D01*
G37*
G36*
X173539560Y-74153205D02*
X173574711Y-74163869D01*
X173607109Y-74181186D01*
X173635508Y-74204492D01*
X173658814Y-74232891D01*
X173676131Y-74265289D01*
X173686795Y-74300440D01*
X173691000Y-74343140D01*
X173691000Y-74956860D01*
X173686795Y-74999560D01*
X173676131Y-75034711D01*
X173658814Y-75067109D01*
X173635508Y-75095508D01*
X173607109Y-75118814D01*
X173574711Y-75136131D01*
X173539560Y-75146795D01*
X173496860Y-75151000D01*
X171283140Y-75151000D01*
X171240440Y-75146795D01*
X171205289Y-75136131D01*
X171172891Y-75118814D01*
X171144492Y-75095508D01*
X171121186Y-75067109D01*
X171103869Y-75034711D01*
X171093205Y-74999560D01*
X171089000Y-74956860D01*
X171089000Y-74343140D01*
X171093205Y-74300440D01*
X171103869Y-74265289D01*
X171121186Y-74232891D01*
X171144492Y-74204492D01*
X171172891Y-74181186D01*
X171205289Y-74163869D01*
X171240440Y-74153205D01*
X171283140Y-74149000D01*
X173496860Y-74149000D01*
X173539560Y-74153205D01*
X173539560Y-74153205D01*
G37*
G36*
X155911000Y-75151000D02*
X153309000Y-75151000D01*
X153309000Y-74149000D01*
X155911000Y-74149000D01*
X155911000Y-75151000D01*
X155911000Y-75151000D01*
G37*
G36*
X196601000Y-74551000D02*
X191499000Y-74551000D01*
X191499000Y-72849000D01*
X196601000Y-72849000D01*
X196601000Y-74551000D01*
X196601000Y-74551000D01*
G37*
G36*
X173691000Y-73881000D02*
X171089000Y-73881000D01*
X171089000Y-72879000D01*
X173691000Y-72879000D01*
X173691000Y-73881000D01*
X173691000Y-73881000D01*
G37*
G36*
X155911000Y-73881000D02*
X153309000Y-73881000D01*
X153309000Y-72879000D01*
X155911000Y-72879000D01*
X155911000Y-73881000D01*
X155911000Y-73881000D01*
G37*
G36*
X109088677Y-72603465D02*
X109126364Y-72614898D01*
X109161103Y-72633466D01*
X109191548Y-72658452D01*
X109216534Y-72688897D01*
X109235102Y-72723636D01*
X109246535Y-72761323D01*
X109251000Y-72806661D01*
X109251000Y-73643339D01*
X109246535Y-73688677D01*
X109235102Y-73726364D01*
X109216534Y-73761103D01*
X109191548Y-73791548D01*
X109161103Y-73816534D01*
X109126364Y-73835102D01*
X109088677Y-73846535D01*
X109043339Y-73851000D01*
X107956661Y-73851000D01*
X107911323Y-73846535D01*
X107873636Y-73835102D01*
X107838897Y-73816534D01*
X107808452Y-73791548D01*
X107783466Y-73761103D01*
X107764898Y-73726364D01*
X107753465Y-73688677D01*
X107749000Y-73643339D01*
X107749000Y-72806661D01*
X107753465Y-72761323D01*
X107764898Y-72723636D01*
X107783466Y-72688897D01*
X107808452Y-72658452D01*
X107838897Y-72633466D01*
X107873636Y-72614898D01*
X107911323Y-72603465D01*
X107956661Y-72599000D01*
X109043339Y-72599000D01*
X109088677Y-72603465D01*
X109088677Y-72603465D01*
G37*
G36*
X155911000Y-72611000D02*
X153309000Y-72611000D01*
X153309000Y-71609000D01*
X155911000Y-71609000D01*
X155911000Y-72611000D01*
X155911000Y-72611000D01*
G37*
G36*
X173691000Y-72611000D02*
X171089000Y-72611000D01*
X171089000Y-71609000D01*
X173691000Y-71609000D01*
X173691000Y-72611000D01*
X173691000Y-72611000D01*
G37*
G36*
X162879485Y-69668996D02*
X162879487Y-69668997D01*
X162879488Y-69668997D01*
X163083412Y-69753465D01*
X163116255Y-69767069D01*
X163329342Y-69909449D01*
X163510551Y-70090658D01*
X163510553Y-70090661D01*
X163652931Y-70303745D01*
X163701674Y-70421420D01*
X163751004Y-70540515D01*
X163801000Y-70791861D01*
X163801000Y-71048139D01*
X163759141Y-71258580D01*
X163751003Y-71299488D01*
X163748677Y-71305103D01*
X163652931Y-71536255D01*
X163510551Y-71749342D01*
X163329342Y-71930551D01*
X163329339Y-71930553D01*
X163116255Y-72072931D01*
X162879488Y-72171003D01*
X162879487Y-72171003D01*
X162879485Y-72171004D01*
X162628139Y-72221000D01*
X162371861Y-72221000D01*
X162120515Y-72171004D01*
X162120513Y-72171003D01*
X162120512Y-72171003D01*
X161883745Y-72072931D01*
X161670661Y-71930553D01*
X161670658Y-71930551D01*
X161489449Y-71749342D01*
X161347069Y-71536255D01*
X161251323Y-71305103D01*
X161248997Y-71299488D01*
X161240860Y-71258580D01*
X161199000Y-71048139D01*
X161199000Y-70791861D01*
X161248996Y-70540515D01*
X161298327Y-70421420D01*
X161347069Y-70303745D01*
X161489447Y-70090661D01*
X161489449Y-70090658D01*
X161670658Y-69909449D01*
X161883745Y-69767069D01*
X161916588Y-69753465D01*
X162120512Y-69668997D01*
X162120513Y-69668997D01*
X162120515Y-69668996D01*
X162371861Y-69619000D01*
X162628139Y-69619000D01*
X162879485Y-69668996D01*
X162879485Y-69668996D01*
G37*
G36*
X118236000Y-71951000D02*
X110749000Y-71951000D01*
X110749000Y-70649000D01*
X118236000Y-70649000D01*
X118236000Y-71951000D01*
X118236000Y-71951000D01*
G37*
G36*
X155911000Y-71341000D02*
X153309000Y-71341000D01*
X153309000Y-70339000D01*
X155911000Y-70339000D01*
X155911000Y-71341000D01*
X155911000Y-71341000D01*
G37*
G36*
X173288213Y-70346249D02*
X173382652Y-70374897D01*
X173469687Y-70421418D01*
X173545975Y-70484025D01*
X173608582Y-70560313D01*
X173655103Y-70647348D01*
X173683751Y-70741787D01*
X173693424Y-70840000D01*
X173683751Y-70938213D01*
X173655103Y-71032652D01*
X173608582Y-71119687D01*
X173545975Y-71195975D01*
X173469687Y-71258582D01*
X173382652Y-71305103D01*
X173288213Y-71333751D01*
X173214612Y-71341000D01*
X171565388Y-71341000D01*
X171491787Y-71333751D01*
X171397348Y-71305103D01*
X171310313Y-71258582D01*
X171234025Y-71195975D01*
X171171418Y-71119687D01*
X171124897Y-71032652D01*
X171096249Y-70938213D01*
X171086576Y-70840000D01*
X171096249Y-70741787D01*
X171124897Y-70647348D01*
X171171418Y-70560313D01*
X171234025Y-70484025D01*
X171310313Y-70421418D01*
X171397348Y-70374897D01*
X171491787Y-70346249D01*
X171565388Y-70339000D01*
X173214612Y-70339000D01*
X173288213Y-70346249D01*
X173288213Y-70346249D01*
G37*
G36*
X147938677Y-69753465D02*
X147976364Y-69764898D01*
X148011103Y-69783466D01*
X148041548Y-69808452D01*
X148066534Y-69838897D01*
X148085102Y-69873636D01*
X148096535Y-69911323D01*
X148101000Y-69956661D01*
X148101000Y-71043339D01*
X148096535Y-71088677D01*
X148085102Y-71126364D01*
X148066534Y-71161103D01*
X148041548Y-71191548D01*
X148011103Y-71216534D01*
X147976364Y-71235102D01*
X147938677Y-71246535D01*
X147893339Y-71251000D01*
X147056661Y-71251000D01*
X147011323Y-71246535D01*
X146973636Y-71235102D01*
X146938897Y-71216534D01*
X146908452Y-71191548D01*
X146883466Y-71161103D01*
X146864898Y-71126364D01*
X146853465Y-71088677D01*
X146849000Y-71043339D01*
X146849000Y-69956661D01*
X146853465Y-69911323D01*
X146864898Y-69873636D01*
X146883466Y-69838897D01*
X146908452Y-69808452D01*
X146938897Y-69783466D01*
X146973636Y-69764898D01*
X147011323Y-69753465D01*
X147056661Y-69749000D01*
X147893339Y-69749000D01*
X147938677Y-69753465D01*
X147938677Y-69753465D01*
G37*
G36*
X149988677Y-69753465D02*
X150026364Y-69764898D01*
X150061103Y-69783466D01*
X150091548Y-69808452D01*
X150116534Y-69838897D01*
X150135102Y-69873636D01*
X150146535Y-69911323D01*
X150151000Y-69956661D01*
X150151000Y-71043339D01*
X150146535Y-71088677D01*
X150135102Y-71126364D01*
X150116534Y-71161103D01*
X150091548Y-71191548D01*
X150061103Y-71216534D01*
X150026364Y-71235102D01*
X149988677Y-71246535D01*
X149943339Y-71251000D01*
X149106661Y-71251000D01*
X149061323Y-71246535D01*
X149023636Y-71235102D01*
X148988897Y-71216534D01*
X148958452Y-71191548D01*
X148933466Y-71161103D01*
X148914898Y-71126364D01*
X148903465Y-71088677D01*
X148899000Y-71043339D01*
X148899000Y-69956661D01*
X148903465Y-69911323D01*
X148914898Y-69873636D01*
X148933466Y-69838897D01*
X148958452Y-69808452D01*
X148988897Y-69783466D01*
X149023636Y-69764898D01*
X149061323Y-69753465D01*
X149106661Y-69749000D01*
X149943339Y-69749000D01*
X149988677Y-69753465D01*
X149988677Y-69753465D01*
G37*
G36*
X152338677Y-69653465D02*
X152376364Y-69664898D01*
X152411103Y-69683466D01*
X152441548Y-69708452D01*
X152466534Y-69738897D01*
X152485102Y-69773636D01*
X152496535Y-69811323D01*
X152501000Y-69856661D01*
X152501000Y-70693339D01*
X152496535Y-70738677D01*
X152485102Y-70776364D01*
X152466534Y-70811103D01*
X152441548Y-70841548D01*
X152411103Y-70866534D01*
X152376364Y-70885102D01*
X152338677Y-70896535D01*
X152293339Y-70901000D01*
X151206661Y-70901000D01*
X151161323Y-70896535D01*
X151123636Y-70885102D01*
X151088897Y-70866534D01*
X151058452Y-70841548D01*
X151033466Y-70811103D01*
X151014898Y-70776364D01*
X151003465Y-70738677D01*
X150999000Y-70693339D01*
X150999000Y-69856661D01*
X151003465Y-69811323D01*
X151014898Y-69773636D01*
X151033466Y-69738897D01*
X151058452Y-69708452D01*
X151088897Y-69683466D01*
X151123636Y-69664898D01*
X151161323Y-69653465D01*
X151206661Y-69649000D01*
X152293339Y-69649000D01*
X152338677Y-69653465D01*
X152338677Y-69653465D01*
G37*
G36*
X173691000Y-70071000D02*
X171089000Y-70071000D01*
X171089000Y-69069000D01*
X173691000Y-69069000D01*
X173691000Y-70071000D01*
X173691000Y-70071000D01*
G37*
G36*
X155911000Y-70071000D02*
X153309000Y-70071000D01*
X153309000Y-69069000D01*
X155911000Y-69069000D01*
X155911000Y-70071000D01*
X155911000Y-70071000D01*
G37*
G36*
X149988677Y-67503465D02*
X150026364Y-67514898D01*
X150061103Y-67533466D01*
X150091548Y-67558452D01*
X150116534Y-67588897D01*
X150135102Y-67623636D01*
X150146535Y-67661323D01*
X150151000Y-67706661D01*
X150151000Y-68793339D01*
X150146535Y-68838677D01*
X150135102Y-68876364D01*
X150116534Y-68911103D01*
X150091548Y-68941548D01*
X150061103Y-68966534D01*
X150026364Y-68985102D01*
X149988677Y-68996535D01*
X149943339Y-69001000D01*
X149106661Y-69001000D01*
X149061323Y-68996535D01*
X149023636Y-68985102D01*
X148988897Y-68966534D01*
X148958452Y-68941548D01*
X148933466Y-68911103D01*
X148914898Y-68876364D01*
X148903465Y-68838677D01*
X148899000Y-68793339D01*
X148899000Y-67706661D01*
X148903465Y-67661323D01*
X148914898Y-67623636D01*
X148933466Y-67588897D01*
X148958452Y-67558452D01*
X148988897Y-67533466D01*
X149023636Y-67514898D01*
X149061323Y-67503465D01*
X149106661Y-67499000D01*
X149943339Y-67499000D01*
X149988677Y-67503465D01*
X149988677Y-67503465D01*
G37*
G36*
X147938677Y-67503465D02*
X147976364Y-67514898D01*
X148011103Y-67533466D01*
X148041548Y-67558452D01*
X148066534Y-67588897D01*
X148085102Y-67623636D01*
X148096535Y-67661323D01*
X148101000Y-67706661D01*
X148101000Y-68793339D01*
X148096535Y-68838677D01*
X148085102Y-68876364D01*
X148066534Y-68911103D01*
X148041548Y-68941548D01*
X148011103Y-68966534D01*
X147976364Y-68985102D01*
X147938677Y-68996535D01*
X147893339Y-69001000D01*
X147056661Y-69001000D01*
X147011323Y-68996535D01*
X146973636Y-68985102D01*
X146938897Y-68966534D01*
X146908452Y-68941548D01*
X146883466Y-68911103D01*
X146864898Y-68876364D01*
X146853465Y-68838677D01*
X146849000Y-68793339D01*
X146849000Y-67706661D01*
X146853465Y-67661323D01*
X146864898Y-67623636D01*
X146883466Y-67588897D01*
X146908452Y-67558452D01*
X146938897Y-67533466D01*
X146973636Y-67514898D01*
X147011323Y-67503465D01*
X147056661Y-67499000D01*
X147893339Y-67499000D01*
X147938677Y-67503465D01*
X147938677Y-67503465D01*
G37*
G36*
X152338677Y-67603465D02*
X152376364Y-67614898D01*
X152411103Y-67633466D01*
X152441548Y-67658452D01*
X152466534Y-67688897D01*
X152485102Y-67723636D01*
X152496535Y-67761323D01*
X152501000Y-67806661D01*
X152501000Y-68643339D01*
X152496535Y-68688677D01*
X152485102Y-68726364D01*
X152466534Y-68761103D01*
X152441548Y-68791548D01*
X152411103Y-68816534D01*
X152376364Y-68835102D01*
X152338677Y-68846535D01*
X152293339Y-68851000D01*
X151206661Y-68851000D01*
X151161323Y-68846535D01*
X151123636Y-68835102D01*
X151088897Y-68816534D01*
X151058452Y-68791548D01*
X151033466Y-68761103D01*
X151014898Y-68726364D01*
X151003465Y-68688677D01*
X150999000Y-68643339D01*
X150999000Y-67806661D01*
X151003465Y-67761323D01*
X151014898Y-67723636D01*
X151033466Y-67688897D01*
X151058452Y-67658452D01*
X151088897Y-67633466D01*
X151123636Y-67614898D01*
X151161323Y-67603465D01*
X151206661Y-67599000D01*
X152293339Y-67599000D01*
X152338677Y-67603465D01*
X152338677Y-67603465D01*
G37*
G36*
X132071000Y-68801000D02*
X130269000Y-68801000D01*
X130269000Y-63699000D01*
X132071000Y-63699000D01*
X132071000Y-68801000D01*
X132071000Y-68801000D01*
G37*
G36*
X155911000Y-68801000D02*
X153309000Y-68801000D01*
X153309000Y-67799000D01*
X155911000Y-67799000D01*
X155911000Y-68801000D01*
X155911000Y-68801000D01*
G37*
G36*
X137151000Y-68801000D02*
X135349000Y-68801000D01*
X135349000Y-63699000D01*
X137151000Y-63699000D01*
X137151000Y-68801000D01*
X137151000Y-68801000D01*
G37*
G36*
X134611000Y-68801000D02*
X132809000Y-68801000D01*
X132809000Y-63699000D01*
X134611000Y-63699000D01*
X134611000Y-68801000D01*
X134611000Y-68801000D01*
G37*
G36*
X129531000Y-68801000D02*
X127729000Y-68801000D01*
X127729000Y-63699000D01*
X129531000Y-63699000D01*
X129531000Y-68801000D01*
X129531000Y-68801000D01*
G37*
G36*
X173539560Y-67803205D02*
X173574711Y-67813869D01*
X173607109Y-67831186D01*
X173635508Y-67854492D01*
X173658814Y-67882891D01*
X173676131Y-67915289D01*
X173686795Y-67950440D01*
X173691000Y-67993140D01*
X173691000Y-68606860D01*
X173686795Y-68649560D01*
X173676131Y-68684711D01*
X173658814Y-68717109D01*
X173635508Y-68745508D01*
X173607109Y-68768814D01*
X173574711Y-68786131D01*
X173539560Y-68796795D01*
X173496860Y-68801000D01*
X171283140Y-68801000D01*
X171240440Y-68796795D01*
X171205289Y-68786131D01*
X171172891Y-68768814D01*
X171144492Y-68745508D01*
X171121186Y-68717109D01*
X171103869Y-68684711D01*
X171093205Y-68649560D01*
X171089000Y-68606860D01*
X171089000Y-67993140D01*
X171093205Y-67950440D01*
X171103869Y-67915289D01*
X171121186Y-67882891D01*
X171144492Y-67854492D01*
X171172891Y-67831186D01*
X171205289Y-67813869D01*
X171240440Y-67803205D01*
X171283140Y-67799000D01*
X173496860Y-67799000D01*
X173539560Y-67803205D01*
X173539560Y-67803205D01*
G37*
G36*
X173539560Y-66533205D02*
X173574711Y-66543869D01*
X173607109Y-66561186D01*
X173635508Y-66584492D01*
X173658814Y-66612891D01*
X173676131Y-66645289D01*
X173686795Y-66680440D01*
X173691000Y-66723140D01*
X173691000Y-67336860D01*
X173686795Y-67379560D01*
X173676131Y-67414711D01*
X173658814Y-67447109D01*
X173635508Y-67475508D01*
X173607109Y-67498814D01*
X173574711Y-67516131D01*
X173539560Y-67526795D01*
X173496860Y-67531000D01*
X171283140Y-67531000D01*
X171240440Y-67526795D01*
X171205289Y-67516131D01*
X171172891Y-67498814D01*
X171144492Y-67475508D01*
X171121186Y-67447109D01*
X171103869Y-67414711D01*
X171093205Y-67379560D01*
X171089000Y-67336860D01*
X171089000Y-66723140D01*
X171093205Y-66680440D01*
X171103869Y-66645289D01*
X171121186Y-66612891D01*
X171144492Y-66584492D01*
X171172891Y-66561186D01*
X171205289Y-66543869D01*
X171240440Y-66533205D01*
X171283140Y-66529000D01*
X173496860Y-66529000D01*
X173539560Y-66533205D01*
X173539560Y-66533205D01*
G37*
G36*
X155911000Y-67531000D02*
X153309000Y-67531000D01*
X153309000Y-66529000D01*
X155911000Y-66529000D01*
X155911000Y-67531000D01*
X155911000Y-67531000D01*
G37*
G36*
X155759560Y-65263205D02*
X155794711Y-65273869D01*
X155827109Y-65291186D01*
X155855508Y-65314492D01*
X155878814Y-65342891D01*
X155896131Y-65375289D01*
X155906795Y-65410440D01*
X155911000Y-65453140D01*
X155911000Y-66066860D01*
X155906795Y-66109560D01*
X155896131Y-66144711D01*
X155878814Y-66177109D01*
X155855508Y-66205508D01*
X155827109Y-66228814D01*
X155794711Y-66246131D01*
X155759560Y-66256795D01*
X155716860Y-66261000D01*
X153503140Y-66261000D01*
X153460440Y-66256795D01*
X153425289Y-66246131D01*
X153392891Y-66228814D01*
X153364492Y-66205508D01*
X153341186Y-66177109D01*
X153323869Y-66144711D01*
X153313205Y-66109560D01*
X153309000Y-66066860D01*
X153309000Y-65453140D01*
X153313205Y-65410440D01*
X153323869Y-65375289D01*
X153341186Y-65342891D01*
X153364492Y-65314492D01*
X153392891Y-65291186D01*
X153425289Y-65273869D01*
X153460440Y-65263205D01*
X153503140Y-65259000D01*
X155716860Y-65259000D01*
X155759560Y-65263205D01*
X155759560Y-65263205D01*
G37*
G36*
X173691000Y-66261000D02*
X171089000Y-66261000D01*
X171089000Y-65259000D01*
X173691000Y-65259000D01*
X173691000Y-66261000D01*
X173691000Y-66261000D01*
G37*
G36*
X150338677Y-64653465D02*
X150376364Y-64664898D01*
X150411103Y-64683466D01*
X150441548Y-64708452D01*
X150466534Y-64738897D01*
X150485102Y-64773636D01*
X150496535Y-64811323D01*
X150501000Y-64856661D01*
X150501000Y-65693339D01*
X150496535Y-65738677D01*
X150485102Y-65776364D01*
X150466534Y-65811103D01*
X150441548Y-65841548D01*
X150411103Y-65866534D01*
X150376364Y-65885102D01*
X150338677Y-65896535D01*
X150293339Y-65901000D01*
X149206661Y-65901000D01*
X149161323Y-65896535D01*
X149123636Y-65885102D01*
X149088897Y-65866534D01*
X149058452Y-65841548D01*
X149033466Y-65811103D01*
X149014898Y-65776364D01*
X149003465Y-65738677D01*
X148999000Y-65693339D01*
X148999000Y-64856661D01*
X149003465Y-64811323D01*
X149014898Y-64773636D01*
X149033466Y-64738897D01*
X149058452Y-64708452D01*
X149088897Y-64683466D01*
X149123636Y-64664898D01*
X149161323Y-64653465D01*
X149206661Y-64649000D01*
X150293339Y-64649000D01*
X150338677Y-64653465D01*
X150338677Y-64653465D01*
G37*
G36*
X148088677Y-64653465D02*
X148126364Y-64664898D01*
X148161103Y-64683466D01*
X148191548Y-64708452D01*
X148216534Y-64738897D01*
X148235102Y-64773636D01*
X148246535Y-64811323D01*
X148251000Y-64856661D01*
X148251000Y-65693339D01*
X148246535Y-65738677D01*
X148235102Y-65776364D01*
X148216534Y-65811103D01*
X148191548Y-65841548D01*
X148161103Y-65866534D01*
X148126364Y-65885102D01*
X148088677Y-65896535D01*
X148043339Y-65901000D01*
X146956661Y-65901000D01*
X146911323Y-65896535D01*
X146873636Y-65885102D01*
X146838897Y-65866534D01*
X146808452Y-65841548D01*
X146783466Y-65811103D01*
X146764898Y-65776364D01*
X146753465Y-65738677D01*
X146749000Y-65693339D01*
X146749000Y-64856661D01*
X146753465Y-64811323D01*
X146764898Y-64773636D01*
X146783466Y-64738897D01*
X146808452Y-64708452D01*
X146838897Y-64683466D01*
X146873636Y-64664898D01*
X146911323Y-64653465D01*
X146956661Y-64649000D01*
X148043339Y-64649000D01*
X148088677Y-64653465D01*
X148088677Y-64653465D01*
G37*
G36*
X155759560Y-63993205D02*
X155794711Y-64003869D01*
X155827109Y-64021186D01*
X155855508Y-64044492D01*
X155878814Y-64072891D01*
X155896131Y-64105289D01*
X155906795Y-64140440D01*
X155911000Y-64183140D01*
X155911000Y-64796860D01*
X155906795Y-64839560D01*
X155896131Y-64874711D01*
X155878814Y-64907109D01*
X155855508Y-64935508D01*
X155827109Y-64958814D01*
X155794711Y-64976131D01*
X155759560Y-64986795D01*
X155716860Y-64991000D01*
X153503140Y-64991000D01*
X153460440Y-64986795D01*
X153425289Y-64976131D01*
X153392891Y-64958814D01*
X153364492Y-64935508D01*
X153341186Y-64907109D01*
X153323869Y-64874711D01*
X153313205Y-64839560D01*
X153309000Y-64796860D01*
X153309000Y-64183140D01*
X153313205Y-64140440D01*
X153323869Y-64105289D01*
X153341186Y-64072891D01*
X153364492Y-64044492D01*
X153392891Y-64021186D01*
X153425289Y-64003869D01*
X153460440Y-63993205D01*
X153503140Y-63989000D01*
X155716860Y-63989000D01*
X155759560Y-63993205D01*
X155759560Y-63993205D01*
G37*
G36*
X173691000Y-64991000D02*
X171089000Y-64991000D01*
X171089000Y-63989000D01*
X173691000Y-63989000D01*
X173691000Y-64991000D01*
X173691000Y-64991000D01*
G37*
G36*
X150338677Y-62603465D02*
X150376364Y-62614898D01*
X150411103Y-62633466D01*
X150441548Y-62658452D01*
X150466534Y-62688897D01*
X150485102Y-62723636D01*
X150496535Y-62761323D01*
X150501000Y-62806661D01*
X150501000Y-63643339D01*
X150496535Y-63688677D01*
X150485102Y-63726364D01*
X150466534Y-63761103D01*
X150441548Y-63791548D01*
X150411103Y-63816534D01*
X150376364Y-63835102D01*
X150338677Y-63846535D01*
X150293339Y-63851000D01*
X149206661Y-63851000D01*
X149161323Y-63846535D01*
X149123636Y-63835102D01*
X149088897Y-63816534D01*
X149058452Y-63791548D01*
X149033466Y-63761103D01*
X149014898Y-63726364D01*
X149003465Y-63688677D01*
X148999000Y-63643339D01*
X148999000Y-62806661D01*
X149003465Y-62761323D01*
X149014898Y-62723636D01*
X149033466Y-62688897D01*
X149058452Y-62658452D01*
X149088897Y-62633466D01*
X149123636Y-62614898D01*
X149161323Y-62603465D01*
X149206661Y-62599000D01*
X150293339Y-62599000D01*
X150338677Y-62603465D01*
X150338677Y-62603465D01*
G37*
G36*
X148088677Y-62603465D02*
X148126364Y-62614898D01*
X148161103Y-62633466D01*
X148191548Y-62658452D01*
X148216534Y-62688897D01*
X148235102Y-62723636D01*
X148246535Y-62761323D01*
X148251000Y-62806661D01*
X148251000Y-63643339D01*
X148246535Y-63688677D01*
X148235102Y-63726364D01*
X148216534Y-63761103D01*
X148191548Y-63791548D01*
X148161103Y-63816534D01*
X148126364Y-63835102D01*
X148088677Y-63846535D01*
X148043339Y-63851000D01*
X146956661Y-63851000D01*
X146911323Y-63846535D01*
X146873636Y-63835102D01*
X146838897Y-63816534D01*
X146808452Y-63791548D01*
X146783466Y-63761103D01*
X146764898Y-63726364D01*
X146753465Y-63688677D01*
X146749000Y-63643339D01*
X146749000Y-62806661D01*
X146753465Y-62761323D01*
X146764898Y-62723636D01*
X146783466Y-62688897D01*
X146808452Y-62658452D01*
X146838897Y-62633466D01*
X146873636Y-62614898D01*
X146911323Y-62603465D01*
X146956661Y-62599000D01*
X148043339Y-62599000D01*
X148088677Y-62603465D01*
X148088677Y-62603465D01*
G37*
G36*
X173539560Y-62723205D02*
X173574711Y-62733869D01*
X173607109Y-62751186D01*
X173635508Y-62774492D01*
X173658814Y-62802891D01*
X173676131Y-62835289D01*
X173686795Y-62870440D01*
X173691000Y-62913140D01*
X173691000Y-63526860D01*
X173686795Y-63569560D01*
X173676131Y-63604711D01*
X173658814Y-63637109D01*
X173635508Y-63665508D01*
X173607109Y-63688814D01*
X173574711Y-63706131D01*
X173539560Y-63716795D01*
X173496860Y-63721000D01*
X171283140Y-63721000D01*
X171240440Y-63716795D01*
X171205289Y-63706131D01*
X171172891Y-63688814D01*
X171144492Y-63665508D01*
X171121186Y-63637109D01*
X171103869Y-63604711D01*
X171093205Y-63569560D01*
X171089000Y-63526860D01*
X171089000Y-62913140D01*
X171093205Y-62870440D01*
X171103869Y-62835289D01*
X171121186Y-62802891D01*
X171144492Y-62774492D01*
X171172891Y-62751186D01*
X171205289Y-62733869D01*
X171240440Y-62723205D01*
X171283140Y-62719000D01*
X173496860Y-62719000D01*
X173539560Y-62723205D01*
X173539560Y-62723205D01*
G37*
G36*
X155759560Y-62723205D02*
X155794711Y-62733869D01*
X155827109Y-62751186D01*
X155855508Y-62774492D01*
X155878814Y-62802891D01*
X155896131Y-62835289D01*
X155906795Y-62870440D01*
X155911000Y-62913140D01*
X155911000Y-63526860D01*
X155906795Y-63569560D01*
X155896131Y-63604711D01*
X155878814Y-63637109D01*
X155855508Y-63665508D01*
X155827109Y-63688814D01*
X155794711Y-63706131D01*
X155759560Y-63716795D01*
X155716860Y-63721000D01*
X153503140Y-63721000D01*
X153460440Y-63716795D01*
X153425289Y-63706131D01*
X153392891Y-63688814D01*
X153364492Y-63665508D01*
X153341186Y-63637109D01*
X153323869Y-63604711D01*
X153313205Y-63569560D01*
X153309000Y-63526860D01*
X153309000Y-62913140D01*
X153313205Y-62870440D01*
X153323869Y-62835289D01*
X153341186Y-62802891D01*
X153364492Y-62774492D01*
X153392891Y-62751186D01*
X153425289Y-62733869D01*
X153460440Y-62723205D01*
X153503140Y-62719000D01*
X155716860Y-62719000D01*
X155759560Y-62723205D01*
X155759560Y-62723205D01*
G37*
G36*
X190598252Y-58027818D02*
X190598254Y-58027819D01*
X190598255Y-58027819D01*
X190971513Y-58182427D01*
X190971514Y-58182428D01*
X191307439Y-58406886D01*
X191593114Y-58692561D01*
X191593116Y-58692564D01*
X191817573Y-59028487D01*
X191972181Y-59401745D01*
X192051000Y-59797994D01*
X192051000Y-60202006D01*
X191972181Y-60598255D01*
X191817573Y-60971513D01*
X191817572Y-60971514D01*
X191593114Y-61307439D01*
X191307439Y-61593114D01*
X191307436Y-61593116D01*
X190971513Y-61817573D01*
X190598255Y-61972181D01*
X190598254Y-61972181D01*
X190598252Y-61972182D01*
X190202007Y-62051000D01*
X189797993Y-62051000D01*
X189401748Y-61972182D01*
X189401746Y-61972181D01*
X189401745Y-61972181D01*
X189028487Y-61817573D01*
X188692564Y-61593116D01*
X188692561Y-61593114D01*
X188406886Y-61307439D01*
X188182428Y-60971514D01*
X188182427Y-60971513D01*
X188027819Y-60598255D01*
X187949000Y-60202006D01*
X187949000Y-59797994D01*
X188027819Y-59401745D01*
X188182427Y-59028487D01*
X188406884Y-58692564D01*
X188406886Y-58692561D01*
X188692561Y-58406886D01*
X189028486Y-58182428D01*
X189028487Y-58182427D01*
X189401745Y-58027819D01*
X189401746Y-58027819D01*
X189401748Y-58027818D01*
X189797993Y-57949000D01*
X190202007Y-57949000D01*
X190598252Y-58027818D01*
X190598252Y-58027818D01*
G37*
G36*
X150598252Y-58027818D02*
X150598254Y-58027819D01*
X150598255Y-58027819D01*
X150971513Y-58182427D01*
X150971514Y-58182428D01*
X151307439Y-58406886D01*
X151593114Y-58692561D01*
X151593116Y-58692564D01*
X151817573Y-59028487D01*
X151972181Y-59401745D01*
X152051000Y-59797994D01*
X152051000Y-60202006D01*
X151972181Y-60598255D01*
X151817573Y-60971513D01*
X151817572Y-60971514D01*
X151593114Y-61307439D01*
X151307439Y-61593114D01*
X151307436Y-61593116D01*
X150971513Y-61817573D01*
X150598255Y-61972181D01*
X150598254Y-61972181D01*
X150598252Y-61972182D01*
X150202007Y-62051000D01*
X149797993Y-62051000D01*
X149401748Y-61972182D01*
X149401746Y-61972181D01*
X149401745Y-61972181D01*
X149028487Y-61817573D01*
X148692564Y-61593116D01*
X148692561Y-61593114D01*
X148406886Y-61307439D01*
X148182428Y-60971514D01*
X148182427Y-60971513D01*
X148027819Y-60598255D01*
X147949000Y-60202006D01*
X147949000Y-59797994D01*
X148027819Y-59401745D01*
X148182427Y-59028487D01*
X148406884Y-58692564D01*
X148406886Y-58692561D01*
X148692561Y-58406886D01*
X149028486Y-58182428D01*
X149028487Y-58182427D01*
X149401745Y-58027819D01*
X149401746Y-58027819D01*
X149401748Y-58027818D01*
X149797993Y-57949000D01*
X150202007Y-57949000D01*
X150598252Y-58027818D01*
X150598252Y-58027818D01*
G37*
G36*
X110598252Y-58027818D02*
X110598254Y-58027819D01*
X110598255Y-58027819D01*
X110971513Y-58182427D01*
X110971514Y-58182428D01*
X111307439Y-58406886D01*
X111593114Y-58692561D01*
X111593116Y-58692564D01*
X111817573Y-59028487D01*
X111972181Y-59401745D01*
X112051000Y-59797994D01*
X112051000Y-60202006D01*
X111972181Y-60598255D01*
X111817573Y-60971513D01*
X111817572Y-60971514D01*
X111593114Y-61307439D01*
X111307439Y-61593114D01*
X111307436Y-61593116D01*
X110971513Y-61817573D01*
X110598255Y-61972181D01*
X110598254Y-61972181D01*
X110598252Y-61972182D01*
X110202007Y-62051000D01*
X109797993Y-62051000D01*
X109401748Y-61972182D01*
X109401746Y-61972181D01*
X109401745Y-61972181D01*
X109028487Y-61817573D01*
X108692564Y-61593116D01*
X108692561Y-61593114D01*
X108406886Y-61307439D01*
X108182428Y-60971514D01*
X108182427Y-60971513D01*
X108027819Y-60598255D01*
X107949000Y-60202006D01*
X107949000Y-59797994D01*
X108027819Y-59401745D01*
X108182427Y-59028487D01*
X108406884Y-58692564D01*
X108406886Y-58692561D01*
X108692561Y-58406886D01*
X109028486Y-58182428D01*
X109028487Y-58182427D01*
X109401745Y-58027819D01*
X109401746Y-58027819D01*
X109401748Y-58027818D01*
X109797993Y-57949000D01*
X110202007Y-57949000D01*
X110598252Y-58027818D01*
X110598252Y-58027818D01*
G37*
M02*
