M48
;DRILL file {KiCad 5.0.2+dfsg1-1} date Tue 22 Sep 2020 02:37:24 PM CEST
;FORMAT={3:3/ absolute / metric / suppress leading zeros}
FMAT,2
METRIC,TZ
T1C0.400
T2C1.000
T3C2.000
T4C3.000
%
G90
G05
T1
X102000Y-70000
X102000Y-90000
X102000Y-100000
X102500Y-58000
X102500Y-62000
X102500Y-120000
X102500Y-130000
X102500Y-140000
X103500Y-70000
X103500Y-88250
X103750Y-97750
X103750Y-102000
X104250Y-117750
X104250Y-122250
X104629Y-90629
X105500Y-83500
X105500Y-60000
X105500Y-76500
X105500Y-121500
X105500Y-136500
X105500Y-143500
X107250Y-81250
X107500Y-118250
X108500Y-110000
X108500Y-78250
X109500Y-121250
X109950Y-93961
X110211Y-90478
X110332Y-92720
X111150Y-91150
X111500Y-130000
X112500Y-62400
X112600Y-108000
X113250Y-70000
X113250Y-148500
X113500Y-62400
X113500Y-88500
X113500Y-100000
X113750Y-51250
X114250Y-83500
X114400Y-56000
X114400Y-147000
X114500Y-53250
X114500Y-85500
X114500Y-107000
X114500Y-96750
X114750Y-144250
X114850Y-112250
X114900Y-115750
X114928Y-111200
X115500Y-73250
X115500Y-105750
X116000Y-98250
X116500Y-69000
X116500Y-90004
X116750Y-131000
X117500Y-60000
X118000Y-78250
X119406Y-116500
X119500Y-83500
X119500Y-103500
X119500Y-56500
X119500Y-63500
X119500Y-65750
X119500Y-76500
X119500Y-96500
X119500Y-123500
X119500Y-136750
X119500Y-143500
X120000Y-132000
X120000Y-135650
X120050Y-67002
X120500Y-74500
X120500Y-118250
X120500Y-121250
X120500Y-125500
X120500Y-124000
X121250Y-78250
X121250Y-81750
X121500Y-69500
X121500Y-72250
X121554Y-70554
X121972Y-127972
X122500Y-60000
X122500Y-90000
X122500Y-100000
X123500Y-110000
X125200Y-137600
X125250Y-119750
X125500Y-56500
X125500Y-63500
X125500Y-76500
X125500Y-83500
X125500Y-96500
X125500Y-103500
X125500Y-116500
X128000Y-60000
X128500Y-90000
X128750Y-81750
X129434Y-63199
X129500Y-123500
X129500Y-136500
X129500Y-143500
X129750Y-62000
X129750Y-116500
X130750Y-130000
X131000Y-100000
X131170Y-89750
X131500Y-110000
X132000Y-69500
X133000Y-70500
X133250Y-78250
X133250Y-80000
X133250Y-118750
X133250Y-130000
X135200Y-137500
X135500Y-60000
X135500Y-83500
X135500Y-96500
X135500Y-103500
X135500Y-116500
X136250Y-78250
X139000Y-100000
X139500Y-56500
X139500Y-63500
X139500Y-76500
X139500Y-123500
X139500Y-136500
X139500Y-143500
X139750Y-116500
X140500Y-80000
X141500Y-110000
X142500Y-60000
X143250Y-81750
X143250Y-110000
X143250Y-121250
X143750Y-78250
X144100Y-137900
X145500Y-56500
X145500Y-63500
X145500Y-76500
X145500Y-83500
X145500Y-96500
X145500Y-103500
X145500Y-116500
X145500Y-123500
X145500Y-136500
X145500Y-143500
X146750Y-77750
X146750Y-82250
X146750Y-97750
X148000Y-118000
X148037Y-80787
X149500Y-103500
X149750Y-116500
X150500Y-81000
X151400Y-110000
X151750Y-79000
X153500Y-100000
X153500Y-121250
X154250Y-122250
X154350Y-120250
X154750Y-99000
X155500Y-103500
X155500Y-116500
X155500Y-123500
X155500Y-136500
X155500Y-143500
X155500Y-56500
X156750Y-122250
X157500Y-80150
X157500Y-102400
X157750Y-121250
X158750Y-120250
X159500Y-63500
X159750Y-102000
X159750Y-119250
X160750Y-118250
X161150Y-110000
X162500Y-91250
X162500Y-101000
X162750Y-118250
X162750Y-121250
X163750Y-122000
X164250Y-89250
X165500Y-63500
X165500Y-76500
X165500Y-101000
X165500Y-103500
X165500Y-116500
X165500Y-123500
X166500Y-77750
X166750Y-120250
X167750Y-121250
X168250Y-100250
X168250Y-69750
X168250Y-82250
X168750Y-101500
X169250Y-70250
X169250Y-81250
X169500Y-56500
X169750Y-116500
X171500Y-100250
X171500Y-110000
X172750Y-101250
X173000Y-130000
X173750Y-110000
X174250Y-97750
X174250Y-122250
X174250Y-137750
X174250Y-142250
X174500Y-69500
X174500Y-70750
X175000Y-78500
X175450Y-83500
X175500Y-63500
X175500Y-96500
X175500Y-103500
X175500Y-116500
X175500Y-123500
X175500Y-136500
X175500Y-143500
X176500Y-60000
X178250Y-62000
X178250Y-77750
X179500Y-56500
X179500Y-63500
X179500Y-76500
X179500Y-83500
X179500Y-116500
X179750Y-103250
X179750Y-142500
X180000Y-97500
X180500Y-102500
X180750Y-120250
X181500Y-101750
X181500Y-110000
X182000Y-80450
X182000Y-69350
X182250Y-119500
X182500Y-60000
X182550Y-88850
X182900Y-79550
X182900Y-70650
X183000Y-120250
X183500Y-101000
X183832Y-120850
X183900Y-78650
X185500Y-56500
X185500Y-63500
X185500Y-76500
X185500Y-83500
X185500Y-96500
X185500Y-103500
X185500Y-116500
X185500Y-123500
X185500Y-136500
X185500Y-143500
X186650Y-78350
X186650Y-79400
X186650Y-80450
X186750Y-121000
X186850Y-97800
X187500Y-120250
X188250Y-119500
X188250Y-119500
X188350Y-82300
X189500Y-83500
X189650Y-116500
X190500Y-117250
X190500Y-117250
X191500Y-110000
X193500Y-140000
X193750Y-120000
X193750Y-130000
X195000Y-52000
X195000Y-60000
X195000Y-70000
X195000Y-90000
X195000Y-100000
X195250Y-111250
X197500Y-102000
T3
X162500Y-70920
T4
X150000Y-60000
X110000Y-100000
X110000Y-140000
X190000Y-100000
X190000Y-60000
X190000Y-140000
X110000Y-60000
X150000Y-140000
T2
X102000Y-78730G85X103000Y-78730
G05
X102000Y-81270G85X103000Y-81270
G05
T0
M30
