G04 #@! TF.GenerationSoftware,KiCad,Pcbnew,5.0.2+dfsg1-1*
G04 #@! TF.CreationDate,2020-09-22T14:37:19+02:00*
G04 #@! TF.ProjectId,ledmatrix10,6c65646d-6174-4726-9978-31302e6b6963,rev?*
G04 #@! TF.SameCoordinates,Original*
G04 #@! TF.FileFunction,Legend,Top*
G04 #@! TF.FilePolarity,Positive*
%FSLAX46Y46*%
G04 Gerber Fmt 4.6, Leading zero omitted, Abs format (unit mm)*
G04 Created by KiCad (PCBNEW 5.0.2+dfsg1-1) date Tue 22 Sep 2020 02:37:19 PM CEST*
%MOMM*%
%LPD*%
G01*
G04 APERTURE LIST*
%ADD10C,0.120000*%
%ADD11C,0.150000*%
G04 APERTURE END LIST*
D10*
G04 #@! TO.C,U106*
X154410000Y-88300000D02*
X154410000Y-94310000D01*
X147590000Y-90550000D02*
X147590000Y-94310000D01*
X154410000Y-94310000D02*
X153150000Y-94310000D01*
X147590000Y-94310000D02*
X148850000Y-94310000D01*
G04 #@! TO.C,R2*
X108488748Y-117210000D02*
X109011252Y-117210000D01*
X108488748Y-115790000D02*
X109011252Y-115790000D01*
G04 #@! TO.C,R3*
X105988748Y-111960000D02*
X106511252Y-111960000D01*
X105988748Y-110540000D02*
X106511252Y-110540000D01*
G04 #@! TO.C,R4*
X104540000Y-114238748D02*
X104540000Y-114761252D01*
X105960000Y-114238748D02*
X105960000Y-114761252D01*
G04 #@! TO.C,R5*
X104488748Y-104210000D02*
X105011252Y-104210000D01*
X104488748Y-102790000D02*
X105011252Y-102790000D01*
G04 #@! TO.C,R6*
X120988748Y-111710000D02*
X121511252Y-111710000D01*
X120988748Y-110290000D02*
X121511252Y-110290000D01*
G04 #@! TO.C,R7*
X120988748Y-113960000D02*
X121511252Y-113960000D01*
X120988748Y-112540000D02*
X121511252Y-112540000D01*
G04 #@! TO.C,R8*
X118238748Y-105710000D02*
X118761252Y-105710000D01*
X118238748Y-104290000D02*
X118761252Y-104290000D01*
G04 #@! TO.C,R9*
X128988748Y-111710000D02*
X129511252Y-111710000D01*
X128988748Y-110290000D02*
X129511252Y-110290000D01*
G04 #@! TO.C,R10*
X128988748Y-113960000D02*
X129511252Y-113960000D01*
X128988748Y-112540000D02*
X129511252Y-112540000D01*
G04 #@! TO.C,R11*
X126238748Y-105710000D02*
X126761252Y-105710000D01*
X126238748Y-104290000D02*
X126761252Y-104290000D01*
G04 #@! TO.C,R12*
X138988748Y-111710000D02*
X139511252Y-111710000D01*
X138988748Y-110290000D02*
X139511252Y-110290000D01*
G04 #@! TO.C,R13*
X138988748Y-113960000D02*
X139511252Y-113960000D01*
X138988748Y-112540000D02*
X139511252Y-112540000D01*
G04 #@! TO.C,R14*
X136213748Y-105710000D02*
X136736252Y-105710000D01*
X136213748Y-104290000D02*
X136736252Y-104290000D01*
G04 #@! TO.C,R15*
X149013748Y-111710000D02*
X149536252Y-111710000D01*
X149013748Y-110290000D02*
X149536252Y-110290000D01*
G04 #@! TO.C,R17*
X146238748Y-105710000D02*
X146761252Y-105710000D01*
X146238748Y-104290000D02*
X146761252Y-104290000D01*
G04 #@! TO.C,R26*
X176238748Y-105710000D02*
X176761252Y-105710000D01*
X176238748Y-104290000D02*
X176761252Y-104290000D01*
G04 #@! TO.C,R1*
X109210000Y-74511252D02*
X109210000Y-73988748D01*
X107790000Y-74511252D02*
X107790000Y-73988748D01*
G04 #@! TO.C,R18*
X158988748Y-111710000D02*
X159511252Y-111710000D01*
X158988748Y-110290000D02*
X159511252Y-110290000D01*
G04 #@! TO.C,R20*
X156238748Y-105710000D02*
X156761252Y-105710000D01*
X156238748Y-104290000D02*
X156761252Y-104290000D01*
G04 #@! TO.C,R21*
X168988748Y-111710000D02*
X169511252Y-111710000D01*
X168988748Y-110290000D02*
X169511252Y-110290000D01*
G04 #@! TO.C,R22*
X168988748Y-113960000D02*
X169511252Y-113960000D01*
X168988748Y-112540000D02*
X169511252Y-112540000D01*
G04 #@! TO.C,R23*
X166238748Y-105710000D02*
X166761252Y-105710000D01*
X166238748Y-104290000D02*
X166761252Y-104290000D01*
G04 #@! TO.C,R24*
X178988748Y-111710000D02*
X179511252Y-111710000D01*
X178988748Y-110290000D02*
X179511252Y-110290000D01*
G04 #@! TO.C,R25*
X178988748Y-113960000D02*
X179511252Y-113960000D01*
X178988748Y-112540000D02*
X179511252Y-112540000D01*
G04 #@! TO.C,R16*
X149013748Y-113960000D02*
X149536252Y-113960000D01*
X149013748Y-112540000D02*
X149536252Y-112540000D01*
G04 #@! TO.C,R28*
X188988748Y-113960000D02*
X189511252Y-113960000D01*
X188988748Y-112540000D02*
X189511252Y-112540000D01*
G04 #@! TO.C,R29*
X186213748Y-105710000D02*
X186736252Y-105710000D01*
X186213748Y-104290000D02*
X186736252Y-104290000D01*
G04 #@! TO.C,R30*
X193988748Y-110210000D02*
X194511252Y-110210000D01*
X193988748Y-108790000D02*
X194511252Y-108790000D01*
G04 #@! TO.C,R31*
X192540000Y-112013748D02*
X192540000Y-112536252D01*
X193960000Y-112013748D02*
X193960000Y-112536252D01*
G04 #@! TO.C,R32*
X196790000Y-104263748D02*
X196790000Y-104786252D01*
X198210000Y-104263748D02*
X198210000Y-104786252D01*
G04 #@! TO.C,R34*
X148238748Y-71210000D02*
X148761252Y-71210000D01*
X148238748Y-69790000D02*
X148761252Y-69790000D01*
G04 #@! TO.C,R19*
X159013748Y-113960000D02*
X159536252Y-113960000D01*
X159013748Y-112540000D02*
X159536252Y-112540000D01*
G04 #@! TO.C,R27*
X188988748Y-111710000D02*
X189511252Y-111710000D01*
X188988748Y-110290000D02*
X189511252Y-110290000D01*
G04 #@! TO.C,C2*
X151040000Y-68988748D02*
X151040000Y-69511252D01*
X152460000Y-68988748D02*
X152460000Y-69511252D01*
G04 #@! TO.C,C1*
X123460000Y-120011252D02*
X123460000Y-119488748D01*
X122040000Y-120011252D02*
X122040000Y-119488748D01*
G04 #@! TO.C,C3*
X124460000Y-80261252D02*
X124460000Y-79738748D01*
X123040000Y-80261252D02*
X123040000Y-79738748D01*
G04 #@! TO.C,C4*
X150460000Y-64511252D02*
X150460000Y-63988748D01*
X149040000Y-64511252D02*
X149040000Y-63988748D01*
G04 #@! TO.C,C5*
X148210000Y-64511252D02*
X148210000Y-63988748D01*
X146790000Y-64511252D02*
X146790000Y-63988748D01*
G04 #@! TO.C,R33*
X148238748Y-68960000D02*
X148761252Y-68960000D01*
X148238748Y-67540000D02*
X148761252Y-67540000D01*
D11*
G04 #@! TO.C,U105*
X154500000Y-55920000D02*
X172500000Y-55920000D01*
X172500000Y-55920000D02*
X172500000Y-87420000D01*
X172500000Y-87420000D02*
X154500000Y-87420000D01*
X154500000Y-87420000D02*
X154500000Y-55920000D01*
D10*
G04 #@! TO.C,Q10*
X195830000Y-104740000D02*
X195830000Y-106200000D01*
X192670000Y-104740000D02*
X192670000Y-107900000D01*
X192670000Y-104740000D02*
X193600000Y-104740000D01*
X195830000Y-104740000D02*
X194900000Y-104740000D01*
G04 #@! TO.C,Q9*
X190830000Y-106240000D02*
X190830000Y-107700000D01*
X187670000Y-106240000D02*
X187670000Y-109400000D01*
X187670000Y-106240000D02*
X188600000Y-106240000D01*
X190830000Y-106240000D02*
X189900000Y-106240000D01*
G04 #@! TO.C,Q8*
X180830000Y-106240000D02*
X180830000Y-107700000D01*
X177670000Y-106240000D02*
X177670000Y-109400000D01*
X177670000Y-106240000D02*
X178600000Y-106240000D01*
X180830000Y-106240000D02*
X179900000Y-106240000D01*
G04 #@! TO.C,Q7*
X170830000Y-106240000D02*
X170830000Y-107700000D01*
X167670000Y-106240000D02*
X167670000Y-109400000D01*
X167670000Y-106240000D02*
X168600000Y-106240000D01*
X170830000Y-106240000D02*
X169900000Y-106240000D01*
G04 #@! TO.C,Q6*
X160830000Y-106240000D02*
X160830000Y-107700000D01*
X157670000Y-106240000D02*
X157670000Y-109400000D01*
X157670000Y-106240000D02*
X158600000Y-106240000D01*
X160830000Y-106240000D02*
X159900000Y-106240000D01*
D11*
G04 #@! TO.C,U3*
X110492500Y-127975000D02*
X110492500Y-129100000D01*
X118967500Y-127975000D02*
X118967500Y-123825000D01*
X110017500Y-127975000D02*
X110017500Y-123825000D01*
X118967500Y-127975000D02*
X118410000Y-127975000D01*
X118967500Y-123825000D02*
X118410000Y-123825000D01*
X110017500Y-123825000D02*
X110575000Y-123825000D01*
X110017500Y-127975000D02*
X110492500Y-127975000D01*
G04 #@! TO.C,U2*
X110492500Y-75975000D02*
X110492500Y-77100000D01*
X118967500Y-75975000D02*
X118967500Y-71825000D01*
X110017500Y-75975000D02*
X110017500Y-71825000D01*
X118967500Y-75975000D02*
X118410000Y-75975000D01*
X118967500Y-71825000D02*
X118410000Y-71825000D01*
X110017500Y-71825000D02*
X110575000Y-71825000D01*
X110017500Y-75975000D02*
X110492500Y-75975000D01*
D10*
G04 #@! TO.C,Q3*
X130830000Y-106240000D02*
X130830000Y-107700000D01*
X127670000Y-106240000D02*
X127670000Y-109400000D01*
X127670000Y-106240000D02*
X128600000Y-106240000D01*
X130830000Y-106240000D02*
X129900000Y-106240000D01*
G04 #@! TO.C,Q2*
X122830000Y-106240000D02*
X122830000Y-107700000D01*
X119670000Y-106240000D02*
X119670000Y-109400000D01*
X119670000Y-106240000D02*
X120600000Y-106240000D01*
X122830000Y-106240000D02*
X121900000Y-106240000D01*
G04 #@! TO.C,Q4*
X140880000Y-106240000D02*
X140880000Y-107700000D01*
X137720000Y-106240000D02*
X137720000Y-109400000D01*
X137720000Y-106240000D02*
X138650000Y-106240000D01*
X140880000Y-106240000D02*
X139950000Y-106240000D01*
G04 #@! TO.C,Q1*
X107830000Y-106490000D02*
X107830000Y-107950000D01*
X104670000Y-106490000D02*
X104670000Y-109650000D01*
X104670000Y-106490000D02*
X105600000Y-106490000D01*
X107830000Y-106490000D02*
X106900000Y-106490000D01*
G04 #@! TO.C,Q5*
X150830000Y-106240000D02*
X150830000Y-107700000D01*
X147670000Y-106240000D02*
X147670000Y-109400000D01*
X147670000Y-106240000D02*
X148600000Y-106240000D01*
X150830000Y-106240000D02*
X149900000Y-106240000D01*
G04 #@! TO.C,U118*
D11*
X198952380Y-141714285D02*
X199761904Y-141714285D01*
X199857142Y-141666666D01*
X199904761Y-141619047D01*
X199952380Y-141523809D01*
X199952380Y-141333333D01*
X199904761Y-141238095D01*
X199857142Y-141190476D01*
X199761904Y-141142857D01*
X198952380Y-141142857D01*
X199952380Y-140142857D02*
X199952380Y-140714285D01*
X199952380Y-140428571D02*
X198952380Y-140428571D01*
X199095238Y-140523809D01*
X199190476Y-140619047D01*
X199238095Y-140714285D01*
X199952380Y-139190476D02*
X199952380Y-139761904D01*
X199952380Y-139476190D02*
X198952380Y-139476190D01*
X199095238Y-139571428D01*
X199190476Y-139666666D01*
X199238095Y-139761904D01*
X199380952Y-138619047D02*
X199333333Y-138714285D01*
X199285714Y-138761904D01*
X199190476Y-138809523D01*
X199142857Y-138809523D01*
X199047619Y-138761904D01*
X199000000Y-138714285D01*
X198952380Y-138619047D01*
X198952380Y-138428571D01*
X199000000Y-138333333D01*
X199047619Y-138285714D01*
X199142857Y-138238095D01*
X199190476Y-138238095D01*
X199285714Y-138285714D01*
X199333333Y-138333333D01*
X199380952Y-138428571D01*
X199380952Y-138619047D01*
X199428571Y-138714285D01*
X199476190Y-138761904D01*
X199571428Y-138809523D01*
X199761904Y-138809523D01*
X199857142Y-138761904D01*
X199904761Y-138714285D01*
X199952380Y-138619047D01*
X199952380Y-138428571D01*
X199904761Y-138333333D01*
X199857142Y-138285714D01*
X199761904Y-138238095D01*
X199571428Y-138238095D01*
X199476190Y-138285714D01*
X199428571Y-138333333D01*
X199380952Y-138428571D01*
G04 #@! TO.C,U117*
X198952380Y-121714285D02*
X199761904Y-121714285D01*
X199857142Y-121666666D01*
X199904761Y-121619047D01*
X199952380Y-121523809D01*
X199952380Y-121333333D01*
X199904761Y-121238095D01*
X199857142Y-121190476D01*
X199761904Y-121142857D01*
X198952380Y-121142857D01*
X199952380Y-120142857D02*
X199952380Y-120714285D01*
X199952380Y-120428571D02*
X198952380Y-120428571D01*
X199095238Y-120523809D01*
X199190476Y-120619047D01*
X199238095Y-120714285D01*
X199952380Y-119190476D02*
X199952380Y-119761904D01*
X199952380Y-119476190D02*
X198952380Y-119476190D01*
X199095238Y-119571428D01*
X199190476Y-119666666D01*
X199238095Y-119761904D01*
X198952380Y-118857142D02*
X198952380Y-118190476D01*
X199952380Y-118619047D01*
G04 #@! TO.C,U119*
X198952380Y-131714285D02*
X199761904Y-131714285D01*
X199857142Y-131666666D01*
X199904761Y-131619047D01*
X199952380Y-131523809D01*
X199952380Y-131333333D01*
X199904761Y-131238095D01*
X199857142Y-131190476D01*
X199761904Y-131142857D01*
X198952380Y-131142857D01*
X199952380Y-130142857D02*
X199952380Y-130714285D01*
X199952380Y-130428571D02*
X198952380Y-130428571D01*
X199095238Y-130523809D01*
X199190476Y-130619047D01*
X199238095Y-130714285D01*
X199952380Y-129190476D02*
X199952380Y-129761904D01*
X199952380Y-129476190D02*
X198952380Y-129476190D01*
X199095238Y-129571428D01*
X199190476Y-129666666D01*
X199238095Y-129761904D01*
X199952380Y-128714285D02*
X199952380Y-128523809D01*
X199904761Y-128428571D01*
X199857142Y-128380952D01*
X199714285Y-128285714D01*
X199523809Y-128238095D01*
X199142857Y-128238095D01*
X199047619Y-128285714D01*
X199000000Y-128333333D01*
X198952380Y-128428571D01*
X198952380Y-128619047D01*
X199000000Y-128714285D01*
X199047619Y-128761904D01*
X199142857Y-128809523D01*
X199380952Y-128809523D01*
X199476190Y-128761904D01*
X199523809Y-128714285D01*
X199571428Y-128619047D01*
X199571428Y-128428571D01*
X199523809Y-128333333D01*
X199476190Y-128285714D01*
X199380952Y-128238095D01*
G04 #@! TO.C,U116*
X102452380Y-81714285D02*
X103261904Y-81714285D01*
X103357142Y-81666666D01*
X103404761Y-81619047D01*
X103452380Y-81523809D01*
X103452380Y-81333333D01*
X103404761Y-81238095D01*
X103357142Y-81190476D01*
X103261904Y-81142857D01*
X102452380Y-81142857D01*
X103452380Y-80142857D02*
X103452380Y-80714285D01*
X103452380Y-80428571D02*
X102452380Y-80428571D01*
X102595238Y-80523809D01*
X102690476Y-80619047D01*
X102738095Y-80714285D01*
X103452380Y-79190476D02*
X103452380Y-79761904D01*
X103452380Y-79476190D02*
X102452380Y-79476190D01*
X102595238Y-79571428D01*
X102690476Y-79666666D01*
X102738095Y-79761904D01*
X102452380Y-78333333D02*
X102452380Y-78523809D01*
X102500000Y-78619047D01*
X102547619Y-78666666D01*
X102690476Y-78761904D01*
X102880952Y-78809523D01*
X103261904Y-78809523D01*
X103357142Y-78761904D01*
X103404761Y-78714285D01*
X103452380Y-78619047D01*
X103452380Y-78428571D01*
X103404761Y-78333333D01*
X103357142Y-78285714D01*
X103261904Y-78238095D01*
X103023809Y-78238095D01*
X102928571Y-78285714D01*
X102880952Y-78333333D01*
X102833333Y-78428571D01*
X102833333Y-78619047D01*
X102880952Y-78714285D01*
X102928571Y-78761904D01*
X103023809Y-78809523D01*
G04 #@! TO.C,U114*
X148285714Y-59952380D02*
X148285714Y-60761904D01*
X148333333Y-60857142D01*
X148380952Y-60904761D01*
X148476190Y-60952380D01*
X148666666Y-60952380D01*
X148761904Y-60904761D01*
X148809523Y-60857142D01*
X148857142Y-60761904D01*
X148857142Y-59952380D01*
X149857142Y-60952380D02*
X149285714Y-60952380D01*
X149571428Y-60952380D02*
X149571428Y-59952380D01*
X149476190Y-60095238D01*
X149380952Y-60190476D01*
X149285714Y-60238095D01*
X150809523Y-60952380D02*
X150238095Y-60952380D01*
X150523809Y-60952380D02*
X150523809Y-59952380D01*
X150428571Y-60095238D01*
X150333333Y-60190476D01*
X150238095Y-60238095D01*
X151666666Y-60285714D02*
X151666666Y-60952380D01*
X151428571Y-59904761D02*
X151190476Y-60619047D01*
X151809523Y-60619047D01*
G04 #@! TO.C,U113*
X108285714Y-99952380D02*
X108285714Y-100761904D01*
X108333333Y-100857142D01*
X108380952Y-100904761D01*
X108476190Y-100952380D01*
X108666666Y-100952380D01*
X108761904Y-100904761D01*
X108809523Y-100857142D01*
X108857142Y-100761904D01*
X108857142Y-99952380D01*
X109857142Y-100952380D02*
X109285714Y-100952380D01*
X109571428Y-100952380D02*
X109571428Y-99952380D01*
X109476190Y-100095238D01*
X109380952Y-100190476D01*
X109285714Y-100238095D01*
X110809523Y-100952380D02*
X110238095Y-100952380D01*
X110523809Y-100952380D02*
X110523809Y-99952380D01*
X110428571Y-100095238D01*
X110333333Y-100190476D01*
X110238095Y-100238095D01*
X111142857Y-99952380D02*
X111761904Y-99952380D01*
X111428571Y-100333333D01*
X111571428Y-100333333D01*
X111666666Y-100380952D01*
X111714285Y-100428571D01*
X111761904Y-100523809D01*
X111761904Y-100761904D01*
X111714285Y-100857142D01*
X111666666Y-100904761D01*
X111571428Y-100952380D01*
X111285714Y-100952380D01*
X111190476Y-100904761D01*
X111142857Y-100857142D01*
G04 #@! TO.C,U112*
X108285714Y-139952380D02*
X108285714Y-140761904D01*
X108333333Y-140857142D01*
X108380952Y-140904761D01*
X108476190Y-140952380D01*
X108666666Y-140952380D01*
X108761904Y-140904761D01*
X108809523Y-140857142D01*
X108857142Y-140761904D01*
X108857142Y-139952380D01*
X109857142Y-140952380D02*
X109285714Y-140952380D01*
X109571428Y-140952380D02*
X109571428Y-139952380D01*
X109476190Y-140095238D01*
X109380952Y-140190476D01*
X109285714Y-140238095D01*
X110809523Y-140952380D02*
X110238095Y-140952380D01*
X110523809Y-140952380D02*
X110523809Y-139952380D01*
X110428571Y-140095238D01*
X110333333Y-140190476D01*
X110238095Y-140238095D01*
X111190476Y-140047619D02*
X111238095Y-140000000D01*
X111333333Y-139952380D01*
X111571428Y-139952380D01*
X111666666Y-140000000D01*
X111714285Y-140047619D01*
X111761904Y-140142857D01*
X111761904Y-140238095D01*
X111714285Y-140380952D01*
X111142857Y-140952380D01*
X111761904Y-140952380D01*
G04 #@! TO.C,U111*
X108285714Y-59952380D02*
X108285714Y-60761904D01*
X108333333Y-60857142D01*
X108380952Y-60904761D01*
X108476190Y-60952380D01*
X108666666Y-60952380D01*
X108761904Y-60904761D01*
X108809523Y-60857142D01*
X108857142Y-60761904D01*
X108857142Y-59952380D01*
X109857142Y-60952380D02*
X109285714Y-60952380D01*
X109571428Y-60952380D02*
X109571428Y-59952380D01*
X109476190Y-60095238D01*
X109380952Y-60190476D01*
X109285714Y-60238095D01*
X110809523Y-60952380D02*
X110238095Y-60952380D01*
X110523809Y-60952380D02*
X110523809Y-59952380D01*
X110428571Y-60095238D01*
X110333333Y-60190476D01*
X110238095Y-60238095D01*
X111761904Y-60952380D02*
X111190476Y-60952380D01*
X111476190Y-60952380D02*
X111476190Y-59952380D01*
X111380952Y-60095238D01*
X111285714Y-60190476D01*
X111190476Y-60238095D01*
G04 #@! TO.C,U109*
X188285714Y-139952380D02*
X188285714Y-140761904D01*
X188333333Y-140857142D01*
X188380952Y-140904761D01*
X188476190Y-140952380D01*
X188666666Y-140952380D01*
X188761904Y-140904761D01*
X188809523Y-140857142D01*
X188857142Y-140761904D01*
X188857142Y-139952380D01*
X189857142Y-140952380D02*
X189285714Y-140952380D01*
X189571428Y-140952380D02*
X189571428Y-139952380D01*
X189476190Y-140095238D01*
X189380952Y-140190476D01*
X189285714Y-140238095D01*
X190476190Y-139952380D02*
X190571428Y-139952380D01*
X190666666Y-140000000D01*
X190714285Y-140047619D01*
X190761904Y-140142857D01*
X190809523Y-140333333D01*
X190809523Y-140571428D01*
X190761904Y-140761904D01*
X190714285Y-140857142D01*
X190666666Y-140904761D01*
X190571428Y-140952380D01*
X190476190Y-140952380D01*
X190380952Y-140904761D01*
X190333333Y-140857142D01*
X190285714Y-140761904D01*
X190238095Y-140571428D01*
X190238095Y-140333333D01*
X190285714Y-140142857D01*
X190333333Y-140047619D01*
X190380952Y-140000000D01*
X190476190Y-139952380D01*
X191285714Y-140952380D02*
X191476190Y-140952380D01*
X191571428Y-140904761D01*
X191619047Y-140857142D01*
X191714285Y-140714285D01*
X191761904Y-140523809D01*
X191761904Y-140142857D01*
X191714285Y-140047619D01*
X191666666Y-140000000D01*
X191571428Y-139952380D01*
X191380952Y-139952380D01*
X191285714Y-140000000D01*
X191238095Y-140047619D01*
X191190476Y-140142857D01*
X191190476Y-140380952D01*
X191238095Y-140476190D01*
X191285714Y-140523809D01*
X191380952Y-140571428D01*
X191571428Y-140571428D01*
X191666666Y-140523809D01*
X191714285Y-140476190D01*
X191761904Y-140380952D01*
G04 #@! TO.C,U108*
X148285714Y-139952380D02*
X148285714Y-140761904D01*
X148333333Y-140857142D01*
X148380952Y-140904761D01*
X148476190Y-140952380D01*
X148666666Y-140952380D01*
X148761904Y-140904761D01*
X148809523Y-140857142D01*
X148857142Y-140761904D01*
X148857142Y-139952380D01*
X149857142Y-140952380D02*
X149285714Y-140952380D01*
X149571428Y-140952380D02*
X149571428Y-139952380D01*
X149476190Y-140095238D01*
X149380952Y-140190476D01*
X149285714Y-140238095D01*
X150476190Y-139952380D02*
X150571428Y-139952380D01*
X150666666Y-140000000D01*
X150714285Y-140047619D01*
X150761904Y-140142857D01*
X150809523Y-140333333D01*
X150809523Y-140571428D01*
X150761904Y-140761904D01*
X150714285Y-140857142D01*
X150666666Y-140904761D01*
X150571428Y-140952380D01*
X150476190Y-140952380D01*
X150380952Y-140904761D01*
X150333333Y-140857142D01*
X150285714Y-140761904D01*
X150238095Y-140571428D01*
X150238095Y-140333333D01*
X150285714Y-140142857D01*
X150333333Y-140047619D01*
X150380952Y-140000000D01*
X150476190Y-139952380D01*
X151380952Y-140380952D02*
X151285714Y-140333333D01*
X151238095Y-140285714D01*
X151190476Y-140190476D01*
X151190476Y-140142857D01*
X151238095Y-140047619D01*
X151285714Y-140000000D01*
X151380952Y-139952380D01*
X151571428Y-139952380D01*
X151666666Y-140000000D01*
X151714285Y-140047619D01*
X151761904Y-140142857D01*
X151761904Y-140190476D01*
X151714285Y-140285714D01*
X151666666Y-140333333D01*
X151571428Y-140380952D01*
X151380952Y-140380952D01*
X151285714Y-140428571D01*
X151238095Y-140476190D01*
X151190476Y-140571428D01*
X151190476Y-140761904D01*
X151238095Y-140857142D01*
X151285714Y-140904761D01*
X151380952Y-140952380D01*
X151571428Y-140952380D01*
X151666666Y-140904761D01*
X151714285Y-140857142D01*
X151761904Y-140761904D01*
X151761904Y-140571428D01*
X151714285Y-140476190D01*
X151666666Y-140428571D01*
X151571428Y-140380952D01*
G04 #@! TO.C,U107*
X188285714Y-99952380D02*
X188285714Y-100761904D01*
X188333333Y-100857142D01*
X188380952Y-100904761D01*
X188476190Y-100952380D01*
X188666666Y-100952380D01*
X188761904Y-100904761D01*
X188809523Y-100857142D01*
X188857142Y-100761904D01*
X188857142Y-99952380D01*
X189857142Y-100952380D02*
X189285714Y-100952380D01*
X189571428Y-100952380D02*
X189571428Y-99952380D01*
X189476190Y-100095238D01*
X189380952Y-100190476D01*
X189285714Y-100238095D01*
X190476190Y-99952380D02*
X190571428Y-99952380D01*
X190666666Y-100000000D01*
X190714285Y-100047619D01*
X190761904Y-100142857D01*
X190809523Y-100333333D01*
X190809523Y-100571428D01*
X190761904Y-100761904D01*
X190714285Y-100857142D01*
X190666666Y-100904761D01*
X190571428Y-100952380D01*
X190476190Y-100952380D01*
X190380952Y-100904761D01*
X190333333Y-100857142D01*
X190285714Y-100761904D01*
X190238095Y-100571428D01*
X190238095Y-100333333D01*
X190285714Y-100142857D01*
X190333333Y-100047619D01*
X190380952Y-100000000D01*
X190476190Y-99952380D01*
X191142857Y-99952380D02*
X191809523Y-99952380D01*
X191380952Y-100952380D01*
G04 #@! TO.C,U115*
X188285714Y-59952380D02*
X188285714Y-60761904D01*
X188333333Y-60857142D01*
X188380952Y-60904761D01*
X188476190Y-60952380D01*
X188666666Y-60952380D01*
X188761904Y-60904761D01*
X188809523Y-60857142D01*
X188857142Y-60761904D01*
X188857142Y-59952380D01*
X189857142Y-60952380D02*
X189285714Y-60952380D01*
X189571428Y-60952380D02*
X189571428Y-59952380D01*
X189476190Y-60095238D01*
X189380952Y-60190476D01*
X189285714Y-60238095D01*
X190809523Y-60952380D02*
X190238095Y-60952380D01*
X190523809Y-60952380D02*
X190523809Y-59952380D01*
X190428571Y-60095238D01*
X190333333Y-60190476D01*
X190238095Y-60238095D01*
X191714285Y-59952380D02*
X191238095Y-59952380D01*
X191190476Y-60428571D01*
X191238095Y-60380952D01*
X191333333Y-60333333D01*
X191571428Y-60333333D01*
X191666666Y-60380952D01*
X191714285Y-60428571D01*
X191761904Y-60523809D01*
X191761904Y-60761904D01*
X191714285Y-60857142D01*
X191666666Y-60904761D01*
X191571428Y-60952380D01*
X191333333Y-60952380D01*
X191238095Y-60904761D01*
X191190476Y-60857142D01*
G04 #@! TO.C,j1*
X194335714Y-80526190D02*
X195192857Y-80526190D01*
X195288095Y-80573809D01*
X195335714Y-80669047D01*
X195335714Y-80716666D01*
X194002380Y-80526190D02*
X194050000Y-80573809D01*
X194097619Y-80526190D01*
X194050000Y-80478571D01*
X194002380Y-80526190D01*
X194097619Y-80526190D01*
X195002380Y-79526190D02*
X195002380Y-80097619D01*
X195002380Y-79811904D02*
X194002380Y-79811904D01*
X194145238Y-79907142D01*
X194240476Y-80002380D01*
X194288095Y-80097619D01*
G04 #@! TO.C,U106*
X154952380Y-94114285D02*
X155761904Y-94114285D01*
X155857142Y-94066666D01*
X155904761Y-94019047D01*
X155952380Y-93923809D01*
X155952380Y-93733333D01*
X155904761Y-93638095D01*
X155857142Y-93590476D01*
X155761904Y-93542857D01*
X154952380Y-93542857D01*
X155952380Y-92542857D02*
X155952380Y-93114285D01*
X155952380Y-92828571D02*
X154952380Y-92828571D01*
X155095238Y-92923809D01*
X155190476Y-93019047D01*
X155238095Y-93114285D01*
X154952380Y-91923809D02*
X154952380Y-91828571D01*
X155000000Y-91733333D01*
X155047619Y-91685714D01*
X155142857Y-91638095D01*
X155333333Y-91590476D01*
X155571428Y-91590476D01*
X155761904Y-91638095D01*
X155857142Y-91685714D01*
X155904761Y-91733333D01*
X155952380Y-91828571D01*
X155952380Y-91923809D01*
X155904761Y-92019047D01*
X155857142Y-92066666D01*
X155761904Y-92114285D01*
X155571428Y-92161904D01*
X155333333Y-92161904D01*
X155142857Y-92114285D01*
X155047619Y-92066666D01*
X155000000Y-92019047D01*
X154952380Y-91923809D01*
X154952380Y-90733333D02*
X154952380Y-90923809D01*
X155000000Y-91019047D01*
X155047619Y-91066666D01*
X155190476Y-91161904D01*
X155380952Y-91209523D01*
X155761904Y-91209523D01*
X155857142Y-91161904D01*
X155904761Y-91114285D01*
X155952380Y-91019047D01*
X155952380Y-90828571D01*
X155904761Y-90733333D01*
X155857142Y-90685714D01*
X155761904Y-90638095D01*
X155523809Y-90638095D01*
X155428571Y-90685714D01*
X155380952Y-90733333D01*
X155333333Y-90828571D01*
X155333333Y-91019047D01*
X155380952Y-91114285D01*
X155428571Y-91161904D01*
X155523809Y-91209523D01*
G04 #@! TO.C,R2*
X108583333Y-115302380D02*
X108250000Y-114826190D01*
X108011904Y-115302380D02*
X108011904Y-114302380D01*
X108392857Y-114302380D01*
X108488095Y-114350000D01*
X108535714Y-114397619D01*
X108583333Y-114492857D01*
X108583333Y-114635714D01*
X108535714Y-114730952D01*
X108488095Y-114778571D01*
X108392857Y-114826190D01*
X108011904Y-114826190D01*
X108964285Y-114397619D02*
X109011904Y-114350000D01*
X109107142Y-114302380D01*
X109345238Y-114302380D01*
X109440476Y-114350000D01*
X109488095Y-114397619D01*
X109535714Y-114492857D01*
X109535714Y-114588095D01*
X109488095Y-114730952D01*
X108916666Y-115302380D01*
X109535714Y-115302380D01*
G04 #@! TO.C,R3*
X106083333Y-110052380D02*
X105750000Y-109576190D01*
X105511904Y-110052380D02*
X105511904Y-109052380D01*
X105892857Y-109052380D01*
X105988095Y-109100000D01*
X106035714Y-109147619D01*
X106083333Y-109242857D01*
X106083333Y-109385714D01*
X106035714Y-109480952D01*
X105988095Y-109528571D01*
X105892857Y-109576190D01*
X105511904Y-109576190D01*
X106416666Y-109052380D02*
X107035714Y-109052380D01*
X106702380Y-109433333D01*
X106845238Y-109433333D01*
X106940476Y-109480952D01*
X106988095Y-109528571D01*
X107035714Y-109623809D01*
X107035714Y-109861904D01*
X106988095Y-109957142D01*
X106940476Y-110004761D01*
X106845238Y-110052380D01*
X106559523Y-110052380D01*
X106464285Y-110004761D01*
X106416666Y-109957142D01*
G04 #@! TO.C,R4*
X107352380Y-114666666D02*
X106876190Y-115000000D01*
X107352380Y-115238095D02*
X106352380Y-115238095D01*
X106352380Y-114857142D01*
X106400000Y-114761904D01*
X106447619Y-114714285D01*
X106542857Y-114666666D01*
X106685714Y-114666666D01*
X106780952Y-114714285D01*
X106828571Y-114761904D01*
X106876190Y-114857142D01*
X106876190Y-115238095D01*
X106685714Y-113809523D02*
X107352380Y-113809523D01*
X106304761Y-114047619D02*
X107019047Y-114285714D01*
X107019047Y-113666666D01*
G04 #@! TO.C,R5*
X104583333Y-102302380D02*
X104250000Y-101826190D01*
X104011904Y-102302380D02*
X104011904Y-101302380D01*
X104392857Y-101302380D01*
X104488095Y-101350000D01*
X104535714Y-101397619D01*
X104583333Y-101492857D01*
X104583333Y-101635714D01*
X104535714Y-101730952D01*
X104488095Y-101778571D01*
X104392857Y-101826190D01*
X104011904Y-101826190D01*
X105488095Y-101302380D02*
X105011904Y-101302380D01*
X104964285Y-101778571D01*
X105011904Y-101730952D01*
X105107142Y-101683333D01*
X105345238Y-101683333D01*
X105440476Y-101730952D01*
X105488095Y-101778571D01*
X105535714Y-101873809D01*
X105535714Y-102111904D01*
X105488095Y-102207142D01*
X105440476Y-102254761D01*
X105345238Y-102302380D01*
X105107142Y-102302380D01*
X105011904Y-102254761D01*
X104964285Y-102207142D01*
G04 #@! TO.C,R6*
X121083333Y-109802380D02*
X120750000Y-109326190D01*
X120511904Y-109802380D02*
X120511904Y-108802380D01*
X120892857Y-108802380D01*
X120988095Y-108850000D01*
X121035714Y-108897619D01*
X121083333Y-108992857D01*
X121083333Y-109135714D01*
X121035714Y-109230952D01*
X120988095Y-109278571D01*
X120892857Y-109326190D01*
X120511904Y-109326190D01*
X121940476Y-108802380D02*
X121750000Y-108802380D01*
X121654761Y-108850000D01*
X121607142Y-108897619D01*
X121511904Y-109040476D01*
X121464285Y-109230952D01*
X121464285Y-109611904D01*
X121511904Y-109707142D01*
X121559523Y-109754761D01*
X121654761Y-109802380D01*
X121845238Y-109802380D01*
X121940476Y-109754761D01*
X121988095Y-109707142D01*
X122035714Y-109611904D01*
X122035714Y-109373809D01*
X121988095Y-109278571D01*
X121940476Y-109230952D01*
X121845238Y-109183333D01*
X121654761Y-109183333D01*
X121559523Y-109230952D01*
X121511904Y-109278571D01*
X121464285Y-109373809D01*
G04 #@! TO.C,R7*
X121083333Y-112052380D02*
X120750000Y-111576190D01*
X120511904Y-112052380D02*
X120511904Y-111052380D01*
X120892857Y-111052380D01*
X120988095Y-111100000D01*
X121035714Y-111147619D01*
X121083333Y-111242857D01*
X121083333Y-111385714D01*
X121035714Y-111480952D01*
X120988095Y-111528571D01*
X120892857Y-111576190D01*
X120511904Y-111576190D01*
X121416666Y-111052380D02*
X122083333Y-111052380D01*
X121654761Y-112052380D01*
G04 #@! TO.C,R8*
X118333333Y-103802380D02*
X118000000Y-103326190D01*
X117761904Y-103802380D02*
X117761904Y-102802380D01*
X118142857Y-102802380D01*
X118238095Y-102850000D01*
X118285714Y-102897619D01*
X118333333Y-102992857D01*
X118333333Y-103135714D01*
X118285714Y-103230952D01*
X118238095Y-103278571D01*
X118142857Y-103326190D01*
X117761904Y-103326190D01*
X118904761Y-103230952D02*
X118809523Y-103183333D01*
X118761904Y-103135714D01*
X118714285Y-103040476D01*
X118714285Y-102992857D01*
X118761904Y-102897619D01*
X118809523Y-102850000D01*
X118904761Y-102802380D01*
X119095238Y-102802380D01*
X119190476Y-102850000D01*
X119238095Y-102897619D01*
X119285714Y-102992857D01*
X119285714Y-103040476D01*
X119238095Y-103135714D01*
X119190476Y-103183333D01*
X119095238Y-103230952D01*
X118904761Y-103230952D01*
X118809523Y-103278571D01*
X118761904Y-103326190D01*
X118714285Y-103421428D01*
X118714285Y-103611904D01*
X118761904Y-103707142D01*
X118809523Y-103754761D01*
X118904761Y-103802380D01*
X119095238Y-103802380D01*
X119190476Y-103754761D01*
X119238095Y-103707142D01*
X119285714Y-103611904D01*
X119285714Y-103421428D01*
X119238095Y-103326190D01*
X119190476Y-103278571D01*
X119095238Y-103230952D01*
G04 #@! TO.C,R9*
X129083333Y-109802380D02*
X128750000Y-109326190D01*
X128511904Y-109802380D02*
X128511904Y-108802380D01*
X128892857Y-108802380D01*
X128988095Y-108850000D01*
X129035714Y-108897619D01*
X129083333Y-108992857D01*
X129083333Y-109135714D01*
X129035714Y-109230952D01*
X128988095Y-109278571D01*
X128892857Y-109326190D01*
X128511904Y-109326190D01*
X129559523Y-109802380D02*
X129750000Y-109802380D01*
X129845238Y-109754761D01*
X129892857Y-109707142D01*
X129988095Y-109564285D01*
X130035714Y-109373809D01*
X130035714Y-108992857D01*
X129988095Y-108897619D01*
X129940476Y-108850000D01*
X129845238Y-108802380D01*
X129654761Y-108802380D01*
X129559523Y-108850000D01*
X129511904Y-108897619D01*
X129464285Y-108992857D01*
X129464285Y-109230952D01*
X129511904Y-109326190D01*
X129559523Y-109373809D01*
X129654761Y-109421428D01*
X129845238Y-109421428D01*
X129940476Y-109373809D01*
X129988095Y-109326190D01*
X130035714Y-109230952D01*
G04 #@! TO.C,R10*
X128607142Y-112052380D02*
X128273809Y-111576190D01*
X128035714Y-112052380D02*
X128035714Y-111052380D01*
X128416666Y-111052380D01*
X128511904Y-111100000D01*
X128559523Y-111147619D01*
X128607142Y-111242857D01*
X128607142Y-111385714D01*
X128559523Y-111480952D01*
X128511904Y-111528571D01*
X128416666Y-111576190D01*
X128035714Y-111576190D01*
X129559523Y-112052380D02*
X128988095Y-112052380D01*
X129273809Y-112052380D02*
X129273809Y-111052380D01*
X129178571Y-111195238D01*
X129083333Y-111290476D01*
X128988095Y-111338095D01*
X130178571Y-111052380D02*
X130273809Y-111052380D01*
X130369047Y-111100000D01*
X130416666Y-111147619D01*
X130464285Y-111242857D01*
X130511904Y-111433333D01*
X130511904Y-111671428D01*
X130464285Y-111861904D01*
X130416666Y-111957142D01*
X130369047Y-112004761D01*
X130273809Y-112052380D01*
X130178571Y-112052380D01*
X130083333Y-112004761D01*
X130035714Y-111957142D01*
X129988095Y-111861904D01*
X129940476Y-111671428D01*
X129940476Y-111433333D01*
X129988095Y-111242857D01*
X130035714Y-111147619D01*
X130083333Y-111100000D01*
X130178571Y-111052380D01*
G04 #@! TO.C,R11*
X125857142Y-103802380D02*
X125523809Y-103326190D01*
X125285714Y-103802380D02*
X125285714Y-102802380D01*
X125666666Y-102802380D01*
X125761904Y-102850000D01*
X125809523Y-102897619D01*
X125857142Y-102992857D01*
X125857142Y-103135714D01*
X125809523Y-103230952D01*
X125761904Y-103278571D01*
X125666666Y-103326190D01*
X125285714Y-103326190D01*
X126809523Y-103802380D02*
X126238095Y-103802380D01*
X126523809Y-103802380D02*
X126523809Y-102802380D01*
X126428571Y-102945238D01*
X126333333Y-103040476D01*
X126238095Y-103088095D01*
X127761904Y-103802380D02*
X127190476Y-103802380D01*
X127476190Y-103802380D02*
X127476190Y-102802380D01*
X127380952Y-102945238D01*
X127285714Y-103040476D01*
X127190476Y-103088095D01*
G04 #@! TO.C,R12*
X138607142Y-109802380D02*
X138273809Y-109326190D01*
X138035714Y-109802380D02*
X138035714Y-108802380D01*
X138416666Y-108802380D01*
X138511904Y-108850000D01*
X138559523Y-108897619D01*
X138607142Y-108992857D01*
X138607142Y-109135714D01*
X138559523Y-109230952D01*
X138511904Y-109278571D01*
X138416666Y-109326190D01*
X138035714Y-109326190D01*
X139559523Y-109802380D02*
X138988095Y-109802380D01*
X139273809Y-109802380D02*
X139273809Y-108802380D01*
X139178571Y-108945238D01*
X139083333Y-109040476D01*
X138988095Y-109088095D01*
X139940476Y-108897619D02*
X139988095Y-108850000D01*
X140083333Y-108802380D01*
X140321428Y-108802380D01*
X140416666Y-108850000D01*
X140464285Y-108897619D01*
X140511904Y-108992857D01*
X140511904Y-109088095D01*
X140464285Y-109230952D01*
X139892857Y-109802380D01*
X140511904Y-109802380D01*
G04 #@! TO.C,R13*
X138607142Y-112052380D02*
X138273809Y-111576190D01*
X138035714Y-112052380D02*
X138035714Y-111052380D01*
X138416666Y-111052380D01*
X138511904Y-111100000D01*
X138559523Y-111147619D01*
X138607142Y-111242857D01*
X138607142Y-111385714D01*
X138559523Y-111480952D01*
X138511904Y-111528571D01*
X138416666Y-111576190D01*
X138035714Y-111576190D01*
X139559523Y-112052380D02*
X138988095Y-112052380D01*
X139273809Y-112052380D02*
X139273809Y-111052380D01*
X139178571Y-111195238D01*
X139083333Y-111290476D01*
X138988095Y-111338095D01*
X139892857Y-111052380D02*
X140511904Y-111052380D01*
X140178571Y-111433333D01*
X140321428Y-111433333D01*
X140416666Y-111480952D01*
X140464285Y-111528571D01*
X140511904Y-111623809D01*
X140511904Y-111861904D01*
X140464285Y-111957142D01*
X140416666Y-112004761D01*
X140321428Y-112052380D01*
X140035714Y-112052380D01*
X139940476Y-112004761D01*
X139892857Y-111957142D01*
G04 #@! TO.C,R14*
X135832142Y-103802380D02*
X135498809Y-103326190D01*
X135260714Y-103802380D02*
X135260714Y-102802380D01*
X135641666Y-102802380D01*
X135736904Y-102850000D01*
X135784523Y-102897619D01*
X135832142Y-102992857D01*
X135832142Y-103135714D01*
X135784523Y-103230952D01*
X135736904Y-103278571D01*
X135641666Y-103326190D01*
X135260714Y-103326190D01*
X136784523Y-103802380D02*
X136213095Y-103802380D01*
X136498809Y-103802380D02*
X136498809Y-102802380D01*
X136403571Y-102945238D01*
X136308333Y-103040476D01*
X136213095Y-103088095D01*
X137641666Y-103135714D02*
X137641666Y-103802380D01*
X137403571Y-102754761D02*
X137165476Y-103469047D01*
X137784523Y-103469047D01*
G04 #@! TO.C,R15*
X148632142Y-109802380D02*
X148298809Y-109326190D01*
X148060714Y-109802380D02*
X148060714Y-108802380D01*
X148441666Y-108802380D01*
X148536904Y-108850000D01*
X148584523Y-108897619D01*
X148632142Y-108992857D01*
X148632142Y-109135714D01*
X148584523Y-109230952D01*
X148536904Y-109278571D01*
X148441666Y-109326190D01*
X148060714Y-109326190D01*
X149584523Y-109802380D02*
X149013095Y-109802380D01*
X149298809Y-109802380D02*
X149298809Y-108802380D01*
X149203571Y-108945238D01*
X149108333Y-109040476D01*
X149013095Y-109088095D01*
X150489285Y-108802380D02*
X150013095Y-108802380D01*
X149965476Y-109278571D01*
X150013095Y-109230952D01*
X150108333Y-109183333D01*
X150346428Y-109183333D01*
X150441666Y-109230952D01*
X150489285Y-109278571D01*
X150536904Y-109373809D01*
X150536904Y-109611904D01*
X150489285Y-109707142D01*
X150441666Y-109754761D01*
X150346428Y-109802380D01*
X150108333Y-109802380D01*
X150013095Y-109754761D01*
X149965476Y-109707142D01*
G04 #@! TO.C,R17*
X145857142Y-103802380D02*
X145523809Y-103326190D01*
X145285714Y-103802380D02*
X145285714Y-102802380D01*
X145666666Y-102802380D01*
X145761904Y-102850000D01*
X145809523Y-102897619D01*
X145857142Y-102992857D01*
X145857142Y-103135714D01*
X145809523Y-103230952D01*
X145761904Y-103278571D01*
X145666666Y-103326190D01*
X145285714Y-103326190D01*
X146809523Y-103802380D02*
X146238095Y-103802380D01*
X146523809Y-103802380D02*
X146523809Y-102802380D01*
X146428571Y-102945238D01*
X146333333Y-103040476D01*
X146238095Y-103088095D01*
X147142857Y-102802380D02*
X147809523Y-102802380D01*
X147380952Y-103802380D01*
G04 #@! TO.C,R26*
X175857142Y-103802380D02*
X175523809Y-103326190D01*
X175285714Y-103802380D02*
X175285714Y-102802380D01*
X175666666Y-102802380D01*
X175761904Y-102850000D01*
X175809523Y-102897619D01*
X175857142Y-102992857D01*
X175857142Y-103135714D01*
X175809523Y-103230952D01*
X175761904Y-103278571D01*
X175666666Y-103326190D01*
X175285714Y-103326190D01*
X176238095Y-102897619D02*
X176285714Y-102850000D01*
X176380952Y-102802380D01*
X176619047Y-102802380D01*
X176714285Y-102850000D01*
X176761904Y-102897619D01*
X176809523Y-102992857D01*
X176809523Y-103088095D01*
X176761904Y-103230952D01*
X176190476Y-103802380D01*
X176809523Y-103802380D01*
X177666666Y-102802380D02*
X177476190Y-102802380D01*
X177380952Y-102850000D01*
X177333333Y-102897619D01*
X177238095Y-103040476D01*
X177190476Y-103230952D01*
X177190476Y-103611904D01*
X177238095Y-103707142D01*
X177285714Y-103754761D01*
X177380952Y-103802380D01*
X177571428Y-103802380D01*
X177666666Y-103754761D01*
X177714285Y-103707142D01*
X177761904Y-103611904D01*
X177761904Y-103373809D01*
X177714285Y-103278571D01*
X177666666Y-103230952D01*
X177571428Y-103183333D01*
X177380952Y-103183333D01*
X177285714Y-103230952D01*
X177238095Y-103278571D01*
X177190476Y-103373809D01*
G04 #@! TO.C,R1*
X107302380Y-74416666D02*
X106826190Y-74750000D01*
X107302380Y-74988095D02*
X106302380Y-74988095D01*
X106302380Y-74607142D01*
X106350000Y-74511904D01*
X106397619Y-74464285D01*
X106492857Y-74416666D01*
X106635714Y-74416666D01*
X106730952Y-74464285D01*
X106778571Y-74511904D01*
X106826190Y-74607142D01*
X106826190Y-74988095D01*
X107302380Y-73464285D02*
X107302380Y-74035714D01*
X107302380Y-73750000D02*
X106302380Y-73750000D01*
X106445238Y-73845238D01*
X106540476Y-73940476D01*
X106588095Y-74035714D01*
G04 #@! TO.C,R18*
X158607142Y-109802380D02*
X158273809Y-109326190D01*
X158035714Y-109802380D02*
X158035714Y-108802380D01*
X158416666Y-108802380D01*
X158511904Y-108850000D01*
X158559523Y-108897619D01*
X158607142Y-108992857D01*
X158607142Y-109135714D01*
X158559523Y-109230952D01*
X158511904Y-109278571D01*
X158416666Y-109326190D01*
X158035714Y-109326190D01*
X159559523Y-109802380D02*
X158988095Y-109802380D01*
X159273809Y-109802380D02*
X159273809Y-108802380D01*
X159178571Y-108945238D01*
X159083333Y-109040476D01*
X158988095Y-109088095D01*
X160130952Y-109230952D02*
X160035714Y-109183333D01*
X159988095Y-109135714D01*
X159940476Y-109040476D01*
X159940476Y-108992857D01*
X159988095Y-108897619D01*
X160035714Y-108850000D01*
X160130952Y-108802380D01*
X160321428Y-108802380D01*
X160416666Y-108850000D01*
X160464285Y-108897619D01*
X160511904Y-108992857D01*
X160511904Y-109040476D01*
X160464285Y-109135714D01*
X160416666Y-109183333D01*
X160321428Y-109230952D01*
X160130952Y-109230952D01*
X160035714Y-109278571D01*
X159988095Y-109326190D01*
X159940476Y-109421428D01*
X159940476Y-109611904D01*
X159988095Y-109707142D01*
X160035714Y-109754761D01*
X160130952Y-109802380D01*
X160321428Y-109802380D01*
X160416666Y-109754761D01*
X160464285Y-109707142D01*
X160511904Y-109611904D01*
X160511904Y-109421428D01*
X160464285Y-109326190D01*
X160416666Y-109278571D01*
X160321428Y-109230952D01*
G04 #@! TO.C,R20*
X155857142Y-103802380D02*
X155523809Y-103326190D01*
X155285714Y-103802380D02*
X155285714Y-102802380D01*
X155666666Y-102802380D01*
X155761904Y-102850000D01*
X155809523Y-102897619D01*
X155857142Y-102992857D01*
X155857142Y-103135714D01*
X155809523Y-103230952D01*
X155761904Y-103278571D01*
X155666666Y-103326190D01*
X155285714Y-103326190D01*
X156238095Y-102897619D02*
X156285714Y-102850000D01*
X156380952Y-102802380D01*
X156619047Y-102802380D01*
X156714285Y-102850000D01*
X156761904Y-102897619D01*
X156809523Y-102992857D01*
X156809523Y-103088095D01*
X156761904Y-103230952D01*
X156190476Y-103802380D01*
X156809523Y-103802380D01*
X157428571Y-102802380D02*
X157523809Y-102802380D01*
X157619047Y-102850000D01*
X157666666Y-102897619D01*
X157714285Y-102992857D01*
X157761904Y-103183333D01*
X157761904Y-103421428D01*
X157714285Y-103611904D01*
X157666666Y-103707142D01*
X157619047Y-103754761D01*
X157523809Y-103802380D01*
X157428571Y-103802380D01*
X157333333Y-103754761D01*
X157285714Y-103707142D01*
X157238095Y-103611904D01*
X157190476Y-103421428D01*
X157190476Y-103183333D01*
X157238095Y-102992857D01*
X157285714Y-102897619D01*
X157333333Y-102850000D01*
X157428571Y-102802380D01*
G04 #@! TO.C,R21*
X168607142Y-109802380D02*
X168273809Y-109326190D01*
X168035714Y-109802380D02*
X168035714Y-108802380D01*
X168416666Y-108802380D01*
X168511904Y-108850000D01*
X168559523Y-108897619D01*
X168607142Y-108992857D01*
X168607142Y-109135714D01*
X168559523Y-109230952D01*
X168511904Y-109278571D01*
X168416666Y-109326190D01*
X168035714Y-109326190D01*
X168988095Y-108897619D02*
X169035714Y-108850000D01*
X169130952Y-108802380D01*
X169369047Y-108802380D01*
X169464285Y-108850000D01*
X169511904Y-108897619D01*
X169559523Y-108992857D01*
X169559523Y-109088095D01*
X169511904Y-109230952D01*
X168940476Y-109802380D01*
X169559523Y-109802380D01*
X170511904Y-109802380D02*
X169940476Y-109802380D01*
X170226190Y-109802380D02*
X170226190Y-108802380D01*
X170130952Y-108945238D01*
X170035714Y-109040476D01*
X169940476Y-109088095D01*
G04 #@! TO.C,R22*
X168607142Y-112052380D02*
X168273809Y-111576190D01*
X168035714Y-112052380D02*
X168035714Y-111052380D01*
X168416666Y-111052380D01*
X168511904Y-111100000D01*
X168559523Y-111147619D01*
X168607142Y-111242857D01*
X168607142Y-111385714D01*
X168559523Y-111480952D01*
X168511904Y-111528571D01*
X168416666Y-111576190D01*
X168035714Y-111576190D01*
X168988095Y-111147619D02*
X169035714Y-111100000D01*
X169130952Y-111052380D01*
X169369047Y-111052380D01*
X169464285Y-111100000D01*
X169511904Y-111147619D01*
X169559523Y-111242857D01*
X169559523Y-111338095D01*
X169511904Y-111480952D01*
X168940476Y-112052380D01*
X169559523Y-112052380D01*
X169940476Y-111147619D02*
X169988095Y-111100000D01*
X170083333Y-111052380D01*
X170321428Y-111052380D01*
X170416666Y-111100000D01*
X170464285Y-111147619D01*
X170511904Y-111242857D01*
X170511904Y-111338095D01*
X170464285Y-111480952D01*
X169892857Y-112052380D01*
X170511904Y-112052380D01*
G04 #@! TO.C,R23*
X165857142Y-103802380D02*
X165523809Y-103326190D01*
X165285714Y-103802380D02*
X165285714Y-102802380D01*
X165666666Y-102802380D01*
X165761904Y-102850000D01*
X165809523Y-102897619D01*
X165857142Y-102992857D01*
X165857142Y-103135714D01*
X165809523Y-103230952D01*
X165761904Y-103278571D01*
X165666666Y-103326190D01*
X165285714Y-103326190D01*
X166238095Y-102897619D02*
X166285714Y-102850000D01*
X166380952Y-102802380D01*
X166619047Y-102802380D01*
X166714285Y-102850000D01*
X166761904Y-102897619D01*
X166809523Y-102992857D01*
X166809523Y-103088095D01*
X166761904Y-103230952D01*
X166190476Y-103802380D01*
X166809523Y-103802380D01*
X167142857Y-102802380D02*
X167761904Y-102802380D01*
X167428571Y-103183333D01*
X167571428Y-103183333D01*
X167666666Y-103230952D01*
X167714285Y-103278571D01*
X167761904Y-103373809D01*
X167761904Y-103611904D01*
X167714285Y-103707142D01*
X167666666Y-103754761D01*
X167571428Y-103802380D01*
X167285714Y-103802380D01*
X167190476Y-103754761D01*
X167142857Y-103707142D01*
G04 #@! TO.C,R24*
X178607142Y-109802380D02*
X178273809Y-109326190D01*
X178035714Y-109802380D02*
X178035714Y-108802380D01*
X178416666Y-108802380D01*
X178511904Y-108850000D01*
X178559523Y-108897619D01*
X178607142Y-108992857D01*
X178607142Y-109135714D01*
X178559523Y-109230952D01*
X178511904Y-109278571D01*
X178416666Y-109326190D01*
X178035714Y-109326190D01*
X178988095Y-108897619D02*
X179035714Y-108850000D01*
X179130952Y-108802380D01*
X179369047Y-108802380D01*
X179464285Y-108850000D01*
X179511904Y-108897619D01*
X179559523Y-108992857D01*
X179559523Y-109088095D01*
X179511904Y-109230952D01*
X178940476Y-109802380D01*
X179559523Y-109802380D01*
X180416666Y-109135714D02*
X180416666Y-109802380D01*
X180178571Y-108754761D02*
X179940476Y-109469047D01*
X180559523Y-109469047D01*
G04 #@! TO.C,R25*
X178607142Y-112052380D02*
X178273809Y-111576190D01*
X178035714Y-112052380D02*
X178035714Y-111052380D01*
X178416666Y-111052380D01*
X178511904Y-111100000D01*
X178559523Y-111147619D01*
X178607142Y-111242857D01*
X178607142Y-111385714D01*
X178559523Y-111480952D01*
X178511904Y-111528571D01*
X178416666Y-111576190D01*
X178035714Y-111576190D01*
X178988095Y-111147619D02*
X179035714Y-111100000D01*
X179130952Y-111052380D01*
X179369047Y-111052380D01*
X179464285Y-111100000D01*
X179511904Y-111147619D01*
X179559523Y-111242857D01*
X179559523Y-111338095D01*
X179511904Y-111480952D01*
X178940476Y-112052380D01*
X179559523Y-112052380D01*
X180464285Y-111052380D02*
X179988095Y-111052380D01*
X179940476Y-111528571D01*
X179988095Y-111480952D01*
X180083333Y-111433333D01*
X180321428Y-111433333D01*
X180416666Y-111480952D01*
X180464285Y-111528571D01*
X180511904Y-111623809D01*
X180511904Y-111861904D01*
X180464285Y-111957142D01*
X180416666Y-112004761D01*
X180321428Y-112052380D01*
X180083333Y-112052380D01*
X179988095Y-112004761D01*
X179940476Y-111957142D01*
G04 #@! TO.C,R16*
X148632142Y-112052380D02*
X148298809Y-111576190D01*
X148060714Y-112052380D02*
X148060714Y-111052380D01*
X148441666Y-111052380D01*
X148536904Y-111100000D01*
X148584523Y-111147619D01*
X148632142Y-111242857D01*
X148632142Y-111385714D01*
X148584523Y-111480952D01*
X148536904Y-111528571D01*
X148441666Y-111576190D01*
X148060714Y-111576190D01*
X149584523Y-112052380D02*
X149013095Y-112052380D01*
X149298809Y-112052380D02*
X149298809Y-111052380D01*
X149203571Y-111195238D01*
X149108333Y-111290476D01*
X149013095Y-111338095D01*
X150441666Y-111052380D02*
X150251190Y-111052380D01*
X150155952Y-111100000D01*
X150108333Y-111147619D01*
X150013095Y-111290476D01*
X149965476Y-111480952D01*
X149965476Y-111861904D01*
X150013095Y-111957142D01*
X150060714Y-112004761D01*
X150155952Y-112052380D01*
X150346428Y-112052380D01*
X150441666Y-112004761D01*
X150489285Y-111957142D01*
X150536904Y-111861904D01*
X150536904Y-111623809D01*
X150489285Y-111528571D01*
X150441666Y-111480952D01*
X150346428Y-111433333D01*
X150155952Y-111433333D01*
X150060714Y-111480952D01*
X150013095Y-111528571D01*
X149965476Y-111623809D01*
G04 #@! TO.C,R28*
X188607142Y-112052380D02*
X188273809Y-111576190D01*
X188035714Y-112052380D02*
X188035714Y-111052380D01*
X188416666Y-111052380D01*
X188511904Y-111100000D01*
X188559523Y-111147619D01*
X188607142Y-111242857D01*
X188607142Y-111385714D01*
X188559523Y-111480952D01*
X188511904Y-111528571D01*
X188416666Y-111576190D01*
X188035714Y-111576190D01*
X188988095Y-111147619D02*
X189035714Y-111100000D01*
X189130952Y-111052380D01*
X189369047Y-111052380D01*
X189464285Y-111100000D01*
X189511904Y-111147619D01*
X189559523Y-111242857D01*
X189559523Y-111338095D01*
X189511904Y-111480952D01*
X188940476Y-112052380D01*
X189559523Y-112052380D01*
X190130952Y-111480952D02*
X190035714Y-111433333D01*
X189988095Y-111385714D01*
X189940476Y-111290476D01*
X189940476Y-111242857D01*
X189988095Y-111147619D01*
X190035714Y-111100000D01*
X190130952Y-111052380D01*
X190321428Y-111052380D01*
X190416666Y-111100000D01*
X190464285Y-111147619D01*
X190511904Y-111242857D01*
X190511904Y-111290476D01*
X190464285Y-111385714D01*
X190416666Y-111433333D01*
X190321428Y-111480952D01*
X190130952Y-111480952D01*
X190035714Y-111528571D01*
X189988095Y-111576190D01*
X189940476Y-111671428D01*
X189940476Y-111861904D01*
X189988095Y-111957142D01*
X190035714Y-112004761D01*
X190130952Y-112052380D01*
X190321428Y-112052380D01*
X190416666Y-112004761D01*
X190464285Y-111957142D01*
X190511904Y-111861904D01*
X190511904Y-111671428D01*
X190464285Y-111576190D01*
X190416666Y-111528571D01*
X190321428Y-111480952D01*
G04 #@! TO.C,R29*
X185832142Y-103802380D02*
X185498809Y-103326190D01*
X185260714Y-103802380D02*
X185260714Y-102802380D01*
X185641666Y-102802380D01*
X185736904Y-102850000D01*
X185784523Y-102897619D01*
X185832142Y-102992857D01*
X185832142Y-103135714D01*
X185784523Y-103230952D01*
X185736904Y-103278571D01*
X185641666Y-103326190D01*
X185260714Y-103326190D01*
X186213095Y-102897619D02*
X186260714Y-102850000D01*
X186355952Y-102802380D01*
X186594047Y-102802380D01*
X186689285Y-102850000D01*
X186736904Y-102897619D01*
X186784523Y-102992857D01*
X186784523Y-103088095D01*
X186736904Y-103230952D01*
X186165476Y-103802380D01*
X186784523Y-103802380D01*
X187260714Y-103802380D02*
X187451190Y-103802380D01*
X187546428Y-103754761D01*
X187594047Y-103707142D01*
X187689285Y-103564285D01*
X187736904Y-103373809D01*
X187736904Y-102992857D01*
X187689285Y-102897619D01*
X187641666Y-102850000D01*
X187546428Y-102802380D01*
X187355952Y-102802380D01*
X187260714Y-102850000D01*
X187213095Y-102897619D01*
X187165476Y-102992857D01*
X187165476Y-103230952D01*
X187213095Y-103326190D01*
X187260714Y-103373809D01*
X187355952Y-103421428D01*
X187546428Y-103421428D01*
X187641666Y-103373809D01*
X187689285Y-103326190D01*
X187736904Y-103230952D01*
G04 #@! TO.C,R30*
X193607142Y-108302380D02*
X193273809Y-107826190D01*
X193035714Y-108302380D02*
X193035714Y-107302380D01*
X193416666Y-107302380D01*
X193511904Y-107350000D01*
X193559523Y-107397619D01*
X193607142Y-107492857D01*
X193607142Y-107635714D01*
X193559523Y-107730952D01*
X193511904Y-107778571D01*
X193416666Y-107826190D01*
X193035714Y-107826190D01*
X193940476Y-107302380D02*
X194559523Y-107302380D01*
X194226190Y-107683333D01*
X194369047Y-107683333D01*
X194464285Y-107730952D01*
X194511904Y-107778571D01*
X194559523Y-107873809D01*
X194559523Y-108111904D01*
X194511904Y-108207142D01*
X194464285Y-108254761D01*
X194369047Y-108302380D01*
X194083333Y-108302380D01*
X193988095Y-108254761D01*
X193940476Y-108207142D01*
X195178571Y-107302380D02*
X195273809Y-107302380D01*
X195369047Y-107350000D01*
X195416666Y-107397619D01*
X195464285Y-107492857D01*
X195511904Y-107683333D01*
X195511904Y-107921428D01*
X195464285Y-108111904D01*
X195416666Y-108207142D01*
X195369047Y-108254761D01*
X195273809Y-108302380D01*
X195178571Y-108302380D01*
X195083333Y-108254761D01*
X195035714Y-108207142D01*
X194988095Y-108111904D01*
X194940476Y-107921428D01*
X194940476Y-107683333D01*
X194988095Y-107492857D01*
X195035714Y-107397619D01*
X195083333Y-107350000D01*
X195178571Y-107302380D01*
G04 #@! TO.C,R31*
X195352380Y-112917857D02*
X194876190Y-113251190D01*
X195352380Y-113489285D02*
X194352380Y-113489285D01*
X194352380Y-113108333D01*
X194400000Y-113013095D01*
X194447619Y-112965476D01*
X194542857Y-112917857D01*
X194685714Y-112917857D01*
X194780952Y-112965476D01*
X194828571Y-113013095D01*
X194876190Y-113108333D01*
X194876190Y-113489285D01*
X194352380Y-112584523D02*
X194352380Y-111965476D01*
X194733333Y-112298809D01*
X194733333Y-112155952D01*
X194780952Y-112060714D01*
X194828571Y-112013095D01*
X194923809Y-111965476D01*
X195161904Y-111965476D01*
X195257142Y-112013095D01*
X195304761Y-112060714D01*
X195352380Y-112155952D01*
X195352380Y-112441666D01*
X195304761Y-112536904D01*
X195257142Y-112584523D01*
X195352380Y-111013095D02*
X195352380Y-111584523D01*
X195352380Y-111298809D02*
X194352380Y-111298809D01*
X194495238Y-111394047D01*
X194590476Y-111489285D01*
X194638095Y-111584523D01*
G04 #@! TO.C,R32*
X199602380Y-105167857D02*
X199126190Y-105501190D01*
X199602380Y-105739285D02*
X198602380Y-105739285D01*
X198602380Y-105358333D01*
X198650000Y-105263095D01*
X198697619Y-105215476D01*
X198792857Y-105167857D01*
X198935714Y-105167857D01*
X199030952Y-105215476D01*
X199078571Y-105263095D01*
X199126190Y-105358333D01*
X199126190Y-105739285D01*
X198602380Y-104834523D02*
X198602380Y-104215476D01*
X198983333Y-104548809D01*
X198983333Y-104405952D01*
X199030952Y-104310714D01*
X199078571Y-104263095D01*
X199173809Y-104215476D01*
X199411904Y-104215476D01*
X199507142Y-104263095D01*
X199554761Y-104310714D01*
X199602380Y-104405952D01*
X199602380Y-104691666D01*
X199554761Y-104786904D01*
X199507142Y-104834523D01*
X198697619Y-103834523D02*
X198650000Y-103786904D01*
X198602380Y-103691666D01*
X198602380Y-103453571D01*
X198650000Y-103358333D01*
X198697619Y-103310714D01*
X198792857Y-103263095D01*
X198888095Y-103263095D01*
X199030952Y-103310714D01*
X199602380Y-103882142D01*
X199602380Y-103263095D01*
G04 #@! TO.C,R34*
X147857142Y-69302380D02*
X147523809Y-68826190D01*
X147285714Y-69302380D02*
X147285714Y-68302380D01*
X147666666Y-68302380D01*
X147761904Y-68350000D01*
X147809523Y-68397619D01*
X147857142Y-68492857D01*
X147857142Y-68635714D01*
X147809523Y-68730952D01*
X147761904Y-68778571D01*
X147666666Y-68826190D01*
X147285714Y-68826190D01*
X148190476Y-68302380D02*
X148809523Y-68302380D01*
X148476190Y-68683333D01*
X148619047Y-68683333D01*
X148714285Y-68730952D01*
X148761904Y-68778571D01*
X148809523Y-68873809D01*
X148809523Y-69111904D01*
X148761904Y-69207142D01*
X148714285Y-69254761D01*
X148619047Y-69302380D01*
X148333333Y-69302380D01*
X148238095Y-69254761D01*
X148190476Y-69207142D01*
X149666666Y-68635714D02*
X149666666Y-69302380D01*
X149428571Y-68254761D02*
X149190476Y-68969047D01*
X149809523Y-68969047D01*
G04 #@! TO.C,R19*
X158632142Y-112052380D02*
X158298809Y-111576190D01*
X158060714Y-112052380D02*
X158060714Y-111052380D01*
X158441666Y-111052380D01*
X158536904Y-111100000D01*
X158584523Y-111147619D01*
X158632142Y-111242857D01*
X158632142Y-111385714D01*
X158584523Y-111480952D01*
X158536904Y-111528571D01*
X158441666Y-111576190D01*
X158060714Y-111576190D01*
X159584523Y-112052380D02*
X159013095Y-112052380D01*
X159298809Y-112052380D02*
X159298809Y-111052380D01*
X159203571Y-111195238D01*
X159108333Y-111290476D01*
X159013095Y-111338095D01*
X160060714Y-112052380D02*
X160251190Y-112052380D01*
X160346428Y-112004761D01*
X160394047Y-111957142D01*
X160489285Y-111814285D01*
X160536904Y-111623809D01*
X160536904Y-111242857D01*
X160489285Y-111147619D01*
X160441666Y-111100000D01*
X160346428Y-111052380D01*
X160155952Y-111052380D01*
X160060714Y-111100000D01*
X160013095Y-111147619D01*
X159965476Y-111242857D01*
X159965476Y-111480952D01*
X160013095Y-111576190D01*
X160060714Y-111623809D01*
X160155952Y-111671428D01*
X160346428Y-111671428D01*
X160441666Y-111623809D01*
X160489285Y-111576190D01*
X160536904Y-111480952D01*
G04 #@! TO.C,R27*
X188607142Y-109802380D02*
X188273809Y-109326190D01*
X188035714Y-109802380D02*
X188035714Y-108802380D01*
X188416666Y-108802380D01*
X188511904Y-108850000D01*
X188559523Y-108897619D01*
X188607142Y-108992857D01*
X188607142Y-109135714D01*
X188559523Y-109230952D01*
X188511904Y-109278571D01*
X188416666Y-109326190D01*
X188035714Y-109326190D01*
X188988095Y-108897619D02*
X189035714Y-108850000D01*
X189130952Y-108802380D01*
X189369047Y-108802380D01*
X189464285Y-108850000D01*
X189511904Y-108897619D01*
X189559523Y-108992857D01*
X189559523Y-109088095D01*
X189511904Y-109230952D01*
X188940476Y-109802380D01*
X189559523Y-109802380D01*
X189892857Y-108802380D02*
X190559523Y-108802380D01*
X190130952Y-109802380D01*
G04 #@! TO.C,C2*
X153757142Y-69416666D02*
X153804761Y-69464285D01*
X153852380Y-69607142D01*
X153852380Y-69702380D01*
X153804761Y-69845238D01*
X153709523Y-69940476D01*
X153614285Y-69988095D01*
X153423809Y-70035714D01*
X153280952Y-70035714D01*
X153090476Y-69988095D01*
X152995238Y-69940476D01*
X152900000Y-69845238D01*
X152852380Y-69702380D01*
X152852380Y-69607142D01*
X152900000Y-69464285D01*
X152947619Y-69416666D01*
X152947619Y-69035714D02*
X152900000Y-68988095D01*
X152852380Y-68892857D01*
X152852380Y-68654761D01*
X152900000Y-68559523D01*
X152947619Y-68511904D01*
X153042857Y-68464285D01*
X153138095Y-68464285D01*
X153280952Y-68511904D01*
X153852380Y-69083333D01*
X153852380Y-68464285D01*
G04 #@! TO.C,C1*
X121457142Y-119916666D02*
X121504761Y-119964285D01*
X121552380Y-120107142D01*
X121552380Y-120202380D01*
X121504761Y-120345238D01*
X121409523Y-120440476D01*
X121314285Y-120488095D01*
X121123809Y-120535714D01*
X120980952Y-120535714D01*
X120790476Y-120488095D01*
X120695238Y-120440476D01*
X120600000Y-120345238D01*
X120552380Y-120202380D01*
X120552380Y-120107142D01*
X120600000Y-119964285D01*
X120647619Y-119916666D01*
X121552380Y-118964285D02*
X121552380Y-119535714D01*
X121552380Y-119250000D02*
X120552380Y-119250000D01*
X120695238Y-119345238D01*
X120790476Y-119440476D01*
X120838095Y-119535714D01*
G04 #@! TO.C,C3*
X122457142Y-80166666D02*
X122504761Y-80214285D01*
X122552380Y-80357142D01*
X122552380Y-80452380D01*
X122504761Y-80595238D01*
X122409523Y-80690476D01*
X122314285Y-80738095D01*
X122123809Y-80785714D01*
X121980952Y-80785714D01*
X121790476Y-80738095D01*
X121695238Y-80690476D01*
X121600000Y-80595238D01*
X121552380Y-80452380D01*
X121552380Y-80357142D01*
X121600000Y-80214285D01*
X121647619Y-80166666D01*
X121552380Y-79833333D02*
X121552380Y-79214285D01*
X121933333Y-79547619D01*
X121933333Y-79404761D01*
X121980952Y-79309523D01*
X122028571Y-79261904D01*
X122123809Y-79214285D01*
X122361904Y-79214285D01*
X122457142Y-79261904D01*
X122504761Y-79309523D01*
X122552380Y-79404761D01*
X122552380Y-79690476D01*
X122504761Y-79785714D01*
X122457142Y-79833333D01*
G04 #@! TO.C,C4*
X148457142Y-64416666D02*
X148504761Y-64464285D01*
X148552380Y-64607142D01*
X148552380Y-64702380D01*
X148504761Y-64845238D01*
X148409523Y-64940476D01*
X148314285Y-64988095D01*
X148123809Y-65035714D01*
X147980952Y-65035714D01*
X147790476Y-64988095D01*
X147695238Y-64940476D01*
X147600000Y-64845238D01*
X147552380Y-64702380D01*
X147552380Y-64607142D01*
X147600000Y-64464285D01*
X147647619Y-64416666D01*
X147885714Y-63559523D02*
X148552380Y-63559523D01*
X147504761Y-63797619D02*
X148219047Y-64035714D01*
X148219047Y-63416666D01*
G04 #@! TO.C,C5*
X146207142Y-64416666D02*
X146254761Y-64464285D01*
X146302380Y-64607142D01*
X146302380Y-64702380D01*
X146254761Y-64845238D01*
X146159523Y-64940476D01*
X146064285Y-64988095D01*
X145873809Y-65035714D01*
X145730952Y-65035714D01*
X145540476Y-64988095D01*
X145445238Y-64940476D01*
X145350000Y-64845238D01*
X145302380Y-64702380D01*
X145302380Y-64607142D01*
X145350000Y-64464285D01*
X145397619Y-64416666D01*
X145302380Y-63511904D02*
X145302380Y-63988095D01*
X145778571Y-64035714D01*
X145730952Y-63988095D01*
X145683333Y-63892857D01*
X145683333Y-63654761D01*
X145730952Y-63559523D01*
X145778571Y-63511904D01*
X145873809Y-63464285D01*
X146111904Y-63464285D01*
X146207142Y-63511904D01*
X146254761Y-63559523D01*
X146302380Y-63654761D01*
X146302380Y-63892857D01*
X146254761Y-63988095D01*
X146207142Y-64035714D01*
G04 #@! TO.C,R33*
X147857142Y-67052380D02*
X147523809Y-66576190D01*
X147285714Y-67052380D02*
X147285714Y-66052380D01*
X147666666Y-66052380D01*
X147761904Y-66100000D01*
X147809523Y-66147619D01*
X147857142Y-66242857D01*
X147857142Y-66385714D01*
X147809523Y-66480952D01*
X147761904Y-66528571D01*
X147666666Y-66576190D01*
X147285714Y-66576190D01*
X148190476Y-66052380D02*
X148809523Y-66052380D01*
X148476190Y-66433333D01*
X148619047Y-66433333D01*
X148714285Y-66480952D01*
X148761904Y-66528571D01*
X148809523Y-66623809D01*
X148809523Y-66861904D01*
X148761904Y-66957142D01*
X148714285Y-67004761D01*
X148619047Y-67052380D01*
X148333333Y-67052380D01*
X148238095Y-67004761D01*
X148190476Y-66957142D01*
X149142857Y-66052380D02*
X149761904Y-66052380D01*
X149428571Y-66433333D01*
X149571428Y-66433333D01*
X149666666Y-66480952D01*
X149714285Y-66528571D01*
X149761904Y-66623809D01*
X149761904Y-66861904D01*
X149714285Y-66957142D01*
X149666666Y-67004761D01*
X149571428Y-67052380D01*
X149285714Y-67052380D01*
X149190476Y-67004761D01*
X149142857Y-66957142D01*
G04 #@! TO.C,U105*
X161785714Y-75872380D02*
X161785714Y-76681904D01*
X161833333Y-76777142D01*
X161880952Y-76824761D01*
X161976190Y-76872380D01*
X162166666Y-76872380D01*
X162261904Y-76824761D01*
X162309523Y-76777142D01*
X162357142Y-76681904D01*
X162357142Y-75872380D01*
X163357142Y-76872380D02*
X162785714Y-76872380D01*
X163071428Y-76872380D02*
X163071428Y-75872380D01*
X162976190Y-76015238D01*
X162880952Y-76110476D01*
X162785714Y-76158095D01*
X163976190Y-75872380D02*
X164071428Y-75872380D01*
X164166666Y-75920000D01*
X164214285Y-75967619D01*
X164261904Y-76062857D01*
X164309523Y-76253333D01*
X164309523Y-76491428D01*
X164261904Y-76681904D01*
X164214285Y-76777142D01*
X164166666Y-76824761D01*
X164071428Y-76872380D01*
X163976190Y-76872380D01*
X163880952Y-76824761D01*
X163833333Y-76777142D01*
X163785714Y-76681904D01*
X163738095Y-76491428D01*
X163738095Y-76253333D01*
X163785714Y-76062857D01*
X163833333Y-75967619D01*
X163880952Y-75920000D01*
X163976190Y-75872380D01*
X165214285Y-75872380D02*
X164738095Y-75872380D01*
X164690476Y-76348571D01*
X164738095Y-76300952D01*
X164833333Y-76253333D01*
X165071428Y-76253333D01*
X165166666Y-76300952D01*
X165214285Y-76348571D01*
X165261904Y-76443809D01*
X165261904Y-76681904D01*
X165214285Y-76777142D01*
X165166666Y-76824761D01*
X165071428Y-76872380D01*
X164833333Y-76872380D01*
X164738095Y-76824761D01*
X164690476Y-76777142D01*
G04 #@! TO.C,U104*
X163435714Y-136762380D02*
X163435714Y-137571904D01*
X163483333Y-137667142D01*
X163530952Y-137714761D01*
X163626190Y-137762380D01*
X163816666Y-137762380D01*
X163911904Y-137714761D01*
X163959523Y-137667142D01*
X164007142Y-137571904D01*
X164007142Y-136762380D01*
X165007142Y-137762380D02*
X164435714Y-137762380D01*
X164721428Y-137762380D02*
X164721428Y-136762380D01*
X164626190Y-136905238D01*
X164530952Y-137000476D01*
X164435714Y-137048095D01*
X165626190Y-136762380D02*
X165721428Y-136762380D01*
X165816666Y-136810000D01*
X165864285Y-136857619D01*
X165911904Y-136952857D01*
X165959523Y-137143333D01*
X165959523Y-137381428D01*
X165911904Y-137571904D01*
X165864285Y-137667142D01*
X165816666Y-137714761D01*
X165721428Y-137762380D01*
X165626190Y-137762380D01*
X165530952Y-137714761D01*
X165483333Y-137667142D01*
X165435714Y-137571904D01*
X165388095Y-137381428D01*
X165388095Y-137143333D01*
X165435714Y-136952857D01*
X165483333Y-136857619D01*
X165530952Y-136810000D01*
X165626190Y-136762380D01*
X166816666Y-137095714D02*
X166816666Y-137762380D01*
X166578571Y-136714761D02*
X166340476Y-137429047D01*
X166959523Y-137429047D01*
G04 #@! TO.C,U1*
X134218095Y-70012380D02*
X134218095Y-70821904D01*
X134265714Y-70917142D01*
X134313333Y-70964761D01*
X134408571Y-71012380D01*
X134599047Y-71012380D01*
X134694285Y-70964761D01*
X134741904Y-70917142D01*
X134789523Y-70821904D01*
X134789523Y-70012380D01*
X135789523Y-71012380D02*
X135218095Y-71012380D01*
X135503809Y-71012380D02*
X135503809Y-70012380D01*
X135408571Y-70155238D01*
X135313333Y-70250476D01*
X135218095Y-70298095D01*
G04 #@! TO.C,U32*
X123761904Y-134952380D02*
X123761904Y-135761904D01*
X123809523Y-135857142D01*
X123857142Y-135904761D01*
X123952380Y-135952380D01*
X124142857Y-135952380D01*
X124238095Y-135904761D01*
X124285714Y-135857142D01*
X124333333Y-135761904D01*
X124333333Y-134952380D01*
X124714285Y-134952380D02*
X125333333Y-134952380D01*
X125000000Y-135333333D01*
X125142857Y-135333333D01*
X125238095Y-135380952D01*
X125285714Y-135428571D01*
X125333333Y-135523809D01*
X125333333Y-135761904D01*
X125285714Y-135857142D01*
X125238095Y-135904761D01*
X125142857Y-135952380D01*
X124857142Y-135952380D01*
X124761904Y-135904761D01*
X124714285Y-135857142D01*
X125714285Y-135047619D02*
X125761904Y-135000000D01*
X125857142Y-134952380D01*
X126095238Y-134952380D01*
X126190476Y-135000000D01*
X126238095Y-135047619D01*
X126285714Y-135142857D01*
X126285714Y-135238095D01*
X126238095Y-135380952D01*
X125666666Y-135952380D01*
X126285714Y-135952380D01*
G04 #@! TO.C,U7*
X104238095Y-84952380D02*
X104238095Y-85761904D01*
X104285714Y-85857142D01*
X104333333Y-85904761D01*
X104428571Y-85952380D01*
X104619047Y-85952380D01*
X104714285Y-85904761D01*
X104761904Y-85857142D01*
X104809523Y-85761904D01*
X104809523Y-84952380D01*
X105190476Y-84952380D02*
X105857142Y-84952380D01*
X105428571Y-85952380D01*
G04 #@! TO.C,Q10*
X192297619Y-106071428D02*
X192250000Y-106166666D01*
X192154761Y-106261904D01*
X192011904Y-106404761D01*
X191964285Y-106500000D01*
X191964285Y-106595238D01*
X192202380Y-106547619D02*
X192154761Y-106642857D01*
X192059523Y-106738095D01*
X191869047Y-106785714D01*
X191535714Y-106785714D01*
X191345238Y-106738095D01*
X191250000Y-106642857D01*
X191202380Y-106547619D01*
X191202380Y-106357142D01*
X191250000Y-106261904D01*
X191345238Y-106166666D01*
X191535714Y-106119047D01*
X191869047Y-106119047D01*
X192059523Y-106166666D01*
X192154761Y-106261904D01*
X192202380Y-106357142D01*
X192202380Y-106547619D01*
X192202380Y-105166666D02*
X192202380Y-105738095D01*
X192202380Y-105452380D02*
X191202380Y-105452380D01*
X191345238Y-105547619D01*
X191440476Y-105642857D01*
X191488095Y-105738095D01*
X191202380Y-104547619D02*
X191202380Y-104452380D01*
X191250000Y-104357142D01*
X191297619Y-104309523D01*
X191392857Y-104261904D01*
X191583333Y-104214285D01*
X191821428Y-104214285D01*
X192011904Y-104261904D01*
X192107142Y-104309523D01*
X192154761Y-104357142D01*
X192202380Y-104452380D01*
X192202380Y-104547619D01*
X192154761Y-104642857D01*
X192107142Y-104690476D01*
X192011904Y-104738095D01*
X191821428Y-104785714D01*
X191583333Y-104785714D01*
X191392857Y-104738095D01*
X191297619Y-104690476D01*
X191250000Y-104642857D01*
X191202380Y-104547619D01*
G04 #@! TO.C,Q9*
X187297619Y-107095238D02*
X187250000Y-107190476D01*
X187154761Y-107285714D01*
X187011904Y-107428571D01*
X186964285Y-107523809D01*
X186964285Y-107619047D01*
X187202380Y-107571428D02*
X187154761Y-107666666D01*
X187059523Y-107761904D01*
X186869047Y-107809523D01*
X186535714Y-107809523D01*
X186345238Y-107761904D01*
X186250000Y-107666666D01*
X186202380Y-107571428D01*
X186202380Y-107380952D01*
X186250000Y-107285714D01*
X186345238Y-107190476D01*
X186535714Y-107142857D01*
X186869047Y-107142857D01*
X187059523Y-107190476D01*
X187154761Y-107285714D01*
X187202380Y-107380952D01*
X187202380Y-107571428D01*
X187202380Y-106666666D02*
X187202380Y-106476190D01*
X187154761Y-106380952D01*
X187107142Y-106333333D01*
X186964285Y-106238095D01*
X186773809Y-106190476D01*
X186392857Y-106190476D01*
X186297619Y-106238095D01*
X186250000Y-106285714D01*
X186202380Y-106380952D01*
X186202380Y-106571428D01*
X186250000Y-106666666D01*
X186297619Y-106714285D01*
X186392857Y-106761904D01*
X186630952Y-106761904D01*
X186726190Y-106714285D01*
X186773809Y-106666666D01*
X186821428Y-106571428D01*
X186821428Y-106380952D01*
X186773809Y-106285714D01*
X186726190Y-106238095D01*
X186630952Y-106190476D01*
G04 #@! TO.C,Q8*
X177297619Y-107095238D02*
X177250000Y-107190476D01*
X177154761Y-107285714D01*
X177011904Y-107428571D01*
X176964285Y-107523809D01*
X176964285Y-107619047D01*
X177202380Y-107571428D02*
X177154761Y-107666666D01*
X177059523Y-107761904D01*
X176869047Y-107809523D01*
X176535714Y-107809523D01*
X176345238Y-107761904D01*
X176250000Y-107666666D01*
X176202380Y-107571428D01*
X176202380Y-107380952D01*
X176250000Y-107285714D01*
X176345238Y-107190476D01*
X176535714Y-107142857D01*
X176869047Y-107142857D01*
X177059523Y-107190476D01*
X177154761Y-107285714D01*
X177202380Y-107380952D01*
X177202380Y-107571428D01*
X176630952Y-106571428D02*
X176583333Y-106666666D01*
X176535714Y-106714285D01*
X176440476Y-106761904D01*
X176392857Y-106761904D01*
X176297619Y-106714285D01*
X176250000Y-106666666D01*
X176202380Y-106571428D01*
X176202380Y-106380952D01*
X176250000Y-106285714D01*
X176297619Y-106238095D01*
X176392857Y-106190476D01*
X176440476Y-106190476D01*
X176535714Y-106238095D01*
X176583333Y-106285714D01*
X176630952Y-106380952D01*
X176630952Y-106571428D01*
X176678571Y-106666666D01*
X176726190Y-106714285D01*
X176821428Y-106761904D01*
X177011904Y-106761904D01*
X177107142Y-106714285D01*
X177154761Y-106666666D01*
X177202380Y-106571428D01*
X177202380Y-106380952D01*
X177154761Y-106285714D01*
X177107142Y-106238095D01*
X177011904Y-106190476D01*
X176821428Y-106190476D01*
X176726190Y-106238095D01*
X176678571Y-106285714D01*
X176630952Y-106380952D01*
G04 #@! TO.C,Q7*
X167297619Y-107095238D02*
X167250000Y-107190476D01*
X167154761Y-107285714D01*
X167011904Y-107428571D01*
X166964285Y-107523809D01*
X166964285Y-107619047D01*
X167202380Y-107571428D02*
X167154761Y-107666666D01*
X167059523Y-107761904D01*
X166869047Y-107809523D01*
X166535714Y-107809523D01*
X166345238Y-107761904D01*
X166250000Y-107666666D01*
X166202380Y-107571428D01*
X166202380Y-107380952D01*
X166250000Y-107285714D01*
X166345238Y-107190476D01*
X166535714Y-107142857D01*
X166869047Y-107142857D01*
X167059523Y-107190476D01*
X167154761Y-107285714D01*
X167202380Y-107380952D01*
X167202380Y-107571428D01*
X166202380Y-106809523D02*
X166202380Y-106142857D01*
X167202380Y-106571428D01*
G04 #@! TO.C,Q6*
X157297619Y-107095238D02*
X157250000Y-107190476D01*
X157154761Y-107285714D01*
X157011904Y-107428571D01*
X156964285Y-107523809D01*
X156964285Y-107619047D01*
X157202380Y-107571428D02*
X157154761Y-107666666D01*
X157059523Y-107761904D01*
X156869047Y-107809523D01*
X156535714Y-107809523D01*
X156345238Y-107761904D01*
X156250000Y-107666666D01*
X156202380Y-107571428D01*
X156202380Y-107380952D01*
X156250000Y-107285714D01*
X156345238Y-107190476D01*
X156535714Y-107142857D01*
X156869047Y-107142857D01*
X157059523Y-107190476D01*
X157154761Y-107285714D01*
X157202380Y-107380952D01*
X157202380Y-107571428D01*
X156202380Y-106285714D02*
X156202380Y-106476190D01*
X156250000Y-106571428D01*
X156297619Y-106619047D01*
X156440476Y-106714285D01*
X156630952Y-106761904D01*
X157011904Y-106761904D01*
X157107142Y-106714285D01*
X157154761Y-106666666D01*
X157202380Y-106571428D01*
X157202380Y-106380952D01*
X157154761Y-106285714D01*
X157107142Y-106238095D01*
X157011904Y-106190476D01*
X156773809Y-106190476D01*
X156678571Y-106238095D01*
X156630952Y-106285714D01*
X156583333Y-106380952D01*
X156583333Y-106571428D01*
X156630952Y-106666666D01*
X156678571Y-106714285D01*
X156773809Y-106761904D01*
G04 #@! TO.C,U3*
X108544880Y-126661904D02*
X109354404Y-126661904D01*
X109449642Y-126614285D01*
X109497261Y-126566666D01*
X109544880Y-126471428D01*
X109544880Y-126280952D01*
X109497261Y-126185714D01*
X109449642Y-126138095D01*
X109354404Y-126090476D01*
X108544880Y-126090476D01*
X108544880Y-125709523D02*
X108544880Y-125090476D01*
X108925833Y-125423809D01*
X108925833Y-125280952D01*
X108973452Y-125185714D01*
X109021071Y-125138095D01*
X109116309Y-125090476D01*
X109354404Y-125090476D01*
X109449642Y-125138095D01*
X109497261Y-125185714D01*
X109544880Y-125280952D01*
X109544880Y-125566666D01*
X109497261Y-125661904D01*
X109449642Y-125709523D01*
G04 #@! TO.C,U2*
X108544880Y-74661904D02*
X109354404Y-74661904D01*
X109449642Y-74614285D01*
X109497261Y-74566666D01*
X109544880Y-74471428D01*
X109544880Y-74280952D01*
X109497261Y-74185714D01*
X109449642Y-74138095D01*
X109354404Y-74090476D01*
X108544880Y-74090476D01*
X108640119Y-73661904D02*
X108592500Y-73614285D01*
X108544880Y-73519047D01*
X108544880Y-73280952D01*
X108592500Y-73185714D01*
X108640119Y-73138095D01*
X108735357Y-73090476D01*
X108830595Y-73090476D01*
X108973452Y-73138095D01*
X109544880Y-73709523D01*
X109544880Y-73090476D01*
G04 #@! TO.C,Q3*
X127297619Y-107095238D02*
X127250000Y-107190476D01*
X127154761Y-107285714D01*
X127011904Y-107428571D01*
X126964285Y-107523809D01*
X126964285Y-107619047D01*
X127202380Y-107571428D02*
X127154761Y-107666666D01*
X127059523Y-107761904D01*
X126869047Y-107809523D01*
X126535714Y-107809523D01*
X126345238Y-107761904D01*
X126250000Y-107666666D01*
X126202380Y-107571428D01*
X126202380Y-107380952D01*
X126250000Y-107285714D01*
X126345238Y-107190476D01*
X126535714Y-107142857D01*
X126869047Y-107142857D01*
X127059523Y-107190476D01*
X127154761Y-107285714D01*
X127202380Y-107380952D01*
X127202380Y-107571428D01*
X126202380Y-106809523D02*
X126202380Y-106190476D01*
X126583333Y-106523809D01*
X126583333Y-106380952D01*
X126630952Y-106285714D01*
X126678571Y-106238095D01*
X126773809Y-106190476D01*
X127011904Y-106190476D01*
X127107142Y-106238095D01*
X127154761Y-106285714D01*
X127202380Y-106380952D01*
X127202380Y-106666666D01*
X127154761Y-106761904D01*
X127107142Y-106809523D01*
G04 #@! TO.C,Q2*
X119297619Y-107095238D02*
X119250000Y-107190476D01*
X119154761Y-107285714D01*
X119011904Y-107428571D01*
X118964285Y-107523809D01*
X118964285Y-107619047D01*
X119202380Y-107571428D02*
X119154761Y-107666666D01*
X119059523Y-107761904D01*
X118869047Y-107809523D01*
X118535714Y-107809523D01*
X118345238Y-107761904D01*
X118250000Y-107666666D01*
X118202380Y-107571428D01*
X118202380Y-107380952D01*
X118250000Y-107285714D01*
X118345238Y-107190476D01*
X118535714Y-107142857D01*
X118869047Y-107142857D01*
X119059523Y-107190476D01*
X119154761Y-107285714D01*
X119202380Y-107380952D01*
X119202380Y-107571428D01*
X118297619Y-106761904D02*
X118250000Y-106714285D01*
X118202380Y-106619047D01*
X118202380Y-106380952D01*
X118250000Y-106285714D01*
X118297619Y-106238095D01*
X118392857Y-106190476D01*
X118488095Y-106190476D01*
X118630952Y-106238095D01*
X119202380Y-106809523D01*
X119202380Y-106190476D01*
G04 #@! TO.C,Q4*
X137347619Y-107095238D02*
X137300000Y-107190476D01*
X137204761Y-107285714D01*
X137061904Y-107428571D01*
X137014285Y-107523809D01*
X137014285Y-107619047D01*
X137252380Y-107571428D02*
X137204761Y-107666666D01*
X137109523Y-107761904D01*
X136919047Y-107809523D01*
X136585714Y-107809523D01*
X136395238Y-107761904D01*
X136300000Y-107666666D01*
X136252380Y-107571428D01*
X136252380Y-107380952D01*
X136300000Y-107285714D01*
X136395238Y-107190476D01*
X136585714Y-107142857D01*
X136919047Y-107142857D01*
X137109523Y-107190476D01*
X137204761Y-107285714D01*
X137252380Y-107380952D01*
X137252380Y-107571428D01*
X136585714Y-106285714D02*
X137252380Y-106285714D01*
X136204761Y-106523809D02*
X136919047Y-106761904D01*
X136919047Y-106142857D01*
G04 #@! TO.C,Q1*
X104297619Y-107345238D02*
X104250000Y-107440476D01*
X104154761Y-107535714D01*
X104011904Y-107678571D01*
X103964285Y-107773809D01*
X103964285Y-107869047D01*
X104202380Y-107821428D02*
X104154761Y-107916666D01*
X104059523Y-108011904D01*
X103869047Y-108059523D01*
X103535714Y-108059523D01*
X103345238Y-108011904D01*
X103250000Y-107916666D01*
X103202380Y-107821428D01*
X103202380Y-107630952D01*
X103250000Y-107535714D01*
X103345238Y-107440476D01*
X103535714Y-107392857D01*
X103869047Y-107392857D01*
X104059523Y-107440476D01*
X104154761Y-107535714D01*
X104202380Y-107630952D01*
X104202380Y-107821428D01*
X104202380Y-106440476D02*
X104202380Y-107011904D01*
X104202380Y-106726190D02*
X103202380Y-106726190D01*
X103345238Y-106821428D01*
X103440476Y-106916666D01*
X103488095Y-107011904D01*
G04 #@! TO.C,Q5*
X147297619Y-107095238D02*
X147250000Y-107190476D01*
X147154761Y-107285714D01*
X147011904Y-107428571D01*
X146964285Y-107523809D01*
X146964285Y-107619047D01*
X147202380Y-107571428D02*
X147154761Y-107666666D01*
X147059523Y-107761904D01*
X146869047Y-107809523D01*
X146535714Y-107809523D01*
X146345238Y-107761904D01*
X146250000Y-107666666D01*
X146202380Y-107571428D01*
X146202380Y-107380952D01*
X146250000Y-107285714D01*
X146345238Y-107190476D01*
X146535714Y-107142857D01*
X146869047Y-107142857D01*
X147059523Y-107190476D01*
X147154761Y-107285714D01*
X147202380Y-107380952D01*
X147202380Y-107571428D01*
X146202380Y-106238095D02*
X146202380Y-106714285D01*
X146678571Y-106761904D01*
X146630952Y-106714285D01*
X146583333Y-106619047D01*
X146583333Y-106380952D01*
X146630952Y-106285714D01*
X146678571Y-106238095D01*
X146773809Y-106190476D01*
X147011904Y-106190476D01*
X147107142Y-106238095D01*
X147154761Y-106285714D01*
X147202380Y-106380952D01*
X147202380Y-106619047D01*
X147154761Y-106714285D01*
X147107142Y-106761904D01*
G04 #@! TO.C,U78*
X173761904Y-94952380D02*
X173761904Y-95761904D01*
X173809523Y-95857142D01*
X173857142Y-95904761D01*
X173952380Y-95952380D01*
X174142857Y-95952380D01*
X174238095Y-95904761D01*
X174285714Y-95857142D01*
X174333333Y-95761904D01*
X174333333Y-94952380D01*
X174714285Y-94952380D02*
X175380952Y-94952380D01*
X174952380Y-95952380D01*
X175904761Y-95380952D02*
X175809523Y-95333333D01*
X175761904Y-95285714D01*
X175714285Y-95190476D01*
X175714285Y-95142857D01*
X175761904Y-95047619D01*
X175809523Y-95000000D01*
X175904761Y-94952380D01*
X176095238Y-94952380D01*
X176190476Y-95000000D01*
X176238095Y-95047619D01*
X176285714Y-95142857D01*
X176285714Y-95190476D01*
X176238095Y-95285714D01*
X176190476Y-95333333D01*
X176095238Y-95380952D01*
X175904761Y-95380952D01*
X175809523Y-95428571D01*
X175761904Y-95476190D01*
X175714285Y-95571428D01*
X175714285Y-95761904D01*
X175761904Y-95857142D01*
X175809523Y-95904761D01*
X175904761Y-95952380D01*
X176095238Y-95952380D01*
X176190476Y-95904761D01*
X176238095Y-95857142D01*
X176285714Y-95761904D01*
X176285714Y-95571428D01*
X176238095Y-95476190D01*
X176190476Y-95428571D01*
X176095238Y-95380952D01*
G04 #@! TO.C,U77*
X173761904Y-84952380D02*
X173761904Y-85761904D01*
X173809523Y-85857142D01*
X173857142Y-85904761D01*
X173952380Y-85952380D01*
X174142857Y-85952380D01*
X174238095Y-85904761D01*
X174285714Y-85857142D01*
X174333333Y-85761904D01*
X174333333Y-84952380D01*
X174714285Y-84952380D02*
X175380952Y-84952380D01*
X174952380Y-85952380D01*
X175666666Y-84952380D02*
X176333333Y-84952380D01*
X175904761Y-85952380D01*
G04 #@! TO.C,U76*
X173761904Y-74952380D02*
X173761904Y-75761904D01*
X173809523Y-75857142D01*
X173857142Y-75904761D01*
X173952380Y-75952380D01*
X174142857Y-75952380D01*
X174238095Y-75904761D01*
X174285714Y-75857142D01*
X174333333Y-75761904D01*
X174333333Y-74952380D01*
X174714285Y-74952380D02*
X175380952Y-74952380D01*
X174952380Y-75952380D01*
X176190476Y-74952380D02*
X176000000Y-74952380D01*
X175904761Y-75000000D01*
X175857142Y-75047619D01*
X175761904Y-75190476D01*
X175714285Y-75380952D01*
X175714285Y-75761904D01*
X175761904Y-75857142D01*
X175809523Y-75904761D01*
X175904761Y-75952380D01*
X176095238Y-75952380D01*
X176190476Y-75904761D01*
X176238095Y-75857142D01*
X176285714Y-75761904D01*
X176285714Y-75523809D01*
X176238095Y-75428571D01*
X176190476Y-75380952D01*
X176095238Y-75333333D01*
X175904761Y-75333333D01*
X175809523Y-75380952D01*
X175761904Y-75428571D01*
X175714285Y-75523809D01*
G04 #@! TO.C,U75*
X173761904Y-64952380D02*
X173761904Y-65761904D01*
X173809523Y-65857142D01*
X173857142Y-65904761D01*
X173952380Y-65952380D01*
X174142857Y-65952380D01*
X174238095Y-65904761D01*
X174285714Y-65857142D01*
X174333333Y-65761904D01*
X174333333Y-64952380D01*
X174714285Y-64952380D02*
X175380952Y-64952380D01*
X174952380Y-65952380D01*
X176238095Y-64952380D02*
X175761904Y-64952380D01*
X175714285Y-65428571D01*
X175761904Y-65380952D01*
X175857142Y-65333333D01*
X176095238Y-65333333D01*
X176190476Y-65380952D01*
X176238095Y-65428571D01*
X176285714Y-65523809D01*
X176285714Y-65761904D01*
X176238095Y-65857142D01*
X176190476Y-65904761D01*
X176095238Y-65952380D01*
X175857142Y-65952380D01*
X175761904Y-65904761D01*
X175714285Y-65857142D01*
G04 #@! TO.C,U74*
X173761904Y-54952380D02*
X173761904Y-55761904D01*
X173809523Y-55857142D01*
X173857142Y-55904761D01*
X173952380Y-55952380D01*
X174142857Y-55952380D01*
X174238095Y-55904761D01*
X174285714Y-55857142D01*
X174333333Y-55761904D01*
X174333333Y-54952380D01*
X174714285Y-54952380D02*
X175380952Y-54952380D01*
X174952380Y-55952380D01*
X176190476Y-55285714D02*
X176190476Y-55952380D01*
X175952380Y-54904761D02*
X175714285Y-55619047D01*
X176333333Y-55619047D01*
G04 #@! TO.C,U73*
X163761904Y-144952380D02*
X163761904Y-145761904D01*
X163809523Y-145857142D01*
X163857142Y-145904761D01*
X163952380Y-145952380D01*
X164142857Y-145952380D01*
X164238095Y-145904761D01*
X164285714Y-145857142D01*
X164333333Y-145761904D01*
X164333333Y-144952380D01*
X164714285Y-144952380D02*
X165380952Y-144952380D01*
X164952380Y-145952380D01*
X165666666Y-144952380D02*
X166285714Y-144952380D01*
X165952380Y-145333333D01*
X166095238Y-145333333D01*
X166190476Y-145380952D01*
X166238095Y-145428571D01*
X166285714Y-145523809D01*
X166285714Y-145761904D01*
X166238095Y-145857142D01*
X166190476Y-145904761D01*
X166095238Y-145952380D01*
X165809523Y-145952380D01*
X165714285Y-145904761D01*
X165666666Y-145857142D01*
G04 #@! TO.C,U72*
X163761904Y-134952380D02*
X163761904Y-135761904D01*
X163809523Y-135857142D01*
X163857142Y-135904761D01*
X163952380Y-135952380D01*
X164142857Y-135952380D01*
X164238095Y-135904761D01*
X164285714Y-135857142D01*
X164333333Y-135761904D01*
X164333333Y-134952380D01*
X164714285Y-134952380D02*
X165380952Y-134952380D01*
X164952380Y-135952380D01*
X165714285Y-135047619D02*
X165761904Y-135000000D01*
X165857142Y-134952380D01*
X166095238Y-134952380D01*
X166190476Y-135000000D01*
X166238095Y-135047619D01*
X166285714Y-135142857D01*
X166285714Y-135238095D01*
X166238095Y-135380952D01*
X165666666Y-135952380D01*
X166285714Y-135952380D01*
G04 #@! TO.C,U71*
X163761904Y-124952380D02*
X163761904Y-125761904D01*
X163809523Y-125857142D01*
X163857142Y-125904761D01*
X163952380Y-125952380D01*
X164142857Y-125952380D01*
X164238095Y-125904761D01*
X164285714Y-125857142D01*
X164333333Y-125761904D01*
X164333333Y-124952380D01*
X164714285Y-124952380D02*
X165380952Y-124952380D01*
X164952380Y-125952380D01*
X166285714Y-125952380D02*
X165714285Y-125952380D01*
X166000000Y-125952380D02*
X166000000Y-124952380D01*
X165904761Y-125095238D01*
X165809523Y-125190476D01*
X165714285Y-125238095D01*
G04 #@! TO.C,U70*
X163761904Y-114952380D02*
X163761904Y-115761904D01*
X163809523Y-115857142D01*
X163857142Y-115904761D01*
X163952380Y-115952380D01*
X164142857Y-115952380D01*
X164238095Y-115904761D01*
X164285714Y-115857142D01*
X164333333Y-115761904D01*
X164333333Y-114952380D01*
X164714285Y-114952380D02*
X165380952Y-114952380D01*
X164952380Y-115952380D01*
X165952380Y-114952380D02*
X166047619Y-114952380D01*
X166142857Y-115000000D01*
X166190476Y-115047619D01*
X166238095Y-115142857D01*
X166285714Y-115333333D01*
X166285714Y-115571428D01*
X166238095Y-115761904D01*
X166190476Y-115857142D01*
X166142857Y-115904761D01*
X166047619Y-115952380D01*
X165952380Y-115952380D01*
X165857142Y-115904761D01*
X165809523Y-115857142D01*
X165761904Y-115761904D01*
X165714285Y-115571428D01*
X165714285Y-115333333D01*
X165761904Y-115142857D01*
X165809523Y-115047619D01*
X165857142Y-115000000D01*
X165952380Y-114952380D01*
G04 #@! TO.C,U69*
X163761904Y-104952380D02*
X163761904Y-105761904D01*
X163809523Y-105857142D01*
X163857142Y-105904761D01*
X163952380Y-105952380D01*
X164142857Y-105952380D01*
X164238095Y-105904761D01*
X164285714Y-105857142D01*
X164333333Y-105761904D01*
X164333333Y-104952380D01*
X165238095Y-104952380D02*
X165047619Y-104952380D01*
X164952380Y-105000000D01*
X164904761Y-105047619D01*
X164809523Y-105190476D01*
X164761904Y-105380952D01*
X164761904Y-105761904D01*
X164809523Y-105857142D01*
X164857142Y-105904761D01*
X164952380Y-105952380D01*
X165142857Y-105952380D01*
X165238095Y-105904761D01*
X165285714Y-105857142D01*
X165333333Y-105761904D01*
X165333333Y-105523809D01*
X165285714Y-105428571D01*
X165238095Y-105380952D01*
X165142857Y-105333333D01*
X164952380Y-105333333D01*
X164857142Y-105380952D01*
X164809523Y-105428571D01*
X164761904Y-105523809D01*
X165809523Y-105952380D02*
X166000000Y-105952380D01*
X166095238Y-105904761D01*
X166142857Y-105857142D01*
X166238095Y-105714285D01*
X166285714Y-105523809D01*
X166285714Y-105142857D01*
X166238095Y-105047619D01*
X166190476Y-105000000D01*
X166095238Y-104952380D01*
X165904761Y-104952380D01*
X165809523Y-105000000D01*
X165761904Y-105047619D01*
X165714285Y-105142857D01*
X165714285Y-105380952D01*
X165761904Y-105476190D01*
X165809523Y-105523809D01*
X165904761Y-105571428D01*
X166095238Y-105571428D01*
X166190476Y-105523809D01*
X166238095Y-105476190D01*
X166285714Y-105380952D01*
G04 #@! TO.C,U68*
X163761904Y-94952380D02*
X163761904Y-95761904D01*
X163809523Y-95857142D01*
X163857142Y-95904761D01*
X163952380Y-95952380D01*
X164142857Y-95952380D01*
X164238095Y-95904761D01*
X164285714Y-95857142D01*
X164333333Y-95761904D01*
X164333333Y-94952380D01*
X165238095Y-94952380D02*
X165047619Y-94952380D01*
X164952380Y-95000000D01*
X164904761Y-95047619D01*
X164809523Y-95190476D01*
X164761904Y-95380952D01*
X164761904Y-95761904D01*
X164809523Y-95857142D01*
X164857142Y-95904761D01*
X164952380Y-95952380D01*
X165142857Y-95952380D01*
X165238095Y-95904761D01*
X165285714Y-95857142D01*
X165333333Y-95761904D01*
X165333333Y-95523809D01*
X165285714Y-95428571D01*
X165238095Y-95380952D01*
X165142857Y-95333333D01*
X164952380Y-95333333D01*
X164857142Y-95380952D01*
X164809523Y-95428571D01*
X164761904Y-95523809D01*
X165904761Y-95380952D02*
X165809523Y-95333333D01*
X165761904Y-95285714D01*
X165714285Y-95190476D01*
X165714285Y-95142857D01*
X165761904Y-95047619D01*
X165809523Y-95000000D01*
X165904761Y-94952380D01*
X166095238Y-94952380D01*
X166190476Y-95000000D01*
X166238095Y-95047619D01*
X166285714Y-95142857D01*
X166285714Y-95190476D01*
X166238095Y-95285714D01*
X166190476Y-95333333D01*
X166095238Y-95380952D01*
X165904761Y-95380952D01*
X165809523Y-95428571D01*
X165761904Y-95476190D01*
X165714285Y-95571428D01*
X165714285Y-95761904D01*
X165761904Y-95857142D01*
X165809523Y-95904761D01*
X165904761Y-95952380D01*
X166095238Y-95952380D01*
X166190476Y-95904761D01*
X166238095Y-95857142D01*
X166285714Y-95761904D01*
X166285714Y-95571428D01*
X166238095Y-95476190D01*
X166190476Y-95428571D01*
X166095238Y-95380952D01*
G04 #@! TO.C,U28*
X123761904Y-94952380D02*
X123761904Y-95761904D01*
X123809523Y-95857142D01*
X123857142Y-95904761D01*
X123952380Y-95952380D01*
X124142857Y-95952380D01*
X124238095Y-95904761D01*
X124285714Y-95857142D01*
X124333333Y-95761904D01*
X124333333Y-94952380D01*
X124761904Y-95047619D02*
X124809523Y-95000000D01*
X124904761Y-94952380D01*
X125142857Y-94952380D01*
X125238095Y-95000000D01*
X125285714Y-95047619D01*
X125333333Y-95142857D01*
X125333333Y-95238095D01*
X125285714Y-95380952D01*
X124714285Y-95952380D01*
X125333333Y-95952380D01*
X125904761Y-95380952D02*
X125809523Y-95333333D01*
X125761904Y-95285714D01*
X125714285Y-95190476D01*
X125714285Y-95142857D01*
X125761904Y-95047619D01*
X125809523Y-95000000D01*
X125904761Y-94952380D01*
X126095238Y-94952380D01*
X126190476Y-95000000D01*
X126238095Y-95047619D01*
X126285714Y-95142857D01*
X126285714Y-95190476D01*
X126238095Y-95285714D01*
X126190476Y-95333333D01*
X126095238Y-95380952D01*
X125904761Y-95380952D01*
X125809523Y-95428571D01*
X125761904Y-95476190D01*
X125714285Y-95571428D01*
X125714285Y-95761904D01*
X125761904Y-95857142D01*
X125809523Y-95904761D01*
X125904761Y-95952380D01*
X126095238Y-95952380D01*
X126190476Y-95904761D01*
X126238095Y-95857142D01*
X126285714Y-95761904D01*
X126285714Y-95571428D01*
X126238095Y-95476190D01*
X126190476Y-95428571D01*
X126095238Y-95380952D01*
G04 #@! TO.C,U66*
X163761904Y-74952380D02*
X163761904Y-75761904D01*
X163809523Y-75857142D01*
X163857142Y-75904761D01*
X163952380Y-75952380D01*
X164142857Y-75952380D01*
X164238095Y-75904761D01*
X164285714Y-75857142D01*
X164333333Y-75761904D01*
X164333333Y-74952380D01*
X165238095Y-74952380D02*
X165047619Y-74952380D01*
X164952380Y-75000000D01*
X164904761Y-75047619D01*
X164809523Y-75190476D01*
X164761904Y-75380952D01*
X164761904Y-75761904D01*
X164809523Y-75857142D01*
X164857142Y-75904761D01*
X164952380Y-75952380D01*
X165142857Y-75952380D01*
X165238095Y-75904761D01*
X165285714Y-75857142D01*
X165333333Y-75761904D01*
X165333333Y-75523809D01*
X165285714Y-75428571D01*
X165238095Y-75380952D01*
X165142857Y-75333333D01*
X164952380Y-75333333D01*
X164857142Y-75380952D01*
X164809523Y-75428571D01*
X164761904Y-75523809D01*
X166190476Y-74952380D02*
X166000000Y-74952380D01*
X165904761Y-75000000D01*
X165857142Y-75047619D01*
X165761904Y-75190476D01*
X165714285Y-75380952D01*
X165714285Y-75761904D01*
X165761904Y-75857142D01*
X165809523Y-75904761D01*
X165904761Y-75952380D01*
X166095238Y-75952380D01*
X166190476Y-75904761D01*
X166238095Y-75857142D01*
X166285714Y-75761904D01*
X166285714Y-75523809D01*
X166238095Y-75428571D01*
X166190476Y-75380952D01*
X166095238Y-75333333D01*
X165904761Y-75333333D01*
X165809523Y-75380952D01*
X165761904Y-75428571D01*
X165714285Y-75523809D01*
G04 #@! TO.C,U65*
X163761904Y-64952380D02*
X163761904Y-65761904D01*
X163809523Y-65857142D01*
X163857142Y-65904761D01*
X163952380Y-65952380D01*
X164142857Y-65952380D01*
X164238095Y-65904761D01*
X164285714Y-65857142D01*
X164333333Y-65761904D01*
X164333333Y-64952380D01*
X165238095Y-64952380D02*
X165047619Y-64952380D01*
X164952380Y-65000000D01*
X164904761Y-65047619D01*
X164809523Y-65190476D01*
X164761904Y-65380952D01*
X164761904Y-65761904D01*
X164809523Y-65857142D01*
X164857142Y-65904761D01*
X164952380Y-65952380D01*
X165142857Y-65952380D01*
X165238095Y-65904761D01*
X165285714Y-65857142D01*
X165333333Y-65761904D01*
X165333333Y-65523809D01*
X165285714Y-65428571D01*
X165238095Y-65380952D01*
X165142857Y-65333333D01*
X164952380Y-65333333D01*
X164857142Y-65380952D01*
X164809523Y-65428571D01*
X164761904Y-65523809D01*
X166238095Y-64952380D02*
X165761904Y-64952380D01*
X165714285Y-65428571D01*
X165761904Y-65380952D01*
X165857142Y-65333333D01*
X166095238Y-65333333D01*
X166190476Y-65380952D01*
X166238095Y-65428571D01*
X166285714Y-65523809D01*
X166285714Y-65761904D01*
X166238095Y-65857142D01*
X166190476Y-65904761D01*
X166095238Y-65952380D01*
X165857142Y-65952380D01*
X165761904Y-65904761D01*
X165714285Y-65857142D01*
G04 #@! TO.C,U64*
X163761904Y-54952380D02*
X163761904Y-55761904D01*
X163809523Y-55857142D01*
X163857142Y-55904761D01*
X163952380Y-55952380D01*
X164142857Y-55952380D01*
X164238095Y-55904761D01*
X164285714Y-55857142D01*
X164333333Y-55761904D01*
X164333333Y-54952380D01*
X165238095Y-54952380D02*
X165047619Y-54952380D01*
X164952380Y-55000000D01*
X164904761Y-55047619D01*
X164809523Y-55190476D01*
X164761904Y-55380952D01*
X164761904Y-55761904D01*
X164809523Y-55857142D01*
X164857142Y-55904761D01*
X164952380Y-55952380D01*
X165142857Y-55952380D01*
X165238095Y-55904761D01*
X165285714Y-55857142D01*
X165333333Y-55761904D01*
X165333333Y-55523809D01*
X165285714Y-55428571D01*
X165238095Y-55380952D01*
X165142857Y-55333333D01*
X164952380Y-55333333D01*
X164857142Y-55380952D01*
X164809523Y-55428571D01*
X164761904Y-55523809D01*
X166190476Y-55285714D02*
X166190476Y-55952380D01*
X165952380Y-54904761D02*
X165714285Y-55619047D01*
X166333333Y-55619047D01*
G04 #@! TO.C,U63*
X153761904Y-144952380D02*
X153761904Y-145761904D01*
X153809523Y-145857142D01*
X153857142Y-145904761D01*
X153952380Y-145952380D01*
X154142857Y-145952380D01*
X154238095Y-145904761D01*
X154285714Y-145857142D01*
X154333333Y-145761904D01*
X154333333Y-144952380D01*
X155238095Y-144952380D02*
X155047619Y-144952380D01*
X154952380Y-145000000D01*
X154904761Y-145047619D01*
X154809523Y-145190476D01*
X154761904Y-145380952D01*
X154761904Y-145761904D01*
X154809523Y-145857142D01*
X154857142Y-145904761D01*
X154952380Y-145952380D01*
X155142857Y-145952380D01*
X155238095Y-145904761D01*
X155285714Y-145857142D01*
X155333333Y-145761904D01*
X155333333Y-145523809D01*
X155285714Y-145428571D01*
X155238095Y-145380952D01*
X155142857Y-145333333D01*
X154952380Y-145333333D01*
X154857142Y-145380952D01*
X154809523Y-145428571D01*
X154761904Y-145523809D01*
X155666666Y-144952380D02*
X156285714Y-144952380D01*
X155952380Y-145333333D01*
X156095238Y-145333333D01*
X156190476Y-145380952D01*
X156238095Y-145428571D01*
X156285714Y-145523809D01*
X156285714Y-145761904D01*
X156238095Y-145857142D01*
X156190476Y-145904761D01*
X156095238Y-145952380D01*
X155809523Y-145952380D01*
X155714285Y-145904761D01*
X155666666Y-145857142D01*
G04 #@! TO.C,U62*
X153761904Y-134952380D02*
X153761904Y-135761904D01*
X153809523Y-135857142D01*
X153857142Y-135904761D01*
X153952380Y-135952380D01*
X154142857Y-135952380D01*
X154238095Y-135904761D01*
X154285714Y-135857142D01*
X154333333Y-135761904D01*
X154333333Y-134952380D01*
X155238095Y-134952380D02*
X155047619Y-134952380D01*
X154952380Y-135000000D01*
X154904761Y-135047619D01*
X154809523Y-135190476D01*
X154761904Y-135380952D01*
X154761904Y-135761904D01*
X154809523Y-135857142D01*
X154857142Y-135904761D01*
X154952380Y-135952380D01*
X155142857Y-135952380D01*
X155238095Y-135904761D01*
X155285714Y-135857142D01*
X155333333Y-135761904D01*
X155333333Y-135523809D01*
X155285714Y-135428571D01*
X155238095Y-135380952D01*
X155142857Y-135333333D01*
X154952380Y-135333333D01*
X154857142Y-135380952D01*
X154809523Y-135428571D01*
X154761904Y-135523809D01*
X155714285Y-135047619D02*
X155761904Y-135000000D01*
X155857142Y-134952380D01*
X156095238Y-134952380D01*
X156190476Y-135000000D01*
X156238095Y-135047619D01*
X156285714Y-135142857D01*
X156285714Y-135238095D01*
X156238095Y-135380952D01*
X155666666Y-135952380D01*
X156285714Y-135952380D01*
G04 #@! TO.C,U61*
X153761904Y-124952380D02*
X153761904Y-125761904D01*
X153809523Y-125857142D01*
X153857142Y-125904761D01*
X153952380Y-125952380D01*
X154142857Y-125952380D01*
X154238095Y-125904761D01*
X154285714Y-125857142D01*
X154333333Y-125761904D01*
X154333333Y-124952380D01*
X155238095Y-124952380D02*
X155047619Y-124952380D01*
X154952380Y-125000000D01*
X154904761Y-125047619D01*
X154809523Y-125190476D01*
X154761904Y-125380952D01*
X154761904Y-125761904D01*
X154809523Y-125857142D01*
X154857142Y-125904761D01*
X154952380Y-125952380D01*
X155142857Y-125952380D01*
X155238095Y-125904761D01*
X155285714Y-125857142D01*
X155333333Y-125761904D01*
X155333333Y-125523809D01*
X155285714Y-125428571D01*
X155238095Y-125380952D01*
X155142857Y-125333333D01*
X154952380Y-125333333D01*
X154857142Y-125380952D01*
X154809523Y-125428571D01*
X154761904Y-125523809D01*
X156285714Y-125952380D02*
X155714285Y-125952380D01*
X156000000Y-125952380D02*
X156000000Y-124952380D01*
X155904761Y-125095238D01*
X155809523Y-125190476D01*
X155714285Y-125238095D01*
G04 #@! TO.C,U60*
X153761904Y-114952380D02*
X153761904Y-115761904D01*
X153809523Y-115857142D01*
X153857142Y-115904761D01*
X153952380Y-115952380D01*
X154142857Y-115952380D01*
X154238095Y-115904761D01*
X154285714Y-115857142D01*
X154333333Y-115761904D01*
X154333333Y-114952380D01*
X155238095Y-114952380D02*
X155047619Y-114952380D01*
X154952380Y-115000000D01*
X154904761Y-115047619D01*
X154809523Y-115190476D01*
X154761904Y-115380952D01*
X154761904Y-115761904D01*
X154809523Y-115857142D01*
X154857142Y-115904761D01*
X154952380Y-115952380D01*
X155142857Y-115952380D01*
X155238095Y-115904761D01*
X155285714Y-115857142D01*
X155333333Y-115761904D01*
X155333333Y-115523809D01*
X155285714Y-115428571D01*
X155238095Y-115380952D01*
X155142857Y-115333333D01*
X154952380Y-115333333D01*
X154857142Y-115380952D01*
X154809523Y-115428571D01*
X154761904Y-115523809D01*
X155952380Y-114952380D02*
X156047619Y-114952380D01*
X156142857Y-115000000D01*
X156190476Y-115047619D01*
X156238095Y-115142857D01*
X156285714Y-115333333D01*
X156285714Y-115571428D01*
X156238095Y-115761904D01*
X156190476Y-115857142D01*
X156142857Y-115904761D01*
X156047619Y-115952380D01*
X155952380Y-115952380D01*
X155857142Y-115904761D01*
X155809523Y-115857142D01*
X155761904Y-115761904D01*
X155714285Y-115571428D01*
X155714285Y-115333333D01*
X155761904Y-115142857D01*
X155809523Y-115047619D01*
X155857142Y-115000000D01*
X155952380Y-114952380D01*
G04 #@! TO.C,U59*
X153761904Y-104952380D02*
X153761904Y-105761904D01*
X153809523Y-105857142D01*
X153857142Y-105904761D01*
X153952380Y-105952380D01*
X154142857Y-105952380D01*
X154238095Y-105904761D01*
X154285714Y-105857142D01*
X154333333Y-105761904D01*
X154333333Y-104952380D01*
X155285714Y-104952380D02*
X154809523Y-104952380D01*
X154761904Y-105428571D01*
X154809523Y-105380952D01*
X154904761Y-105333333D01*
X155142857Y-105333333D01*
X155238095Y-105380952D01*
X155285714Y-105428571D01*
X155333333Y-105523809D01*
X155333333Y-105761904D01*
X155285714Y-105857142D01*
X155238095Y-105904761D01*
X155142857Y-105952380D01*
X154904761Y-105952380D01*
X154809523Y-105904761D01*
X154761904Y-105857142D01*
X155809523Y-105952380D02*
X156000000Y-105952380D01*
X156095238Y-105904761D01*
X156142857Y-105857142D01*
X156238095Y-105714285D01*
X156285714Y-105523809D01*
X156285714Y-105142857D01*
X156238095Y-105047619D01*
X156190476Y-105000000D01*
X156095238Y-104952380D01*
X155904761Y-104952380D01*
X155809523Y-105000000D01*
X155761904Y-105047619D01*
X155714285Y-105142857D01*
X155714285Y-105380952D01*
X155761904Y-105476190D01*
X155809523Y-105523809D01*
X155904761Y-105571428D01*
X156095238Y-105571428D01*
X156190476Y-105523809D01*
X156238095Y-105476190D01*
X156285714Y-105380952D01*
G04 #@! TO.C,U58*
X153761904Y-94952380D02*
X153761904Y-95761904D01*
X153809523Y-95857142D01*
X153857142Y-95904761D01*
X153952380Y-95952380D01*
X154142857Y-95952380D01*
X154238095Y-95904761D01*
X154285714Y-95857142D01*
X154333333Y-95761904D01*
X154333333Y-94952380D01*
X155285714Y-94952380D02*
X154809523Y-94952380D01*
X154761904Y-95428571D01*
X154809523Y-95380952D01*
X154904761Y-95333333D01*
X155142857Y-95333333D01*
X155238095Y-95380952D01*
X155285714Y-95428571D01*
X155333333Y-95523809D01*
X155333333Y-95761904D01*
X155285714Y-95857142D01*
X155238095Y-95904761D01*
X155142857Y-95952380D01*
X154904761Y-95952380D01*
X154809523Y-95904761D01*
X154761904Y-95857142D01*
X155904761Y-95380952D02*
X155809523Y-95333333D01*
X155761904Y-95285714D01*
X155714285Y-95190476D01*
X155714285Y-95142857D01*
X155761904Y-95047619D01*
X155809523Y-95000000D01*
X155904761Y-94952380D01*
X156095238Y-94952380D01*
X156190476Y-95000000D01*
X156238095Y-95047619D01*
X156285714Y-95142857D01*
X156285714Y-95190476D01*
X156238095Y-95285714D01*
X156190476Y-95333333D01*
X156095238Y-95380952D01*
X155904761Y-95380952D01*
X155809523Y-95428571D01*
X155761904Y-95476190D01*
X155714285Y-95571428D01*
X155714285Y-95761904D01*
X155761904Y-95857142D01*
X155809523Y-95904761D01*
X155904761Y-95952380D01*
X156095238Y-95952380D01*
X156190476Y-95904761D01*
X156238095Y-95857142D01*
X156285714Y-95761904D01*
X156285714Y-95571428D01*
X156238095Y-95476190D01*
X156190476Y-95428571D01*
X156095238Y-95380952D01*
G04 #@! TO.C,U57*
X153761904Y-84952380D02*
X153761904Y-85761904D01*
X153809523Y-85857142D01*
X153857142Y-85904761D01*
X153952380Y-85952380D01*
X154142857Y-85952380D01*
X154238095Y-85904761D01*
X154285714Y-85857142D01*
X154333333Y-85761904D01*
X154333333Y-84952380D01*
X155285714Y-84952380D02*
X154809523Y-84952380D01*
X154761904Y-85428571D01*
X154809523Y-85380952D01*
X154904761Y-85333333D01*
X155142857Y-85333333D01*
X155238095Y-85380952D01*
X155285714Y-85428571D01*
X155333333Y-85523809D01*
X155333333Y-85761904D01*
X155285714Y-85857142D01*
X155238095Y-85904761D01*
X155142857Y-85952380D01*
X154904761Y-85952380D01*
X154809523Y-85904761D01*
X154761904Y-85857142D01*
X155666666Y-84952380D02*
X156333333Y-84952380D01*
X155904761Y-85952380D01*
G04 #@! TO.C,U55*
X153761904Y-64952380D02*
X153761904Y-65761904D01*
X153809523Y-65857142D01*
X153857142Y-65904761D01*
X153952380Y-65952380D01*
X154142857Y-65952380D01*
X154238095Y-65904761D01*
X154285714Y-65857142D01*
X154333333Y-65761904D01*
X154333333Y-64952380D01*
X155285714Y-64952380D02*
X154809523Y-64952380D01*
X154761904Y-65428571D01*
X154809523Y-65380952D01*
X154904761Y-65333333D01*
X155142857Y-65333333D01*
X155238095Y-65380952D01*
X155285714Y-65428571D01*
X155333333Y-65523809D01*
X155333333Y-65761904D01*
X155285714Y-65857142D01*
X155238095Y-65904761D01*
X155142857Y-65952380D01*
X154904761Y-65952380D01*
X154809523Y-65904761D01*
X154761904Y-65857142D01*
X156238095Y-64952380D02*
X155761904Y-64952380D01*
X155714285Y-65428571D01*
X155761904Y-65380952D01*
X155857142Y-65333333D01*
X156095238Y-65333333D01*
X156190476Y-65380952D01*
X156238095Y-65428571D01*
X156285714Y-65523809D01*
X156285714Y-65761904D01*
X156238095Y-65857142D01*
X156190476Y-65904761D01*
X156095238Y-65952380D01*
X155857142Y-65952380D01*
X155761904Y-65904761D01*
X155714285Y-65857142D01*
G04 #@! TO.C,U67*
X163761904Y-84952380D02*
X163761904Y-85761904D01*
X163809523Y-85857142D01*
X163857142Y-85904761D01*
X163952380Y-85952380D01*
X164142857Y-85952380D01*
X164238095Y-85904761D01*
X164285714Y-85857142D01*
X164333333Y-85761904D01*
X164333333Y-84952380D01*
X165238095Y-84952380D02*
X165047619Y-84952380D01*
X164952380Y-85000000D01*
X164904761Y-85047619D01*
X164809523Y-85190476D01*
X164761904Y-85380952D01*
X164761904Y-85761904D01*
X164809523Y-85857142D01*
X164857142Y-85904761D01*
X164952380Y-85952380D01*
X165142857Y-85952380D01*
X165238095Y-85904761D01*
X165285714Y-85857142D01*
X165333333Y-85761904D01*
X165333333Y-85523809D01*
X165285714Y-85428571D01*
X165238095Y-85380952D01*
X165142857Y-85333333D01*
X164952380Y-85333333D01*
X164857142Y-85380952D01*
X164809523Y-85428571D01*
X164761904Y-85523809D01*
X165666666Y-84952380D02*
X166333333Y-84952380D01*
X165904761Y-85952380D01*
G04 #@! TO.C,U79*
X173761904Y-104952380D02*
X173761904Y-105761904D01*
X173809523Y-105857142D01*
X173857142Y-105904761D01*
X173952380Y-105952380D01*
X174142857Y-105952380D01*
X174238095Y-105904761D01*
X174285714Y-105857142D01*
X174333333Y-105761904D01*
X174333333Y-104952380D01*
X174714285Y-104952380D02*
X175380952Y-104952380D01*
X174952380Y-105952380D01*
X175809523Y-105952380D02*
X176000000Y-105952380D01*
X176095238Y-105904761D01*
X176142857Y-105857142D01*
X176238095Y-105714285D01*
X176285714Y-105523809D01*
X176285714Y-105142857D01*
X176238095Y-105047619D01*
X176190476Y-105000000D01*
X176095238Y-104952380D01*
X175904761Y-104952380D01*
X175809523Y-105000000D01*
X175761904Y-105047619D01*
X175714285Y-105142857D01*
X175714285Y-105380952D01*
X175761904Y-105476190D01*
X175809523Y-105523809D01*
X175904761Y-105571428D01*
X176095238Y-105571428D01*
X176190476Y-105523809D01*
X176238095Y-105476190D01*
X176285714Y-105380952D01*
G04 #@! TO.C,U41*
X133761904Y-124952380D02*
X133761904Y-125761904D01*
X133809523Y-125857142D01*
X133857142Y-125904761D01*
X133952380Y-125952380D01*
X134142857Y-125952380D01*
X134238095Y-125904761D01*
X134285714Y-125857142D01*
X134333333Y-125761904D01*
X134333333Y-124952380D01*
X135238095Y-125285714D02*
X135238095Y-125952380D01*
X135000000Y-124904761D02*
X134761904Y-125619047D01*
X135380952Y-125619047D01*
X136285714Y-125952380D02*
X135714285Y-125952380D01*
X136000000Y-125952380D02*
X136000000Y-124952380D01*
X135904761Y-125095238D01*
X135809523Y-125190476D01*
X135714285Y-125238095D01*
G04 #@! TO.C,U52*
X143761904Y-134952380D02*
X143761904Y-135761904D01*
X143809523Y-135857142D01*
X143857142Y-135904761D01*
X143952380Y-135952380D01*
X144142857Y-135952380D01*
X144238095Y-135904761D01*
X144285714Y-135857142D01*
X144333333Y-135761904D01*
X144333333Y-134952380D01*
X145285714Y-134952380D02*
X144809523Y-134952380D01*
X144761904Y-135428571D01*
X144809523Y-135380952D01*
X144904761Y-135333333D01*
X145142857Y-135333333D01*
X145238095Y-135380952D01*
X145285714Y-135428571D01*
X145333333Y-135523809D01*
X145333333Y-135761904D01*
X145285714Y-135857142D01*
X145238095Y-135904761D01*
X145142857Y-135952380D01*
X144904761Y-135952380D01*
X144809523Y-135904761D01*
X144761904Y-135857142D01*
X145714285Y-135047619D02*
X145761904Y-135000000D01*
X145857142Y-134952380D01*
X146095238Y-134952380D01*
X146190476Y-135000000D01*
X146238095Y-135047619D01*
X146285714Y-135142857D01*
X146285714Y-135238095D01*
X146238095Y-135380952D01*
X145666666Y-135952380D01*
X146285714Y-135952380D01*
G04 #@! TO.C,U51*
X143761904Y-124952380D02*
X143761904Y-125761904D01*
X143809523Y-125857142D01*
X143857142Y-125904761D01*
X143952380Y-125952380D01*
X144142857Y-125952380D01*
X144238095Y-125904761D01*
X144285714Y-125857142D01*
X144333333Y-125761904D01*
X144333333Y-124952380D01*
X145285714Y-124952380D02*
X144809523Y-124952380D01*
X144761904Y-125428571D01*
X144809523Y-125380952D01*
X144904761Y-125333333D01*
X145142857Y-125333333D01*
X145238095Y-125380952D01*
X145285714Y-125428571D01*
X145333333Y-125523809D01*
X145333333Y-125761904D01*
X145285714Y-125857142D01*
X145238095Y-125904761D01*
X145142857Y-125952380D01*
X144904761Y-125952380D01*
X144809523Y-125904761D01*
X144761904Y-125857142D01*
X146285714Y-125952380D02*
X145714285Y-125952380D01*
X146000000Y-125952380D02*
X146000000Y-124952380D01*
X145904761Y-125095238D01*
X145809523Y-125190476D01*
X145714285Y-125238095D01*
G04 #@! TO.C,U50*
X143761904Y-114952380D02*
X143761904Y-115761904D01*
X143809523Y-115857142D01*
X143857142Y-115904761D01*
X143952380Y-115952380D01*
X144142857Y-115952380D01*
X144238095Y-115904761D01*
X144285714Y-115857142D01*
X144333333Y-115761904D01*
X144333333Y-114952380D01*
X145285714Y-114952380D02*
X144809523Y-114952380D01*
X144761904Y-115428571D01*
X144809523Y-115380952D01*
X144904761Y-115333333D01*
X145142857Y-115333333D01*
X145238095Y-115380952D01*
X145285714Y-115428571D01*
X145333333Y-115523809D01*
X145333333Y-115761904D01*
X145285714Y-115857142D01*
X145238095Y-115904761D01*
X145142857Y-115952380D01*
X144904761Y-115952380D01*
X144809523Y-115904761D01*
X144761904Y-115857142D01*
X145952380Y-114952380D02*
X146047619Y-114952380D01*
X146142857Y-115000000D01*
X146190476Y-115047619D01*
X146238095Y-115142857D01*
X146285714Y-115333333D01*
X146285714Y-115571428D01*
X146238095Y-115761904D01*
X146190476Y-115857142D01*
X146142857Y-115904761D01*
X146047619Y-115952380D01*
X145952380Y-115952380D01*
X145857142Y-115904761D01*
X145809523Y-115857142D01*
X145761904Y-115761904D01*
X145714285Y-115571428D01*
X145714285Y-115333333D01*
X145761904Y-115142857D01*
X145809523Y-115047619D01*
X145857142Y-115000000D01*
X145952380Y-114952380D01*
G04 #@! TO.C,U49*
X143761904Y-104952380D02*
X143761904Y-105761904D01*
X143809523Y-105857142D01*
X143857142Y-105904761D01*
X143952380Y-105952380D01*
X144142857Y-105952380D01*
X144238095Y-105904761D01*
X144285714Y-105857142D01*
X144333333Y-105761904D01*
X144333333Y-104952380D01*
X145238095Y-105285714D02*
X145238095Y-105952380D01*
X145000000Y-104904761D02*
X144761904Y-105619047D01*
X145380952Y-105619047D01*
X145809523Y-105952380D02*
X146000000Y-105952380D01*
X146095238Y-105904761D01*
X146142857Y-105857142D01*
X146238095Y-105714285D01*
X146285714Y-105523809D01*
X146285714Y-105142857D01*
X146238095Y-105047619D01*
X146190476Y-105000000D01*
X146095238Y-104952380D01*
X145904761Y-104952380D01*
X145809523Y-105000000D01*
X145761904Y-105047619D01*
X145714285Y-105142857D01*
X145714285Y-105380952D01*
X145761904Y-105476190D01*
X145809523Y-105523809D01*
X145904761Y-105571428D01*
X146095238Y-105571428D01*
X146190476Y-105523809D01*
X146238095Y-105476190D01*
X146285714Y-105380952D01*
G04 #@! TO.C,U48*
X143761904Y-94952380D02*
X143761904Y-95761904D01*
X143809523Y-95857142D01*
X143857142Y-95904761D01*
X143952380Y-95952380D01*
X144142857Y-95952380D01*
X144238095Y-95904761D01*
X144285714Y-95857142D01*
X144333333Y-95761904D01*
X144333333Y-94952380D01*
X145238095Y-95285714D02*
X145238095Y-95952380D01*
X145000000Y-94904761D02*
X144761904Y-95619047D01*
X145380952Y-95619047D01*
X145904761Y-95380952D02*
X145809523Y-95333333D01*
X145761904Y-95285714D01*
X145714285Y-95190476D01*
X145714285Y-95142857D01*
X145761904Y-95047619D01*
X145809523Y-95000000D01*
X145904761Y-94952380D01*
X146095238Y-94952380D01*
X146190476Y-95000000D01*
X146238095Y-95047619D01*
X146285714Y-95142857D01*
X146285714Y-95190476D01*
X146238095Y-95285714D01*
X146190476Y-95333333D01*
X146095238Y-95380952D01*
X145904761Y-95380952D01*
X145809523Y-95428571D01*
X145761904Y-95476190D01*
X145714285Y-95571428D01*
X145714285Y-95761904D01*
X145761904Y-95857142D01*
X145809523Y-95904761D01*
X145904761Y-95952380D01*
X146095238Y-95952380D01*
X146190476Y-95904761D01*
X146238095Y-95857142D01*
X146285714Y-95761904D01*
X146285714Y-95571428D01*
X146238095Y-95476190D01*
X146190476Y-95428571D01*
X146095238Y-95380952D01*
G04 #@! TO.C,U47*
X143761904Y-84952380D02*
X143761904Y-85761904D01*
X143809523Y-85857142D01*
X143857142Y-85904761D01*
X143952380Y-85952380D01*
X144142857Y-85952380D01*
X144238095Y-85904761D01*
X144285714Y-85857142D01*
X144333333Y-85761904D01*
X144333333Y-84952380D01*
X145238095Y-85285714D02*
X145238095Y-85952380D01*
X145000000Y-84904761D02*
X144761904Y-85619047D01*
X145380952Y-85619047D01*
X145666666Y-84952380D02*
X146333333Y-84952380D01*
X145904761Y-85952380D01*
G04 #@! TO.C,U46*
X143761904Y-74952380D02*
X143761904Y-75761904D01*
X143809523Y-75857142D01*
X143857142Y-75904761D01*
X143952380Y-75952380D01*
X144142857Y-75952380D01*
X144238095Y-75904761D01*
X144285714Y-75857142D01*
X144333333Y-75761904D01*
X144333333Y-74952380D01*
X145238095Y-75285714D02*
X145238095Y-75952380D01*
X145000000Y-74904761D02*
X144761904Y-75619047D01*
X145380952Y-75619047D01*
X146190476Y-74952380D02*
X146000000Y-74952380D01*
X145904761Y-75000000D01*
X145857142Y-75047619D01*
X145761904Y-75190476D01*
X145714285Y-75380952D01*
X145714285Y-75761904D01*
X145761904Y-75857142D01*
X145809523Y-75904761D01*
X145904761Y-75952380D01*
X146095238Y-75952380D01*
X146190476Y-75904761D01*
X146238095Y-75857142D01*
X146285714Y-75761904D01*
X146285714Y-75523809D01*
X146238095Y-75428571D01*
X146190476Y-75380952D01*
X146095238Y-75333333D01*
X145904761Y-75333333D01*
X145809523Y-75380952D01*
X145761904Y-75428571D01*
X145714285Y-75523809D01*
G04 #@! TO.C,U45*
X143761904Y-64952380D02*
X143761904Y-65761904D01*
X143809523Y-65857142D01*
X143857142Y-65904761D01*
X143952380Y-65952380D01*
X144142857Y-65952380D01*
X144238095Y-65904761D01*
X144285714Y-65857142D01*
X144333333Y-65761904D01*
X144333333Y-64952380D01*
X145238095Y-65285714D02*
X145238095Y-65952380D01*
X145000000Y-64904761D02*
X144761904Y-65619047D01*
X145380952Y-65619047D01*
X146238095Y-64952380D02*
X145761904Y-64952380D01*
X145714285Y-65428571D01*
X145761904Y-65380952D01*
X145857142Y-65333333D01*
X146095238Y-65333333D01*
X146190476Y-65380952D01*
X146238095Y-65428571D01*
X146285714Y-65523809D01*
X146285714Y-65761904D01*
X146238095Y-65857142D01*
X146190476Y-65904761D01*
X146095238Y-65952380D01*
X145857142Y-65952380D01*
X145761904Y-65904761D01*
X145714285Y-65857142D01*
G04 #@! TO.C,U44*
X143761904Y-54952380D02*
X143761904Y-55761904D01*
X143809523Y-55857142D01*
X143857142Y-55904761D01*
X143952380Y-55952380D01*
X144142857Y-55952380D01*
X144238095Y-55904761D01*
X144285714Y-55857142D01*
X144333333Y-55761904D01*
X144333333Y-54952380D01*
X145238095Y-55285714D02*
X145238095Y-55952380D01*
X145000000Y-54904761D02*
X144761904Y-55619047D01*
X145380952Y-55619047D01*
X146190476Y-55285714D02*
X146190476Y-55952380D01*
X145952380Y-54904761D02*
X145714285Y-55619047D01*
X146333333Y-55619047D01*
G04 #@! TO.C,U43*
X133761904Y-144952380D02*
X133761904Y-145761904D01*
X133809523Y-145857142D01*
X133857142Y-145904761D01*
X133952380Y-145952380D01*
X134142857Y-145952380D01*
X134238095Y-145904761D01*
X134285714Y-145857142D01*
X134333333Y-145761904D01*
X134333333Y-144952380D01*
X135238095Y-145285714D02*
X135238095Y-145952380D01*
X135000000Y-144904761D02*
X134761904Y-145619047D01*
X135380952Y-145619047D01*
X135666666Y-144952380D02*
X136285714Y-144952380D01*
X135952380Y-145333333D01*
X136095238Y-145333333D01*
X136190476Y-145380952D01*
X136238095Y-145428571D01*
X136285714Y-145523809D01*
X136285714Y-145761904D01*
X136238095Y-145857142D01*
X136190476Y-145904761D01*
X136095238Y-145952380D01*
X135809523Y-145952380D01*
X135714285Y-145904761D01*
X135666666Y-145857142D01*
G04 #@! TO.C,U42*
X133761904Y-134952380D02*
X133761904Y-135761904D01*
X133809523Y-135857142D01*
X133857142Y-135904761D01*
X133952380Y-135952380D01*
X134142857Y-135952380D01*
X134238095Y-135904761D01*
X134285714Y-135857142D01*
X134333333Y-135761904D01*
X134333333Y-134952380D01*
X135238095Y-135285714D02*
X135238095Y-135952380D01*
X135000000Y-134904761D02*
X134761904Y-135619047D01*
X135380952Y-135619047D01*
X135714285Y-135047619D02*
X135761904Y-135000000D01*
X135857142Y-134952380D01*
X136095238Y-134952380D01*
X136190476Y-135000000D01*
X136238095Y-135047619D01*
X136285714Y-135142857D01*
X136285714Y-135238095D01*
X136238095Y-135380952D01*
X135666666Y-135952380D01*
X136285714Y-135952380D01*
G04 #@! TO.C,U56*
X153761904Y-74952380D02*
X153761904Y-75761904D01*
X153809523Y-75857142D01*
X153857142Y-75904761D01*
X153952380Y-75952380D01*
X154142857Y-75952380D01*
X154238095Y-75904761D01*
X154285714Y-75857142D01*
X154333333Y-75761904D01*
X154333333Y-74952380D01*
X155285714Y-74952380D02*
X154809523Y-74952380D01*
X154761904Y-75428571D01*
X154809523Y-75380952D01*
X154904761Y-75333333D01*
X155142857Y-75333333D01*
X155238095Y-75380952D01*
X155285714Y-75428571D01*
X155333333Y-75523809D01*
X155333333Y-75761904D01*
X155285714Y-75857142D01*
X155238095Y-75904761D01*
X155142857Y-75952380D01*
X154904761Y-75952380D01*
X154809523Y-75904761D01*
X154761904Y-75857142D01*
X156190476Y-74952380D02*
X156000000Y-74952380D01*
X155904761Y-75000000D01*
X155857142Y-75047619D01*
X155761904Y-75190476D01*
X155714285Y-75380952D01*
X155714285Y-75761904D01*
X155761904Y-75857142D01*
X155809523Y-75904761D01*
X155904761Y-75952380D01*
X156095238Y-75952380D01*
X156190476Y-75904761D01*
X156238095Y-75857142D01*
X156285714Y-75761904D01*
X156285714Y-75523809D01*
X156238095Y-75428571D01*
X156190476Y-75380952D01*
X156095238Y-75333333D01*
X155904761Y-75333333D01*
X155809523Y-75380952D01*
X155761904Y-75428571D01*
X155714285Y-75523809D01*
G04 #@! TO.C,U40*
X133761904Y-114952380D02*
X133761904Y-115761904D01*
X133809523Y-115857142D01*
X133857142Y-115904761D01*
X133952380Y-115952380D01*
X134142857Y-115952380D01*
X134238095Y-115904761D01*
X134285714Y-115857142D01*
X134333333Y-115761904D01*
X134333333Y-114952380D01*
X135238095Y-115285714D02*
X135238095Y-115952380D01*
X135000000Y-114904761D02*
X134761904Y-115619047D01*
X135380952Y-115619047D01*
X135952380Y-114952380D02*
X136047619Y-114952380D01*
X136142857Y-115000000D01*
X136190476Y-115047619D01*
X136238095Y-115142857D01*
X136285714Y-115333333D01*
X136285714Y-115571428D01*
X136238095Y-115761904D01*
X136190476Y-115857142D01*
X136142857Y-115904761D01*
X136047619Y-115952380D01*
X135952380Y-115952380D01*
X135857142Y-115904761D01*
X135809523Y-115857142D01*
X135761904Y-115761904D01*
X135714285Y-115571428D01*
X135714285Y-115333333D01*
X135761904Y-115142857D01*
X135809523Y-115047619D01*
X135857142Y-115000000D01*
X135952380Y-114952380D01*
G04 #@! TO.C,U39*
X133761904Y-104952380D02*
X133761904Y-105761904D01*
X133809523Y-105857142D01*
X133857142Y-105904761D01*
X133952380Y-105952380D01*
X134142857Y-105952380D01*
X134238095Y-105904761D01*
X134285714Y-105857142D01*
X134333333Y-105761904D01*
X134333333Y-104952380D01*
X134714285Y-104952380D02*
X135333333Y-104952380D01*
X135000000Y-105333333D01*
X135142857Y-105333333D01*
X135238095Y-105380952D01*
X135285714Y-105428571D01*
X135333333Y-105523809D01*
X135333333Y-105761904D01*
X135285714Y-105857142D01*
X135238095Y-105904761D01*
X135142857Y-105952380D01*
X134857142Y-105952380D01*
X134761904Y-105904761D01*
X134714285Y-105857142D01*
X135809523Y-105952380D02*
X136000000Y-105952380D01*
X136095238Y-105904761D01*
X136142857Y-105857142D01*
X136238095Y-105714285D01*
X136285714Y-105523809D01*
X136285714Y-105142857D01*
X136238095Y-105047619D01*
X136190476Y-105000000D01*
X136095238Y-104952380D01*
X135904761Y-104952380D01*
X135809523Y-105000000D01*
X135761904Y-105047619D01*
X135714285Y-105142857D01*
X135714285Y-105380952D01*
X135761904Y-105476190D01*
X135809523Y-105523809D01*
X135904761Y-105571428D01*
X136095238Y-105571428D01*
X136190476Y-105523809D01*
X136238095Y-105476190D01*
X136285714Y-105380952D01*
G04 #@! TO.C,U38*
X133761904Y-94952380D02*
X133761904Y-95761904D01*
X133809523Y-95857142D01*
X133857142Y-95904761D01*
X133952380Y-95952380D01*
X134142857Y-95952380D01*
X134238095Y-95904761D01*
X134285714Y-95857142D01*
X134333333Y-95761904D01*
X134333333Y-94952380D01*
X134714285Y-94952380D02*
X135333333Y-94952380D01*
X135000000Y-95333333D01*
X135142857Y-95333333D01*
X135238095Y-95380952D01*
X135285714Y-95428571D01*
X135333333Y-95523809D01*
X135333333Y-95761904D01*
X135285714Y-95857142D01*
X135238095Y-95904761D01*
X135142857Y-95952380D01*
X134857142Y-95952380D01*
X134761904Y-95904761D01*
X134714285Y-95857142D01*
X135904761Y-95380952D02*
X135809523Y-95333333D01*
X135761904Y-95285714D01*
X135714285Y-95190476D01*
X135714285Y-95142857D01*
X135761904Y-95047619D01*
X135809523Y-95000000D01*
X135904761Y-94952380D01*
X136095238Y-94952380D01*
X136190476Y-95000000D01*
X136238095Y-95047619D01*
X136285714Y-95142857D01*
X136285714Y-95190476D01*
X136238095Y-95285714D01*
X136190476Y-95333333D01*
X136095238Y-95380952D01*
X135904761Y-95380952D01*
X135809523Y-95428571D01*
X135761904Y-95476190D01*
X135714285Y-95571428D01*
X135714285Y-95761904D01*
X135761904Y-95857142D01*
X135809523Y-95904761D01*
X135904761Y-95952380D01*
X136095238Y-95952380D01*
X136190476Y-95904761D01*
X136238095Y-95857142D01*
X136285714Y-95761904D01*
X136285714Y-95571428D01*
X136238095Y-95476190D01*
X136190476Y-95428571D01*
X136095238Y-95380952D01*
G04 #@! TO.C,U37*
X133761904Y-84952380D02*
X133761904Y-85761904D01*
X133809523Y-85857142D01*
X133857142Y-85904761D01*
X133952380Y-85952380D01*
X134142857Y-85952380D01*
X134238095Y-85904761D01*
X134285714Y-85857142D01*
X134333333Y-85761904D01*
X134333333Y-84952380D01*
X134714285Y-84952380D02*
X135333333Y-84952380D01*
X135000000Y-85333333D01*
X135142857Y-85333333D01*
X135238095Y-85380952D01*
X135285714Y-85428571D01*
X135333333Y-85523809D01*
X135333333Y-85761904D01*
X135285714Y-85857142D01*
X135238095Y-85904761D01*
X135142857Y-85952380D01*
X134857142Y-85952380D01*
X134761904Y-85904761D01*
X134714285Y-85857142D01*
X135666666Y-84952380D02*
X136333333Y-84952380D01*
X135904761Y-85952380D01*
G04 #@! TO.C,U36*
X133761904Y-74952380D02*
X133761904Y-75761904D01*
X133809523Y-75857142D01*
X133857142Y-75904761D01*
X133952380Y-75952380D01*
X134142857Y-75952380D01*
X134238095Y-75904761D01*
X134285714Y-75857142D01*
X134333333Y-75761904D01*
X134333333Y-74952380D01*
X134714285Y-74952380D02*
X135333333Y-74952380D01*
X135000000Y-75333333D01*
X135142857Y-75333333D01*
X135238095Y-75380952D01*
X135285714Y-75428571D01*
X135333333Y-75523809D01*
X135333333Y-75761904D01*
X135285714Y-75857142D01*
X135238095Y-75904761D01*
X135142857Y-75952380D01*
X134857142Y-75952380D01*
X134761904Y-75904761D01*
X134714285Y-75857142D01*
X136190476Y-74952380D02*
X136000000Y-74952380D01*
X135904761Y-75000000D01*
X135857142Y-75047619D01*
X135761904Y-75190476D01*
X135714285Y-75380952D01*
X135714285Y-75761904D01*
X135761904Y-75857142D01*
X135809523Y-75904761D01*
X135904761Y-75952380D01*
X136095238Y-75952380D01*
X136190476Y-75904761D01*
X136238095Y-75857142D01*
X136285714Y-75761904D01*
X136285714Y-75523809D01*
X136238095Y-75428571D01*
X136190476Y-75380952D01*
X136095238Y-75333333D01*
X135904761Y-75333333D01*
X135809523Y-75380952D01*
X135761904Y-75428571D01*
X135714285Y-75523809D01*
G04 #@! TO.C,U35*
X133761904Y-64952380D02*
X133761904Y-65761904D01*
X133809523Y-65857142D01*
X133857142Y-65904761D01*
X133952380Y-65952380D01*
X134142857Y-65952380D01*
X134238095Y-65904761D01*
X134285714Y-65857142D01*
X134333333Y-65761904D01*
X134333333Y-64952380D01*
X134714285Y-64952380D02*
X135333333Y-64952380D01*
X135000000Y-65333333D01*
X135142857Y-65333333D01*
X135238095Y-65380952D01*
X135285714Y-65428571D01*
X135333333Y-65523809D01*
X135333333Y-65761904D01*
X135285714Y-65857142D01*
X135238095Y-65904761D01*
X135142857Y-65952380D01*
X134857142Y-65952380D01*
X134761904Y-65904761D01*
X134714285Y-65857142D01*
X136238095Y-64952380D02*
X135761904Y-64952380D01*
X135714285Y-65428571D01*
X135761904Y-65380952D01*
X135857142Y-65333333D01*
X136095238Y-65333333D01*
X136190476Y-65380952D01*
X136238095Y-65428571D01*
X136285714Y-65523809D01*
X136285714Y-65761904D01*
X136238095Y-65857142D01*
X136190476Y-65904761D01*
X136095238Y-65952380D01*
X135857142Y-65952380D01*
X135761904Y-65904761D01*
X135714285Y-65857142D01*
G04 #@! TO.C,U34*
X133761904Y-54952380D02*
X133761904Y-55761904D01*
X133809523Y-55857142D01*
X133857142Y-55904761D01*
X133952380Y-55952380D01*
X134142857Y-55952380D01*
X134238095Y-55904761D01*
X134285714Y-55857142D01*
X134333333Y-55761904D01*
X134333333Y-54952380D01*
X134714285Y-54952380D02*
X135333333Y-54952380D01*
X135000000Y-55333333D01*
X135142857Y-55333333D01*
X135238095Y-55380952D01*
X135285714Y-55428571D01*
X135333333Y-55523809D01*
X135333333Y-55761904D01*
X135285714Y-55857142D01*
X135238095Y-55904761D01*
X135142857Y-55952380D01*
X134857142Y-55952380D01*
X134761904Y-55904761D01*
X134714285Y-55857142D01*
X136190476Y-55285714D02*
X136190476Y-55952380D01*
X135952380Y-54904761D02*
X135714285Y-55619047D01*
X136333333Y-55619047D01*
G04 #@! TO.C,U33*
X123761904Y-144952380D02*
X123761904Y-145761904D01*
X123809523Y-145857142D01*
X123857142Y-145904761D01*
X123952380Y-145952380D01*
X124142857Y-145952380D01*
X124238095Y-145904761D01*
X124285714Y-145857142D01*
X124333333Y-145761904D01*
X124333333Y-144952380D01*
X124714285Y-144952380D02*
X125333333Y-144952380D01*
X125000000Y-145333333D01*
X125142857Y-145333333D01*
X125238095Y-145380952D01*
X125285714Y-145428571D01*
X125333333Y-145523809D01*
X125333333Y-145761904D01*
X125285714Y-145857142D01*
X125238095Y-145904761D01*
X125142857Y-145952380D01*
X124857142Y-145952380D01*
X124761904Y-145904761D01*
X124714285Y-145857142D01*
X125666666Y-144952380D02*
X126285714Y-144952380D01*
X125952380Y-145333333D01*
X126095238Y-145333333D01*
X126190476Y-145380952D01*
X126238095Y-145428571D01*
X126285714Y-145523809D01*
X126285714Y-145761904D01*
X126238095Y-145857142D01*
X126190476Y-145904761D01*
X126095238Y-145952380D01*
X125809523Y-145952380D01*
X125714285Y-145904761D01*
X125666666Y-145857142D01*
G04 #@! TO.C,U31*
X123761904Y-124952380D02*
X123761904Y-125761904D01*
X123809523Y-125857142D01*
X123857142Y-125904761D01*
X123952380Y-125952380D01*
X124142857Y-125952380D01*
X124238095Y-125904761D01*
X124285714Y-125857142D01*
X124333333Y-125761904D01*
X124333333Y-124952380D01*
X124714285Y-124952380D02*
X125333333Y-124952380D01*
X125000000Y-125333333D01*
X125142857Y-125333333D01*
X125238095Y-125380952D01*
X125285714Y-125428571D01*
X125333333Y-125523809D01*
X125333333Y-125761904D01*
X125285714Y-125857142D01*
X125238095Y-125904761D01*
X125142857Y-125952380D01*
X124857142Y-125952380D01*
X124761904Y-125904761D01*
X124714285Y-125857142D01*
X126285714Y-125952380D02*
X125714285Y-125952380D01*
X126000000Y-125952380D02*
X126000000Y-124952380D01*
X125904761Y-125095238D01*
X125809523Y-125190476D01*
X125714285Y-125238095D01*
G04 #@! TO.C,U30*
X123761904Y-114952380D02*
X123761904Y-115761904D01*
X123809523Y-115857142D01*
X123857142Y-115904761D01*
X123952380Y-115952380D01*
X124142857Y-115952380D01*
X124238095Y-115904761D01*
X124285714Y-115857142D01*
X124333333Y-115761904D01*
X124333333Y-114952380D01*
X124714285Y-114952380D02*
X125333333Y-114952380D01*
X125000000Y-115333333D01*
X125142857Y-115333333D01*
X125238095Y-115380952D01*
X125285714Y-115428571D01*
X125333333Y-115523809D01*
X125333333Y-115761904D01*
X125285714Y-115857142D01*
X125238095Y-115904761D01*
X125142857Y-115952380D01*
X124857142Y-115952380D01*
X124761904Y-115904761D01*
X124714285Y-115857142D01*
X125952380Y-114952380D02*
X126047619Y-114952380D01*
X126142857Y-115000000D01*
X126190476Y-115047619D01*
X126238095Y-115142857D01*
X126285714Y-115333333D01*
X126285714Y-115571428D01*
X126238095Y-115761904D01*
X126190476Y-115857142D01*
X126142857Y-115904761D01*
X126047619Y-115952380D01*
X125952380Y-115952380D01*
X125857142Y-115904761D01*
X125809523Y-115857142D01*
X125761904Y-115761904D01*
X125714285Y-115571428D01*
X125714285Y-115333333D01*
X125761904Y-115142857D01*
X125809523Y-115047619D01*
X125857142Y-115000000D01*
X125952380Y-114952380D01*
G04 #@! TO.C,U29*
X123761904Y-104952380D02*
X123761904Y-105761904D01*
X123809523Y-105857142D01*
X123857142Y-105904761D01*
X123952380Y-105952380D01*
X124142857Y-105952380D01*
X124238095Y-105904761D01*
X124285714Y-105857142D01*
X124333333Y-105761904D01*
X124333333Y-104952380D01*
X124761904Y-105047619D02*
X124809523Y-105000000D01*
X124904761Y-104952380D01*
X125142857Y-104952380D01*
X125238095Y-105000000D01*
X125285714Y-105047619D01*
X125333333Y-105142857D01*
X125333333Y-105238095D01*
X125285714Y-105380952D01*
X124714285Y-105952380D01*
X125333333Y-105952380D01*
X125809523Y-105952380D02*
X126000000Y-105952380D01*
X126095238Y-105904761D01*
X126142857Y-105857142D01*
X126238095Y-105714285D01*
X126285714Y-105523809D01*
X126285714Y-105142857D01*
X126238095Y-105047619D01*
X126190476Y-105000000D01*
X126095238Y-104952380D01*
X125904761Y-104952380D01*
X125809523Y-105000000D01*
X125761904Y-105047619D01*
X125714285Y-105142857D01*
X125714285Y-105380952D01*
X125761904Y-105476190D01*
X125809523Y-105523809D01*
X125904761Y-105571428D01*
X126095238Y-105571428D01*
X126190476Y-105523809D01*
X126238095Y-105476190D01*
X126285714Y-105380952D01*
G04 #@! TO.C,U54*
X153761904Y-54952380D02*
X153761904Y-55761904D01*
X153809523Y-55857142D01*
X153857142Y-55904761D01*
X153952380Y-55952380D01*
X154142857Y-55952380D01*
X154238095Y-55904761D01*
X154285714Y-55857142D01*
X154333333Y-55761904D01*
X154333333Y-54952380D01*
X155285714Y-54952380D02*
X154809523Y-54952380D01*
X154761904Y-55428571D01*
X154809523Y-55380952D01*
X154904761Y-55333333D01*
X155142857Y-55333333D01*
X155238095Y-55380952D01*
X155285714Y-55428571D01*
X155333333Y-55523809D01*
X155333333Y-55761904D01*
X155285714Y-55857142D01*
X155238095Y-55904761D01*
X155142857Y-55952380D01*
X154904761Y-55952380D01*
X154809523Y-55904761D01*
X154761904Y-55857142D01*
X156190476Y-55285714D02*
X156190476Y-55952380D01*
X155952380Y-54904761D02*
X155714285Y-55619047D01*
X156333333Y-55619047D01*
G04 #@! TO.C,U15*
X113761904Y-64952380D02*
X113761904Y-65761904D01*
X113809523Y-65857142D01*
X113857142Y-65904761D01*
X113952380Y-65952380D01*
X114142857Y-65952380D01*
X114238095Y-65904761D01*
X114285714Y-65857142D01*
X114333333Y-65761904D01*
X114333333Y-64952380D01*
X115333333Y-65952380D02*
X114761904Y-65952380D01*
X115047619Y-65952380D02*
X115047619Y-64952380D01*
X114952380Y-65095238D01*
X114857142Y-65190476D01*
X114761904Y-65238095D01*
X116238095Y-64952380D02*
X115761904Y-64952380D01*
X115714285Y-65428571D01*
X115761904Y-65380952D01*
X115857142Y-65333333D01*
X116095238Y-65333333D01*
X116190476Y-65380952D01*
X116238095Y-65428571D01*
X116285714Y-65523809D01*
X116285714Y-65761904D01*
X116238095Y-65857142D01*
X116190476Y-65904761D01*
X116095238Y-65952380D01*
X115857142Y-65952380D01*
X115761904Y-65904761D01*
X115714285Y-65857142D01*
G04 #@! TO.C,U27*
X123761904Y-84952380D02*
X123761904Y-85761904D01*
X123809523Y-85857142D01*
X123857142Y-85904761D01*
X123952380Y-85952380D01*
X124142857Y-85952380D01*
X124238095Y-85904761D01*
X124285714Y-85857142D01*
X124333333Y-85761904D01*
X124333333Y-84952380D01*
X124761904Y-85047619D02*
X124809523Y-85000000D01*
X124904761Y-84952380D01*
X125142857Y-84952380D01*
X125238095Y-85000000D01*
X125285714Y-85047619D01*
X125333333Y-85142857D01*
X125333333Y-85238095D01*
X125285714Y-85380952D01*
X124714285Y-85952380D01*
X125333333Y-85952380D01*
X125666666Y-84952380D02*
X126333333Y-84952380D01*
X125904761Y-85952380D01*
G04 #@! TO.C,U26*
X123761904Y-74952380D02*
X123761904Y-75761904D01*
X123809523Y-75857142D01*
X123857142Y-75904761D01*
X123952380Y-75952380D01*
X124142857Y-75952380D01*
X124238095Y-75904761D01*
X124285714Y-75857142D01*
X124333333Y-75761904D01*
X124333333Y-74952380D01*
X124761904Y-75047619D02*
X124809523Y-75000000D01*
X124904761Y-74952380D01*
X125142857Y-74952380D01*
X125238095Y-75000000D01*
X125285714Y-75047619D01*
X125333333Y-75142857D01*
X125333333Y-75238095D01*
X125285714Y-75380952D01*
X124714285Y-75952380D01*
X125333333Y-75952380D01*
X126190476Y-74952380D02*
X126000000Y-74952380D01*
X125904761Y-75000000D01*
X125857142Y-75047619D01*
X125761904Y-75190476D01*
X125714285Y-75380952D01*
X125714285Y-75761904D01*
X125761904Y-75857142D01*
X125809523Y-75904761D01*
X125904761Y-75952380D01*
X126095238Y-75952380D01*
X126190476Y-75904761D01*
X126238095Y-75857142D01*
X126285714Y-75761904D01*
X126285714Y-75523809D01*
X126238095Y-75428571D01*
X126190476Y-75380952D01*
X126095238Y-75333333D01*
X125904761Y-75333333D01*
X125809523Y-75380952D01*
X125761904Y-75428571D01*
X125714285Y-75523809D01*
G04 #@! TO.C,U25*
X123761904Y-64952380D02*
X123761904Y-65761904D01*
X123809523Y-65857142D01*
X123857142Y-65904761D01*
X123952380Y-65952380D01*
X124142857Y-65952380D01*
X124238095Y-65904761D01*
X124285714Y-65857142D01*
X124333333Y-65761904D01*
X124333333Y-64952380D01*
X124761904Y-65047619D02*
X124809523Y-65000000D01*
X124904761Y-64952380D01*
X125142857Y-64952380D01*
X125238095Y-65000000D01*
X125285714Y-65047619D01*
X125333333Y-65142857D01*
X125333333Y-65238095D01*
X125285714Y-65380952D01*
X124714285Y-65952380D01*
X125333333Y-65952380D01*
X126238095Y-64952380D02*
X125761904Y-64952380D01*
X125714285Y-65428571D01*
X125761904Y-65380952D01*
X125857142Y-65333333D01*
X126095238Y-65333333D01*
X126190476Y-65380952D01*
X126238095Y-65428571D01*
X126285714Y-65523809D01*
X126285714Y-65761904D01*
X126238095Y-65857142D01*
X126190476Y-65904761D01*
X126095238Y-65952380D01*
X125857142Y-65952380D01*
X125761904Y-65904761D01*
X125714285Y-65857142D01*
G04 #@! TO.C,U24*
X123761904Y-54952380D02*
X123761904Y-55761904D01*
X123809523Y-55857142D01*
X123857142Y-55904761D01*
X123952380Y-55952380D01*
X124142857Y-55952380D01*
X124238095Y-55904761D01*
X124285714Y-55857142D01*
X124333333Y-55761904D01*
X124333333Y-54952380D01*
X124761904Y-55047619D02*
X124809523Y-55000000D01*
X124904761Y-54952380D01*
X125142857Y-54952380D01*
X125238095Y-55000000D01*
X125285714Y-55047619D01*
X125333333Y-55142857D01*
X125333333Y-55238095D01*
X125285714Y-55380952D01*
X124714285Y-55952380D01*
X125333333Y-55952380D01*
X126190476Y-55285714D02*
X126190476Y-55952380D01*
X125952380Y-54904761D02*
X125714285Y-55619047D01*
X126333333Y-55619047D01*
G04 #@! TO.C,U23*
X113761904Y-144952380D02*
X113761904Y-145761904D01*
X113809523Y-145857142D01*
X113857142Y-145904761D01*
X113952380Y-145952380D01*
X114142857Y-145952380D01*
X114238095Y-145904761D01*
X114285714Y-145857142D01*
X114333333Y-145761904D01*
X114333333Y-144952380D01*
X114761904Y-145047619D02*
X114809523Y-145000000D01*
X114904761Y-144952380D01*
X115142857Y-144952380D01*
X115238095Y-145000000D01*
X115285714Y-145047619D01*
X115333333Y-145142857D01*
X115333333Y-145238095D01*
X115285714Y-145380952D01*
X114714285Y-145952380D01*
X115333333Y-145952380D01*
X115666666Y-144952380D02*
X116285714Y-144952380D01*
X115952380Y-145333333D01*
X116095238Y-145333333D01*
X116190476Y-145380952D01*
X116238095Y-145428571D01*
X116285714Y-145523809D01*
X116285714Y-145761904D01*
X116238095Y-145857142D01*
X116190476Y-145904761D01*
X116095238Y-145952380D01*
X115809523Y-145952380D01*
X115714285Y-145904761D01*
X115666666Y-145857142D01*
G04 #@! TO.C,U22*
X113761904Y-134952380D02*
X113761904Y-135761904D01*
X113809523Y-135857142D01*
X113857142Y-135904761D01*
X113952380Y-135952380D01*
X114142857Y-135952380D01*
X114238095Y-135904761D01*
X114285714Y-135857142D01*
X114333333Y-135761904D01*
X114333333Y-134952380D01*
X114761904Y-135047619D02*
X114809523Y-135000000D01*
X114904761Y-134952380D01*
X115142857Y-134952380D01*
X115238095Y-135000000D01*
X115285714Y-135047619D01*
X115333333Y-135142857D01*
X115333333Y-135238095D01*
X115285714Y-135380952D01*
X114714285Y-135952380D01*
X115333333Y-135952380D01*
X115714285Y-135047619D02*
X115761904Y-135000000D01*
X115857142Y-134952380D01*
X116095238Y-134952380D01*
X116190476Y-135000000D01*
X116238095Y-135047619D01*
X116285714Y-135142857D01*
X116285714Y-135238095D01*
X116238095Y-135380952D01*
X115666666Y-135952380D01*
X116285714Y-135952380D01*
G04 #@! TO.C,U21*
X113761904Y-124952380D02*
X113761904Y-125761904D01*
X113809523Y-125857142D01*
X113857142Y-125904761D01*
X113952380Y-125952380D01*
X114142857Y-125952380D01*
X114238095Y-125904761D01*
X114285714Y-125857142D01*
X114333333Y-125761904D01*
X114333333Y-124952380D01*
X114761904Y-125047619D02*
X114809523Y-125000000D01*
X114904761Y-124952380D01*
X115142857Y-124952380D01*
X115238095Y-125000000D01*
X115285714Y-125047619D01*
X115333333Y-125142857D01*
X115333333Y-125238095D01*
X115285714Y-125380952D01*
X114714285Y-125952380D01*
X115333333Y-125952380D01*
X116285714Y-125952380D02*
X115714285Y-125952380D01*
X116000000Y-125952380D02*
X116000000Y-124952380D01*
X115904761Y-125095238D01*
X115809523Y-125190476D01*
X115714285Y-125238095D01*
G04 #@! TO.C,U20*
X113761904Y-114952380D02*
X113761904Y-115761904D01*
X113809523Y-115857142D01*
X113857142Y-115904761D01*
X113952380Y-115952380D01*
X114142857Y-115952380D01*
X114238095Y-115904761D01*
X114285714Y-115857142D01*
X114333333Y-115761904D01*
X114333333Y-114952380D01*
X114761904Y-115047619D02*
X114809523Y-115000000D01*
X114904761Y-114952380D01*
X115142857Y-114952380D01*
X115238095Y-115000000D01*
X115285714Y-115047619D01*
X115333333Y-115142857D01*
X115333333Y-115238095D01*
X115285714Y-115380952D01*
X114714285Y-115952380D01*
X115333333Y-115952380D01*
X115952380Y-114952380D02*
X116047619Y-114952380D01*
X116142857Y-115000000D01*
X116190476Y-115047619D01*
X116238095Y-115142857D01*
X116285714Y-115333333D01*
X116285714Y-115571428D01*
X116238095Y-115761904D01*
X116190476Y-115857142D01*
X116142857Y-115904761D01*
X116047619Y-115952380D01*
X115952380Y-115952380D01*
X115857142Y-115904761D01*
X115809523Y-115857142D01*
X115761904Y-115761904D01*
X115714285Y-115571428D01*
X115714285Y-115333333D01*
X115761904Y-115142857D01*
X115809523Y-115047619D01*
X115857142Y-115000000D01*
X115952380Y-114952380D01*
G04 #@! TO.C,U19*
X113761904Y-104952380D02*
X113761904Y-105761904D01*
X113809523Y-105857142D01*
X113857142Y-105904761D01*
X113952380Y-105952380D01*
X114142857Y-105952380D01*
X114238095Y-105904761D01*
X114285714Y-105857142D01*
X114333333Y-105761904D01*
X114333333Y-104952380D01*
X115333333Y-105952380D02*
X114761904Y-105952380D01*
X115047619Y-105952380D02*
X115047619Y-104952380D01*
X114952380Y-105095238D01*
X114857142Y-105190476D01*
X114761904Y-105238095D01*
X115809523Y-105952380D02*
X116000000Y-105952380D01*
X116095238Y-105904761D01*
X116142857Y-105857142D01*
X116238095Y-105714285D01*
X116285714Y-105523809D01*
X116285714Y-105142857D01*
X116238095Y-105047619D01*
X116190476Y-105000000D01*
X116095238Y-104952380D01*
X115904761Y-104952380D01*
X115809523Y-105000000D01*
X115761904Y-105047619D01*
X115714285Y-105142857D01*
X115714285Y-105380952D01*
X115761904Y-105476190D01*
X115809523Y-105523809D01*
X115904761Y-105571428D01*
X116095238Y-105571428D01*
X116190476Y-105523809D01*
X116238095Y-105476190D01*
X116285714Y-105380952D01*
G04 #@! TO.C,U18*
X113761904Y-94952380D02*
X113761904Y-95761904D01*
X113809523Y-95857142D01*
X113857142Y-95904761D01*
X113952380Y-95952380D01*
X114142857Y-95952380D01*
X114238095Y-95904761D01*
X114285714Y-95857142D01*
X114333333Y-95761904D01*
X114333333Y-94952380D01*
X115333333Y-95952380D02*
X114761904Y-95952380D01*
X115047619Y-95952380D02*
X115047619Y-94952380D01*
X114952380Y-95095238D01*
X114857142Y-95190476D01*
X114761904Y-95238095D01*
X115904761Y-95380952D02*
X115809523Y-95333333D01*
X115761904Y-95285714D01*
X115714285Y-95190476D01*
X115714285Y-95142857D01*
X115761904Y-95047619D01*
X115809523Y-95000000D01*
X115904761Y-94952380D01*
X116095238Y-94952380D01*
X116190476Y-95000000D01*
X116238095Y-95047619D01*
X116285714Y-95142857D01*
X116285714Y-95190476D01*
X116238095Y-95285714D01*
X116190476Y-95333333D01*
X116095238Y-95380952D01*
X115904761Y-95380952D01*
X115809523Y-95428571D01*
X115761904Y-95476190D01*
X115714285Y-95571428D01*
X115714285Y-95761904D01*
X115761904Y-95857142D01*
X115809523Y-95904761D01*
X115904761Y-95952380D01*
X116095238Y-95952380D01*
X116190476Y-95904761D01*
X116238095Y-95857142D01*
X116285714Y-95761904D01*
X116285714Y-95571428D01*
X116238095Y-95476190D01*
X116190476Y-95428571D01*
X116095238Y-95380952D01*
G04 #@! TO.C,U53*
X143761904Y-144952380D02*
X143761904Y-145761904D01*
X143809523Y-145857142D01*
X143857142Y-145904761D01*
X143952380Y-145952380D01*
X144142857Y-145952380D01*
X144238095Y-145904761D01*
X144285714Y-145857142D01*
X144333333Y-145761904D01*
X144333333Y-144952380D01*
X145285714Y-144952380D02*
X144809523Y-144952380D01*
X144761904Y-145428571D01*
X144809523Y-145380952D01*
X144904761Y-145333333D01*
X145142857Y-145333333D01*
X145238095Y-145380952D01*
X145285714Y-145428571D01*
X145333333Y-145523809D01*
X145333333Y-145761904D01*
X145285714Y-145857142D01*
X145238095Y-145904761D01*
X145142857Y-145952380D01*
X144904761Y-145952380D01*
X144809523Y-145904761D01*
X144761904Y-145857142D01*
X145666666Y-144952380D02*
X146285714Y-144952380D01*
X145952380Y-145333333D01*
X146095238Y-145333333D01*
X146190476Y-145380952D01*
X146238095Y-145428571D01*
X146285714Y-145523809D01*
X146285714Y-145761904D01*
X146238095Y-145857142D01*
X146190476Y-145904761D01*
X146095238Y-145952380D01*
X145809523Y-145952380D01*
X145714285Y-145904761D01*
X145666666Y-145857142D01*
G04 #@! TO.C,U16*
X113761904Y-74952380D02*
X113761904Y-75761904D01*
X113809523Y-75857142D01*
X113857142Y-75904761D01*
X113952380Y-75952380D01*
X114142857Y-75952380D01*
X114238095Y-75904761D01*
X114285714Y-75857142D01*
X114333333Y-75761904D01*
X114333333Y-74952380D01*
X115333333Y-75952380D02*
X114761904Y-75952380D01*
X115047619Y-75952380D02*
X115047619Y-74952380D01*
X114952380Y-75095238D01*
X114857142Y-75190476D01*
X114761904Y-75238095D01*
X116190476Y-74952380D02*
X116000000Y-74952380D01*
X115904761Y-75000000D01*
X115857142Y-75047619D01*
X115761904Y-75190476D01*
X115714285Y-75380952D01*
X115714285Y-75761904D01*
X115761904Y-75857142D01*
X115809523Y-75904761D01*
X115904761Y-75952380D01*
X116095238Y-75952380D01*
X116190476Y-75904761D01*
X116238095Y-75857142D01*
X116285714Y-75761904D01*
X116285714Y-75523809D01*
X116238095Y-75428571D01*
X116190476Y-75380952D01*
X116095238Y-75333333D01*
X115904761Y-75333333D01*
X115809523Y-75380952D01*
X115761904Y-75428571D01*
X115714285Y-75523809D01*
G04 #@! TO.C,U14*
X113761904Y-54952380D02*
X113761904Y-55761904D01*
X113809523Y-55857142D01*
X113857142Y-55904761D01*
X113952380Y-55952380D01*
X114142857Y-55952380D01*
X114238095Y-55904761D01*
X114285714Y-55857142D01*
X114333333Y-55761904D01*
X114333333Y-54952380D01*
X115333333Y-55952380D02*
X114761904Y-55952380D01*
X115047619Y-55952380D02*
X115047619Y-54952380D01*
X114952380Y-55095238D01*
X114857142Y-55190476D01*
X114761904Y-55238095D01*
X116190476Y-55285714D02*
X116190476Y-55952380D01*
X115952380Y-54904761D02*
X115714285Y-55619047D01*
X116333333Y-55619047D01*
G04 #@! TO.C,U13*
X103761904Y-144952380D02*
X103761904Y-145761904D01*
X103809523Y-145857142D01*
X103857142Y-145904761D01*
X103952380Y-145952380D01*
X104142857Y-145952380D01*
X104238095Y-145904761D01*
X104285714Y-145857142D01*
X104333333Y-145761904D01*
X104333333Y-144952380D01*
X105333333Y-145952380D02*
X104761904Y-145952380D01*
X105047619Y-145952380D02*
X105047619Y-144952380D01*
X104952380Y-145095238D01*
X104857142Y-145190476D01*
X104761904Y-145238095D01*
X105666666Y-144952380D02*
X106285714Y-144952380D01*
X105952380Y-145333333D01*
X106095238Y-145333333D01*
X106190476Y-145380952D01*
X106238095Y-145428571D01*
X106285714Y-145523809D01*
X106285714Y-145761904D01*
X106238095Y-145857142D01*
X106190476Y-145904761D01*
X106095238Y-145952380D01*
X105809523Y-145952380D01*
X105714285Y-145904761D01*
X105666666Y-145857142D01*
G04 #@! TO.C,U12*
X103761904Y-134952380D02*
X103761904Y-135761904D01*
X103809523Y-135857142D01*
X103857142Y-135904761D01*
X103952380Y-135952380D01*
X104142857Y-135952380D01*
X104238095Y-135904761D01*
X104285714Y-135857142D01*
X104333333Y-135761904D01*
X104333333Y-134952380D01*
X105333333Y-135952380D02*
X104761904Y-135952380D01*
X105047619Y-135952380D02*
X105047619Y-134952380D01*
X104952380Y-135095238D01*
X104857142Y-135190476D01*
X104761904Y-135238095D01*
X105714285Y-135047619D02*
X105761904Y-135000000D01*
X105857142Y-134952380D01*
X106095238Y-134952380D01*
X106190476Y-135000000D01*
X106238095Y-135047619D01*
X106285714Y-135142857D01*
X106285714Y-135238095D01*
X106238095Y-135380952D01*
X105666666Y-135952380D01*
X106285714Y-135952380D01*
G04 #@! TO.C,U11*
X103761904Y-124952380D02*
X103761904Y-125761904D01*
X103809523Y-125857142D01*
X103857142Y-125904761D01*
X103952380Y-125952380D01*
X104142857Y-125952380D01*
X104238095Y-125904761D01*
X104285714Y-125857142D01*
X104333333Y-125761904D01*
X104333333Y-124952380D01*
X105333333Y-125952380D02*
X104761904Y-125952380D01*
X105047619Y-125952380D02*
X105047619Y-124952380D01*
X104952380Y-125095238D01*
X104857142Y-125190476D01*
X104761904Y-125238095D01*
X106285714Y-125952380D02*
X105714285Y-125952380D01*
X106000000Y-125952380D02*
X106000000Y-124952380D01*
X105904761Y-125095238D01*
X105809523Y-125190476D01*
X105714285Y-125238095D01*
G04 #@! TO.C,U10*
X103761904Y-114952380D02*
X103761904Y-115761904D01*
X103809523Y-115857142D01*
X103857142Y-115904761D01*
X103952380Y-115952380D01*
X104142857Y-115952380D01*
X104238095Y-115904761D01*
X104285714Y-115857142D01*
X104333333Y-115761904D01*
X104333333Y-114952380D01*
X105333333Y-115952380D02*
X104761904Y-115952380D01*
X105047619Y-115952380D02*
X105047619Y-114952380D01*
X104952380Y-115095238D01*
X104857142Y-115190476D01*
X104761904Y-115238095D01*
X105952380Y-114952380D02*
X106047619Y-114952380D01*
X106142857Y-115000000D01*
X106190476Y-115047619D01*
X106238095Y-115142857D01*
X106285714Y-115333333D01*
X106285714Y-115571428D01*
X106238095Y-115761904D01*
X106190476Y-115857142D01*
X106142857Y-115904761D01*
X106047619Y-115952380D01*
X105952380Y-115952380D01*
X105857142Y-115904761D01*
X105809523Y-115857142D01*
X105761904Y-115761904D01*
X105714285Y-115571428D01*
X105714285Y-115333333D01*
X105761904Y-115142857D01*
X105809523Y-115047619D01*
X105857142Y-115000000D01*
X105952380Y-114952380D01*
G04 #@! TO.C,U9*
X104238095Y-104952380D02*
X104238095Y-105761904D01*
X104285714Y-105857142D01*
X104333333Y-105904761D01*
X104428571Y-105952380D01*
X104619047Y-105952380D01*
X104714285Y-105904761D01*
X104761904Y-105857142D01*
X104809523Y-105761904D01*
X104809523Y-104952380D01*
X105333333Y-105952380D02*
X105523809Y-105952380D01*
X105619047Y-105904761D01*
X105666666Y-105857142D01*
X105761904Y-105714285D01*
X105809523Y-105523809D01*
X105809523Y-105142857D01*
X105761904Y-105047619D01*
X105714285Y-105000000D01*
X105619047Y-104952380D01*
X105428571Y-104952380D01*
X105333333Y-105000000D01*
X105285714Y-105047619D01*
X105238095Y-105142857D01*
X105238095Y-105380952D01*
X105285714Y-105476190D01*
X105333333Y-105523809D01*
X105428571Y-105571428D01*
X105619047Y-105571428D01*
X105714285Y-105523809D01*
X105761904Y-105476190D01*
X105809523Y-105380952D01*
G04 #@! TO.C,U8*
X104238095Y-94952380D02*
X104238095Y-95761904D01*
X104285714Y-95857142D01*
X104333333Y-95904761D01*
X104428571Y-95952380D01*
X104619047Y-95952380D01*
X104714285Y-95904761D01*
X104761904Y-95857142D01*
X104809523Y-95761904D01*
X104809523Y-94952380D01*
X105428571Y-95380952D02*
X105333333Y-95333333D01*
X105285714Y-95285714D01*
X105238095Y-95190476D01*
X105238095Y-95142857D01*
X105285714Y-95047619D01*
X105333333Y-95000000D01*
X105428571Y-94952380D01*
X105619047Y-94952380D01*
X105714285Y-95000000D01*
X105761904Y-95047619D01*
X105809523Y-95142857D01*
X105809523Y-95190476D01*
X105761904Y-95285714D01*
X105714285Y-95333333D01*
X105619047Y-95380952D01*
X105428571Y-95380952D01*
X105333333Y-95428571D01*
X105285714Y-95476190D01*
X105238095Y-95571428D01*
X105238095Y-95761904D01*
X105285714Y-95857142D01*
X105333333Y-95904761D01*
X105428571Y-95952380D01*
X105619047Y-95952380D01*
X105714285Y-95904761D01*
X105761904Y-95857142D01*
X105809523Y-95761904D01*
X105809523Y-95571428D01*
X105761904Y-95476190D01*
X105714285Y-95428571D01*
X105619047Y-95380952D01*
G04 #@! TO.C,U6*
X104238095Y-74952380D02*
X104238095Y-75761904D01*
X104285714Y-75857142D01*
X104333333Y-75904761D01*
X104428571Y-75952380D01*
X104619047Y-75952380D01*
X104714285Y-75904761D01*
X104761904Y-75857142D01*
X104809523Y-75761904D01*
X104809523Y-74952380D01*
X105714285Y-74952380D02*
X105523809Y-74952380D01*
X105428571Y-75000000D01*
X105380952Y-75047619D01*
X105285714Y-75190476D01*
X105238095Y-75380952D01*
X105238095Y-75761904D01*
X105285714Y-75857142D01*
X105333333Y-75904761D01*
X105428571Y-75952380D01*
X105619047Y-75952380D01*
X105714285Y-75904761D01*
X105761904Y-75857142D01*
X105809523Y-75761904D01*
X105809523Y-75523809D01*
X105761904Y-75428571D01*
X105714285Y-75380952D01*
X105619047Y-75333333D01*
X105428571Y-75333333D01*
X105333333Y-75380952D01*
X105285714Y-75428571D01*
X105238095Y-75523809D01*
G04 #@! TO.C,U5*
X104238095Y-64952380D02*
X104238095Y-65761904D01*
X104285714Y-65857142D01*
X104333333Y-65904761D01*
X104428571Y-65952380D01*
X104619047Y-65952380D01*
X104714285Y-65904761D01*
X104761904Y-65857142D01*
X104809523Y-65761904D01*
X104809523Y-64952380D01*
X105761904Y-64952380D02*
X105285714Y-64952380D01*
X105238095Y-65428571D01*
X105285714Y-65380952D01*
X105380952Y-65333333D01*
X105619047Y-65333333D01*
X105714285Y-65380952D01*
X105761904Y-65428571D01*
X105809523Y-65523809D01*
X105809523Y-65761904D01*
X105761904Y-65857142D01*
X105714285Y-65904761D01*
X105619047Y-65952380D01*
X105380952Y-65952380D01*
X105285714Y-65904761D01*
X105238095Y-65857142D01*
G04 #@! TO.C,U4*
X104238095Y-54952380D02*
X104238095Y-55761904D01*
X104285714Y-55857142D01*
X104333333Y-55904761D01*
X104428571Y-55952380D01*
X104619047Y-55952380D01*
X104714285Y-55904761D01*
X104761904Y-55857142D01*
X104809523Y-55761904D01*
X104809523Y-54952380D01*
X105714285Y-55285714D02*
X105714285Y-55952380D01*
X105476190Y-54904761D02*
X105238095Y-55619047D01*
X105857142Y-55619047D01*
G04 #@! TO.C,U17*
X113761904Y-84952380D02*
X113761904Y-85761904D01*
X113809523Y-85857142D01*
X113857142Y-85904761D01*
X113952380Y-85952380D01*
X114142857Y-85952380D01*
X114238095Y-85904761D01*
X114285714Y-85857142D01*
X114333333Y-85761904D01*
X114333333Y-84952380D01*
X115333333Y-85952380D02*
X114761904Y-85952380D01*
X115047619Y-85952380D02*
X115047619Y-84952380D01*
X114952380Y-85095238D01*
X114857142Y-85190476D01*
X114761904Y-85238095D01*
X115666666Y-84952380D02*
X116333333Y-84952380D01*
X115904761Y-85952380D01*
G04 #@! TO.C,U91*
X183761904Y-124952380D02*
X183761904Y-125761904D01*
X183809523Y-125857142D01*
X183857142Y-125904761D01*
X183952380Y-125952380D01*
X184142857Y-125952380D01*
X184238095Y-125904761D01*
X184285714Y-125857142D01*
X184333333Y-125761904D01*
X184333333Y-124952380D01*
X184857142Y-125952380D02*
X185047619Y-125952380D01*
X185142857Y-125904761D01*
X185190476Y-125857142D01*
X185285714Y-125714285D01*
X185333333Y-125523809D01*
X185333333Y-125142857D01*
X185285714Y-125047619D01*
X185238095Y-125000000D01*
X185142857Y-124952380D01*
X184952380Y-124952380D01*
X184857142Y-125000000D01*
X184809523Y-125047619D01*
X184761904Y-125142857D01*
X184761904Y-125380952D01*
X184809523Y-125476190D01*
X184857142Y-125523809D01*
X184952380Y-125571428D01*
X185142857Y-125571428D01*
X185238095Y-125523809D01*
X185285714Y-125476190D01*
X185333333Y-125380952D01*
X186285714Y-125952380D02*
X185714285Y-125952380D01*
X186000000Y-125952380D02*
X186000000Y-124952380D01*
X185904761Y-125095238D01*
X185809523Y-125190476D01*
X185714285Y-125238095D01*
G04 #@! TO.C,U80*
X173761904Y-114952380D02*
X173761904Y-115761904D01*
X173809523Y-115857142D01*
X173857142Y-115904761D01*
X173952380Y-115952380D01*
X174142857Y-115952380D01*
X174238095Y-115904761D01*
X174285714Y-115857142D01*
X174333333Y-115761904D01*
X174333333Y-114952380D01*
X174952380Y-115380952D02*
X174857142Y-115333333D01*
X174809523Y-115285714D01*
X174761904Y-115190476D01*
X174761904Y-115142857D01*
X174809523Y-115047619D01*
X174857142Y-115000000D01*
X174952380Y-114952380D01*
X175142857Y-114952380D01*
X175238095Y-115000000D01*
X175285714Y-115047619D01*
X175333333Y-115142857D01*
X175333333Y-115190476D01*
X175285714Y-115285714D01*
X175238095Y-115333333D01*
X175142857Y-115380952D01*
X174952380Y-115380952D01*
X174857142Y-115428571D01*
X174809523Y-115476190D01*
X174761904Y-115571428D01*
X174761904Y-115761904D01*
X174809523Y-115857142D01*
X174857142Y-115904761D01*
X174952380Y-115952380D01*
X175142857Y-115952380D01*
X175238095Y-115904761D01*
X175285714Y-115857142D01*
X175333333Y-115761904D01*
X175333333Y-115571428D01*
X175285714Y-115476190D01*
X175238095Y-115428571D01*
X175142857Y-115380952D01*
X175952380Y-114952380D02*
X176047619Y-114952380D01*
X176142857Y-115000000D01*
X176190476Y-115047619D01*
X176238095Y-115142857D01*
X176285714Y-115333333D01*
X176285714Y-115571428D01*
X176238095Y-115761904D01*
X176190476Y-115857142D01*
X176142857Y-115904761D01*
X176047619Y-115952380D01*
X175952380Y-115952380D01*
X175857142Y-115904761D01*
X175809523Y-115857142D01*
X175761904Y-115761904D01*
X175714285Y-115571428D01*
X175714285Y-115333333D01*
X175761904Y-115142857D01*
X175809523Y-115047619D01*
X175857142Y-115000000D01*
X175952380Y-114952380D01*
G04 #@! TO.C,U81*
X173761904Y-124952380D02*
X173761904Y-125761904D01*
X173809523Y-125857142D01*
X173857142Y-125904761D01*
X173952380Y-125952380D01*
X174142857Y-125952380D01*
X174238095Y-125904761D01*
X174285714Y-125857142D01*
X174333333Y-125761904D01*
X174333333Y-124952380D01*
X174952380Y-125380952D02*
X174857142Y-125333333D01*
X174809523Y-125285714D01*
X174761904Y-125190476D01*
X174761904Y-125142857D01*
X174809523Y-125047619D01*
X174857142Y-125000000D01*
X174952380Y-124952380D01*
X175142857Y-124952380D01*
X175238095Y-125000000D01*
X175285714Y-125047619D01*
X175333333Y-125142857D01*
X175333333Y-125190476D01*
X175285714Y-125285714D01*
X175238095Y-125333333D01*
X175142857Y-125380952D01*
X174952380Y-125380952D01*
X174857142Y-125428571D01*
X174809523Y-125476190D01*
X174761904Y-125571428D01*
X174761904Y-125761904D01*
X174809523Y-125857142D01*
X174857142Y-125904761D01*
X174952380Y-125952380D01*
X175142857Y-125952380D01*
X175238095Y-125904761D01*
X175285714Y-125857142D01*
X175333333Y-125761904D01*
X175333333Y-125571428D01*
X175285714Y-125476190D01*
X175238095Y-125428571D01*
X175142857Y-125380952D01*
X176285714Y-125952380D02*
X175714285Y-125952380D01*
X176000000Y-125952380D02*
X176000000Y-124952380D01*
X175904761Y-125095238D01*
X175809523Y-125190476D01*
X175714285Y-125238095D01*
G04 #@! TO.C,U82*
X173761904Y-134952380D02*
X173761904Y-135761904D01*
X173809523Y-135857142D01*
X173857142Y-135904761D01*
X173952380Y-135952380D01*
X174142857Y-135952380D01*
X174238095Y-135904761D01*
X174285714Y-135857142D01*
X174333333Y-135761904D01*
X174333333Y-134952380D01*
X174952380Y-135380952D02*
X174857142Y-135333333D01*
X174809523Y-135285714D01*
X174761904Y-135190476D01*
X174761904Y-135142857D01*
X174809523Y-135047619D01*
X174857142Y-135000000D01*
X174952380Y-134952380D01*
X175142857Y-134952380D01*
X175238095Y-135000000D01*
X175285714Y-135047619D01*
X175333333Y-135142857D01*
X175333333Y-135190476D01*
X175285714Y-135285714D01*
X175238095Y-135333333D01*
X175142857Y-135380952D01*
X174952380Y-135380952D01*
X174857142Y-135428571D01*
X174809523Y-135476190D01*
X174761904Y-135571428D01*
X174761904Y-135761904D01*
X174809523Y-135857142D01*
X174857142Y-135904761D01*
X174952380Y-135952380D01*
X175142857Y-135952380D01*
X175238095Y-135904761D01*
X175285714Y-135857142D01*
X175333333Y-135761904D01*
X175333333Y-135571428D01*
X175285714Y-135476190D01*
X175238095Y-135428571D01*
X175142857Y-135380952D01*
X175714285Y-135047619D02*
X175761904Y-135000000D01*
X175857142Y-134952380D01*
X176095238Y-134952380D01*
X176190476Y-135000000D01*
X176238095Y-135047619D01*
X176285714Y-135142857D01*
X176285714Y-135238095D01*
X176238095Y-135380952D01*
X175666666Y-135952380D01*
X176285714Y-135952380D01*
G04 #@! TO.C,U83*
X173761904Y-144952380D02*
X173761904Y-145761904D01*
X173809523Y-145857142D01*
X173857142Y-145904761D01*
X173952380Y-145952380D01*
X174142857Y-145952380D01*
X174238095Y-145904761D01*
X174285714Y-145857142D01*
X174333333Y-145761904D01*
X174333333Y-144952380D01*
X174952380Y-145380952D02*
X174857142Y-145333333D01*
X174809523Y-145285714D01*
X174761904Y-145190476D01*
X174761904Y-145142857D01*
X174809523Y-145047619D01*
X174857142Y-145000000D01*
X174952380Y-144952380D01*
X175142857Y-144952380D01*
X175238095Y-145000000D01*
X175285714Y-145047619D01*
X175333333Y-145142857D01*
X175333333Y-145190476D01*
X175285714Y-145285714D01*
X175238095Y-145333333D01*
X175142857Y-145380952D01*
X174952380Y-145380952D01*
X174857142Y-145428571D01*
X174809523Y-145476190D01*
X174761904Y-145571428D01*
X174761904Y-145761904D01*
X174809523Y-145857142D01*
X174857142Y-145904761D01*
X174952380Y-145952380D01*
X175142857Y-145952380D01*
X175238095Y-145904761D01*
X175285714Y-145857142D01*
X175333333Y-145761904D01*
X175333333Y-145571428D01*
X175285714Y-145476190D01*
X175238095Y-145428571D01*
X175142857Y-145380952D01*
X175666666Y-144952380D02*
X176285714Y-144952380D01*
X175952380Y-145333333D01*
X176095238Y-145333333D01*
X176190476Y-145380952D01*
X176238095Y-145428571D01*
X176285714Y-145523809D01*
X176285714Y-145761904D01*
X176238095Y-145857142D01*
X176190476Y-145904761D01*
X176095238Y-145952380D01*
X175809523Y-145952380D01*
X175714285Y-145904761D01*
X175666666Y-145857142D01*
G04 #@! TO.C,U84*
X183761904Y-54952380D02*
X183761904Y-55761904D01*
X183809523Y-55857142D01*
X183857142Y-55904761D01*
X183952380Y-55952380D01*
X184142857Y-55952380D01*
X184238095Y-55904761D01*
X184285714Y-55857142D01*
X184333333Y-55761904D01*
X184333333Y-54952380D01*
X184952380Y-55380952D02*
X184857142Y-55333333D01*
X184809523Y-55285714D01*
X184761904Y-55190476D01*
X184761904Y-55142857D01*
X184809523Y-55047619D01*
X184857142Y-55000000D01*
X184952380Y-54952380D01*
X185142857Y-54952380D01*
X185238095Y-55000000D01*
X185285714Y-55047619D01*
X185333333Y-55142857D01*
X185333333Y-55190476D01*
X185285714Y-55285714D01*
X185238095Y-55333333D01*
X185142857Y-55380952D01*
X184952380Y-55380952D01*
X184857142Y-55428571D01*
X184809523Y-55476190D01*
X184761904Y-55571428D01*
X184761904Y-55761904D01*
X184809523Y-55857142D01*
X184857142Y-55904761D01*
X184952380Y-55952380D01*
X185142857Y-55952380D01*
X185238095Y-55904761D01*
X185285714Y-55857142D01*
X185333333Y-55761904D01*
X185333333Y-55571428D01*
X185285714Y-55476190D01*
X185238095Y-55428571D01*
X185142857Y-55380952D01*
X186190476Y-55285714D02*
X186190476Y-55952380D01*
X185952380Y-54904761D02*
X185714285Y-55619047D01*
X186333333Y-55619047D01*
G04 #@! TO.C,U85*
X183761904Y-64952380D02*
X183761904Y-65761904D01*
X183809523Y-65857142D01*
X183857142Y-65904761D01*
X183952380Y-65952380D01*
X184142857Y-65952380D01*
X184238095Y-65904761D01*
X184285714Y-65857142D01*
X184333333Y-65761904D01*
X184333333Y-64952380D01*
X184952380Y-65380952D02*
X184857142Y-65333333D01*
X184809523Y-65285714D01*
X184761904Y-65190476D01*
X184761904Y-65142857D01*
X184809523Y-65047619D01*
X184857142Y-65000000D01*
X184952380Y-64952380D01*
X185142857Y-64952380D01*
X185238095Y-65000000D01*
X185285714Y-65047619D01*
X185333333Y-65142857D01*
X185333333Y-65190476D01*
X185285714Y-65285714D01*
X185238095Y-65333333D01*
X185142857Y-65380952D01*
X184952380Y-65380952D01*
X184857142Y-65428571D01*
X184809523Y-65476190D01*
X184761904Y-65571428D01*
X184761904Y-65761904D01*
X184809523Y-65857142D01*
X184857142Y-65904761D01*
X184952380Y-65952380D01*
X185142857Y-65952380D01*
X185238095Y-65904761D01*
X185285714Y-65857142D01*
X185333333Y-65761904D01*
X185333333Y-65571428D01*
X185285714Y-65476190D01*
X185238095Y-65428571D01*
X185142857Y-65380952D01*
X186238095Y-64952380D02*
X185761904Y-64952380D01*
X185714285Y-65428571D01*
X185761904Y-65380952D01*
X185857142Y-65333333D01*
X186095238Y-65333333D01*
X186190476Y-65380952D01*
X186238095Y-65428571D01*
X186285714Y-65523809D01*
X186285714Y-65761904D01*
X186238095Y-65857142D01*
X186190476Y-65904761D01*
X186095238Y-65952380D01*
X185857142Y-65952380D01*
X185761904Y-65904761D01*
X185714285Y-65857142D01*
G04 #@! TO.C,U86*
X183761904Y-74952380D02*
X183761904Y-75761904D01*
X183809523Y-75857142D01*
X183857142Y-75904761D01*
X183952380Y-75952380D01*
X184142857Y-75952380D01*
X184238095Y-75904761D01*
X184285714Y-75857142D01*
X184333333Y-75761904D01*
X184333333Y-74952380D01*
X184952380Y-75380952D02*
X184857142Y-75333333D01*
X184809523Y-75285714D01*
X184761904Y-75190476D01*
X184761904Y-75142857D01*
X184809523Y-75047619D01*
X184857142Y-75000000D01*
X184952380Y-74952380D01*
X185142857Y-74952380D01*
X185238095Y-75000000D01*
X185285714Y-75047619D01*
X185333333Y-75142857D01*
X185333333Y-75190476D01*
X185285714Y-75285714D01*
X185238095Y-75333333D01*
X185142857Y-75380952D01*
X184952380Y-75380952D01*
X184857142Y-75428571D01*
X184809523Y-75476190D01*
X184761904Y-75571428D01*
X184761904Y-75761904D01*
X184809523Y-75857142D01*
X184857142Y-75904761D01*
X184952380Y-75952380D01*
X185142857Y-75952380D01*
X185238095Y-75904761D01*
X185285714Y-75857142D01*
X185333333Y-75761904D01*
X185333333Y-75571428D01*
X185285714Y-75476190D01*
X185238095Y-75428571D01*
X185142857Y-75380952D01*
X186190476Y-74952380D02*
X186000000Y-74952380D01*
X185904761Y-75000000D01*
X185857142Y-75047619D01*
X185761904Y-75190476D01*
X185714285Y-75380952D01*
X185714285Y-75761904D01*
X185761904Y-75857142D01*
X185809523Y-75904761D01*
X185904761Y-75952380D01*
X186095238Y-75952380D01*
X186190476Y-75904761D01*
X186238095Y-75857142D01*
X186285714Y-75761904D01*
X186285714Y-75523809D01*
X186238095Y-75428571D01*
X186190476Y-75380952D01*
X186095238Y-75333333D01*
X185904761Y-75333333D01*
X185809523Y-75380952D01*
X185761904Y-75428571D01*
X185714285Y-75523809D01*
G04 #@! TO.C,U87*
X183761904Y-84952380D02*
X183761904Y-85761904D01*
X183809523Y-85857142D01*
X183857142Y-85904761D01*
X183952380Y-85952380D01*
X184142857Y-85952380D01*
X184238095Y-85904761D01*
X184285714Y-85857142D01*
X184333333Y-85761904D01*
X184333333Y-84952380D01*
X184952380Y-85380952D02*
X184857142Y-85333333D01*
X184809523Y-85285714D01*
X184761904Y-85190476D01*
X184761904Y-85142857D01*
X184809523Y-85047619D01*
X184857142Y-85000000D01*
X184952380Y-84952380D01*
X185142857Y-84952380D01*
X185238095Y-85000000D01*
X185285714Y-85047619D01*
X185333333Y-85142857D01*
X185333333Y-85190476D01*
X185285714Y-85285714D01*
X185238095Y-85333333D01*
X185142857Y-85380952D01*
X184952380Y-85380952D01*
X184857142Y-85428571D01*
X184809523Y-85476190D01*
X184761904Y-85571428D01*
X184761904Y-85761904D01*
X184809523Y-85857142D01*
X184857142Y-85904761D01*
X184952380Y-85952380D01*
X185142857Y-85952380D01*
X185238095Y-85904761D01*
X185285714Y-85857142D01*
X185333333Y-85761904D01*
X185333333Y-85571428D01*
X185285714Y-85476190D01*
X185238095Y-85428571D01*
X185142857Y-85380952D01*
X185666666Y-84952380D02*
X186333333Y-84952380D01*
X185904761Y-85952380D01*
G04 #@! TO.C,U88*
X183761904Y-94952380D02*
X183761904Y-95761904D01*
X183809523Y-95857142D01*
X183857142Y-95904761D01*
X183952380Y-95952380D01*
X184142857Y-95952380D01*
X184238095Y-95904761D01*
X184285714Y-95857142D01*
X184333333Y-95761904D01*
X184333333Y-94952380D01*
X184952380Y-95380952D02*
X184857142Y-95333333D01*
X184809523Y-95285714D01*
X184761904Y-95190476D01*
X184761904Y-95142857D01*
X184809523Y-95047619D01*
X184857142Y-95000000D01*
X184952380Y-94952380D01*
X185142857Y-94952380D01*
X185238095Y-95000000D01*
X185285714Y-95047619D01*
X185333333Y-95142857D01*
X185333333Y-95190476D01*
X185285714Y-95285714D01*
X185238095Y-95333333D01*
X185142857Y-95380952D01*
X184952380Y-95380952D01*
X184857142Y-95428571D01*
X184809523Y-95476190D01*
X184761904Y-95571428D01*
X184761904Y-95761904D01*
X184809523Y-95857142D01*
X184857142Y-95904761D01*
X184952380Y-95952380D01*
X185142857Y-95952380D01*
X185238095Y-95904761D01*
X185285714Y-95857142D01*
X185333333Y-95761904D01*
X185333333Y-95571428D01*
X185285714Y-95476190D01*
X185238095Y-95428571D01*
X185142857Y-95380952D01*
X185904761Y-95380952D02*
X185809523Y-95333333D01*
X185761904Y-95285714D01*
X185714285Y-95190476D01*
X185714285Y-95142857D01*
X185761904Y-95047619D01*
X185809523Y-95000000D01*
X185904761Y-94952380D01*
X186095238Y-94952380D01*
X186190476Y-95000000D01*
X186238095Y-95047619D01*
X186285714Y-95142857D01*
X186285714Y-95190476D01*
X186238095Y-95285714D01*
X186190476Y-95333333D01*
X186095238Y-95380952D01*
X185904761Y-95380952D01*
X185809523Y-95428571D01*
X185761904Y-95476190D01*
X185714285Y-95571428D01*
X185714285Y-95761904D01*
X185761904Y-95857142D01*
X185809523Y-95904761D01*
X185904761Y-95952380D01*
X186095238Y-95952380D01*
X186190476Y-95904761D01*
X186238095Y-95857142D01*
X186285714Y-95761904D01*
X186285714Y-95571428D01*
X186238095Y-95476190D01*
X186190476Y-95428571D01*
X186095238Y-95380952D01*
G04 #@! TO.C,U89*
X183761904Y-104952380D02*
X183761904Y-105761904D01*
X183809523Y-105857142D01*
X183857142Y-105904761D01*
X183952380Y-105952380D01*
X184142857Y-105952380D01*
X184238095Y-105904761D01*
X184285714Y-105857142D01*
X184333333Y-105761904D01*
X184333333Y-104952380D01*
X184952380Y-105380952D02*
X184857142Y-105333333D01*
X184809523Y-105285714D01*
X184761904Y-105190476D01*
X184761904Y-105142857D01*
X184809523Y-105047619D01*
X184857142Y-105000000D01*
X184952380Y-104952380D01*
X185142857Y-104952380D01*
X185238095Y-105000000D01*
X185285714Y-105047619D01*
X185333333Y-105142857D01*
X185333333Y-105190476D01*
X185285714Y-105285714D01*
X185238095Y-105333333D01*
X185142857Y-105380952D01*
X184952380Y-105380952D01*
X184857142Y-105428571D01*
X184809523Y-105476190D01*
X184761904Y-105571428D01*
X184761904Y-105761904D01*
X184809523Y-105857142D01*
X184857142Y-105904761D01*
X184952380Y-105952380D01*
X185142857Y-105952380D01*
X185238095Y-105904761D01*
X185285714Y-105857142D01*
X185333333Y-105761904D01*
X185333333Y-105571428D01*
X185285714Y-105476190D01*
X185238095Y-105428571D01*
X185142857Y-105380952D01*
X185809523Y-105952380D02*
X186000000Y-105952380D01*
X186095238Y-105904761D01*
X186142857Y-105857142D01*
X186238095Y-105714285D01*
X186285714Y-105523809D01*
X186285714Y-105142857D01*
X186238095Y-105047619D01*
X186190476Y-105000000D01*
X186095238Y-104952380D01*
X185904761Y-104952380D01*
X185809523Y-105000000D01*
X185761904Y-105047619D01*
X185714285Y-105142857D01*
X185714285Y-105380952D01*
X185761904Y-105476190D01*
X185809523Y-105523809D01*
X185904761Y-105571428D01*
X186095238Y-105571428D01*
X186190476Y-105523809D01*
X186238095Y-105476190D01*
X186285714Y-105380952D01*
G04 #@! TO.C,U103*
X193285714Y-144952380D02*
X193285714Y-145761904D01*
X193333333Y-145857142D01*
X193380952Y-145904761D01*
X193476190Y-145952380D01*
X193666666Y-145952380D01*
X193761904Y-145904761D01*
X193809523Y-145857142D01*
X193857142Y-145761904D01*
X193857142Y-144952380D01*
X194857142Y-145952380D02*
X194285714Y-145952380D01*
X194571428Y-145952380D02*
X194571428Y-144952380D01*
X194476190Y-145095238D01*
X194380952Y-145190476D01*
X194285714Y-145238095D01*
X195476190Y-144952380D02*
X195571428Y-144952380D01*
X195666666Y-145000000D01*
X195714285Y-145047619D01*
X195761904Y-145142857D01*
X195809523Y-145333333D01*
X195809523Y-145571428D01*
X195761904Y-145761904D01*
X195714285Y-145857142D01*
X195666666Y-145904761D01*
X195571428Y-145952380D01*
X195476190Y-145952380D01*
X195380952Y-145904761D01*
X195333333Y-145857142D01*
X195285714Y-145761904D01*
X195238095Y-145571428D01*
X195238095Y-145333333D01*
X195285714Y-145142857D01*
X195333333Y-145047619D01*
X195380952Y-145000000D01*
X195476190Y-144952380D01*
X196142857Y-144952380D02*
X196761904Y-144952380D01*
X196428571Y-145333333D01*
X196571428Y-145333333D01*
X196666666Y-145380952D01*
X196714285Y-145428571D01*
X196761904Y-145523809D01*
X196761904Y-145761904D01*
X196714285Y-145857142D01*
X196666666Y-145904761D01*
X196571428Y-145952380D01*
X196285714Y-145952380D01*
X196190476Y-145904761D01*
X196142857Y-145857142D01*
G04 #@! TO.C,U92*
X183761904Y-134952380D02*
X183761904Y-135761904D01*
X183809523Y-135857142D01*
X183857142Y-135904761D01*
X183952380Y-135952380D01*
X184142857Y-135952380D01*
X184238095Y-135904761D01*
X184285714Y-135857142D01*
X184333333Y-135761904D01*
X184333333Y-134952380D01*
X184857142Y-135952380D02*
X185047619Y-135952380D01*
X185142857Y-135904761D01*
X185190476Y-135857142D01*
X185285714Y-135714285D01*
X185333333Y-135523809D01*
X185333333Y-135142857D01*
X185285714Y-135047619D01*
X185238095Y-135000000D01*
X185142857Y-134952380D01*
X184952380Y-134952380D01*
X184857142Y-135000000D01*
X184809523Y-135047619D01*
X184761904Y-135142857D01*
X184761904Y-135380952D01*
X184809523Y-135476190D01*
X184857142Y-135523809D01*
X184952380Y-135571428D01*
X185142857Y-135571428D01*
X185238095Y-135523809D01*
X185285714Y-135476190D01*
X185333333Y-135380952D01*
X185714285Y-135047619D02*
X185761904Y-135000000D01*
X185857142Y-134952380D01*
X186095238Y-134952380D01*
X186190476Y-135000000D01*
X186238095Y-135047619D01*
X186285714Y-135142857D01*
X186285714Y-135238095D01*
X186238095Y-135380952D01*
X185666666Y-135952380D01*
X186285714Y-135952380D01*
G04 #@! TO.C,U93*
X183761904Y-144952380D02*
X183761904Y-145761904D01*
X183809523Y-145857142D01*
X183857142Y-145904761D01*
X183952380Y-145952380D01*
X184142857Y-145952380D01*
X184238095Y-145904761D01*
X184285714Y-145857142D01*
X184333333Y-145761904D01*
X184333333Y-144952380D01*
X184857142Y-145952380D02*
X185047619Y-145952380D01*
X185142857Y-145904761D01*
X185190476Y-145857142D01*
X185285714Y-145714285D01*
X185333333Y-145523809D01*
X185333333Y-145142857D01*
X185285714Y-145047619D01*
X185238095Y-145000000D01*
X185142857Y-144952380D01*
X184952380Y-144952380D01*
X184857142Y-145000000D01*
X184809523Y-145047619D01*
X184761904Y-145142857D01*
X184761904Y-145380952D01*
X184809523Y-145476190D01*
X184857142Y-145523809D01*
X184952380Y-145571428D01*
X185142857Y-145571428D01*
X185238095Y-145523809D01*
X185285714Y-145476190D01*
X185333333Y-145380952D01*
X185666666Y-144952380D02*
X186285714Y-144952380D01*
X185952380Y-145333333D01*
X186095238Y-145333333D01*
X186190476Y-145380952D01*
X186238095Y-145428571D01*
X186285714Y-145523809D01*
X186285714Y-145761904D01*
X186238095Y-145857142D01*
X186190476Y-145904761D01*
X186095238Y-145952380D01*
X185809523Y-145952380D01*
X185714285Y-145904761D01*
X185666666Y-145857142D01*
G04 #@! TO.C,U94*
X193761904Y-54952380D02*
X193761904Y-55761904D01*
X193809523Y-55857142D01*
X193857142Y-55904761D01*
X193952380Y-55952380D01*
X194142857Y-55952380D01*
X194238095Y-55904761D01*
X194285714Y-55857142D01*
X194333333Y-55761904D01*
X194333333Y-54952380D01*
X194857142Y-55952380D02*
X195047619Y-55952380D01*
X195142857Y-55904761D01*
X195190476Y-55857142D01*
X195285714Y-55714285D01*
X195333333Y-55523809D01*
X195333333Y-55142857D01*
X195285714Y-55047619D01*
X195238095Y-55000000D01*
X195142857Y-54952380D01*
X194952380Y-54952380D01*
X194857142Y-55000000D01*
X194809523Y-55047619D01*
X194761904Y-55142857D01*
X194761904Y-55380952D01*
X194809523Y-55476190D01*
X194857142Y-55523809D01*
X194952380Y-55571428D01*
X195142857Y-55571428D01*
X195238095Y-55523809D01*
X195285714Y-55476190D01*
X195333333Y-55380952D01*
X196190476Y-55285714D02*
X196190476Y-55952380D01*
X195952380Y-54904761D02*
X195714285Y-55619047D01*
X196333333Y-55619047D01*
G04 #@! TO.C,U95*
X193761904Y-64952380D02*
X193761904Y-65761904D01*
X193809523Y-65857142D01*
X193857142Y-65904761D01*
X193952380Y-65952380D01*
X194142857Y-65952380D01*
X194238095Y-65904761D01*
X194285714Y-65857142D01*
X194333333Y-65761904D01*
X194333333Y-64952380D01*
X194857142Y-65952380D02*
X195047619Y-65952380D01*
X195142857Y-65904761D01*
X195190476Y-65857142D01*
X195285714Y-65714285D01*
X195333333Y-65523809D01*
X195333333Y-65142857D01*
X195285714Y-65047619D01*
X195238095Y-65000000D01*
X195142857Y-64952380D01*
X194952380Y-64952380D01*
X194857142Y-65000000D01*
X194809523Y-65047619D01*
X194761904Y-65142857D01*
X194761904Y-65380952D01*
X194809523Y-65476190D01*
X194857142Y-65523809D01*
X194952380Y-65571428D01*
X195142857Y-65571428D01*
X195238095Y-65523809D01*
X195285714Y-65476190D01*
X195333333Y-65380952D01*
X196238095Y-64952380D02*
X195761904Y-64952380D01*
X195714285Y-65428571D01*
X195761904Y-65380952D01*
X195857142Y-65333333D01*
X196095238Y-65333333D01*
X196190476Y-65380952D01*
X196238095Y-65428571D01*
X196285714Y-65523809D01*
X196285714Y-65761904D01*
X196238095Y-65857142D01*
X196190476Y-65904761D01*
X196095238Y-65952380D01*
X195857142Y-65952380D01*
X195761904Y-65904761D01*
X195714285Y-65857142D01*
G04 #@! TO.C,U96*
X193761904Y-74952380D02*
X193761904Y-75761904D01*
X193809523Y-75857142D01*
X193857142Y-75904761D01*
X193952380Y-75952380D01*
X194142857Y-75952380D01*
X194238095Y-75904761D01*
X194285714Y-75857142D01*
X194333333Y-75761904D01*
X194333333Y-74952380D01*
X194857142Y-75952380D02*
X195047619Y-75952380D01*
X195142857Y-75904761D01*
X195190476Y-75857142D01*
X195285714Y-75714285D01*
X195333333Y-75523809D01*
X195333333Y-75142857D01*
X195285714Y-75047619D01*
X195238095Y-75000000D01*
X195142857Y-74952380D01*
X194952380Y-74952380D01*
X194857142Y-75000000D01*
X194809523Y-75047619D01*
X194761904Y-75142857D01*
X194761904Y-75380952D01*
X194809523Y-75476190D01*
X194857142Y-75523809D01*
X194952380Y-75571428D01*
X195142857Y-75571428D01*
X195238095Y-75523809D01*
X195285714Y-75476190D01*
X195333333Y-75380952D01*
X196190476Y-74952380D02*
X196000000Y-74952380D01*
X195904761Y-75000000D01*
X195857142Y-75047619D01*
X195761904Y-75190476D01*
X195714285Y-75380952D01*
X195714285Y-75761904D01*
X195761904Y-75857142D01*
X195809523Y-75904761D01*
X195904761Y-75952380D01*
X196095238Y-75952380D01*
X196190476Y-75904761D01*
X196238095Y-75857142D01*
X196285714Y-75761904D01*
X196285714Y-75523809D01*
X196238095Y-75428571D01*
X196190476Y-75380952D01*
X196095238Y-75333333D01*
X195904761Y-75333333D01*
X195809523Y-75380952D01*
X195761904Y-75428571D01*
X195714285Y-75523809D01*
G04 #@! TO.C,U97*
X193761904Y-84952380D02*
X193761904Y-85761904D01*
X193809523Y-85857142D01*
X193857142Y-85904761D01*
X193952380Y-85952380D01*
X194142857Y-85952380D01*
X194238095Y-85904761D01*
X194285714Y-85857142D01*
X194333333Y-85761904D01*
X194333333Y-84952380D01*
X194857142Y-85952380D02*
X195047619Y-85952380D01*
X195142857Y-85904761D01*
X195190476Y-85857142D01*
X195285714Y-85714285D01*
X195333333Y-85523809D01*
X195333333Y-85142857D01*
X195285714Y-85047619D01*
X195238095Y-85000000D01*
X195142857Y-84952380D01*
X194952380Y-84952380D01*
X194857142Y-85000000D01*
X194809523Y-85047619D01*
X194761904Y-85142857D01*
X194761904Y-85380952D01*
X194809523Y-85476190D01*
X194857142Y-85523809D01*
X194952380Y-85571428D01*
X195142857Y-85571428D01*
X195238095Y-85523809D01*
X195285714Y-85476190D01*
X195333333Y-85380952D01*
X195666666Y-84952380D02*
X196333333Y-84952380D01*
X195904761Y-85952380D01*
G04 #@! TO.C,U98*
X193761904Y-94952380D02*
X193761904Y-95761904D01*
X193809523Y-95857142D01*
X193857142Y-95904761D01*
X193952380Y-95952380D01*
X194142857Y-95952380D01*
X194238095Y-95904761D01*
X194285714Y-95857142D01*
X194333333Y-95761904D01*
X194333333Y-94952380D01*
X194857142Y-95952380D02*
X195047619Y-95952380D01*
X195142857Y-95904761D01*
X195190476Y-95857142D01*
X195285714Y-95714285D01*
X195333333Y-95523809D01*
X195333333Y-95142857D01*
X195285714Y-95047619D01*
X195238095Y-95000000D01*
X195142857Y-94952380D01*
X194952380Y-94952380D01*
X194857142Y-95000000D01*
X194809523Y-95047619D01*
X194761904Y-95142857D01*
X194761904Y-95380952D01*
X194809523Y-95476190D01*
X194857142Y-95523809D01*
X194952380Y-95571428D01*
X195142857Y-95571428D01*
X195238095Y-95523809D01*
X195285714Y-95476190D01*
X195333333Y-95380952D01*
X195904761Y-95380952D02*
X195809523Y-95333333D01*
X195761904Y-95285714D01*
X195714285Y-95190476D01*
X195714285Y-95142857D01*
X195761904Y-95047619D01*
X195809523Y-95000000D01*
X195904761Y-94952380D01*
X196095238Y-94952380D01*
X196190476Y-95000000D01*
X196238095Y-95047619D01*
X196285714Y-95142857D01*
X196285714Y-95190476D01*
X196238095Y-95285714D01*
X196190476Y-95333333D01*
X196095238Y-95380952D01*
X195904761Y-95380952D01*
X195809523Y-95428571D01*
X195761904Y-95476190D01*
X195714285Y-95571428D01*
X195714285Y-95761904D01*
X195761904Y-95857142D01*
X195809523Y-95904761D01*
X195904761Y-95952380D01*
X196095238Y-95952380D01*
X196190476Y-95904761D01*
X196238095Y-95857142D01*
X196285714Y-95761904D01*
X196285714Y-95571428D01*
X196238095Y-95476190D01*
X196190476Y-95428571D01*
X196095238Y-95380952D01*
G04 #@! TO.C,U99*
X193761904Y-104952380D02*
X193761904Y-105761904D01*
X193809523Y-105857142D01*
X193857142Y-105904761D01*
X193952380Y-105952380D01*
X194142857Y-105952380D01*
X194238095Y-105904761D01*
X194285714Y-105857142D01*
X194333333Y-105761904D01*
X194333333Y-104952380D01*
X194857142Y-105952380D02*
X195047619Y-105952380D01*
X195142857Y-105904761D01*
X195190476Y-105857142D01*
X195285714Y-105714285D01*
X195333333Y-105523809D01*
X195333333Y-105142857D01*
X195285714Y-105047619D01*
X195238095Y-105000000D01*
X195142857Y-104952380D01*
X194952380Y-104952380D01*
X194857142Y-105000000D01*
X194809523Y-105047619D01*
X194761904Y-105142857D01*
X194761904Y-105380952D01*
X194809523Y-105476190D01*
X194857142Y-105523809D01*
X194952380Y-105571428D01*
X195142857Y-105571428D01*
X195238095Y-105523809D01*
X195285714Y-105476190D01*
X195333333Y-105380952D01*
X195809523Y-105952380D02*
X196000000Y-105952380D01*
X196095238Y-105904761D01*
X196142857Y-105857142D01*
X196238095Y-105714285D01*
X196285714Y-105523809D01*
X196285714Y-105142857D01*
X196238095Y-105047619D01*
X196190476Y-105000000D01*
X196095238Y-104952380D01*
X195904761Y-104952380D01*
X195809523Y-105000000D01*
X195761904Y-105047619D01*
X195714285Y-105142857D01*
X195714285Y-105380952D01*
X195761904Y-105476190D01*
X195809523Y-105523809D01*
X195904761Y-105571428D01*
X196095238Y-105571428D01*
X196190476Y-105523809D01*
X196238095Y-105476190D01*
X196285714Y-105380952D01*
G04 #@! TO.C,U100*
X193285714Y-114952380D02*
X193285714Y-115761904D01*
X193333333Y-115857142D01*
X193380952Y-115904761D01*
X193476190Y-115952380D01*
X193666666Y-115952380D01*
X193761904Y-115904761D01*
X193809523Y-115857142D01*
X193857142Y-115761904D01*
X193857142Y-114952380D01*
X194857142Y-115952380D02*
X194285714Y-115952380D01*
X194571428Y-115952380D02*
X194571428Y-114952380D01*
X194476190Y-115095238D01*
X194380952Y-115190476D01*
X194285714Y-115238095D01*
X195476190Y-114952380D02*
X195571428Y-114952380D01*
X195666666Y-115000000D01*
X195714285Y-115047619D01*
X195761904Y-115142857D01*
X195809523Y-115333333D01*
X195809523Y-115571428D01*
X195761904Y-115761904D01*
X195714285Y-115857142D01*
X195666666Y-115904761D01*
X195571428Y-115952380D01*
X195476190Y-115952380D01*
X195380952Y-115904761D01*
X195333333Y-115857142D01*
X195285714Y-115761904D01*
X195238095Y-115571428D01*
X195238095Y-115333333D01*
X195285714Y-115142857D01*
X195333333Y-115047619D01*
X195380952Y-115000000D01*
X195476190Y-114952380D01*
X196428571Y-114952380D02*
X196523809Y-114952380D01*
X196619047Y-115000000D01*
X196666666Y-115047619D01*
X196714285Y-115142857D01*
X196761904Y-115333333D01*
X196761904Y-115571428D01*
X196714285Y-115761904D01*
X196666666Y-115857142D01*
X196619047Y-115904761D01*
X196523809Y-115952380D01*
X196428571Y-115952380D01*
X196333333Y-115904761D01*
X196285714Y-115857142D01*
X196238095Y-115761904D01*
X196190476Y-115571428D01*
X196190476Y-115333333D01*
X196238095Y-115142857D01*
X196285714Y-115047619D01*
X196333333Y-115000000D01*
X196428571Y-114952380D01*
G04 #@! TO.C,U101*
X193285714Y-124952380D02*
X193285714Y-125761904D01*
X193333333Y-125857142D01*
X193380952Y-125904761D01*
X193476190Y-125952380D01*
X193666666Y-125952380D01*
X193761904Y-125904761D01*
X193809523Y-125857142D01*
X193857142Y-125761904D01*
X193857142Y-124952380D01*
X194857142Y-125952380D02*
X194285714Y-125952380D01*
X194571428Y-125952380D02*
X194571428Y-124952380D01*
X194476190Y-125095238D01*
X194380952Y-125190476D01*
X194285714Y-125238095D01*
X195476190Y-124952380D02*
X195571428Y-124952380D01*
X195666666Y-125000000D01*
X195714285Y-125047619D01*
X195761904Y-125142857D01*
X195809523Y-125333333D01*
X195809523Y-125571428D01*
X195761904Y-125761904D01*
X195714285Y-125857142D01*
X195666666Y-125904761D01*
X195571428Y-125952380D01*
X195476190Y-125952380D01*
X195380952Y-125904761D01*
X195333333Y-125857142D01*
X195285714Y-125761904D01*
X195238095Y-125571428D01*
X195238095Y-125333333D01*
X195285714Y-125142857D01*
X195333333Y-125047619D01*
X195380952Y-125000000D01*
X195476190Y-124952380D01*
X196761904Y-125952380D02*
X196190476Y-125952380D01*
X196476190Y-125952380D02*
X196476190Y-124952380D01*
X196380952Y-125095238D01*
X196285714Y-125190476D01*
X196190476Y-125238095D01*
G04 #@! TO.C,U102*
X193285714Y-134952380D02*
X193285714Y-135761904D01*
X193333333Y-135857142D01*
X193380952Y-135904761D01*
X193476190Y-135952380D01*
X193666666Y-135952380D01*
X193761904Y-135904761D01*
X193809523Y-135857142D01*
X193857142Y-135761904D01*
X193857142Y-134952380D01*
X194857142Y-135952380D02*
X194285714Y-135952380D01*
X194571428Y-135952380D02*
X194571428Y-134952380D01*
X194476190Y-135095238D01*
X194380952Y-135190476D01*
X194285714Y-135238095D01*
X195476190Y-134952380D02*
X195571428Y-134952380D01*
X195666666Y-135000000D01*
X195714285Y-135047619D01*
X195761904Y-135142857D01*
X195809523Y-135333333D01*
X195809523Y-135571428D01*
X195761904Y-135761904D01*
X195714285Y-135857142D01*
X195666666Y-135904761D01*
X195571428Y-135952380D01*
X195476190Y-135952380D01*
X195380952Y-135904761D01*
X195333333Y-135857142D01*
X195285714Y-135761904D01*
X195238095Y-135571428D01*
X195238095Y-135333333D01*
X195285714Y-135142857D01*
X195333333Y-135047619D01*
X195380952Y-135000000D01*
X195476190Y-134952380D01*
X196190476Y-135047619D02*
X196238095Y-135000000D01*
X196333333Y-134952380D01*
X196571428Y-134952380D01*
X196666666Y-135000000D01*
X196714285Y-135047619D01*
X196761904Y-135142857D01*
X196761904Y-135238095D01*
X196714285Y-135380952D01*
X196142857Y-135952380D01*
X196761904Y-135952380D01*
G04 #@! TO.C,U90*
X183761904Y-114952380D02*
X183761904Y-115761904D01*
X183809523Y-115857142D01*
X183857142Y-115904761D01*
X183952380Y-115952380D01*
X184142857Y-115952380D01*
X184238095Y-115904761D01*
X184285714Y-115857142D01*
X184333333Y-115761904D01*
X184333333Y-114952380D01*
X184857142Y-115952380D02*
X185047619Y-115952380D01*
X185142857Y-115904761D01*
X185190476Y-115857142D01*
X185285714Y-115714285D01*
X185333333Y-115523809D01*
X185333333Y-115142857D01*
X185285714Y-115047619D01*
X185238095Y-115000000D01*
X185142857Y-114952380D01*
X184952380Y-114952380D01*
X184857142Y-115000000D01*
X184809523Y-115047619D01*
X184761904Y-115142857D01*
X184761904Y-115380952D01*
X184809523Y-115476190D01*
X184857142Y-115523809D01*
X184952380Y-115571428D01*
X185142857Y-115571428D01*
X185238095Y-115523809D01*
X185285714Y-115476190D01*
X185333333Y-115380952D01*
X185952380Y-114952380D02*
X186047619Y-114952380D01*
X186142857Y-115000000D01*
X186190476Y-115047619D01*
X186238095Y-115142857D01*
X186285714Y-115333333D01*
X186285714Y-115571428D01*
X186238095Y-115761904D01*
X186190476Y-115857142D01*
X186142857Y-115904761D01*
X186047619Y-115952380D01*
X185952380Y-115952380D01*
X185857142Y-115904761D01*
X185809523Y-115857142D01*
X185761904Y-115761904D01*
X185714285Y-115571428D01*
X185714285Y-115333333D01*
X185761904Y-115142857D01*
X185809523Y-115047619D01*
X185857142Y-115000000D01*
X185952380Y-114952380D01*
G04 #@! TD*
M02*
